G04 EAGLE Gerber RS-274X export*
G75*
%MOMM*%
%FSLAX34Y34*%
%LPD*%
%INTop Copper*%
%IPPOS*%
%AMOC8*
5,1,8,0,0,1.08239X$1,22.5*%
G01*
%ADD10C,1.320800*%
%ADD11R,1.524000X1.524000*%
%ADD12P,1.649562X8X292.500000*%
%ADD13P,1.649562X8X202.500000*%
%ADD14C,1.575000*%
%ADD15R,1.778000X13.000000*%
%ADD16C,0.756400*%
%ADD17C,0.203200*%
%ADD18C,0.406400*%

G36*
X484505Y120270D02*
X484505Y120270D01*
X484555Y120281D01*
X484606Y120283D01*
X484638Y120301D01*
X484674Y120309D01*
X484713Y120342D01*
X484758Y120366D01*
X484779Y120396D01*
X484807Y120419D01*
X484828Y120466D01*
X484858Y120508D01*
X484866Y120550D01*
X484878Y120578D01*
X484877Y120608D01*
X484885Y120650D01*
X484885Y141832D01*
X485778Y142725D01*
X492379Y142725D01*
X492429Y142736D01*
X492480Y142738D01*
X492512Y142756D01*
X492548Y142764D01*
X492587Y142797D01*
X492632Y142821D01*
X492653Y142851D01*
X492681Y142874D01*
X492702Y142921D01*
X492732Y142963D01*
X492740Y143005D01*
X492752Y143033D01*
X492751Y143063D01*
X492759Y143105D01*
X492759Y225425D01*
X492748Y225475D01*
X492746Y225526D01*
X492728Y225558D01*
X492720Y225594D01*
X492687Y225633D01*
X492663Y225678D01*
X492633Y225699D01*
X492610Y225727D01*
X492563Y225748D01*
X492521Y225778D01*
X492479Y225786D01*
X492451Y225798D01*
X492421Y225797D01*
X492379Y225805D01*
X491512Y225805D01*
X486155Y231162D01*
X486155Y238738D01*
X491512Y244095D01*
X499088Y244095D01*
X499701Y243482D01*
X499744Y243455D01*
X499782Y243420D01*
X499817Y243410D01*
X499848Y243390D01*
X499899Y243385D01*
X499948Y243371D01*
X499984Y243377D01*
X500021Y243374D01*
X500068Y243392D01*
X500118Y243401D01*
X500154Y243425D01*
X500182Y243435D01*
X500203Y243458D01*
X500239Y243482D01*
X505348Y248591D01*
X505388Y248656D01*
X505432Y248718D01*
X505434Y248730D01*
X505439Y248738D01*
X505443Y248775D01*
X505459Y248860D01*
X505459Y332749D01*
X505442Y332823D01*
X505429Y332898D01*
X505422Y332908D01*
X505420Y332918D01*
X505396Y332947D01*
X505348Y333018D01*
X499137Y339229D01*
X499137Y363150D01*
X499120Y363224D01*
X499107Y363299D01*
X499100Y363309D01*
X499098Y363319D01*
X499074Y363348D01*
X499026Y363419D01*
X496343Y366102D01*
X496343Y370498D01*
X499452Y373607D01*
X503848Y373607D01*
X504810Y372645D01*
X504832Y372631D01*
X504848Y372611D01*
X504905Y372586D01*
X504957Y372553D01*
X504983Y372551D01*
X505007Y372540D01*
X505068Y372543D01*
X505130Y372537D01*
X505154Y372546D01*
X505180Y372547D01*
X505234Y372576D01*
X505292Y372598D01*
X505309Y372617D01*
X505332Y372630D01*
X505367Y372680D01*
X505409Y372725D01*
X505417Y372750D01*
X505432Y372771D01*
X505448Y372856D01*
X505459Y372892D01*
X505457Y372902D01*
X505459Y372914D01*
X505459Y385446D01*
X505445Y385508D01*
X505438Y385571D01*
X505425Y385591D01*
X505420Y385615D01*
X505379Y385664D01*
X505345Y385717D01*
X505323Y385732D01*
X505310Y385748D01*
X505275Y385764D01*
X505225Y385797D01*
X503395Y386555D01*
X501109Y388841D01*
X499871Y391829D01*
X499871Y408271D01*
X501109Y411259D01*
X503395Y413545D01*
X506383Y414783D01*
X509617Y414783D01*
X512605Y413545D01*
X514891Y411259D01*
X516129Y408271D01*
X516129Y391829D01*
X514891Y388841D01*
X512605Y386555D01*
X510775Y385797D01*
X510724Y385760D01*
X510668Y385730D01*
X510654Y385710D01*
X510635Y385696D01*
X510605Y385640D01*
X510568Y385588D01*
X510563Y385562D01*
X510553Y385543D01*
X510552Y385505D01*
X510541Y385446D01*
X510541Y348022D01*
X510553Y347968D01*
X510554Y347939D01*
X510562Y347924D01*
X510571Y347873D01*
X510578Y347863D01*
X510580Y347853D01*
X510604Y347824D01*
X510652Y347753D01*
X513307Y345098D01*
X513307Y340702D01*
X510198Y337593D01*
X508877Y337593D01*
X508852Y337587D01*
X508826Y337590D01*
X508769Y337568D01*
X508708Y337554D01*
X508689Y337537D01*
X508664Y337528D01*
X508622Y337483D01*
X508575Y337444D01*
X508564Y337420D01*
X508547Y337401D01*
X508529Y337342D01*
X508504Y337285D01*
X508505Y337260D01*
X508498Y337235D01*
X508508Y337174D01*
X508510Y337112D01*
X508523Y337090D01*
X508527Y337064D01*
X508575Y336993D01*
X508593Y336960D01*
X508601Y336954D01*
X508608Y336944D01*
X510541Y335012D01*
X510541Y246598D01*
X508941Y244998D01*
X503832Y239889D01*
X503805Y239845D01*
X503770Y239808D01*
X503760Y239773D01*
X503740Y239741D01*
X503735Y239691D01*
X503721Y239642D01*
X503727Y239605D01*
X503724Y239569D01*
X503742Y239521D01*
X503751Y239471D01*
X503775Y239436D01*
X503785Y239407D01*
X503808Y239386D01*
X503832Y239351D01*
X504445Y238738D01*
X504445Y231162D01*
X499088Y225805D01*
X498221Y225805D01*
X498171Y225794D01*
X498120Y225792D01*
X498088Y225774D01*
X498052Y225766D01*
X498013Y225733D01*
X497968Y225709D01*
X497947Y225679D01*
X497919Y225656D01*
X497898Y225609D01*
X497868Y225567D01*
X497860Y225525D01*
X497848Y225497D01*
X497849Y225467D01*
X497841Y225425D01*
X497841Y143105D01*
X497852Y143055D01*
X497854Y143004D01*
X497872Y142972D01*
X497880Y142936D01*
X497913Y142897D01*
X497937Y142852D01*
X497967Y142831D01*
X497990Y142803D01*
X498037Y142782D01*
X498079Y142752D01*
X498121Y142744D01*
X498149Y142732D01*
X498179Y142733D01*
X498221Y142725D01*
X504822Y142725D01*
X505715Y141832D01*
X505715Y120650D01*
X505726Y120600D01*
X505728Y120549D01*
X505746Y120517D01*
X505754Y120481D01*
X505787Y120442D01*
X505811Y120397D01*
X505841Y120376D01*
X505864Y120348D01*
X505911Y120327D01*
X505953Y120297D01*
X505995Y120289D01*
X506023Y120277D01*
X506053Y120278D01*
X506095Y120270D01*
X509905Y120270D01*
X509955Y120281D01*
X510006Y120283D01*
X510038Y120301D01*
X510074Y120309D01*
X510113Y120342D01*
X510158Y120366D01*
X510179Y120396D01*
X510207Y120419D01*
X510228Y120466D01*
X510258Y120508D01*
X510266Y120550D01*
X510278Y120578D01*
X510277Y120608D01*
X510285Y120650D01*
X510285Y141832D01*
X511178Y142725D01*
X517779Y142725D01*
X517829Y142736D01*
X517880Y142738D01*
X517912Y142756D01*
X517948Y142764D01*
X517987Y142797D01*
X518032Y142821D01*
X518053Y142851D01*
X518081Y142874D01*
X518102Y142921D01*
X518132Y142963D01*
X518140Y143005D01*
X518152Y143033D01*
X518151Y143063D01*
X518159Y143105D01*
X518159Y225425D01*
X518148Y225475D01*
X518146Y225526D01*
X518128Y225558D01*
X518120Y225594D01*
X518087Y225633D01*
X518063Y225678D01*
X518033Y225699D01*
X518010Y225727D01*
X517963Y225748D01*
X517921Y225778D01*
X517879Y225786D01*
X517851Y225798D01*
X517821Y225797D01*
X517779Y225805D01*
X516912Y225805D01*
X511555Y231162D01*
X511555Y238738D01*
X516912Y244095D01*
X524488Y244095D01*
X525101Y243482D01*
X525144Y243455D01*
X525182Y243420D01*
X525217Y243410D01*
X525248Y243390D01*
X525299Y243385D01*
X525348Y243371D01*
X525384Y243377D01*
X525421Y243374D01*
X525468Y243392D01*
X525518Y243401D01*
X525554Y243425D01*
X525582Y243435D01*
X525603Y243458D01*
X525639Y243482D01*
X530748Y248591D01*
X530788Y248656D01*
X530832Y248718D01*
X530834Y248730D01*
X530839Y248738D01*
X530843Y248775D01*
X530859Y248860D01*
X530859Y337602D01*
X540682Y347425D01*
X540722Y347490D01*
X540766Y347552D01*
X540768Y347564D01*
X540773Y347572D01*
X540777Y347609D01*
X540793Y347694D01*
X540793Y351448D01*
X543902Y354557D01*
X548298Y354557D01*
X551407Y351448D01*
X551407Y347052D01*
X548298Y343943D01*
X544544Y343943D01*
X544470Y343926D01*
X544395Y343913D01*
X544385Y343906D01*
X544375Y343904D01*
X544346Y343880D01*
X544275Y343832D01*
X536052Y335609D01*
X536012Y335544D01*
X535968Y335482D01*
X535966Y335470D01*
X535961Y335462D01*
X535957Y335425D01*
X535941Y335340D01*
X535941Y246598D01*
X534341Y244998D01*
X529232Y239889D01*
X529205Y239845D01*
X529170Y239808D01*
X529160Y239773D01*
X529140Y239741D01*
X529135Y239691D01*
X529121Y239642D01*
X529127Y239605D01*
X529124Y239569D01*
X529142Y239521D01*
X529151Y239471D01*
X529175Y239436D01*
X529185Y239407D01*
X529208Y239386D01*
X529232Y239351D01*
X529845Y238738D01*
X529845Y231162D01*
X524488Y225805D01*
X523621Y225805D01*
X523571Y225794D01*
X523520Y225792D01*
X523488Y225774D01*
X523452Y225766D01*
X523413Y225733D01*
X523368Y225709D01*
X523347Y225679D01*
X523319Y225656D01*
X523298Y225609D01*
X523268Y225567D01*
X523260Y225525D01*
X523248Y225497D01*
X523249Y225467D01*
X523241Y225425D01*
X523241Y143105D01*
X523252Y143055D01*
X523254Y143004D01*
X523272Y142972D01*
X523280Y142936D01*
X523313Y142897D01*
X523337Y142852D01*
X523367Y142831D01*
X523390Y142803D01*
X523437Y142782D01*
X523479Y142752D01*
X523521Y142744D01*
X523549Y142732D01*
X523579Y142733D01*
X523621Y142725D01*
X530222Y142725D01*
X531115Y141832D01*
X531115Y120650D01*
X531126Y120600D01*
X531128Y120549D01*
X531146Y120517D01*
X531154Y120481D01*
X531187Y120442D01*
X531211Y120397D01*
X531241Y120376D01*
X531264Y120348D01*
X531311Y120327D01*
X531353Y120297D01*
X531395Y120289D01*
X531423Y120277D01*
X531453Y120278D01*
X531495Y120270D01*
X535305Y120270D01*
X535355Y120281D01*
X535406Y120283D01*
X535438Y120301D01*
X535474Y120309D01*
X535513Y120342D01*
X535558Y120366D01*
X535579Y120396D01*
X535607Y120419D01*
X535628Y120466D01*
X535658Y120508D01*
X535666Y120550D01*
X535678Y120578D01*
X535677Y120608D01*
X535685Y120650D01*
X535685Y141832D01*
X536578Y142725D01*
X543179Y142725D01*
X543229Y142736D01*
X543280Y142738D01*
X543312Y142756D01*
X543348Y142764D01*
X543387Y142797D01*
X543432Y142821D01*
X543453Y142851D01*
X543481Y142874D01*
X543502Y142921D01*
X543532Y142963D01*
X543540Y143005D01*
X543552Y143033D01*
X543551Y143063D01*
X543559Y143105D01*
X543559Y225425D01*
X543548Y225475D01*
X543546Y225526D01*
X543528Y225558D01*
X543520Y225594D01*
X543487Y225633D01*
X543463Y225678D01*
X543433Y225699D01*
X543410Y225727D01*
X543363Y225748D01*
X543321Y225778D01*
X543279Y225786D01*
X543251Y225798D01*
X543221Y225797D01*
X543179Y225805D01*
X542312Y225805D01*
X536955Y231162D01*
X536955Y238738D01*
X542312Y244095D01*
X549888Y244095D01*
X550501Y243482D01*
X550544Y243455D01*
X550582Y243420D01*
X550617Y243410D01*
X550648Y243390D01*
X550699Y243385D01*
X550748Y243371D01*
X550784Y243377D01*
X550821Y243374D01*
X550868Y243392D01*
X550918Y243401D01*
X550954Y243425D01*
X550982Y243435D01*
X551003Y243458D01*
X551039Y243482D01*
X556148Y248591D01*
X556188Y248656D01*
X556232Y248718D01*
X556234Y248730D01*
X556239Y248738D01*
X556243Y248775D01*
X556259Y248860D01*
X556259Y337778D01*
X556247Y337829D01*
X556246Y337873D01*
X556235Y337893D01*
X556229Y337927D01*
X556222Y337937D01*
X556220Y337947D01*
X556196Y337976D01*
X556165Y338022D01*
X556163Y338026D01*
X556162Y338026D01*
X556148Y338047D01*
X553493Y340702D01*
X553493Y345098D01*
X556602Y348207D01*
X560998Y348207D01*
X564107Y345098D01*
X564107Y340702D01*
X561452Y338047D01*
X561431Y338014D01*
X561419Y338003D01*
X561405Y337972D01*
X561368Y337921D01*
X561366Y337909D01*
X561361Y337900D01*
X561358Y337867D01*
X561348Y337845D01*
X561349Y337819D01*
X561341Y337778D01*
X561341Y246598D01*
X559741Y244998D01*
X554632Y239889D01*
X554605Y239845D01*
X554570Y239808D01*
X554560Y239773D01*
X554540Y239741D01*
X554535Y239691D01*
X554521Y239642D01*
X554527Y239605D01*
X554524Y239569D01*
X554542Y239521D01*
X554551Y239471D01*
X554575Y239436D01*
X554585Y239407D01*
X554608Y239386D01*
X554632Y239351D01*
X555245Y238738D01*
X555245Y231162D01*
X549888Y225805D01*
X549021Y225805D01*
X548971Y225794D01*
X548920Y225792D01*
X548888Y225774D01*
X548852Y225766D01*
X548813Y225733D01*
X548768Y225709D01*
X548747Y225679D01*
X548719Y225656D01*
X548698Y225609D01*
X548668Y225567D01*
X548660Y225525D01*
X548648Y225497D01*
X548649Y225467D01*
X548641Y225425D01*
X548641Y143105D01*
X548652Y143055D01*
X548654Y143004D01*
X548672Y142972D01*
X548680Y142936D01*
X548713Y142897D01*
X548737Y142852D01*
X548767Y142831D01*
X548790Y142803D01*
X548837Y142782D01*
X548879Y142752D01*
X548921Y142744D01*
X548949Y142732D01*
X548979Y142733D01*
X549021Y142725D01*
X555622Y142725D01*
X556515Y141832D01*
X556515Y120650D01*
X556526Y120600D01*
X556528Y120549D01*
X556546Y120517D01*
X556554Y120481D01*
X556587Y120442D01*
X556611Y120397D01*
X556641Y120376D01*
X556664Y120348D01*
X556711Y120327D01*
X556753Y120297D01*
X556795Y120289D01*
X556823Y120277D01*
X556853Y120278D01*
X556895Y120270D01*
X560705Y120270D01*
X560755Y120281D01*
X560806Y120283D01*
X560838Y120301D01*
X560874Y120309D01*
X560913Y120342D01*
X560958Y120366D01*
X560979Y120396D01*
X561007Y120419D01*
X561028Y120466D01*
X561058Y120508D01*
X561066Y120550D01*
X561078Y120578D01*
X561077Y120608D01*
X561085Y120650D01*
X561085Y141832D01*
X561978Y142725D01*
X568579Y142725D01*
X568629Y142736D01*
X568680Y142738D01*
X568712Y142756D01*
X568748Y142764D01*
X568787Y142797D01*
X568832Y142821D01*
X568853Y142851D01*
X568881Y142874D01*
X568902Y142921D01*
X568932Y142963D01*
X568940Y143005D01*
X568952Y143033D01*
X568951Y143063D01*
X568959Y143105D01*
X568959Y225425D01*
X568948Y225475D01*
X568946Y225526D01*
X568928Y225558D01*
X568920Y225594D01*
X568887Y225633D01*
X568863Y225678D01*
X568833Y225699D01*
X568810Y225727D01*
X568763Y225748D01*
X568721Y225778D01*
X568679Y225786D01*
X568651Y225798D01*
X568621Y225797D01*
X568579Y225805D01*
X567712Y225805D01*
X562355Y231162D01*
X562355Y238738D01*
X567712Y244095D01*
X575288Y244095D01*
X575901Y243482D01*
X575944Y243455D01*
X575982Y243420D01*
X576017Y243410D01*
X576048Y243390D01*
X576099Y243385D01*
X576148Y243371D01*
X576184Y243377D01*
X576220Y243374D01*
X576268Y243392D01*
X576318Y243401D01*
X576354Y243425D01*
X576382Y243435D01*
X576403Y243458D01*
X576439Y243482D01*
X581548Y248591D01*
X581588Y248656D01*
X581632Y248718D01*
X581634Y248730D01*
X581639Y248738D01*
X581643Y248775D01*
X581659Y248860D01*
X581659Y332749D01*
X581642Y332823D01*
X581629Y332898D01*
X581622Y332908D01*
X581620Y332918D01*
X581596Y332947D01*
X581548Y333018D01*
X575337Y339229D01*
X575337Y356800D01*
X575325Y356853D01*
X575324Y356886D01*
X575315Y356902D01*
X575307Y356949D01*
X575300Y356959D01*
X575298Y356969D01*
X575274Y356998D01*
X575226Y357069D01*
X572543Y359752D01*
X572543Y364148D01*
X575652Y367257D01*
X580048Y367257D01*
X583157Y364148D01*
X583157Y359752D01*
X580530Y357125D01*
X580490Y357061D01*
X580446Y356999D01*
X580444Y356987D01*
X580439Y356978D01*
X580435Y356941D01*
X580419Y356856D01*
X580419Y341491D01*
X580436Y341417D01*
X580449Y341342D01*
X580456Y341332D01*
X580458Y341323D01*
X580482Y341294D01*
X580530Y341222D01*
X586741Y335012D01*
X586741Y246598D01*
X580032Y239889D01*
X580005Y239845D01*
X579970Y239808D01*
X579960Y239773D01*
X579940Y239741D01*
X579935Y239691D01*
X579921Y239642D01*
X579927Y239605D01*
X579924Y239569D01*
X579942Y239521D01*
X579951Y239471D01*
X579975Y239436D01*
X579985Y239407D01*
X580008Y239386D01*
X580032Y239351D01*
X580645Y238738D01*
X580645Y231162D01*
X575288Y225805D01*
X574421Y225805D01*
X574371Y225794D01*
X574320Y225792D01*
X574288Y225774D01*
X574252Y225766D01*
X574213Y225733D01*
X574168Y225709D01*
X574147Y225679D01*
X574119Y225656D01*
X574098Y225609D01*
X574068Y225567D01*
X574060Y225525D01*
X574048Y225497D01*
X574049Y225467D01*
X574041Y225425D01*
X574041Y143105D01*
X574052Y143055D01*
X574054Y143004D01*
X574072Y142972D01*
X574080Y142936D01*
X574113Y142897D01*
X574137Y142852D01*
X574167Y142831D01*
X574190Y142803D01*
X574237Y142782D01*
X574279Y142752D01*
X574321Y142744D01*
X574349Y142732D01*
X574379Y142733D01*
X574421Y142725D01*
X581022Y142725D01*
X581915Y141832D01*
X581915Y120650D01*
X581926Y120600D01*
X581928Y120549D01*
X581946Y120517D01*
X581954Y120481D01*
X581987Y120442D01*
X582011Y120397D01*
X582041Y120376D01*
X582064Y120348D01*
X582111Y120327D01*
X582153Y120297D01*
X582195Y120289D01*
X582223Y120277D01*
X582253Y120278D01*
X582295Y120270D01*
X586105Y120270D01*
X586155Y120281D01*
X586206Y120283D01*
X586238Y120301D01*
X586274Y120309D01*
X586313Y120342D01*
X586358Y120366D01*
X586379Y120396D01*
X586407Y120419D01*
X586428Y120466D01*
X586458Y120508D01*
X586466Y120550D01*
X586478Y120578D01*
X586477Y120608D01*
X586485Y120650D01*
X586485Y141832D01*
X587378Y142725D01*
X593979Y142725D01*
X594029Y142736D01*
X594080Y142738D01*
X594112Y142756D01*
X594148Y142764D01*
X594187Y142797D01*
X594232Y142821D01*
X594253Y142851D01*
X594281Y142874D01*
X594302Y142921D01*
X594332Y142963D01*
X594340Y143005D01*
X594352Y143033D01*
X594351Y143063D01*
X594359Y143105D01*
X594359Y225425D01*
X594348Y225475D01*
X594346Y225526D01*
X594328Y225558D01*
X594320Y225594D01*
X594287Y225633D01*
X594263Y225678D01*
X594233Y225699D01*
X594210Y225727D01*
X594163Y225748D01*
X594121Y225778D01*
X594079Y225786D01*
X594051Y225798D01*
X594021Y225797D01*
X593979Y225805D01*
X593112Y225805D01*
X587755Y231162D01*
X587755Y238738D01*
X593112Y244095D01*
X600688Y244095D01*
X606045Y238738D01*
X606045Y231162D01*
X600688Y225805D01*
X599821Y225805D01*
X599771Y225794D01*
X599720Y225792D01*
X599688Y225774D01*
X599652Y225766D01*
X599613Y225733D01*
X599568Y225709D01*
X599547Y225679D01*
X599519Y225656D01*
X599498Y225609D01*
X599468Y225567D01*
X599460Y225525D01*
X599448Y225497D01*
X599449Y225467D01*
X599441Y225425D01*
X599441Y143105D01*
X599452Y143055D01*
X599454Y143004D01*
X599472Y142972D01*
X599480Y142936D01*
X599513Y142897D01*
X599537Y142852D01*
X599567Y142831D01*
X599590Y142803D01*
X599637Y142782D01*
X599679Y142752D01*
X599721Y142744D01*
X599749Y142732D01*
X599779Y142733D01*
X599821Y142725D01*
X606422Y142725D01*
X607315Y141832D01*
X607315Y120650D01*
X607326Y120600D01*
X607328Y120549D01*
X607346Y120517D01*
X607354Y120481D01*
X607387Y120442D01*
X607411Y120397D01*
X607441Y120376D01*
X607464Y120348D01*
X607511Y120327D01*
X607553Y120297D01*
X607595Y120289D01*
X607623Y120277D01*
X607653Y120278D01*
X607695Y120270D01*
X611505Y120270D01*
X611555Y120281D01*
X611606Y120283D01*
X611638Y120301D01*
X611674Y120309D01*
X611713Y120342D01*
X611758Y120366D01*
X611779Y120396D01*
X611807Y120419D01*
X611828Y120466D01*
X611858Y120508D01*
X611866Y120550D01*
X611878Y120578D01*
X611877Y120608D01*
X611885Y120650D01*
X611885Y141832D01*
X612778Y142725D01*
X619379Y142725D01*
X619429Y142736D01*
X619480Y142738D01*
X619512Y142756D01*
X619548Y142764D01*
X619587Y142797D01*
X619632Y142821D01*
X619653Y142851D01*
X619681Y142874D01*
X619702Y142921D01*
X619732Y142963D01*
X619740Y143005D01*
X619752Y143033D01*
X619751Y143063D01*
X619759Y143105D01*
X619759Y225425D01*
X619748Y225475D01*
X619746Y225526D01*
X619728Y225558D01*
X619720Y225594D01*
X619687Y225633D01*
X619663Y225678D01*
X619633Y225699D01*
X619610Y225727D01*
X619563Y225748D01*
X619521Y225778D01*
X619479Y225786D01*
X619451Y225798D01*
X619421Y225797D01*
X619379Y225805D01*
X618512Y225805D01*
X613155Y231162D01*
X613155Y238738D01*
X618512Y244095D01*
X626088Y244095D01*
X631445Y238738D01*
X631445Y231162D01*
X626088Y225805D01*
X625221Y225805D01*
X625171Y225794D01*
X625120Y225792D01*
X625088Y225774D01*
X625052Y225766D01*
X625013Y225733D01*
X624968Y225709D01*
X624947Y225679D01*
X624919Y225656D01*
X624898Y225609D01*
X624868Y225567D01*
X624860Y225525D01*
X624848Y225497D01*
X624849Y225467D01*
X624841Y225425D01*
X624841Y143105D01*
X624852Y143055D01*
X624854Y143004D01*
X624872Y142972D01*
X624880Y142936D01*
X624913Y142897D01*
X624937Y142852D01*
X624967Y142831D01*
X624990Y142803D01*
X625037Y142782D01*
X625079Y142752D01*
X625121Y142744D01*
X625149Y142732D01*
X625179Y142733D01*
X625221Y142725D01*
X631822Y142725D01*
X632715Y141832D01*
X632715Y120650D01*
X632726Y120600D01*
X632728Y120549D01*
X632746Y120517D01*
X632754Y120481D01*
X632787Y120442D01*
X632811Y120397D01*
X632841Y120376D01*
X632864Y120348D01*
X632911Y120327D01*
X632953Y120297D01*
X632995Y120289D01*
X633023Y120277D01*
X633053Y120278D01*
X633095Y120270D01*
X635889Y120270D01*
X635939Y120281D01*
X635990Y120283D01*
X636022Y120301D01*
X636058Y120309D01*
X636097Y120342D01*
X636142Y120366D01*
X636163Y120396D01*
X636191Y120419D01*
X636212Y120466D01*
X636242Y120508D01*
X636250Y120550D01*
X636262Y120578D01*
X636261Y120608D01*
X636269Y120650D01*
X636269Y141535D01*
X636442Y142181D01*
X636777Y142760D01*
X637250Y143233D01*
X637829Y143568D01*
X638475Y143741D01*
X646939Y143741D01*
X646939Y120650D01*
X646950Y120600D01*
X646952Y120549D01*
X646970Y120517D01*
X646978Y120481D01*
X647011Y120442D01*
X647035Y120397D01*
X647065Y120376D01*
X647088Y120348D01*
X647135Y120327D01*
X647177Y120297D01*
X647219Y120289D01*
X647247Y120277D01*
X647277Y120278D01*
X647319Y120270D01*
X648081Y120270D01*
X648131Y120281D01*
X648182Y120283D01*
X648214Y120301D01*
X648250Y120309D01*
X648289Y120342D01*
X648334Y120366D01*
X648355Y120396D01*
X648383Y120419D01*
X648404Y120466D01*
X648434Y120508D01*
X648442Y120550D01*
X648454Y120578D01*
X648453Y120608D01*
X648461Y120650D01*
X648461Y143741D01*
X656925Y143741D01*
X657571Y143568D01*
X658150Y143233D01*
X658623Y142760D01*
X658958Y142181D01*
X659131Y141535D01*
X659131Y120650D01*
X659142Y120600D01*
X659144Y120549D01*
X659162Y120517D01*
X659170Y120481D01*
X659203Y120442D01*
X659227Y120397D01*
X659257Y120376D01*
X659280Y120348D01*
X659327Y120327D01*
X659369Y120297D01*
X659411Y120289D01*
X659439Y120277D01*
X659469Y120278D01*
X659511Y120270D01*
X662178Y120270D01*
X662228Y120281D01*
X662279Y120283D01*
X662311Y120301D01*
X662347Y120309D01*
X662386Y120342D01*
X662431Y120366D01*
X662452Y120396D01*
X662480Y120419D01*
X662501Y120466D01*
X662531Y120508D01*
X662539Y120550D01*
X662551Y120578D01*
X662550Y120608D01*
X662558Y120650D01*
X662558Y141797D01*
X664163Y145671D01*
X667129Y148637D01*
X671003Y150242D01*
X822870Y150242D01*
X822883Y150245D01*
X822900Y150243D01*
X824583Y150375D01*
X824617Y150386D01*
X824670Y150393D01*
X827871Y151433D01*
X827904Y151453D01*
X827977Y151487D01*
X830700Y153465D01*
X830726Y153494D01*
X830785Y153550D01*
X832763Y156273D01*
X832778Y156308D01*
X832817Y156379D01*
X833857Y159580D01*
X833860Y159615D01*
X833875Y159667D01*
X834007Y161350D01*
X834005Y161364D01*
X834008Y161380D01*
X834008Y689520D01*
X834005Y689533D01*
X834007Y689550D01*
X833875Y691233D01*
X833864Y691267D01*
X833857Y691320D01*
X832817Y694521D01*
X832797Y694554D01*
X832763Y694627D01*
X830785Y697350D01*
X830776Y697358D01*
X830774Y697362D01*
X830760Y697372D01*
X830756Y697376D01*
X830700Y697435D01*
X827977Y699413D01*
X827942Y699428D01*
X827871Y699467D01*
X824670Y700507D01*
X824635Y700510D01*
X824583Y700525D01*
X822900Y700657D01*
X822886Y700655D01*
X822870Y700658D01*
X68842Y700658D01*
X68817Y700652D01*
X68791Y700655D01*
X68734Y700633D01*
X68674Y700619D01*
X68654Y700602D01*
X68630Y700593D01*
X68588Y700548D01*
X68540Y700509D01*
X68529Y700485D01*
X68512Y700466D01*
X68494Y700407D01*
X68469Y700350D01*
X68470Y700325D01*
X68463Y700300D01*
X68473Y700239D01*
X68476Y700177D01*
X68488Y700155D01*
X68492Y700129D01*
X68541Y700058D01*
X68558Y700025D01*
X68567Y700019D01*
X68573Y700009D01*
X72645Y695938D01*
X72645Y688362D01*
X67288Y683005D01*
X59712Y683005D01*
X54355Y688362D01*
X54355Y695938D01*
X58427Y700009D01*
X58440Y700031D01*
X58460Y700047D01*
X58485Y700104D01*
X58518Y700156D01*
X58520Y700182D01*
X58531Y700206D01*
X58529Y700267D01*
X58535Y700329D01*
X58525Y700353D01*
X58524Y700379D01*
X58495Y700433D01*
X58473Y700491D01*
X58454Y700508D01*
X58442Y700531D01*
X58391Y700566D01*
X58346Y700608D01*
X58321Y700616D01*
X58300Y700631D01*
X58215Y700647D01*
X58180Y700658D01*
X58170Y700656D01*
X58158Y700658D01*
X40730Y700658D01*
X40717Y700655D01*
X40700Y700657D01*
X39017Y700525D01*
X38983Y700514D01*
X38930Y700507D01*
X35729Y699467D01*
X35696Y699447D01*
X35623Y699413D01*
X32900Y697435D01*
X32874Y697406D01*
X32815Y697350D01*
X30837Y694627D01*
X30822Y694592D01*
X30783Y694521D01*
X29743Y691320D01*
X29740Y691285D01*
X29725Y691233D01*
X29593Y689550D01*
X29595Y689536D01*
X29592Y689520D01*
X29592Y161380D01*
X29595Y161367D01*
X29593Y161350D01*
X29725Y159667D01*
X29736Y159633D01*
X29743Y159580D01*
X30783Y156379D01*
X30803Y156346D01*
X30837Y156273D01*
X32815Y153550D01*
X32844Y153524D01*
X32900Y153465D01*
X35623Y151487D01*
X35658Y151472D01*
X35729Y151433D01*
X38930Y150393D01*
X38965Y150390D01*
X39017Y150375D01*
X40700Y150243D01*
X40714Y150245D01*
X40730Y150242D01*
X192597Y150242D01*
X196471Y148637D01*
X199437Y145671D01*
X201042Y141797D01*
X201042Y120650D01*
X201053Y120600D01*
X201055Y120549D01*
X201073Y120517D01*
X201081Y120481D01*
X201114Y120442D01*
X201138Y120397D01*
X201168Y120376D01*
X201191Y120348D01*
X201238Y120327D01*
X201280Y120297D01*
X201322Y120289D01*
X201350Y120277D01*
X201380Y120278D01*
X201422Y120270D01*
X205105Y120270D01*
X205155Y120281D01*
X205206Y120283D01*
X205238Y120301D01*
X205274Y120309D01*
X205313Y120342D01*
X205358Y120366D01*
X205379Y120396D01*
X205407Y120419D01*
X205428Y120466D01*
X205458Y120508D01*
X205466Y120550D01*
X205478Y120578D01*
X205477Y120608D01*
X205485Y120650D01*
X205485Y141832D01*
X206378Y142725D01*
X212979Y142725D01*
X213029Y142736D01*
X213080Y142738D01*
X213112Y142756D01*
X213148Y142764D01*
X213187Y142797D01*
X213232Y142821D01*
X213253Y142851D01*
X213281Y142874D01*
X213302Y142921D01*
X213332Y142963D01*
X213340Y143005D01*
X213352Y143033D01*
X213351Y143063D01*
X213359Y143105D01*
X213359Y225425D01*
X213348Y225475D01*
X213346Y225526D01*
X213328Y225558D01*
X213320Y225594D01*
X213287Y225633D01*
X213263Y225678D01*
X213233Y225699D01*
X213210Y225727D01*
X213163Y225748D01*
X213121Y225778D01*
X213079Y225786D01*
X213051Y225798D01*
X213021Y225797D01*
X212979Y225805D01*
X212112Y225805D01*
X206755Y231162D01*
X206755Y238738D01*
X212112Y244095D01*
X219688Y244095D01*
X225045Y238738D01*
X225045Y231162D01*
X219688Y225805D01*
X218821Y225805D01*
X218771Y225794D01*
X218720Y225792D01*
X218688Y225774D01*
X218652Y225766D01*
X218613Y225733D01*
X218568Y225709D01*
X218547Y225679D01*
X218519Y225656D01*
X218498Y225609D01*
X218468Y225567D01*
X218460Y225525D01*
X218448Y225497D01*
X218449Y225467D01*
X218441Y225425D01*
X218441Y143105D01*
X218452Y143055D01*
X218454Y143004D01*
X218472Y142972D01*
X218480Y142936D01*
X218513Y142897D01*
X218537Y142852D01*
X218567Y142831D01*
X218590Y142803D01*
X218637Y142782D01*
X218679Y142752D01*
X218721Y142744D01*
X218749Y142732D01*
X218779Y142733D01*
X218821Y142725D01*
X225422Y142725D01*
X226315Y141832D01*
X226315Y120650D01*
X226326Y120600D01*
X226328Y120549D01*
X226346Y120517D01*
X226354Y120481D01*
X226387Y120442D01*
X226411Y120397D01*
X226441Y120376D01*
X226464Y120348D01*
X226511Y120327D01*
X226553Y120297D01*
X226595Y120289D01*
X226623Y120277D01*
X226653Y120278D01*
X226695Y120270D01*
X230505Y120270D01*
X230555Y120281D01*
X230606Y120283D01*
X230638Y120301D01*
X230674Y120309D01*
X230713Y120342D01*
X230758Y120366D01*
X230779Y120396D01*
X230807Y120419D01*
X230828Y120466D01*
X230858Y120508D01*
X230866Y120550D01*
X230878Y120578D01*
X230877Y120608D01*
X230885Y120650D01*
X230885Y141832D01*
X231778Y142725D01*
X238379Y142725D01*
X238429Y142736D01*
X238480Y142738D01*
X238512Y142756D01*
X238548Y142764D01*
X238587Y142797D01*
X238632Y142821D01*
X238653Y142851D01*
X238681Y142874D01*
X238702Y142921D01*
X238732Y142963D01*
X238740Y143005D01*
X238752Y143033D01*
X238751Y143063D01*
X238759Y143105D01*
X238759Y225425D01*
X238748Y225475D01*
X238746Y225526D01*
X238728Y225558D01*
X238720Y225594D01*
X238687Y225633D01*
X238663Y225678D01*
X238633Y225699D01*
X238610Y225727D01*
X238563Y225748D01*
X238521Y225778D01*
X238479Y225786D01*
X238451Y225798D01*
X238421Y225797D01*
X238379Y225805D01*
X237512Y225805D01*
X232155Y231162D01*
X232155Y238738D01*
X237512Y244095D01*
X245088Y244095D01*
X250445Y238738D01*
X250445Y231162D01*
X245088Y225805D01*
X244221Y225805D01*
X244171Y225794D01*
X244120Y225792D01*
X244088Y225774D01*
X244052Y225766D01*
X244013Y225733D01*
X243968Y225709D01*
X243947Y225679D01*
X243919Y225656D01*
X243898Y225609D01*
X243868Y225567D01*
X243860Y225525D01*
X243848Y225497D01*
X243849Y225467D01*
X243841Y225425D01*
X243841Y143105D01*
X243852Y143055D01*
X243854Y143004D01*
X243872Y142972D01*
X243880Y142936D01*
X243913Y142897D01*
X243937Y142852D01*
X243967Y142831D01*
X243990Y142803D01*
X244037Y142782D01*
X244079Y142752D01*
X244121Y142744D01*
X244149Y142732D01*
X244179Y142733D01*
X244221Y142725D01*
X250822Y142725D01*
X251715Y141832D01*
X251715Y120650D01*
X251726Y120600D01*
X251728Y120549D01*
X251746Y120517D01*
X251754Y120481D01*
X251787Y120442D01*
X251811Y120397D01*
X251841Y120376D01*
X251864Y120348D01*
X251911Y120327D01*
X251953Y120297D01*
X251995Y120289D01*
X252023Y120277D01*
X252053Y120278D01*
X252095Y120270D01*
X255905Y120270D01*
X255955Y120281D01*
X256006Y120283D01*
X256038Y120301D01*
X256074Y120309D01*
X256113Y120342D01*
X256158Y120366D01*
X256179Y120396D01*
X256207Y120419D01*
X256228Y120466D01*
X256258Y120508D01*
X256266Y120550D01*
X256278Y120578D01*
X256277Y120608D01*
X256285Y120650D01*
X256285Y141832D01*
X257178Y142725D01*
X263779Y142725D01*
X263829Y142736D01*
X263880Y142738D01*
X263912Y142756D01*
X263948Y142764D01*
X263987Y142797D01*
X264032Y142821D01*
X264053Y142851D01*
X264081Y142874D01*
X264102Y142921D01*
X264132Y142963D01*
X264140Y143005D01*
X264152Y143033D01*
X264151Y143063D01*
X264159Y143105D01*
X264159Y225425D01*
X264148Y225475D01*
X264146Y225526D01*
X264128Y225558D01*
X264120Y225594D01*
X264087Y225633D01*
X264063Y225678D01*
X264033Y225699D01*
X264010Y225727D01*
X263963Y225748D01*
X263921Y225778D01*
X263879Y225786D01*
X263851Y225798D01*
X263821Y225797D01*
X263779Y225805D01*
X262912Y225805D01*
X257555Y231162D01*
X257555Y238738D01*
X262912Y244095D01*
X270488Y244095D01*
X275845Y238738D01*
X275845Y231162D01*
X270488Y225805D01*
X269621Y225805D01*
X269571Y225794D01*
X269520Y225792D01*
X269488Y225774D01*
X269452Y225766D01*
X269413Y225733D01*
X269368Y225709D01*
X269347Y225679D01*
X269319Y225656D01*
X269298Y225609D01*
X269268Y225567D01*
X269260Y225525D01*
X269248Y225497D01*
X269249Y225467D01*
X269241Y225425D01*
X269241Y143105D01*
X269252Y143055D01*
X269254Y143004D01*
X269272Y142972D01*
X269280Y142936D01*
X269313Y142897D01*
X269337Y142852D01*
X269367Y142831D01*
X269390Y142803D01*
X269437Y142782D01*
X269479Y142752D01*
X269521Y142744D01*
X269549Y142732D01*
X269579Y142733D01*
X269621Y142725D01*
X276222Y142725D01*
X277115Y141832D01*
X277115Y120650D01*
X277126Y120600D01*
X277128Y120549D01*
X277146Y120517D01*
X277154Y120481D01*
X277187Y120442D01*
X277211Y120397D01*
X277241Y120376D01*
X277264Y120348D01*
X277311Y120327D01*
X277353Y120297D01*
X277395Y120289D01*
X277423Y120277D01*
X277453Y120278D01*
X277495Y120270D01*
X281305Y120270D01*
X281355Y120281D01*
X281406Y120283D01*
X281438Y120301D01*
X281474Y120309D01*
X281513Y120342D01*
X281558Y120366D01*
X281579Y120396D01*
X281607Y120419D01*
X281628Y120466D01*
X281658Y120508D01*
X281666Y120550D01*
X281678Y120578D01*
X281677Y120608D01*
X281685Y120650D01*
X281685Y141832D01*
X282578Y142725D01*
X289179Y142725D01*
X289229Y142736D01*
X289280Y142738D01*
X289312Y142756D01*
X289348Y142764D01*
X289387Y142797D01*
X289432Y142821D01*
X289453Y142851D01*
X289481Y142874D01*
X289502Y142921D01*
X289532Y142963D01*
X289540Y143005D01*
X289552Y143033D01*
X289551Y143063D01*
X289559Y143105D01*
X289559Y225425D01*
X289548Y225475D01*
X289546Y225526D01*
X289528Y225558D01*
X289520Y225594D01*
X289487Y225633D01*
X289463Y225678D01*
X289433Y225699D01*
X289410Y225727D01*
X289363Y225748D01*
X289321Y225778D01*
X289279Y225786D01*
X289251Y225798D01*
X289221Y225797D01*
X289179Y225805D01*
X288312Y225805D01*
X282955Y231162D01*
X282955Y238738D01*
X288312Y244095D01*
X295888Y244095D01*
X296501Y243482D01*
X296544Y243455D01*
X296582Y243420D01*
X296617Y243410D01*
X296648Y243390D01*
X296699Y243385D01*
X296748Y243371D01*
X296784Y243377D01*
X296820Y243374D01*
X296868Y243392D01*
X296918Y243401D01*
X296954Y243425D01*
X296982Y243435D01*
X297003Y243458D01*
X297039Y243482D01*
X302148Y248591D01*
X302188Y248656D01*
X302232Y248718D01*
X302234Y248730D01*
X302239Y248738D01*
X302243Y248775D01*
X302259Y248860D01*
X302259Y445728D01*
X302242Y445802D01*
X302229Y445877D01*
X302222Y445887D01*
X302220Y445897D01*
X302196Y445926D01*
X302148Y445997D01*
X299493Y448652D01*
X299493Y453048D01*
X302602Y456157D01*
X306998Y456157D01*
X310107Y453048D01*
X310107Y448652D01*
X307452Y445997D01*
X307412Y445933D01*
X307368Y445871D01*
X307366Y445859D01*
X307361Y445850D01*
X307357Y445813D01*
X307341Y445728D01*
X307341Y246598D01*
X300632Y239889D01*
X300605Y239845D01*
X300570Y239808D01*
X300560Y239773D01*
X300540Y239741D01*
X300535Y239691D01*
X300521Y239642D01*
X300527Y239605D01*
X300524Y239569D01*
X300542Y239521D01*
X300551Y239471D01*
X300575Y239436D01*
X300585Y239407D01*
X300608Y239386D01*
X300632Y239351D01*
X301245Y238738D01*
X301245Y231162D01*
X295888Y225805D01*
X295021Y225805D01*
X294971Y225794D01*
X294920Y225792D01*
X294888Y225774D01*
X294852Y225766D01*
X294813Y225733D01*
X294768Y225709D01*
X294747Y225679D01*
X294719Y225656D01*
X294698Y225609D01*
X294668Y225567D01*
X294660Y225525D01*
X294648Y225497D01*
X294649Y225467D01*
X294641Y225425D01*
X294641Y143105D01*
X294652Y143055D01*
X294654Y143004D01*
X294672Y142972D01*
X294680Y142936D01*
X294713Y142897D01*
X294737Y142852D01*
X294767Y142831D01*
X294790Y142803D01*
X294837Y142782D01*
X294879Y142752D01*
X294921Y142744D01*
X294949Y142732D01*
X294979Y142733D01*
X295021Y142725D01*
X301622Y142725D01*
X302515Y141832D01*
X302515Y120650D01*
X302526Y120600D01*
X302528Y120549D01*
X302546Y120517D01*
X302554Y120481D01*
X302587Y120442D01*
X302611Y120397D01*
X302641Y120376D01*
X302664Y120348D01*
X302711Y120327D01*
X302753Y120297D01*
X302795Y120289D01*
X302823Y120277D01*
X302853Y120278D01*
X302895Y120270D01*
X306705Y120270D01*
X306755Y120281D01*
X306806Y120283D01*
X306838Y120301D01*
X306874Y120309D01*
X306913Y120342D01*
X306958Y120366D01*
X306979Y120396D01*
X307007Y120419D01*
X307028Y120466D01*
X307058Y120508D01*
X307066Y120550D01*
X307078Y120578D01*
X307077Y120608D01*
X307085Y120650D01*
X307085Y141832D01*
X307978Y142725D01*
X314579Y142725D01*
X314629Y142736D01*
X314680Y142738D01*
X314712Y142756D01*
X314748Y142764D01*
X314787Y142797D01*
X314832Y142821D01*
X314853Y142851D01*
X314881Y142874D01*
X314902Y142921D01*
X314932Y142963D01*
X314940Y143005D01*
X314952Y143033D01*
X314951Y143063D01*
X314959Y143105D01*
X314959Y225425D01*
X314948Y225475D01*
X314946Y225526D01*
X314928Y225558D01*
X314920Y225594D01*
X314887Y225633D01*
X314863Y225678D01*
X314833Y225699D01*
X314810Y225727D01*
X314763Y225748D01*
X314721Y225778D01*
X314679Y225786D01*
X314651Y225798D01*
X314621Y225797D01*
X314579Y225805D01*
X313712Y225805D01*
X308355Y231162D01*
X308355Y238738D01*
X313712Y244095D01*
X321288Y244095D01*
X321901Y243482D01*
X321944Y243455D01*
X321982Y243420D01*
X322017Y243410D01*
X322048Y243390D01*
X322099Y243385D01*
X322148Y243371D01*
X322184Y243377D01*
X322220Y243374D01*
X322268Y243392D01*
X322318Y243401D01*
X322354Y243425D01*
X322382Y243435D01*
X322403Y243458D01*
X322439Y243482D01*
X327548Y248591D01*
X327588Y248656D01*
X327632Y248718D01*
X327634Y248730D01*
X327639Y248738D01*
X327643Y248775D01*
X327659Y248860D01*
X327659Y414486D01*
X327653Y414512D01*
X327656Y414537D01*
X327634Y414595D01*
X327620Y414655D01*
X327603Y414675D01*
X327594Y414699D01*
X327549Y414741D01*
X327510Y414789D01*
X327486Y414799D01*
X327467Y414817D01*
X327408Y414834D01*
X327351Y414860D01*
X327326Y414859D01*
X327301Y414866D01*
X327240Y414855D01*
X327178Y414853D01*
X327156Y414841D01*
X327130Y414836D01*
X327059Y414788D01*
X327026Y414770D01*
X327020Y414762D01*
X327010Y414755D01*
X326502Y414247D01*
X326462Y414183D01*
X326418Y414121D01*
X326416Y414109D01*
X326411Y414100D01*
X326407Y414063D01*
X326391Y413978D01*
X326391Y405348D01*
X325740Y404697D01*
X325700Y404632D01*
X325656Y404570D01*
X325654Y404558D01*
X325649Y404550D01*
X325645Y404513D01*
X325629Y404428D01*
X325629Y391829D01*
X324391Y388841D01*
X322105Y386555D01*
X319117Y385317D01*
X315883Y385317D01*
X312895Y386555D01*
X310609Y388841D01*
X309371Y391829D01*
X309371Y408271D01*
X310609Y411259D01*
X312895Y413545D01*
X315883Y414783D01*
X319117Y414783D01*
X319989Y414421D01*
X320002Y414419D01*
X320013Y414412D01*
X320087Y414405D01*
X320160Y414393D01*
X320173Y414397D01*
X320185Y414396D01*
X320255Y414422D01*
X320326Y414444D01*
X320335Y414453D01*
X320347Y414458D01*
X320398Y414512D01*
X320452Y414563D01*
X320456Y414575D01*
X320465Y414585D01*
X320486Y414656D01*
X320512Y414725D01*
X320511Y414738D01*
X320514Y414751D01*
X320502Y414824D01*
X320494Y414898D01*
X320487Y414909D01*
X320485Y414921D01*
X320404Y415042D01*
X318543Y416902D01*
X318543Y421298D01*
X321652Y424407D01*
X326048Y424407D01*
X327010Y423445D01*
X327032Y423431D01*
X327048Y423411D01*
X327105Y423386D01*
X327157Y423353D01*
X327183Y423351D01*
X327207Y423340D01*
X327268Y423343D01*
X327330Y423337D01*
X327354Y423346D01*
X327380Y423347D01*
X327434Y423376D01*
X327492Y423398D01*
X327509Y423417D01*
X327532Y423430D01*
X327567Y423480D01*
X327609Y423525D01*
X327617Y423550D01*
X327632Y423571D01*
X327648Y423656D01*
X327659Y423692D01*
X327657Y423702D01*
X327659Y423714D01*
X327659Y464778D01*
X327648Y464828D01*
X327646Y464877D01*
X327634Y464899D01*
X327629Y464927D01*
X327622Y464937D01*
X327620Y464947D01*
X327596Y464976D01*
X327575Y465007D01*
X327563Y465029D01*
X327558Y465033D01*
X327548Y465047D01*
X324893Y467702D01*
X324893Y472098D01*
X328002Y475207D01*
X332398Y475207D01*
X335507Y472098D01*
X335507Y467702D01*
X332852Y465047D01*
X332836Y465021D01*
X332819Y465007D01*
X332800Y464966D01*
X332768Y464921D01*
X332766Y464909D01*
X332761Y464900D01*
X332758Y464872D01*
X332748Y464849D01*
X332749Y464820D01*
X332741Y464778D01*
X332741Y246598D01*
X326032Y239889D01*
X326005Y239845D01*
X325970Y239808D01*
X325960Y239773D01*
X325940Y239741D01*
X325935Y239691D01*
X325921Y239642D01*
X325927Y239605D01*
X325924Y239569D01*
X325942Y239521D01*
X325951Y239471D01*
X325975Y239436D01*
X325985Y239407D01*
X326008Y239386D01*
X326032Y239351D01*
X326645Y238738D01*
X326645Y231162D01*
X321288Y225805D01*
X320421Y225805D01*
X320371Y225794D01*
X320320Y225792D01*
X320288Y225774D01*
X320252Y225766D01*
X320213Y225733D01*
X320168Y225709D01*
X320147Y225679D01*
X320119Y225656D01*
X320098Y225609D01*
X320068Y225567D01*
X320060Y225525D01*
X320048Y225497D01*
X320049Y225467D01*
X320041Y225425D01*
X320041Y143105D01*
X320052Y143055D01*
X320054Y143004D01*
X320072Y142972D01*
X320080Y142936D01*
X320113Y142897D01*
X320137Y142852D01*
X320167Y142831D01*
X320190Y142803D01*
X320237Y142782D01*
X320279Y142752D01*
X320321Y142744D01*
X320349Y142732D01*
X320379Y142733D01*
X320421Y142725D01*
X327022Y142725D01*
X327915Y141832D01*
X327915Y120650D01*
X327926Y120600D01*
X327928Y120549D01*
X327946Y120517D01*
X327954Y120481D01*
X327987Y120442D01*
X328011Y120397D01*
X328041Y120376D01*
X328064Y120348D01*
X328111Y120327D01*
X328153Y120297D01*
X328195Y120289D01*
X328223Y120277D01*
X328253Y120278D01*
X328295Y120270D01*
X332105Y120270D01*
X332155Y120281D01*
X332206Y120283D01*
X332238Y120301D01*
X332274Y120309D01*
X332313Y120342D01*
X332358Y120366D01*
X332379Y120396D01*
X332407Y120419D01*
X332428Y120466D01*
X332458Y120508D01*
X332466Y120550D01*
X332478Y120578D01*
X332477Y120608D01*
X332485Y120650D01*
X332485Y141832D01*
X333378Y142725D01*
X339979Y142725D01*
X340029Y142736D01*
X340080Y142738D01*
X340112Y142756D01*
X340148Y142764D01*
X340187Y142797D01*
X340232Y142821D01*
X340253Y142851D01*
X340281Y142874D01*
X340302Y142921D01*
X340332Y142963D01*
X340340Y143005D01*
X340352Y143033D01*
X340351Y143063D01*
X340359Y143105D01*
X340359Y225425D01*
X340348Y225475D01*
X340346Y225526D01*
X340328Y225558D01*
X340320Y225594D01*
X340287Y225633D01*
X340263Y225678D01*
X340233Y225699D01*
X340210Y225727D01*
X340163Y225748D01*
X340121Y225778D01*
X340079Y225786D01*
X340051Y225798D01*
X340021Y225797D01*
X339979Y225805D01*
X339112Y225805D01*
X333755Y231162D01*
X333755Y238738D01*
X339112Y244095D01*
X346688Y244095D01*
X347301Y243482D01*
X347344Y243455D01*
X347382Y243420D01*
X347417Y243410D01*
X347448Y243390D01*
X347499Y243385D01*
X347548Y243371D01*
X347584Y243377D01*
X347621Y243374D01*
X347668Y243392D01*
X347718Y243401D01*
X347754Y243425D01*
X347782Y243435D01*
X347803Y243458D01*
X347839Y243482D01*
X352948Y248591D01*
X352988Y248656D01*
X353032Y248718D01*
X353034Y248730D01*
X353039Y248738D01*
X353043Y248775D01*
X353059Y248860D01*
X353059Y471128D01*
X353042Y471202D01*
X353029Y471277D01*
X353022Y471287D01*
X353020Y471297D01*
X352996Y471326D01*
X352948Y471397D01*
X350293Y474052D01*
X350293Y478448D01*
X353402Y481557D01*
X357798Y481557D01*
X360907Y478448D01*
X360907Y474052D01*
X358252Y471397D01*
X358212Y471333D01*
X358168Y471271D01*
X358166Y471259D01*
X358161Y471250D01*
X358157Y471213D01*
X358141Y471128D01*
X358141Y246598D01*
X356541Y244998D01*
X351432Y239889D01*
X351405Y239845D01*
X351370Y239808D01*
X351360Y239773D01*
X351340Y239741D01*
X351335Y239691D01*
X351321Y239642D01*
X351327Y239605D01*
X351324Y239569D01*
X351342Y239521D01*
X351351Y239471D01*
X351375Y239436D01*
X351385Y239407D01*
X351408Y239386D01*
X351432Y239351D01*
X352045Y238738D01*
X352045Y231162D01*
X346688Y225805D01*
X345821Y225805D01*
X345771Y225794D01*
X345720Y225792D01*
X345688Y225774D01*
X345652Y225766D01*
X345613Y225733D01*
X345568Y225709D01*
X345547Y225679D01*
X345519Y225656D01*
X345498Y225609D01*
X345468Y225567D01*
X345460Y225525D01*
X345448Y225497D01*
X345449Y225467D01*
X345441Y225425D01*
X345441Y143105D01*
X345452Y143055D01*
X345454Y143004D01*
X345472Y142972D01*
X345480Y142936D01*
X345513Y142897D01*
X345537Y142852D01*
X345567Y142831D01*
X345590Y142803D01*
X345637Y142782D01*
X345679Y142752D01*
X345721Y142744D01*
X345749Y142732D01*
X345779Y142733D01*
X345821Y142725D01*
X352422Y142725D01*
X353315Y141832D01*
X353315Y120650D01*
X353326Y120600D01*
X353328Y120549D01*
X353346Y120517D01*
X353354Y120481D01*
X353387Y120442D01*
X353411Y120397D01*
X353441Y120376D01*
X353464Y120348D01*
X353511Y120327D01*
X353553Y120297D01*
X353595Y120289D01*
X353623Y120277D01*
X353653Y120278D01*
X353695Y120270D01*
X357505Y120270D01*
X357555Y120281D01*
X357606Y120283D01*
X357638Y120301D01*
X357674Y120309D01*
X357713Y120342D01*
X357758Y120366D01*
X357779Y120396D01*
X357807Y120419D01*
X357828Y120466D01*
X357858Y120508D01*
X357866Y120550D01*
X357878Y120578D01*
X357877Y120608D01*
X357885Y120650D01*
X357885Y141832D01*
X358778Y142725D01*
X365379Y142725D01*
X365429Y142736D01*
X365480Y142738D01*
X365512Y142756D01*
X365548Y142764D01*
X365587Y142797D01*
X365632Y142821D01*
X365653Y142851D01*
X365681Y142874D01*
X365702Y142921D01*
X365732Y142963D01*
X365740Y143005D01*
X365752Y143033D01*
X365751Y143063D01*
X365759Y143105D01*
X365759Y225425D01*
X365748Y225475D01*
X365746Y225526D01*
X365728Y225558D01*
X365720Y225594D01*
X365687Y225633D01*
X365663Y225678D01*
X365633Y225699D01*
X365610Y225727D01*
X365563Y225748D01*
X365521Y225778D01*
X365479Y225786D01*
X365451Y225798D01*
X365421Y225797D01*
X365379Y225805D01*
X364512Y225805D01*
X359155Y231162D01*
X359155Y238738D01*
X364512Y244095D01*
X372088Y244095D01*
X372701Y243482D01*
X372744Y243455D01*
X372782Y243420D01*
X372817Y243410D01*
X372848Y243390D01*
X372899Y243385D01*
X372948Y243371D01*
X372984Y243377D01*
X373021Y243374D01*
X373068Y243392D01*
X373118Y243401D01*
X373154Y243425D01*
X373182Y243435D01*
X373203Y243458D01*
X373239Y243482D01*
X378348Y248591D01*
X378388Y248656D01*
X378432Y248718D01*
X378434Y248730D01*
X378439Y248738D01*
X378443Y248775D01*
X378459Y248860D01*
X378459Y337750D01*
X378442Y337824D01*
X378429Y337899D01*
X378422Y337909D01*
X378420Y337919D01*
X378396Y337948D01*
X378348Y338019D01*
X375693Y340674D01*
X375693Y345070D01*
X378802Y348179D01*
X383198Y348179D01*
X386307Y345070D01*
X386307Y340674D01*
X383652Y338019D01*
X383644Y338005D01*
X383641Y338003D01*
X383638Y337996D01*
X383612Y337955D01*
X383568Y337893D01*
X383566Y337881D01*
X383561Y337872D01*
X383557Y337835D01*
X383541Y337750D01*
X383541Y246598D01*
X376832Y239889D01*
X376805Y239845D01*
X376770Y239808D01*
X376760Y239773D01*
X376740Y239741D01*
X376735Y239691D01*
X376721Y239642D01*
X376727Y239605D01*
X376724Y239569D01*
X376742Y239521D01*
X376751Y239471D01*
X376775Y239436D01*
X376785Y239407D01*
X376808Y239386D01*
X376832Y239351D01*
X377445Y238738D01*
X377445Y231162D01*
X372088Y225805D01*
X371221Y225805D01*
X371171Y225794D01*
X371120Y225792D01*
X371088Y225774D01*
X371052Y225766D01*
X371013Y225733D01*
X370968Y225709D01*
X370947Y225679D01*
X370919Y225656D01*
X370898Y225609D01*
X370868Y225567D01*
X370860Y225525D01*
X370848Y225497D01*
X370849Y225467D01*
X370841Y225425D01*
X370841Y143105D01*
X370852Y143055D01*
X370854Y143004D01*
X370872Y142972D01*
X370880Y142936D01*
X370913Y142897D01*
X370937Y142852D01*
X370967Y142831D01*
X370990Y142803D01*
X371037Y142782D01*
X371079Y142752D01*
X371121Y142744D01*
X371149Y142732D01*
X371179Y142733D01*
X371221Y142725D01*
X377822Y142725D01*
X378715Y141832D01*
X378715Y120650D01*
X378726Y120600D01*
X378728Y120549D01*
X378746Y120517D01*
X378754Y120481D01*
X378787Y120442D01*
X378811Y120397D01*
X378841Y120376D01*
X378864Y120348D01*
X378911Y120327D01*
X378953Y120297D01*
X378995Y120289D01*
X379023Y120277D01*
X379053Y120278D01*
X379095Y120270D01*
X382905Y120270D01*
X382955Y120281D01*
X383006Y120283D01*
X383038Y120301D01*
X383074Y120309D01*
X383113Y120342D01*
X383158Y120366D01*
X383179Y120396D01*
X383207Y120419D01*
X383228Y120466D01*
X383258Y120508D01*
X383266Y120550D01*
X383278Y120578D01*
X383277Y120608D01*
X383285Y120650D01*
X383285Y141832D01*
X384178Y142725D01*
X390779Y142725D01*
X390829Y142736D01*
X390880Y142738D01*
X390912Y142756D01*
X390948Y142764D01*
X390987Y142797D01*
X391032Y142821D01*
X391053Y142851D01*
X391081Y142874D01*
X391102Y142921D01*
X391132Y142963D01*
X391140Y143005D01*
X391152Y143033D01*
X391151Y143063D01*
X391159Y143105D01*
X391159Y225425D01*
X391148Y225475D01*
X391146Y225526D01*
X391128Y225558D01*
X391120Y225594D01*
X391087Y225633D01*
X391063Y225678D01*
X391033Y225699D01*
X391010Y225727D01*
X390963Y225748D01*
X390921Y225778D01*
X390879Y225786D01*
X390851Y225798D01*
X390821Y225797D01*
X390779Y225805D01*
X389912Y225805D01*
X384555Y231162D01*
X384555Y238738D01*
X389912Y244095D01*
X397488Y244095D01*
X398101Y243482D01*
X398144Y243455D01*
X398182Y243420D01*
X398217Y243410D01*
X398248Y243390D01*
X398299Y243385D01*
X398348Y243371D01*
X398384Y243377D01*
X398421Y243374D01*
X398468Y243392D01*
X398518Y243401D01*
X398554Y243425D01*
X398582Y243435D01*
X398603Y243458D01*
X398639Y243482D01*
X403748Y248591D01*
X403788Y248656D01*
X403832Y248718D01*
X403834Y248730D01*
X403839Y248738D01*
X403843Y248775D01*
X403859Y248860D01*
X403859Y477478D01*
X403842Y477552D01*
X403829Y477627D01*
X403822Y477637D01*
X403820Y477647D01*
X403796Y477676D01*
X403748Y477747D01*
X401093Y480402D01*
X401093Y484798D01*
X404202Y487907D01*
X408598Y487907D01*
X411707Y484798D01*
X411707Y480402D01*
X409052Y477747D01*
X409012Y477683D01*
X408968Y477621D01*
X408966Y477609D01*
X408961Y477600D01*
X408957Y477563D01*
X408941Y477478D01*
X408941Y246598D01*
X407341Y244998D01*
X402232Y239889D01*
X402205Y239845D01*
X402170Y239808D01*
X402160Y239773D01*
X402140Y239741D01*
X402135Y239691D01*
X402121Y239642D01*
X402127Y239605D01*
X402124Y239569D01*
X402142Y239521D01*
X402151Y239471D01*
X402175Y239436D01*
X402185Y239407D01*
X402208Y239386D01*
X402232Y239351D01*
X402845Y238738D01*
X402845Y231162D01*
X397488Y225805D01*
X396621Y225805D01*
X396571Y225794D01*
X396520Y225792D01*
X396488Y225774D01*
X396452Y225766D01*
X396413Y225733D01*
X396368Y225709D01*
X396347Y225679D01*
X396319Y225656D01*
X396298Y225609D01*
X396268Y225567D01*
X396260Y225525D01*
X396248Y225497D01*
X396249Y225467D01*
X396241Y225425D01*
X396241Y143105D01*
X396252Y143055D01*
X396254Y143004D01*
X396272Y142972D01*
X396280Y142936D01*
X396313Y142897D01*
X396337Y142852D01*
X396367Y142831D01*
X396390Y142803D01*
X396437Y142782D01*
X396479Y142752D01*
X396521Y142744D01*
X396549Y142732D01*
X396579Y142733D01*
X396621Y142725D01*
X403222Y142725D01*
X404115Y141832D01*
X404115Y120650D01*
X404126Y120600D01*
X404128Y120549D01*
X404146Y120517D01*
X404154Y120481D01*
X404187Y120442D01*
X404211Y120397D01*
X404241Y120376D01*
X404264Y120348D01*
X404311Y120327D01*
X404353Y120297D01*
X404395Y120289D01*
X404423Y120277D01*
X404453Y120278D01*
X404495Y120270D01*
X408305Y120270D01*
X408355Y120281D01*
X408406Y120283D01*
X408438Y120301D01*
X408474Y120309D01*
X408513Y120342D01*
X408558Y120366D01*
X408579Y120396D01*
X408607Y120419D01*
X408628Y120466D01*
X408658Y120508D01*
X408666Y120550D01*
X408678Y120578D01*
X408677Y120608D01*
X408685Y120650D01*
X408685Y141832D01*
X409578Y142725D01*
X416179Y142725D01*
X416229Y142736D01*
X416280Y142738D01*
X416312Y142756D01*
X416348Y142764D01*
X416387Y142797D01*
X416432Y142821D01*
X416453Y142851D01*
X416481Y142874D01*
X416502Y142921D01*
X416532Y142963D01*
X416540Y143005D01*
X416552Y143033D01*
X416551Y143063D01*
X416559Y143105D01*
X416559Y225425D01*
X416548Y225475D01*
X416546Y225526D01*
X416528Y225558D01*
X416520Y225594D01*
X416487Y225633D01*
X416463Y225678D01*
X416433Y225699D01*
X416410Y225727D01*
X416363Y225748D01*
X416321Y225778D01*
X416279Y225786D01*
X416251Y225798D01*
X416221Y225797D01*
X416179Y225805D01*
X415312Y225805D01*
X409955Y231162D01*
X409955Y238738D01*
X415312Y244095D01*
X422888Y244095D01*
X423501Y243482D01*
X423544Y243455D01*
X423582Y243420D01*
X423617Y243410D01*
X423648Y243390D01*
X423699Y243385D01*
X423748Y243371D01*
X423784Y243377D01*
X423821Y243374D01*
X423868Y243392D01*
X423918Y243401D01*
X423954Y243425D01*
X423982Y243435D01*
X424003Y243458D01*
X424039Y243482D01*
X429148Y248591D01*
X429188Y248656D01*
X429232Y248718D01*
X429234Y248730D01*
X429239Y248738D01*
X429243Y248775D01*
X429259Y248860D01*
X429259Y344128D01*
X429242Y344202D01*
X429229Y344277D01*
X429222Y344287D01*
X429220Y344297D01*
X429196Y344326D01*
X429148Y344397D01*
X426493Y347052D01*
X426493Y351448D01*
X429602Y354557D01*
X433998Y354557D01*
X437107Y351448D01*
X437107Y347052D01*
X434452Y344397D01*
X434412Y344333D01*
X434368Y344271D01*
X434366Y344259D01*
X434361Y344250D01*
X434357Y344213D01*
X434341Y344128D01*
X434341Y246598D01*
X427632Y239889D01*
X427605Y239845D01*
X427570Y239808D01*
X427560Y239773D01*
X427540Y239741D01*
X427535Y239691D01*
X427521Y239642D01*
X427527Y239605D01*
X427524Y239569D01*
X427542Y239521D01*
X427551Y239471D01*
X427575Y239436D01*
X427585Y239407D01*
X427608Y239386D01*
X427632Y239351D01*
X428245Y238738D01*
X428245Y231162D01*
X422888Y225805D01*
X422021Y225805D01*
X421971Y225794D01*
X421920Y225792D01*
X421888Y225774D01*
X421852Y225766D01*
X421813Y225733D01*
X421768Y225709D01*
X421747Y225679D01*
X421719Y225656D01*
X421698Y225609D01*
X421668Y225567D01*
X421660Y225525D01*
X421648Y225497D01*
X421649Y225467D01*
X421641Y225425D01*
X421641Y143105D01*
X421652Y143055D01*
X421654Y143004D01*
X421672Y142972D01*
X421680Y142936D01*
X421713Y142897D01*
X421737Y142852D01*
X421767Y142831D01*
X421790Y142803D01*
X421837Y142782D01*
X421879Y142752D01*
X421921Y142744D01*
X421949Y142732D01*
X421979Y142733D01*
X422021Y142725D01*
X428622Y142725D01*
X429515Y141832D01*
X429515Y120650D01*
X429526Y120600D01*
X429528Y120549D01*
X429546Y120517D01*
X429554Y120481D01*
X429587Y120442D01*
X429611Y120397D01*
X429641Y120376D01*
X429664Y120348D01*
X429711Y120327D01*
X429753Y120297D01*
X429795Y120289D01*
X429823Y120277D01*
X429853Y120278D01*
X429895Y120270D01*
X433705Y120270D01*
X433755Y120281D01*
X433806Y120283D01*
X433838Y120301D01*
X433874Y120309D01*
X433913Y120342D01*
X433958Y120366D01*
X433979Y120396D01*
X434007Y120419D01*
X434028Y120466D01*
X434058Y120508D01*
X434066Y120550D01*
X434078Y120578D01*
X434077Y120608D01*
X434085Y120650D01*
X434085Y141832D01*
X434978Y142725D01*
X441579Y142725D01*
X441629Y142736D01*
X441680Y142738D01*
X441712Y142756D01*
X441748Y142764D01*
X441787Y142797D01*
X441832Y142821D01*
X441853Y142851D01*
X441881Y142874D01*
X441902Y142921D01*
X441932Y142963D01*
X441940Y143005D01*
X441952Y143033D01*
X441951Y143063D01*
X441959Y143105D01*
X441959Y225425D01*
X441948Y225475D01*
X441946Y225526D01*
X441928Y225558D01*
X441920Y225594D01*
X441887Y225633D01*
X441863Y225678D01*
X441833Y225699D01*
X441810Y225727D01*
X441763Y225748D01*
X441721Y225778D01*
X441679Y225786D01*
X441651Y225798D01*
X441621Y225797D01*
X441579Y225805D01*
X440712Y225805D01*
X435355Y231162D01*
X435355Y238738D01*
X440712Y244095D01*
X448288Y244095D01*
X448901Y243482D01*
X448944Y243455D01*
X448982Y243420D01*
X449017Y243410D01*
X449048Y243390D01*
X449099Y243385D01*
X449148Y243371D01*
X449184Y243377D01*
X449220Y243374D01*
X449268Y243392D01*
X449318Y243401D01*
X449354Y243425D01*
X449382Y243435D01*
X449403Y243458D01*
X449439Y243482D01*
X454548Y248591D01*
X454588Y248656D01*
X454632Y248718D01*
X454634Y248730D01*
X454639Y248738D01*
X454643Y248775D01*
X454659Y248860D01*
X454659Y350478D01*
X454642Y350552D01*
X454629Y350627D01*
X454622Y350637D01*
X454620Y350647D01*
X454596Y350676D01*
X454548Y350747D01*
X451893Y353402D01*
X451893Y357798D01*
X455002Y360907D01*
X459398Y360907D01*
X462507Y357798D01*
X462507Y353402D01*
X459852Y350747D01*
X459812Y350683D01*
X459768Y350621D01*
X459766Y350609D01*
X459761Y350600D01*
X459757Y350563D01*
X459741Y350478D01*
X459741Y246598D01*
X453032Y239889D01*
X453005Y239845D01*
X452970Y239808D01*
X452960Y239773D01*
X452940Y239741D01*
X452935Y239691D01*
X452921Y239642D01*
X452927Y239605D01*
X452924Y239569D01*
X452942Y239521D01*
X452951Y239471D01*
X452975Y239436D01*
X452985Y239407D01*
X453008Y239386D01*
X453032Y239351D01*
X453645Y238738D01*
X453645Y231162D01*
X448288Y225805D01*
X447421Y225805D01*
X447371Y225794D01*
X447320Y225792D01*
X447288Y225774D01*
X447252Y225766D01*
X447213Y225733D01*
X447168Y225709D01*
X447147Y225679D01*
X447119Y225656D01*
X447098Y225609D01*
X447068Y225567D01*
X447060Y225525D01*
X447048Y225497D01*
X447049Y225467D01*
X447041Y225425D01*
X447041Y143105D01*
X447052Y143055D01*
X447054Y143004D01*
X447072Y142972D01*
X447080Y142936D01*
X447113Y142897D01*
X447137Y142852D01*
X447167Y142831D01*
X447190Y142803D01*
X447237Y142782D01*
X447279Y142752D01*
X447321Y142744D01*
X447349Y142732D01*
X447379Y142733D01*
X447421Y142725D01*
X454022Y142725D01*
X454915Y141832D01*
X454915Y120650D01*
X454926Y120600D01*
X454928Y120549D01*
X454946Y120517D01*
X454954Y120481D01*
X454987Y120442D01*
X455011Y120397D01*
X455041Y120376D01*
X455064Y120348D01*
X455111Y120327D01*
X455153Y120297D01*
X455195Y120289D01*
X455223Y120277D01*
X455253Y120278D01*
X455295Y120270D01*
X459105Y120270D01*
X459155Y120281D01*
X459206Y120283D01*
X459238Y120301D01*
X459274Y120309D01*
X459313Y120342D01*
X459358Y120366D01*
X459379Y120396D01*
X459407Y120419D01*
X459428Y120466D01*
X459458Y120508D01*
X459466Y120550D01*
X459478Y120578D01*
X459477Y120608D01*
X459485Y120650D01*
X459485Y141832D01*
X460378Y142725D01*
X466979Y142725D01*
X467029Y142736D01*
X467080Y142738D01*
X467112Y142756D01*
X467148Y142764D01*
X467187Y142797D01*
X467232Y142821D01*
X467253Y142851D01*
X467281Y142874D01*
X467302Y142921D01*
X467332Y142963D01*
X467340Y143005D01*
X467352Y143033D01*
X467351Y143063D01*
X467359Y143105D01*
X467359Y225425D01*
X467348Y225475D01*
X467346Y225526D01*
X467328Y225558D01*
X467320Y225594D01*
X467287Y225633D01*
X467263Y225678D01*
X467233Y225699D01*
X467210Y225727D01*
X467163Y225748D01*
X467121Y225778D01*
X467079Y225786D01*
X467051Y225798D01*
X467021Y225797D01*
X466979Y225805D01*
X466112Y225805D01*
X460755Y231162D01*
X460755Y238738D01*
X466112Y244095D01*
X473688Y244095D01*
X474301Y243482D01*
X474344Y243455D01*
X474382Y243420D01*
X474417Y243410D01*
X474448Y243390D01*
X474499Y243385D01*
X474548Y243371D01*
X474584Y243377D01*
X474620Y243374D01*
X474668Y243392D01*
X474718Y243401D01*
X474754Y243425D01*
X474782Y243435D01*
X474803Y243458D01*
X474839Y243482D01*
X479948Y248591D01*
X479988Y248656D01*
X480032Y248718D01*
X480034Y248730D01*
X480039Y248738D01*
X480043Y248775D01*
X480059Y248860D01*
X480059Y369528D01*
X480042Y369602D01*
X480029Y369677D01*
X480022Y369687D01*
X480020Y369697D01*
X479996Y369726D01*
X479948Y369797D01*
X477293Y372452D01*
X477293Y376848D01*
X480402Y379957D01*
X484798Y379957D01*
X487907Y376848D01*
X487907Y372452D01*
X485252Y369797D01*
X485212Y369733D01*
X485168Y369671D01*
X485166Y369659D01*
X485161Y369650D01*
X485157Y369613D01*
X485141Y369528D01*
X485141Y246598D01*
X478432Y239889D01*
X478405Y239845D01*
X478370Y239808D01*
X478360Y239773D01*
X478340Y239741D01*
X478335Y239691D01*
X478321Y239642D01*
X478327Y239605D01*
X478324Y239569D01*
X478342Y239521D01*
X478351Y239471D01*
X478375Y239436D01*
X478385Y239407D01*
X478408Y239386D01*
X478432Y239351D01*
X479045Y238738D01*
X479045Y231162D01*
X473688Y225805D01*
X472821Y225805D01*
X472771Y225794D01*
X472720Y225792D01*
X472688Y225774D01*
X472652Y225766D01*
X472613Y225733D01*
X472568Y225709D01*
X472547Y225679D01*
X472519Y225656D01*
X472498Y225609D01*
X472468Y225567D01*
X472460Y225525D01*
X472448Y225497D01*
X472449Y225467D01*
X472441Y225425D01*
X472441Y143105D01*
X472452Y143055D01*
X472454Y143004D01*
X472472Y142972D01*
X472480Y142936D01*
X472513Y142897D01*
X472537Y142852D01*
X472567Y142831D01*
X472590Y142803D01*
X472637Y142782D01*
X472679Y142752D01*
X472721Y142744D01*
X472749Y142732D01*
X472779Y142733D01*
X472821Y142725D01*
X479422Y142725D01*
X480315Y141832D01*
X480315Y120650D01*
X480326Y120600D01*
X480328Y120549D01*
X480346Y120517D01*
X480354Y120481D01*
X480387Y120442D01*
X480411Y120397D01*
X480441Y120376D01*
X480464Y120348D01*
X480511Y120327D01*
X480553Y120297D01*
X480595Y120289D01*
X480623Y120277D01*
X480653Y120278D01*
X480695Y120270D01*
X484505Y120270D01*
G37*
%LPC*%
G36*
X415312Y251205D02*
X415312Y251205D01*
X409955Y256562D01*
X409955Y264138D01*
X415400Y269582D01*
X415416Y269591D01*
X415437Y269621D01*
X415465Y269644D01*
X415486Y269691D01*
X415516Y269733D01*
X415524Y269775D01*
X415536Y269803D01*
X415535Y269833D01*
X415543Y269875D01*
X415543Y553923D01*
X417627Y556007D01*
X423291Y556007D01*
X423341Y556018D01*
X423392Y556020D01*
X423424Y556038D01*
X423460Y556046D01*
X423499Y556079D01*
X423544Y556103D01*
X423565Y556133D01*
X423593Y556156D01*
X423614Y556203D01*
X423644Y556245D01*
X423652Y556287D01*
X423664Y556315D01*
X423663Y556342D01*
X423664Y556344D01*
X423664Y556350D01*
X423671Y556387D01*
X423671Y560671D01*
X424909Y563659D01*
X427195Y565945D01*
X428009Y566282D01*
X428060Y566319D01*
X428116Y566349D01*
X428130Y566369D01*
X428149Y566383D01*
X428179Y566439D01*
X428216Y566491D01*
X428221Y566518D01*
X428231Y566536D01*
X428232Y566574D01*
X428243Y566633D01*
X428243Y599144D01*
X428226Y599218D01*
X428213Y599293D01*
X428206Y599303D01*
X428204Y599313D01*
X428180Y599342D01*
X428132Y599413D01*
X426493Y601052D01*
X426493Y605448D01*
X429602Y608557D01*
X433998Y608557D01*
X437107Y605448D01*
X437107Y601052D01*
X435468Y599413D01*
X435428Y599349D01*
X435384Y599287D01*
X435382Y599275D01*
X435377Y599266D01*
X435373Y599229D01*
X435357Y599144D01*
X435357Y566633D01*
X435371Y566572D01*
X435378Y566508D01*
X435391Y566488D01*
X435396Y566465D01*
X435437Y566416D01*
X435471Y566362D01*
X435493Y566347D01*
X435506Y566331D01*
X435541Y566316D01*
X435591Y566282D01*
X436405Y565945D01*
X438691Y563659D01*
X439929Y560671D01*
X439929Y544229D01*
X438691Y541241D01*
X436405Y538955D01*
X433417Y537717D01*
X430183Y537717D01*
X427195Y538955D01*
X424909Y541241D01*
X423671Y544229D01*
X423671Y548513D01*
X423660Y548563D01*
X423658Y548614D01*
X423640Y548646D01*
X423632Y548682D01*
X423599Y548721D01*
X423575Y548766D01*
X423545Y548787D01*
X423522Y548815D01*
X423475Y548836D01*
X423433Y548866D01*
X423391Y548874D01*
X423363Y548886D01*
X423333Y548885D01*
X423291Y548893D01*
X423037Y548893D01*
X422987Y548882D01*
X422936Y548880D01*
X422904Y548862D01*
X422868Y548854D01*
X422829Y548821D01*
X422784Y548797D01*
X422763Y548767D01*
X422735Y548744D01*
X422714Y548697D01*
X422684Y548655D01*
X422676Y548613D01*
X422664Y548585D01*
X422665Y548555D01*
X422657Y548513D01*
X422657Y410388D01*
X422660Y410375D01*
X422658Y410363D01*
X422669Y410324D01*
X422670Y410300D01*
X422683Y410277D01*
X422696Y410219D01*
X422704Y410209D01*
X422708Y410197D01*
X422751Y410152D01*
X422753Y410148D01*
X422758Y410144D01*
X422759Y410143D01*
X422806Y410086D01*
X422818Y410080D01*
X422827Y410071D01*
X422897Y410045D01*
X422965Y410015D01*
X422977Y410015D01*
X422990Y410011D01*
X423064Y410019D01*
X423138Y410021D01*
X423149Y410028D01*
X423162Y410029D01*
X423210Y410060D01*
X423211Y410060D01*
X423212Y410061D01*
X423225Y410069D01*
X423290Y410104D01*
X423297Y410115D01*
X423308Y410122D01*
X423335Y410162D01*
X423345Y410170D01*
X423354Y410190D01*
X423388Y410243D01*
X423696Y410986D01*
X424697Y412483D01*
X425971Y413757D01*
X427468Y414758D01*
X429133Y415447D01*
X430899Y415799D01*
X431039Y415799D01*
X431039Y400431D01*
X431050Y400381D01*
X431052Y400330D01*
X431070Y400298D01*
X431078Y400262D01*
X431111Y400223D01*
X431135Y400178D01*
X431165Y400157D01*
X431188Y400129D01*
X431235Y400108D01*
X431277Y400079D01*
X431319Y400070D01*
X431347Y400058D01*
X431377Y400059D01*
X431419Y400051D01*
X431801Y400051D01*
X431801Y400049D01*
X431419Y400049D01*
X431369Y400037D01*
X431318Y400036D01*
X431286Y400018D01*
X431250Y400010D01*
X431211Y399977D01*
X431166Y399953D01*
X431145Y399923D01*
X431117Y399899D01*
X431096Y399853D01*
X431066Y399811D01*
X431058Y399769D01*
X431046Y399741D01*
X431047Y399711D01*
X431039Y399669D01*
X431039Y384301D01*
X430899Y384301D01*
X429133Y384653D01*
X427468Y385342D01*
X425971Y386343D01*
X424697Y387617D01*
X423696Y389114D01*
X423388Y389857D01*
X423381Y389868D01*
X423378Y389881D01*
X423331Y389938D01*
X423287Y389998D01*
X423276Y390004D01*
X423268Y390014D01*
X423200Y390045D01*
X423134Y390079D01*
X423121Y390080D01*
X423109Y390085D01*
X423035Y390082D01*
X422961Y390084D01*
X422949Y390079D01*
X422936Y390079D01*
X422871Y390043D01*
X422804Y390012D01*
X422795Y390002D01*
X422784Y389996D01*
X422742Y389935D01*
X422695Y389877D01*
X422692Y389865D01*
X422684Y389854D01*
X422657Y389712D01*
X422657Y269875D01*
X422668Y269825D01*
X422670Y269774D01*
X422688Y269742D01*
X422696Y269706D01*
X422729Y269667D01*
X422753Y269622D01*
X422778Y269604D01*
X422790Y269593D01*
X422806Y269573D01*
X422813Y269570D01*
X428245Y264138D01*
X428245Y256562D01*
X422888Y251205D01*
X415312Y251205D01*
G37*
%LPD*%
%LPC*%
G36*
X163483Y385317D02*
X163483Y385317D01*
X160495Y386555D01*
X158209Y388841D01*
X156971Y391829D01*
X156971Y408271D01*
X158209Y411259D01*
X160495Y413545D01*
X162325Y414303D01*
X162376Y414340D01*
X162432Y414370D01*
X162446Y414390D01*
X162465Y414404D01*
X162495Y414460D01*
X162532Y414512D01*
X162537Y414538D01*
X162547Y414557D01*
X162548Y414595D01*
X162559Y414654D01*
X162559Y531704D01*
X162547Y531755D01*
X162546Y531801D01*
X162534Y531822D01*
X162529Y531853D01*
X162522Y531863D01*
X162520Y531873D01*
X162496Y531902D01*
X162469Y531942D01*
X162463Y531953D01*
X162460Y531955D01*
X162448Y531973D01*
X153415Y541006D01*
X153415Y563894D01*
X162448Y572927D01*
X162488Y572991D01*
X162532Y573053D01*
X162534Y573065D01*
X162539Y573074D01*
X162543Y573111D01*
X162559Y573196D01*
X162559Y687028D01*
X162542Y687102D01*
X162529Y687177D01*
X162522Y687187D01*
X162520Y687197D01*
X162496Y687226D01*
X162448Y687297D01*
X159793Y689952D01*
X159793Y694348D01*
X162902Y697457D01*
X167298Y697457D01*
X170407Y694348D01*
X170407Y689952D01*
X167752Y687297D01*
X167712Y687233D01*
X167668Y687171D01*
X167666Y687159D01*
X167661Y687150D01*
X167657Y687113D01*
X167641Y687028D01*
X167641Y570933D01*
X166041Y569334D01*
X164539Y567832D01*
X164526Y567810D01*
X164506Y567794D01*
X164481Y567737D01*
X164448Y567685D01*
X164446Y567659D01*
X164435Y567635D01*
X164437Y567574D01*
X164431Y567512D01*
X164441Y567488D01*
X164442Y567462D01*
X164471Y567408D01*
X164493Y567350D01*
X164512Y567333D01*
X164524Y567310D01*
X164575Y567275D01*
X164620Y567233D01*
X164645Y567225D01*
X164666Y567210D01*
X164751Y567194D01*
X164786Y567183D01*
X164796Y567185D01*
X164808Y567183D01*
X166717Y567183D01*
X169705Y565945D01*
X171991Y563659D01*
X173229Y560671D01*
X173229Y544229D01*
X171991Y541241D01*
X169705Y538955D01*
X166717Y537717D01*
X164808Y537717D01*
X164783Y537711D01*
X164757Y537714D01*
X164700Y537692D01*
X164640Y537678D01*
X164620Y537661D01*
X164596Y537652D01*
X164554Y537607D01*
X164506Y537568D01*
X164495Y537544D01*
X164478Y537525D01*
X164460Y537466D01*
X164435Y537409D01*
X164436Y537384D01*
X164429Y537359D01*
X164439Y537298D01*
X164442Y537236D01*
X164454Y537214D01*
X164458Y537188D01*
X164507Y537117D01*
X164524Y537084D01*
X164532Y537078D01*
X164539Y537068D01*
X167641Y533967D01*
X167641Y414654D01*
X167655Y414592D01*
X167662Y414529D01*
X167675Y414509D01*
X167680Y414485D01*
X167721Y414436D01*
X167755Y414383D01*
X167777Y414368D01*
X167790Y414352D01*
X167825Y414336D01*
X167875Y414303D01*
X169705Y413545D01*
X171991Y411259D01*
X173229Y408271D01*
X173229Y391829D01*
X171991Y388841D01*
X169705Y386555D01*
X166717Y385317D01*
X163483Y385317D01*
G37*
%LPD*%
%LPC*%
G36*
X188883Y385317D02*
X188883Y385317D01*
X185895Y386555D01*
X183609Y388841D01*
X182371Y391829D01*
X182371Y408271D01*
X183609Y411259D01*
X185895Y413545D01*
X187725Y414303D01*
X187776Y414340D01*
X187832Y414370D01*
X187846Y414390D01*
X187865Y414404D01*
X187895Y414460D01*
X187932Y414512D01*
X187937Y414538D01*
X187947Y414557D01*
X187948Y414595D01*
X187959Y414654D01*
X187959Y531704D01*
X187947Y531755D01*
X187946Y531801D01*
X187934Y531822D01*
X187929Y531853D01*
X187922Y531863D01*
X187920Y531873D01*
X187896Y531902D01*
X187869Y531942D01*
X187863Y531953D01*
X187860Y531955D01*
X187848Y531973D01*
X178815Y541006D01*
X178815Y563894D01*
X187848Y572927D01*
X187888Y572991D01*
X187932Y573053D01*
X187934Y573065D01*
X187939Y573074D01*
X187943Y573111D01*
X187959Y573196D01*
X187959Y661628D01*
X187942Y661702D01*
X187929Y661777D01*
X187922Y661787D01*
X187920Y661797D01*
X187896Y661826D01*
X187848Y661897D01*
X185193Y664552D01*
X185193Y668948D01*
X188302Y672057D01*
X192698Y672057D01*
X195807Y668948D01*
X195807Y664552D01*
X193152Y661897D01*
X193112Y661833D01*
X193068Y661771D01*
X193066Y661759D01*
X193061Y661750D01*
X193057Y661713D01*
X193041Y661628D01*
X193041Y570933D01*
X191441Y569334D01*
X189939Y567832D01*
X189926Y567810D01*
X189906Y567794D01*
X189881Y567737D01*
X189848Y567685D01*
X189846Y567659D01*
X189835Y567635D01*
X189837Y567574D01*
X189831Y567512D01*
X189841Y567488D01*
X189842Y567462D01*
X189871Y567408D01*
X189893Y567350D01*
X189912Y567333D01*
X189924Y567310D01*
X189975Y567275D01*
X190020Y567233D01*
X190045Y567225D01*
X190066Y567210D01*
X190151Y567194D01*
X190186Y567183D01*
X190196Y567185D01*
X190208Y567183D01*
X192117Y567183D01*
X195105Y565945D01*
X197391Y563659D01*
X198629Y560671D01*
X198629Y544229D01*
X197391Y541241D01*
X195105Y538955D01*
X192117Y537717D01*
X190208Y537717D01*
X190183Y537711D01*
X190157Y537714D01*
X190100Y537692D01*
X190040Y537678D01*
X190020Y537661D01*
X189996Y537652D01*
X189954Y537607D01*
X189906Y537568D01*
X189895Y537544D01*
X189878Y537525D01*
X189860Y537466D01*
X189835Y537409D01*
X189836Y537384D01*
X189829Y537359D01*
X189839Y537298D01*
X189842Y537236D01*
X189854Y537214D01*
X189858Y537188D01*
X189907Y537117D01*
X189924Y537084D01*
X189932Y537078D01*
X189939Y537068D01*
X193041Y533967D01*
X193041Y414654D01*
X193055Y414592D01*
X193062Y414529D01*
X193075Y414509D01*
X193080Y414485D01*
X193121Y414436D01*
X193155Y414383D01*
X193177Y414368D01*
X193190Y414352D01*
X193225Y414336D01*
X193275Y414303D01*
X195105Y413545D01*
X197391Y411259D01*
X198629Y408271D01*
X198629Y391829D01*
X197391Y388841D01*
X195105Y386555D01*
X192117Y385317D01*
X188883Y385317D01*
G37*
%LPD*%
%LPC*%
G36*
X239683Y385317D02*
X239683Y385317D01*
X236695Y386555D01*
X234409Y388841D01*
X233171Y391829D01*
X233171Y408271D01*
X234409Y411259D01*
X236695Y413545D01*
X238525Y414303D01*
X238576Y414340D01*
X238632Y414370D01*
X238646Y414390D01*
X238665Y414404D01*
X238695Y414460D01*
X238732Y414512D01*
X238737Y414538D01*
X238747Y414557D01*
X238748Y414595D01*
X238759Y414654D01*
X238759Y415609D01*
X244970Y421820D01*
X245010Y421884D01*
X245054Y421946D01*
X245056Y421958D01*
X245061Y421967D01*
X245065Y422004D01*
X245081Y422089D01*
X245081Y525382D01*
X245064Y525456D01*
X245051Y525531D01*
X245044Y525541D01*
X245042Y525551D01*
X245018Y525580D01*
X244970Y525651D01*
X229615Y541006D01*
X229615Y563894D01*
X238648Y572927D01*
X238688Y572991D01*
X238732Y573053D01*
X238734Y573065D01*
X238739Y573074D01*
X238743Y573111D01*
X238759Y573196D01*
X238759Y648928D01*
X238742Y649002D01*
X238729Y649077D01*
X238722Y649087D01*
X238720Y649097D01*
X238696Y649126D01*
X238648Y649197D01*
X235993Y651852D01*
X235993Y656248D01*
X239102Y659357D01*
X243498Y659357D01*
X246607Y656248D01*
X246607Y651852D01*
X243952Y649197D01*
X243912Y649133D01*
X243868Y649071D01*
X243866Y649059D01*
X243861Y649050D01*
X243857Y649013D01*
X243841Y648928D01*
X243841Y570933D01*
X242241Y569334D01*
X240739Y567832D01*
X240726Y567810D01*
X240706Y567794D01*
X240681Y567737D01*
X240648Y567685D01*
X240646Y567659D01*
X240635Y567635D01*
X240637Y567574D01*
X240631Y567512D01*
X240641Y567488D01*
X240642Y567462D01*
X240671Y567408D01*
X240693Y567350D01*
X240712Y567333D01*
X240724Y567310D01*
X240775Y567275D01*
X240820Y567233D01*
X240845Y567225D01*
X240866Y567210D01*
X240951Y567194D01*
X240986Y567183D01*
X240996Y567185D01*
X241008Y567183D01*
X242917Y567183D01*
X245905Y565945D01*
X248191Y563659D01*
X249429Y560671D01*
X249429Y544229D01*
X248191Y541241D01*
X245905Y538955D01*
X242917Y537717D01*
X241008Y537717D01*
X240983Y537711D01*
X240957Y537714D01*
X240900Y537692D01*
X240840Y537678D01*
X240820Y537661D01*
X240796Y537652D01*
X240754Y537607D01*
X240706Y537568D01*
X240695Y537544D01*
X240678Y537525D01*
X240660Y537466D01*
X240635Y537409D01*
X240636Y537384D01*
X240629Y537359D01*
X240639Y537298D01*
X240642Y537236D01*
X240654Y537214D01*
X240658Y537188D01*
X240707Y537117D01*
X240724Y537084D01*
X240732Y537078D01*
X240739Y537068D01*
X250163Y527645D01*
X250163Y419826D01*
X244877Y414540D01*
X244856Y414507D01*
X244828Y414481D01*
X244811Y414435D01*
X244785Y414393D01*
X244782Y414355D01*
X244768Y414319D01*
X244773Y414270D01*
X244769Y414220D01*
X244782Y414184D01*
X244786Y414146D01*
X244813Y414105D01*
X244830Y414058D01*
X244859Y414032D01*
X244879Y414000D01*
X244930Y413966D01*
X244957Y413941D01*
X244977Y413935D01*
X245000Y413920D01*
X245905Y413545D01*
X248191Y411259D01*
X249429Y408271D01*
X249429Y391829D01*
X248191Y388841D01*
X245905Y386555D01*
X242917Y385317D01*
X239683Y385317D01*
G37*
%LPD*%
%LPC*%
G36*
X214283Y385317D02*
X214283Y385317D01*
X211295Y386555D01*
X209009Y388841D01*
X207771Y391829D01*
X207771Y408271D01*
X209009Y411259D01*
X211295Y413545D01*
X213125Y414303D01*
X213176Y414340D01*
X213232Y414370D01*
X213246Y414390D01*
X213265Y414404D01*
X213295Y414460D01*
X213332Y414512D01*
X213337Y414538D01*
X213347Y414557D01*
X213348Y414595D01*
X213359Y414654D01*
X213359Y531704D01*
X213347Y531755D01*
X213346Y531801D01*
X213334Y531822D01*
X213329Y531853D01*
X213322Y531863D01*
X213320Y531873D01*
X213296Y531902D01*
X213269Y531942D01*
X213263Y531953D01*
X213260Y531955D01*
X213248Y531973D01*
X204215Y541006D01*
X204215Y563894D01*
X213248Y572927D01*
X213288Y572991D01*
X213332Y573053D01*
X213334Y573065D01*
X213339Y573074D01*
X213343Y573111D01*
X213359Y573196D01*
X213359Y642578D01*
X213342Y642652D01*
X213329Y642727D01*
X213322Y642737D01*
X213320Y642747D01*
X213296Y642776D01*
X213248Y642847D01*
X210593Y645502D01*
X210593Y649898D01*
X213702Y653007D01*
X218098Y653007D01*
X221207Y649898D01*
X221207Y645502D01*
X218552Y642847D01*
X218512Y642783D01*
X218468Y642721D01*
X218466Y642709D01*
X218461Y642700D01*
X218457Y642663D01*
X218441Y642578D01*
X218441Y570933D01*
X216841Y569334D01*
X215339Y567832D01*
X215326Y567810D01*
X215306Y567794D01*
X215281Y567737D01*
X215248Y567685D01*
X215246Y567659D01*
X215235Y567635D01*
X215237Y567574D01*
X215231Y567512D01*
X215241Y567488D01*
X215242Y567462D01*
X215271Y567408D01*
X215293Y567350D01*
X215312Y567333D01*
X215324Y567310D01*
X215375Y567275D01*
X215420Y567233D01*
X215445Y567225D01*
X215466Y567210D01*
X215551Y567194D01*
X215586Y567183D01*
X215596Y567185D01*
X215608Y567183D01*
X217517Y567183D01*
X220505Y565945D01*
X222791Y563659D01*
X224029Y560671D01*
X224029Y544229D01*
X222791Y541241D01*
X220505Y538955D01*
X217517Y537717D01*
X215608Y537717D01*
X215583Y537711D01*
X215557Y537714D01*
X215500Y537692D01*
X215440Y537678D01*
X215420Y537661D01*
X215396Y537652D01*
X215354Y537607D01*
X215306Y537568D01*
X215295Y537544D01*
X215278Y537525D01*
X215260Y537466D01*
X215235Y537409D01*
X215236Y537384D01*
X215229Y537359D01*
X215239Y537298D01*
X215242Y537236D01*
X215254Y537214D01*
X215258Y537188D01*
X215307Y537117D01*
X215324Y537084D01*
X215332Y537078D01*
X215339Y537068D01*
X218441Y533967D01*
X218441Y414654D01*
X218455Y414592D01*
X218462Y414529D01*
X218475Y414509D01*
X218480Y414485D01*
X218521Y414436D01*
X218555Y414383D01*
X218577Y414368D01*
X218590Y414352D01*
X218625Y414336D01*
X218675Y414303D01*
X220505Y413545D01*
X222791Y411259D01*
X224029Y408271D01*
X224029Y391829D01*
X222791Y388841D01*
X220505Y386555D01*
X217517Y385317D01*
X214283Y385317D01*
G37*
%LPD*%
%LPC*%
G36*
X823302Y299493D02*
X823302Y299493D01*
X820193Y302602D01*
X820193Y306998D01*
X822848Y309653D01*
X822888Y309717D01*
X822932Y309779D01*
X822934Y309791D01*
X822939Y309800D01*
X822943Y309837D01*
X822959Y309922D01*
X822959Y538540D01*
X822942Y538613D01*
X822941Y538645D01*
X822934Y538658D01*
X822929Y538689D01*
X822922Y538699D01*
X822920Y538709D01*
X822896Y538738D01*
X822870Y538777D01*
X822858Y538798D01*
X822853Y538801D01*
X822848Y538809D01*
X820306Y541351D01*
X820273Y541371D01*
X820247Y541399D01*
X820200Y541417D01*
X820159Y541443D01*
X820120Y541446D01*
X820084Y541460D01*
X820035Y541454D01*
X819986Y541459D01*
X819950Y541445D01*
X819912Y541441D01*
X819870Y541415D01*
X819824Y541397D01*
X819798Y541369D01*
X819765Y541349D01*
X819732Y541298D01*
X819706Y541270D01*
X819701Y541251D01*
X817405Y538955D01*
X814417Y537717D01*
X811183Y537717D01*
X808195Y538955D01*
X805909Y541241D01*
X804671Y544229D01*
X804671Y560671D01*
X805909Y563659D01*
X808195Y565945D01*
X811183Y567183D01*
X814417Y567183D01*
X817405Y565945D01*
X819691Y563659D01*
X820929Y560671D01*
X820929Y548072D01*
X820946Y547998D01*
X820959Y547923D01*
X820966Y547913D01*
X820968Y547903D01*
X820992Y547874D01*
X821040Y547803D01*
X828041Y540802D01*
X828041Y309922D01*
X828058Y309848D01*
X828071Y309773D01*
X828078Y309763D01*
X828080Y309753D01*
X828104Y309724D01*
X828152Y309653D01*
X830807Y306998D01*
X830807Y302602D01*
X827698Y299493D01*
X823302Y299493D01*
G37*
%LPD*%
%LPC*%
G36*
X797902Y305843D02*
X797902Y305843D01*
X794793Y308952D01*
X794793Y313348D01*
X797448Y316003D01*
X797488Y316067D01*
X797532Y316129D01*
X797534Y316141D01*
X797539Y316150D01*
X797543Y316187D01*
X797559Y316272D01*
X797559Y538540D01*
X797542Y538613D01*
X797541Y538645D01*
X797534Y538658D01*
X797529Y538689D01*
X797522Y538699D01*
X797520Y538709D01*
X797496Y538738D01*
X797470Y538777D01*
X797458Y538798D01*
X797453Y538801D01*
X797448Y538809D01*
X794906Y541351D01*
X794873Y541371D01*
X794846Y541400D01*
X794800Y541417D01*
X794758Y541443D01*
X794720Y541446D01*
X794684Y541460D01*
X794635Y541454D01*
X794586Y541459D01*
X794550Y541445D01*
X794512Y541441D01*
X794470Y541415D01*
X794424Y541397D01*
X794398Y541369D01*
X794365Y541348D01*
X794332Y541298D01*
X794306Y541270D01*
X794301Y541251D01*
X792005Y538955D01*
X789017Y537717D01*
X785783Y537717D01*
X782795Y538955D01*
X780509Y541241D01*
X779271Y544229D01*
X779271Y560671D01*
X780509Y563659D01*
X782795Y565945D01*
X785783Y567183D01*
X789017Y567183D01*
X792005Y565945D01*
X794291Y563659D01*
X795529Y560671D01*
X795529Y548072D01*
X795546Y547998D01*
X795559Y547923D01*
X795566Y547913D01*
X795568Y547903D01*
X795592Y547874D01*
X795640Y547803D01*
X802641Y540802D01*
X802641Y316272D01*
X802658Y316198D01*
X802671Y316123D01*
X802678Y316113D01*
X802680Y316103D01*
X802704Y316074D01*
X802752Y316003D01*
X805407Y313348D01*
X805407Y308952D01*
X802298Y305843D01*
X797902Y305843D01*
G37*
%LPD*%
%LPC*%
G36*
X772502Y312193D02*
X772502Y312193D01*
X769393Y315302D01*
X769393Y319698D01*
X772048Y322353D01*
X772088Y322417D01*
X772132Y322479D01*
X772134Y322491D01*
X772139Y322500D01*
X772143Y322537D01*
X772159Y322622D01*
X772159Y538540D01*
X772142Y538612D01*
X772141Y538645D01*
X772134Y538658D01*
X772129Y538689D01*
X772122Y538699D01*
X772120Y538709D01*
X772096Y538738D01*
X772070Y538776D01*
X772058Y538798D01*
X772053Y538801D01*
X772048Y538809D01*
X769506Y541351D01*
X769473Y541371D01*
X769447Y541399D01*
X769400Y541417D01*
X769359Y541443D01*
X769320Y541446D01*
X769284Y541460D01*
X769235Y541454D01*
X769186Y541459D01*
X769150Y541445D01*
X769112Y541441D01*
X769070Y541415D01*
X769024Y541397D01*
X768998Y541369D01*
X768965Y541349D01*
X768932Y541298D01*
X768906Y541270D01*
X768901Y541251D01*
X766605Y538955D01*
X763617Y537717D01*
X760383Y537717D01*
X757395Y538955D01*
X755109Y541241D01*
X753871Y544229D01*
X753871Y560671D01*
X755109Y563659D01*
X757395Y565945D01*
X760383Y567183D01*
X763617Y567183D01*
X766605Y565945D01*
X768891Y563659D01*
X770129Y560671D01*
X770129Y548072D01*
X770146Y547998D01*
X770159Y547923D01*
X770166Y547913D01*
X770168Y547903D01*
X770192Y547874D01*
X770240Y547803D01*
X775641Y542402D01*
X777241Y540802D01*
X777241Y322622D01*
X777258Y322548D01*
X777271Y322473D01*
X777278Y322463D01*
X777280Y322453D01*
X777304Y322424D01*
X777352Y322353D01*
X780007Y319698D01*
X780007Y315302D01*
X776898Y312193D01*
X772502Y312193D01*
G37*
%LPD*%
%LPC*%
G36*
X747102Y318543D02*
X747102Y318543D01*
X743993Y321652D01*
X743993Y326048D01*
X746648Y328703D01*
X746688Y328767D01*
X746732Y328829D01*
X746734Y328841D01*
X746739Y328850D01*
X746743Y328887D01*
X746759Y328972D01*
X746759Y538540D01*
X746742Y538613D01*
X746741Y538645D01*
X746734Y538658D01*
X746729Y538689D01*
X746722Y538699D01*
X746720Y538709D01*
X746696Y538738D01*
X746670Y538777D01*
X746658Y538798D01*
X746653Y538801D01*
X746648Y538809D01*
X744106Y541351D01*
X744073Y541371D01*
X744047Y541399D01*
X744000Y541417D01*
X743959Y541443D01*
X743920Y541446D01*
X743884Y541460D01*
X743835Y541454D01*
X743786Y541459D01*
X743750Y541445D01*
X743712Y541441D01*
X743670Y541415D01*
X743624Y541397D01*
X743598Y541369D01*
X743565Y541349D01*
X743532Y541298D01*
X743506Y541270D01*
X743501Y541251D01*
X741205Y538955D01*
X738217Y537717D01*
X734983Y537717D01*
X731995Y538955D01*
X729709Y541241D01*
X728471Y544229D01*
X728471Y560671D01*
X729709Y563659D01*
X731995Y565945D01*
X734983Y567183D01*
X738217Y567183D01*
X741205Y565945D01*
X743491Y563659D01*
X744729Y560671D01*
X744729Y548072D01*
X744746Y547998D01*
X744759Y547923D01*
X744766Y547913D01*
X744768Y547903D01*
X744792Y547874D01*
X744840Y547803D01*
X751841Y540802D01*
X751841Y328972D01*
X751858Y328898D01*
X751871Y328823D01*
X751878Y328813D01*
X751880Y328803D01*
X751904Y328774D01*
X751952Y328703D01*
X754607Y326048D01*
X754607Y321652D01*
X751498Y318543D01*
X747102Y318543D01*
G37*
%LPD*%
%LPC*%
G36*
X721702Y324893D02*
X721702Y324893D01*
X718593Y328002D01*
X718593Y332398D01*
X721248Y335053D01*
X721288Y335117D01*
X721332Y335179D01*
X721334Y335191D01*
X721339Y335200D01*
X721343Y335237D01*
X721359Y335322D01*
X721359Y538540D01*
X721342Y538613D01*
X721341Y538645D01*
X721334Y538658D01*
X721329Y538689D01*
X721322Y538699D01*
X721320Y538709D01*
X721296Y538738D01*
X721270Y538777D01*
X721258Y538798D01*
X721253Y538801D01*
X721248Y538809D01*
X718706Y541351D01*
X718673Y541371D01*
X718647Y541399D01*
X718600Y541417D01*
X718559Y541443D01*
X718520Y541446D01*
X718484Y541460D01*
X718435Y541454D01*
X718386Y541459D01*
X718350Y541445D01*
X718312Y541441D01*
X718270Y541415D01*
X718224Y541397D01*
X718198Y541369D01*
X718165Y541349D01*
X718132Y541298D01*
X718106Y541270D01*
X718101Y541251D01*
X715805Y538955D01*
X712817Y537717D01*
X709583Y537717D01*
X706595Y538955D01*
X704309Y541241D01*
X703071Y544229D01*
X703071Y560671D01*
X704309Y563659D01*
X706595Y565945D01*
X709583Y567183D01*
X712817Y567183D01*
X715805Y565945D01*
X718091Y563659D01*
X719329Y560671D01*
X719329Y548072D01*
X719346Y547998D01*
X719359Y547923D01*
X719366Y547913D01*
X719368Y547903D01*
X719392Y547874D01*
X719440Y547803D01*
X726441Y540802D01*
X726441Y335322D01*
X726458Y335248D01*
X726471Y335173D01*
X726478Y335163D01*
X726480Y335153D01*
X726504Y335124D01*
X726552Y335053D01*
X729207Y332398D01*
X729207Y328002D01*
X726098Y324893D01*
X721702Y324893D01*
G37*
%LPD*%
%LPC*%
G36*
X61883Y537717D02*
X61883Y537717D01*
X58895Y538955D01*
X56609Y541241D01*
X55371Y544229D01*
X55371Y560671D01*
X56609Y563659D01*
X58895Y565945D01*
X59709Y566282D01*
X59760Y566319D01*
X59816Y566349D01*
X59830Y566369D01*
X59849Y566383D01*
X59879Y566439D01*
X59916Y566491D01*
X59921Y566518D01*
X59931Y566536D01*
X59932Y566574D01*
X59943Y566633D01*
X59943Y594050D01*
X59926Y594124D01*
X59913Y594199D01*
X59906Y594209D01*
X59904Y594219D01*
X59880Y594248D01*
X59839Y594309D01*
X59836Y594314D01*
X59835Y594315D01*
X59832Y594319D01*
X48767Y605384D01*
X48767Y626516D01*
X56815Y634564D01*
X56842Y634608D01*
X56877Y634645D01*
X56887Y634680D01*
X56907Y634711D01*
X56912Y634762D01*
X56926Y634811D01*
X56920Y634847D01*
X56923Y634884D01*
X56905Y634932D01*
X56896Y634982D01*
X56873Y635017D01*
X56862Y635046D01*
X56839Y635067D01*
X56815Y635102D01*
X54355Y637562D01*
X54355Y645138D01*
X59712Y650495D01*
X67288Y650495D01*
X72645Y645138D01*
X72645Y637562D01*
X67288Y632205D01*
X64674Y632205D01*
X64600Y632188D01*
X64525Y632175D01*
X64515Y632168D01*
X64505Y632166D01*
X64476Y632142D01*
X64405Y632094D01*
X59071Y626760D01*
X59057Y626738D01*
X59037Y626722D01*
X59012Y626665D01*
X58980Y626613D01*
X58977Y626587D01*
X58966Y626563D01*
X58969Y626502D01*
X58963Y626440D01*
X58972Y626416D01*
X58973Y626390D01*
X59003Y626336D01*
X59025Y626278D01*
X59044Y626261D01*
X59056Y626238D01*
X59106Y626203D01*
X59152Y626161D01*
X59176Y626153D01*
X59198Y626138D01*
X59282Y626122D01*
X59318Y626111D01*
X59328Y626113D01*
X59340Y626111D01*
X62739Y626111D01*
X62739Y616331D01*
X62750Y616281D01*
X62752Y616230D01*
X62770Y616198D01*
X62778Y616162D01*
X62811Y616123D01*
X62835Y616078D01*
X62865Y616057D01*
X62888Y616029D01*
X62935Y616008D01*
X62977Y615979D01*
X63019Y615970D01*
X63047Y615958D01*
X63077Y615959D01*
X63119Y615951D01*
X63501Y615951D01*
X63501Y615569D01*
X63513Y615519D01*
X63514Y615468D01*
X63532Y615436D01*
X63540Y615400D01*
X63573Y615361D01*
X63597Y615316D01*
X63627Y615295D01*
X63651Y615267D01*
X63697Y615246D01*
X63739Y615216D01*
X63781Y615208D01*
X63809Y615196D01*
X63839Y615197D01*
X63881Y615189D01*
X73661Y615189D01*
X73661Y607995D01*
X73488Y607349D01*
X73153Y606770D01*
X72680Y606297D01*
X72101Y605962D01*
X71455Y605789D01*
X69158Y605789D01*
X69132Y605783D01*
X69107Y605786D01*
X69049Y605764D01*
X68989Y605750D01*
X68969Y605733D01*
X68945Y605724D01*
X68903Y605679D01*
X68855Y605640D01*
X68845Y605616D01*
X68827Y605597D01*
X68810Y605538D01*
X68784Y605481D01*
X68785Y605456D01*
X68778Y605431D01*
X68789Y605370D01*
X68791Y605308D01*
X68803Y605286D01*
X68807Y605266D01*
X68807Y600826D01*
X67168Y599187D01*
X67128Y599122D01*
X67084Y599061D01*
X67082Y599049D01*
X67077Y599040D01*
X67073Y599003D01*
X67057Y598918D01*
X67057Y566633D01*
X67071Y566572D01*
X67078Y566508D01*
X67091Y566488D01*
X67096Y566465D01*
X67137Y566416D01*
X67171Y566362D01*
X67193Y566347D01*
X67206Y566331D01*
X67241Y566316D01*
X67291Y566282D01*
X68105Y565945D01*
X70391Y563659D01*
X71629Y560671D01*
X71629Y544229D01*
X70391Y541241D01*
X68105Y538955D01*
X65117Y537717D01*
X61883Y537717D01*
G37*
%LPD*%
%LPC*%
G36*
X212112Y251205D02*
X212112Y251205D01*
X206755Y256562D01*
X206755Y264138D01*
X212112Y269495D01*
X219688Y269495D01*
X220301Y268882D01*
X220344Y268855D01*
X220382Y268820D01*
X220417Y268810D01*
X220448Y268790D01*
X220499Y268785D01*
X220548Y268771D01*
X220584Y268777D01*
X220620Y268774D01*
X220668Y268792D01*
X220718Y268801D01*
X220754Y268825D01*
X220782Y268835D01*
X220803Y268858D01*
X220839Y268882D01*
X225948Y273991D01*
X225976Y274036D01*
X225981Y274040D01*
X225989Y274057D01*
X226032Y274118D01*
X226034Y274130D01*
X226039Y274138D01*
X226043Y274175D01*
X226044Y274179D01*
X226052Y274199D01*
X226051Y274220D01*
X226059Y274260D01*
X226059Y458428D01*
X226042Y458502D01*
X226029Y458577D01*
X226022Y458587D01*
X226020Y458597D01*
X225996Y458626D01*
X225948Y458697D01*
X223293Y461352D01*
X223293Y465748D01*
X226402Y468857D01*
X230798Y468857D01*
X233907Y465748D01*
X233907Y461352D01*
X231252Y458697D01*
X231212Y458633D01*
X231168Y458571D01*
X231166Y458559D01*
X231161Y458550D01*
X231157Y458513D01*
X231141Y458428D01*
X231141Y271998D01*
X224432Y265289D01*
X224405Y265245D01*
X224370Y265208D01*
X224360Y265173D01*
X224340Y265141D01*
X224335Y265091D01*
X224321Y265042D01*
X224327Y265005D01*
X224324Y264969D01*
X224342Y264921D01*
X224351Y264871D01*
X224375Y264836D01*
X224385Y264807D01*
X224408Y264786D01*
X224432Y264751D01*
X225045Y264138D01*
X225045Y256562D01*
X219688Y251205D01*
X212112Y251205D01*
G37*
%LPD*%
%LPC*%
G36*
X288312Y251205D02*
X288312Y251205D01*
X282955Y256562D01*
X282955Y264138D01*
X283568Y264751D01*
X283595Y264794D01*
X283630Y264832D01*
X283640Y264867D01*
X283660Y264898D01*
X283665Y264949D01*
X283679Y264998D01*
X283673Y265034D01*
X283676Y265070D01*
X283658Y265118D01*
X283649Y265168D01*
X283625Y265204D01*
X283615Y265232D01*
X283592Y265253D01*
X283568Y265289D01*
X276859Y271998D01*
X276859Y452078D01*
X276842Y452152D01*
X276829Y452227D01*
X276822Y452237D01*
X276820Y452247D01*
X276796Y452276D01*
X276748Y452347D01*
X274093Y455002D01*
X274093Y459398D01*
X277202Y462507D01*
X281598Y462507D01*
X284707Y459398D01*
X284707Y455002D01*
X282052Y452347D01*
X282012Y452283D01*
X281968Y452221D01*
X281966Y452209D01*
X281961Y452200D01*
X281957Y452163D01*
X281941Y452078D01*
X281941Y274260D01*
X281953Y274208D01*
X281954Y274170D01*
X281964Y274153D01*
X281971Y274111D01*
X281978Y274101D01*
X281980Y274091D01*
X282004Y274062D01*
X282052Y273991D01*
X287161Y268882D01*
X287205Y268855D01*
X287242Y268820D01*
X287277Y268810D01*
X287309Y268790D01*
X287359Y268785D01*
X287408Y268771D01*
X287445Y268777D01*
X287481Y268774D01*
X287529Y268792D01*
X287579Y268801D01*
X287614Y268825D01*
X287643Y268835D01*
X287664Y268858D01*
X287699Y268882D01*
X288312Y269495D01*
X295888Y269495D01*
X301245Y264138D01*
X301245Y256562D01*
X295888Y251205D01*
X288312Y251205D01*
G37*
%LPD*%
%LPC*%
G36*
X734402Y280443D02*
X734402Y280443D01*
X731293Y283552D01*
X731293Y287948D01*
X733948Y290603D01*
X733988Y290667D01*
X734032Y290729D01*
X734034Y290741D01*
X734039Y290750D01*
X734043Y290787D01*
X734059Y290872D01*
X734059Y385446D01*
X734045Y385508D01*
X734038Y385571D01*
X734025Y385591D01*
X734020Y385615D01*
X733979Y385664D01*
X733945Y385717D01*
X733923Y385732D01*
X733910Y385748D01*
X733875Y385764D01*
X733825Y385797D01*
X731995Y386555D01*
X729709Y388841D01*
X728471Y391829D01*
X728471Y408271D01*
X729709Y411259D01*
X731995Y413545D01*
X734983Y414783D01*
X738217Y414783D01*
X741205Y413545D01*
X743491Y411259D01*
X744729Y408271D01*
X744729Y391829D01*
X743491Y388841D01*
X741205Y386555D01*
X739375Y385797D01*
X739324Y385760D01*
X739268Y385730D01*
X739254Y385710D01*
X739235Y385696D01*
X739205Y385640D01*
X739168Y385588D01*
X739163Y385562D01*
X739153Y385543D01*
X739152Y385505D01*
X739141Y385446D01*
X739141Y290872D01*
X739158Y290798D01*
X739171Y290723D01*
X739178Y290713D01*
X739180Y290703D01*
X739204Y290674D01*
X739252Y290603D01*
X741907Y287948D01*
X741907Y283552D01*
X738798Y280443D01*
X734402Y280443D01*
G37*
%LPD*%
%LPC*%
G36*
X265083Y385317D02*
X265083Y385317D01*
X262095Y386555D01*
X259809Y388841D01*
X258571Y391829D01*
X258571Y408271D01*
X259809Y411259D01*
X262095Y413545D01*
X263925Y414303D01*
X263976Y414340D01*
X264032Y414370D01*
X264046Y414390D01*
X264065Y414404D01*
X264095Y414460D01*
X264132Y414512D01*
X264137Y414538D01*
X264147Y414557D01*
X264148Y414595D01*
X264159Y414654D01*
X264159Y509228D01*
X264142Y509302D01*
X264129Y509377D01*
X264122Y509387D01*
X264120Y509397D01*
X264096Y509426D01*
X264048Y509497D01*
X261393Y512152D01*
X261393Y516548D01*
X264502Y519657D01*
X268898Y519657D01*
X272007Y516548D01*
X272007Y512152D01*
X269352Y509497D01*
X269312Y509433D01*
X269268Y509371D01*
X269266Y509359D01*
X269261Y509350D01*
X269257Y509313D01*
X269241Y509228D01*
X269241Y414654D01*
X269255Y414592D01*
X269262Y414529D01*
X269275Y414509D01*
X269280Y414485D01*
X269321Y414436D01*
X269355Y414383D01*
X269377Y414368D01*
X269390Y414352D01*
X269425Y414336D01*
X269475Y414303D01*
X271305Y413545D01*
X273591Y411259D01*
X274829Y408271D01*
X274829Y391829D01*
X273591Y388841D01*
X271305Y386555D01*
X268317Y385317D01*
X265083Y385317D01*
G37*
%LPD*%
%LPC*%
G36*
X290483Y385317D02*
X290483Y385317D01*
X287495Y386555D01*
X285209Y388841D01*
X283971Y391829D01*
X283971Y408271D01*
X285209Y411259D01*
X287495Y413545D01*
X289325Y414303D01*
X289376Y414340D01*
X289432Y414370D01*
X289446Y414390D01*
X289465Y414404D01*
X289495Y414460D01*
X289532Y414512D01*
X289537Y414538D01*
X289547Y414557D01*
X289548Y414595D01*
X289559Y414654D01*
X289559Y502878D01*
X289542Y502952D01*
X289529Y503027D01*
X289522Y503037D01*
X289520Y503047D01*
X289496Y503076D01*
X289448Y503147D01*
X286793Y505802D01*
X286793Y510198D01*
X289902Y513307D01*
X294298Y513307D01*
X297407Y510198D01*
X297407Y505802D01*
X294752Y503147D01*
X294712Y503083D01*
X294668Y503021D01*
X294666Y503009D01*
X294661Y503000D01*
X294657Y502963D01*
X294641Y502878D01*
X294641Y414654D01*
X294655Y414592D01*
X294662Y414529D01*
X294675Y414509D01*
X294680Y414485D01*
X294721Y414436D01*
X294755Y414383D01*
X294777Y414368D01*
X294790Y414352D01*
X294825Y414336D01*
X294875Y414303D01*
X296705Y413545D01*
X298991Y411259D01*
X300229Y408271D01*
X300229Y391829D01*
X298991Y388841D01*
X296705Y386555D01*
X293717Y385317D01*
X290483Y385317D01*
G37*
%LPD*%
%LPC*%
G36*
X759802Y286793D02*
X759802Y286793D01*
X756693Y289902D01*
X756693Y294298D01*
X759348Y296953D01*
X759388Y297017D01*
X759432Y297079D01*
X759434Y297091D01*
X759439Y297100D01*
X759443Y297137D01*
X759459Y297222D01*
X759459Y385446D01*
X759445Y385508D01*
X759438Y385571D01*
X759425Y385591D01*
X759420Y385615D01*
X759379Y385664D01*
X759345Y385717D01*
X759323Y385732D01*
X759310Y385748D01*
X759275Y385764D01*
X759225Y385797D01*
X757395Y386555D01*
X755109Y388841D01*
X753871Y391829D01*
X753871Y408271D01*
X755109Y411259D01*
X757395Y413545D01*
X760383Y414783D01*
X763617Y414783D01*
X766605Y413545D01*
X768891Y411259D01*
X770129Y408271D01*
X770129Y391829D01*
X768891Y388841D01*
X766605Y386555D01*
X764775Y385797D01*
X764724Y385760D01*
X764668Y385730D01*
X764654Y385710D01*
X764635Y385696D01*
X764605Y385640D01*
X764568Y385588D01*
X764563Y385562D01*
X764553Y385543D01*
X764552Y385505D01*
X764541Y385446D01*
X764541Y297222D01*
X764558Y297148D01*
X764571Y297073D01*
X764578Y297063D01*
X764580Y297053D01*
X764604Y297024D01*
X764652Y296953D01*
X767307Y294298D01*
X767307Y289902D01*
X764198Y286793D01*
X759802Y286793D01*
G37*
%LPD*%
%LPC*%
G36*
X607402Y445543D02*
X607402Y445543D01*
X604293Y448652D01*
X604293Y453048D01*
X606948Y455703D01*
X606988Y455767D01*
X607032Y455829D01*
X607034Y455841D01*
X607039Y455850D01*
X607043Y455887D01*
X607059Y455972D01*
X607059Y537846D01*
X607045Y537908D01*
X607038Y537971D01*
X607025Y537991D01*
X607020Y538015D01*
X606979Y538064D01*
X606945Y538117D01*
X606923Y538132D01*
X606910Y538148D01*
X606875Y538164D01*
X606825Y538197D01*
X604995Y538955D01*
X602709Y541241D01*
X601471Y544229D01*
X601471Y560671D01*
X602709Y563659D01*
X604995Y565945D01*
X607983Y567183D01*
X611217Y567183D01*
X614205Y565945D01*
X616491Y563659D01*
X617729Y560671D01*
X617729Y544229D01*
X616491Y541241D01*
X614205Y538955D01*
X612375Y538197D01*
X612324Y538160D01*
X612268Y538130D01*
X612254Y538110D01*
X612235Y538096D01*
X612205Y538040D01*
X612168Y537988D01*
X612163Y537962D01*
X612153Y537943D01*
X612152Y537905D01*
X612141Y537846D01*
X612141Y455972D01*
X612158Y455898D01*
X612171Y455823D01*
X612178Y455813D01*
X612180Y455803D01*
X612204Y455774D01*
X612252Y455703D01*
X614907Y453048D01*
X614907Y448652D01*
X611798Y445543D01*
X607402Y445543D01*
G37*
%LPD*%
%LPC*%
G36*
X785202Y293143D02*
X785202Y293143D01*
X782093Y296252D01*
X782093Y300648D01*
X784748Y303303D01*
X784757Y303317D01*
X784760Y303320D01*
X784764Y303329D01*
X784788Y303367D01*
X784832Y303429D01*
X784834Y303441D01*
X784839Y303450D01*
X784843Y303487D01*
X784859Y303572D01*
X784859Y385446D01*
X784845Y385508D01*
X784838Y385571D01*
X784825Y385591D01*
X784820Y385615D01*
X784779Y385664D01*
X784745Y385717D01*
X784723Y385732D01*
X784710Y385748D01*
X784675Y385764D01*
X784625Y385797D01*
X782795Y386555D01*
X780509Y388841D01*
X779271Y391829D01*
X779271Y408271D01*
X780509Y411259D01*
X782795Y413545D01*
X785783Y414783D01*
X789017Y414783D01*
X792005Y413545D01*
X794291Y411259D01*
X795529Y408271D01*
X795529Y391829D01*
X794291Y388841D01*
X792005Y386555D01*
X790175Y385797D01*
X790124Y385760D01*
X790068Y385730D01*
X790054Y385710D01*
X790035Y385696D01*
X790005Y385640D01*
X789968Y385588D01*
X789963Y385562D01*
X789953Y385543D01*
X789952Y385505D01*
X789941Y385446D01*
X789941Y303572D01*
X789958Y303498D01*
X789971Y303423D01*
X789978Y303413D01*
X789980Y303403D01*
X790004Y303374D01*
X790052Y303303D01*
X792707Y300648D01*
X792707Y296252D01*
X789598Y293143D01*
X785202Y293143D01*
G37*
%LPD*%
%LPC*%
G36*
X632802Y451893D02*
X632802Y451893D01*
X629693Y455002D01*
X629693Y459398D01*
X632348Y462053D01*
X632388Y462117D01*
X632432Y462179D01*
X632434Y462191D01*
X632439Y462200D01*
X632443Y462237D01*
X632459Y462322D01*
X632459Y537846D01*
X632445Y537908D01*
X632438Y537971D01*
X632425Y537991D01*
X632420Y538015D01*
X632379Y538064D01*
X632345Y538117D01*
X632323Y538132D01*
X632310Y538148D01*
X632275Y538164D01*
X632225Y538197D01*
X630395Y538955D01*
X628109Y541241D01*
X626871Y544229D01*
X626871Y560671D01*
X628109Y563659D01*
X630395Y565945D01*
X633383Y567183D01*
X636617Y567183D01*
X639605Y565945D01*
X641891Y563659D01*
X643129Y560671D01*
X643129Y544229D01*
X641891Y541241D01*
X639605Y538955D01*
X637775Y538197D01*
X637724Y538160D01*
X637668Y538130D01*
X637654Y538110D01*
X637635Y538096D01*
X637605Y538040D01*
X637568Y537988D01*
X637563Y537962D01*
X637553Y537943D01*
X637552Y537905D01*
X637541Y537846D01*
X637541Y462322D01*
X637558Y462248D01*
X637571Y462173D01*
X637578Y462163D01*
X637580Y462153D01*
X637604Y462124D01*
X637652Y462053D01*
X640307Y459398D01*
X640307Y455002D01*
X637198Y451893D01*
X632802Y451893D01*
G37*
%LPD*%
%LPC*%
G36*
X683602Y458243D02*
X683602Y458243D01*
X680493Y461352D01*
X680493Y465748D01*
X683148Y468403D01*
X683188Y468467D01*
X683232Y468529D01*
X683234Y468541D01*
X683239Y468550D01*
X683243Y468587D01*
X683259Y468672D01*
X683259Y537846D01*
X683245Y537908D01*
X683238Y537971D01*
X683225Y537991D01*
X683220Y538015D01*
X683179Y538064D01*
X683145Y538117D01*
X683123Y538132D01*
X683110Y538148D01*
X683075Y538164D01*
X683025Y538197D01*
X681195Y538955D01*
X678909Y541241D01*
X677671Y544229D01*
X677671Y560671D01*
X678909Y563659D01*
X681195Y565945D01*
X684183Y567183D01*
X687417Y567183D01*
X690405Y565945D01*
X692691Y563659D01*
X693929Y560671D01*
X693929Y544229D01*
X692691Y541241D01*
X690405Y538955D01*
X688575Y538197D01*
X688524Y538160D01*
X688468Y538130D01*
X688454Y538110D01*
X688435Y538096D01*
X688405Y538040D01*
X688368Y537988D01*
X688363Y537962D01*
X688353Y537943D01*
X688352Y537905D01*
X688341Y537846D01*
X688341Y468672D01*
X688358Y468598D01*
X688371Y468523D01*
X688378Y468513D01*
X688380Y468503D01*
X688404Y468474D01*
X688452Y468403D01*
X691107Y465748D01*
X691107Y461352D01*
X687998Y458243D01*
X683602Y458243D01*
G37*
%LPD*%
%LPC*%
G36*
X658202Y464593D02*
X658202Y464593D01*
X655093Y467702D01*
X655093Y472098D01*
X657748Y474753D01*
X657788Y474817D01*
X657832Y474879D01*
X657834Y474891D01*
X657839Y474900D01*
X657843Y474937D01*
X657847Y474959D01*
X657852Y474971D01*
X657852Y474983D01*
X657859Y475022D01*
X657859Y537846D01*
X657845Y537908D01*
X657838Y537971D01*
X657825Y537991D01*
X657820Y538015D01*
X657779Y538064D01*
X657745Y538117D01*
X657723Y538132D01*
X657710Y538148D01*
X657675Y538164D01*
X657625Y538197D01*
X655795Y538955D01*
X653509Y541241D01*
X652271Y544229D01*
X652271Y560671D01*
X653509Y563659D01*
X655795Y565945D01*
X658783Y567183D01*
X662017Y567183D01*
X665005Y565945D01*
X667291Y563659D01*
X668529Y560671D01*
X668529Y544229D01*
X667291Y541241D01*
X665005Y538955D01*
X663175Y538197D01*
X663124Y538160D01*
X663068Y538130D01*
X663054Y538110D01*
X663035Y538096D01*
X663005Y538040D01*
X662968Y537988D01*
X662963Y537962D01*
X662953Y537943D01*
X662952Y537905D01*
X662941Y537846D01*
X662941Y475022D01*
X662953Y474968D01*
X662954Y474942D01*
X662961Y474930D01*
X662971Y474873D01*
X662978Y474863D01*
X662980Y474853D01*
X663004Y474824D01*
X663052Y474753D01*
X665707Y472098D01*
X665707Y467702D01*
X662598Y464593D01*
X658202Y464593D01*
G37*
%LPD*%
%LPC*%
G36*
X582002Y470943D02*
X582002Y470943D01*
X578893Y474052D01*
X578893Y478448D01*
X581548Y481103D01*
X581588Y481167D01*
X581632Y481229D01*
X581634Y481241D01*
X581639Y481250D01*
X581643Y481287D01*
X581659Y481372D01*
X581659Y537846D01*
X581645Y537908D01*
X581638Y537971D01*
X581625Y537991D01*
X581620Y538015D01*
X581579Y538064D01*
X581545Y538117D01*
X581523Y538132D01*
X581510Y538148D01*
X581475Y538164D01*
X581425Y538197D01*
X579595Y538955D01*
X577309Y541241D01*
X576071Y544229D01*
X576071Y560671D01*
X577309Y563659D01*
X579595Y565945D01*
X582583Y567183D01*
X585817Y567183D01*
X588805Y565945D01*
X591091Y563659D01*
X592329Y560671D01*
X592329Y544229D01*
X591091Y541241D01*
X588805Y538955D01*
X586975Y538197D01*
X586924Y538160D01*
X586868Y538130D01*
X586854Y538110D01*
X586835Y538096D01*
X586805Y538040D01*
X586768Y537988D01*
X586763Y537962D01*
X586753Y537943D01*
X586752Y537905D01*
X586741Y537846D01*
X586741Y481372D01*
X586758Y481298D01*
X586771Y481223D01*
X586778Y481213D01*
X586780Y481203D01*
X586804Y481174D01*
X586852Y481103D01*
X589507Y478448D01*
X589507Y474052D01*
X586398Y470943D01*
X582002Y470943D01*
G37*
%LPD*%
%LPC*%
G36*
X556602Y477293D02*
X556602Y477293D01*
X553493Y480402D01*
X553493Y484798D01*
X556148Y487453D01*
X556188Y487517D01*
X556232Y487579D01*
X556234Y487591D01*
X556239Y487600D01*
X556243Y487637D01*
X556259Y487722D01*
X556259Y537846D01*
X556245Y537908D01*
X556238Y537971D01*
X556225Y537991D01*
X556220Y538015D01*
X556179Y538064D01*
X556145Y538117D01*
X556123Y538132D01*
X556110Y538148D01*
X556075Y538164D01*
X556025Y538197D01*
X554195Y538955D01*
X551909Y541241D01*
X550671Y544229D01*
X550671Y560671D01*
X551909Y563659D01*
X554195Y565945D01*
X557183Y567183D01*
X560417Y567183D01*
X563405Y565945D01*
X565691Y563659D01*
X566929Y560671D01*
X566929Y544229D01*
X565691Y541241D01*
X563405Y538955D01*
X561575Y538197D01*
X561524Y538160D01*
X561468Y538130D01*
X561454Y538110D01*
X561435Y538096D01*
X561405Y538040D01*
X561368Y537988D01*
X561363Y537962D01*
X561353Y537943D01*
X561352Y537905D01*
X561341Y537846D01*
X561341Y487722D01*
X561358Y487648D01*
X561371Y487573D01*
X561378Y487563D01*
X561380Y487553D01*
X561404Y487524D01*
X561452Y487453D01*
X564107Y484798D01*
X564107Y480402D01*
X560998Y477293D01*
X556602Y477293D01*
G37*
%LPD*%
%LPC*%
G36*
X683602Y331243D02*
X683602Y331243D01*
X680493Y334352D01*
X680493Y338748D01*
X683148Y341403D01*
X683188Y341467D01*
X683232Y341529D01*
X683234Y341541D01*
X683239Y341550D01*
X683243Y341587D01*
X683259Y341672D01*
X683259Y385446D01*
X683245Y385508D01*
X683238Y385571D01*
X683225Y385591D01*
X683220Y385615D01*
X683179Y385664D01*
X683145Y385717D01*
X683123Y385732D01*
X683110Y385748D01*
X683075Y385764D01*
X683025Y385797D01*
X681195Y386555D01*
X678909Y388841D01*
X677671Y391829D01*
X677671Y408271D01*
X678909Y411259D01*
X681195Y413545D01*
X684183Y414783D01*
X687417Y414783D01*
X690405Y413545D01*
X692691Y411259D01*
X693929Y408271D01*
X693929Y391829D01*
X692691Y388841D01*
X690405Y386555D01*
X688575Y385797D01*
X688524Y385760D01*
X688468Y385730D01*
X688454Y385710D01*
X688435Y385696D01*
X688405Y385640D01*
X688368Y385588D01*
X688363Y385562D01*
X688353Y385543D01*
X688352Y385505D01*
X688341Y385446D01*
X688341Y341672D01*
X688358Y341598D01*
X688371Y341523D01*
X688378Y341513D01*
X688380Y341503D01*
X688404Y341474D01*
X688452Y341403D01*
X691107Y338748D01*
X691107Y334352D01*
X687998Y331243D01*
X683602Y331243D01*
G37*
%LPD*%
%LPC*%
G36*
X658202Y337593D02*
X658202Y337593D01*
X655093Y340702D01*
X655093Y345098D01*
X657748Y347753D01*
X657788Y347817D01*
X657832Y347879D01*
X657834Y347891D01*
X657839Y347900D01*
X657843Y347937D01*
X657846Y347953D01*
X657852Y347967D01*
X657852Y347983D01*
X657859Y348022D01*
X657859Y385446D01*
X657845Y385508D01*
X657838Y385571D01*
X657825Y385591D01*
X657820Y385615D01*
X657779Y385664D01*
X657745Y385717D01*
X657723Y385732D01*
X657710Y385748D01*
X657675Y385764D01*
X657625Y385797D01*
X655795Y386555D01*
X653509Y388841D01*
X652271Y391829D01*
X652271Y408271D01*
X653509Y411259D01*
X655795Y413545D01*
X658783Y414783D01*
X662017Y414783D01*
X665005Y413545D01*
X667291Y411259D01*
X668529Y408271D01*
X668529Y391829D01*
X667291Y388841D01*
X665005Y386555D01*
X663175Y385797D01*
X663124Y385760D01*
X663068Y385730D01*
X663054Y385710D01*
X663035Y385696D01*
X663005Y385640D01*
X662968Y385588D01*
X662963Y385562D01*
X662953Y385543D01*
X662952Y385505D01*
X662941Y385446D01*
X662941Y348022D01*
X662953Y347968D01*
X662954Y347939D01*
X662962Y347924D01*
X662971Y347873D01*
X662978Y347863D01*
X662980Y347853D01*
X663004Y347824D01*
X663052Y347753D01*
X665707Y345098D01*
X665707Y340702D01*
X662598Y337593D01*
X658202Y337593D01*
G37*
%LPD*%
%LPC*%
G36*
X364512Y251205D02*
X364512Y251205D01*
X359155Y256562D01*
X359155Y264138D01*
X364512Y269495D01*
X365379Y269495D01*
X365429Y269506D01*
X365480Y269508D01*
X365512Y269526D01*
X365548Y269534D01*
X365587Y269567D01*
X365632Y269591D01*
X365653Y269621D01*
X365681Y269644D01*
X365702Y269691D01*
X365732Y269733D01*
X365740Y269775D01*
X365752Y269803D01*
X365751Y269833D01*
X365759Y269875D01*
X365759Y331428D01*
X365742Y331502D01*
X365729Y331577D01*
X365722Y331587D01*
X365720Y331597D01*
X365696Y331626D01*
X365648Y331697D01*
X362993Y334352D01*
X362993Y338748D01*
X366102Y341857D01*
X370498Y341857D01*
X373607Y338748D01*
X373607Y334352D01*
X370952Y331697D01*
X370912Y331633D01*
X370868Y331571D01*
X370866Y331559D01*
X370861Y331550D01*
X370857Y331513D01*
X370841Y331428D01*
X370841Y269875D01*
X370852Y269825D01*
X370854Y269774D01*
X370872Y269742D01*
X370880Y269706D01*
X370913Y269667D01*
X370937Y269622D01*
X370967Y269601D01*
X370990Y269573D01*
X371037Y269552D01*
X371079Y269522D01*
X371121Y269514D01*
X371149Y269502D01*
X371179Y269503D01*
X371221Y269495D01*
X372088Y269495D01*
X377445Y264138D01*
X377445Y256562D01*
X372088Y251205D01*
X364512Y251205D01*
G37*
%LPD*%
%LPC*%
G36*
X632802Y343943D02*
X632802Y343943D01*
X629693Y347052D01*
X629693Y351448D01*
X632348Y354103D01*
X632388Y354167D01*
X632432Y354229D01*
X632434Y354241D01*
X632439Y354250D01*
X632443Y354287D01*
X632459Y354372D01*
X632459Y385446D01*
X632445Y385508D01*
X632438Y385571D01*
X632425Y385591D01*
X632420Y385615D01*
X632379Y385664D01*
X632345Y385717D01*
X632323Y385732D01*
X632310Y385748D01*
X632275Y385764D01*
X632225Y385797D01*
X630395Y386555D01*
X628109Y388841D01*
X626871Y391829D01*
X626871Y408271D01*
X628109Y411259D01*
X630395Y413545D01*
X633383Y414783D01*
X636617Y414783D01*
X639605Y413545D01*
X641891Y411259D01*
X643129Y408271D01*
X643129Y391829D01*
X641891Y388841D01*
X639605Y386555D01*
X637775Y385797D01*
X637724Y385760D01*
X637668Y385730D01*
X637654Y385710D01*
X637635Y385696D01*
X637605Y385640D01*
X637568Y385588D01*
X637563Y385562D01*
X637553Y385543D01*
X637552Y385505D01*
X637541Y385446D01*
X637541Y354372D01*
X637558Y354298D01*
X637571Y354223D01*
X637578Y354213D01*
X637580Y354203D01*
X637604Y354174D01*
X637652Y354103D01*
X640307Y351448D01*
X640307Y347052D01*
X637198Y343943D01*
X632802Y343943D01*
G37*
%LPD*%
%LPC*%
G36*
X531202Y343943D02*
X531202Y343943D01*
X528093Y347052D01*
X528093Y351448D01*
X530748Y354103D01*
X530788Y354167D01*
X530832Y354229D01*
X530834Y354241D01*
X530839Y354250D01*
X530843Y354287D01*
X530859Y354372D01*
X530859Y385446D01*
X530845Y385508D01*
X530838Y385571D01*
X530825Y385591D01*
X530820Y385615D01*
X530779Y385664D01*
X530745Y385717D01*
X530723Y385732D01*
X530710Y385748D01*
X530675Y385764D01*
X530625Y385797D01*
X528795Y386555D01*
X526509Y388841D01*
X525271Y391829D01*
X525271Y408271D01*
X526509Y411259D01*
X528795Y413545D01*
X531783Y414783D01*
X535017Y414783D01*
X538005Y413545D01*
X540291Y411259D01*
X541529Y408271D01*
X541529Y391829D01*
X540291Y388841D01*
X538005Y386555D01*
X536175Y385797D01*
X536124Y385760D01*
X536068Y385730D01*
X536054Y385710D01*
X536035Y385696D01*
X536005Y385640D01*
X535968Y385588D01*
X535963Y385562D01*
X535953Y385543D01*
X535952Y385505D01*
X535941Y385446D01*
X535941Y354372D01*
X535958Y354298D01*
X535971Y354223D01*
X535978Y354213D01*
X535980Y354203D01*
X536004Y354174D01*
X536052Y354103D01*
X538707Y351448D01*
X538707Y347052D01*
X535598Y343943D01*
X531202Y343943D01*
G37*
%LPD*%
%LPC*%
G36*
X440712Y251205D02*
X440712Y251205D01*
X435355Y256562D01*
X435355Y264138D01*
X440712Y269495D01*
X441579Y269495D01*
X441629Y269506D01*
X441680Y269508D01*
X441712Y269526D01*
X441748Y269534D01*
X441787Y269567D01*
X441832Y269591D01*
X441853Y269621D01*
X441881Y269644D01*
X441902Y269691D01*
X441932Y269733D01*
X441940Y269775D01*
X441952Y269803D01*
X441951Y269833D01*
X441959Y269875D01*
X441959Y325078D01*
X441942Y325152D01*
X441929Y325227D01*
X441922Y325237D01*
X441920Y325247D01*
X441896Y325276D01*
X441848Y325347D01*
X439193Y328002D01*
X439193Y332398D01*
X442302Y335507D01*
X446698Y335507D01*
X449807Y332398D01*
X449807Y328002D01*
X447152Y325347D01*
X447112Y325283D01*
X447068Y325221D01*
X447066Y325209D01*
X447061Y325200D01*
X447057Y325163D01*
X447041Y325078D01*
X447041Y269875D01*
X447052Y269825D01*
X447054Y269774D01*
X447072Y269742D01*
X447080Y269706D01*
X447113Y269667D01*
X447137Y269622D01*
X447167Y269601D01*
X447190Y269573D01*
X447237Y269552D01*
X447279Y269522D01*
X447321Y269514D01*
X447349Y269502D01*
X447379Y269503D01*
X447421Y269495D01*
X448288Y269495D01*
X453645Y264138D01*
X453645Y256562D01*
X448288Y251205D01*
X440712Y251205D01*
G37*
%LPD*%
%LPC*%
G36*
X505802Y502693D02*
X505802Y502693D01*
X502693Y505802D01*
X502693Y510198D01*
X505348Y512853D01*
X505388Y512917D01*
X505432Y512979D01*
X505434Y512991D01*
X505439Y513000D01*
X505443Y513037D01*
X505459Y513122D01*
X505459Y537846D01*
X505445Y537908D01*
X505438Y537971D01*
X505425Y537991D01*
X505420Y538015D01*
X505379Y538064D01*
X505345Y538117D01*
X505323Y538132D01*
X505310Y538148D01*
X505275Y538164D01*
X505225Y538197D01*
X503395Y538955D01*
X501109Y541241D01*
X499871Y544229D01*
X499871Y560671D01*
X501109Y563659D01*
X503395Y565945D01*
X506383Y567183D01*
X509617Y567183D01*
X512605Y565945D01*
X514891Y563659D01*
X516129Y560671D01*
X516129Y544229D01*
X514891Y541241D01*
X512605Y538955D01*
X510775Y538197D01*
X510724Y538160D01*
X510668Y538130D01*
X510654Y538110D01*
X510635Y538096D01*
X510605Y538040D01*
X510568Y537988D01*
X510563Y537962D01*
X510553Y537943D01*
X510552Y537905D01*
X510541Y537846D01*
X510541Y513122D01*
X510558Y513048D01*
X510571Y512973D01*
X510578Y512963D01*
X510580Y512953D01*
X510604Y512924D01*
X510652Y512853D01*
X513307Y510198D01*
X513307Y505802D01*
X510198Y502693D01*
X505802Y502693D01*
G37*
%LPD*%
%LPC*%
G36*
X556602Y350293D02*
X556602Y350293D01*
X553493Y353402D01*
X553493Y357798D01*
X556148Y360453D01*
X556188Y360517D01*
X556232Y360579D01*
X556234Y360591D01*
X556239Y360600D01*
X556243Y360637D01*
X556259Y360722D01*
X556259Y385446D01*
X556245Y385508D01*
X556238Y385571D01*
X556225Y385591D01*
X556220Y385615D01*
X556179Y385664D01*
X556145Y385717D01*
X556123Y385732D01*
X556110Y385748D01*
X556075Y385764D01*
X556025Y385797D01*
X554195Y386555D01*
X551909Y388841D01*
X550671Y391829D01*
X550671Y408271D01*
X551909Y411259D01*
X554195Y413545D01*
X557183Y414783D01*
X560417Y414783D01*
X563405Y413545D01*
X565691Y411259D01*
X566929Y408271D01*
X566929Y391829D01*
X565691Y388841D01*
X563405Y386555D01*
X561575Y385797D01*
X561524Y385760D01*
X561468Y385730D01*
X561454Y385710D01*
X561435Y385696D01*
X561405Y385640D01*
X561368Y385588D01*
X561363Y385562D01*
X561353Y385543D01*
X561352Y385505D01*
X561341Y385446D01*
X561341Y360722D01*
X561358Y360648D01*
X561371Y360573D01*
X561378Y360563D01*
X561380Y360553D01*
X561404Y360524D01*
X561452Y360453D01*
X564107Y357798D01*
X564107Y353402D01*
X560998Y350293D01*
X556602Y350293D01*
G37*
%LPD*%
%LPC*%
G36*
X466112Y251205D02*
X466112Y251205D01*
X460755Y256562D01*
X460755Y264138D01*
X466112Y269495D01*
X466979Y269495D01*
X467029Y269506D01*
X467080Y269508D01*
X467112Y269526D01*
X467148Y269534D01*
X467187Y269567D01*
X467232Y269591D01*
X467253Y269621D01*
X467281Y269644D01*
X467302Y269691D01*
X467332Y269733D01*
X467340Y269775D01*
X467352Y269803D01*
X467351Y269833D01*
X467359Y269875D01*
X467359Y318728D01*
X467342Y318802D01*
X467329Y318877D01*
X467322Y318887D01*
X467320Y318897D01*
X467296Y318926D01*
X467248Y318997D01*
X464593Y321652D01*
X464593Y326048D01*
X467702Y329157D01*
X472098Y329157D01*
X475207Y326048D01*
X475207Y321652D01*
X472552Y318997D01*
X472512Y318933D01*
X472468Y318871D01*
X472466Y318859D01*
X472461Y318850D01*
X472457Y318813D01*
X472441Y318728D01*
X472441Y269875D01*
X472452Y269825D01*
X472454Y269774D01*
X472472Y269742D01*
X472480Y269706D01*
X472513Y269667D01*
X472537Y269622D01*
X472567Y269601D01*
X472590Y269573D01*
X472637Y269552D01*
X472679Y269522D01*
X472721Y269514D01*
X472749Y269502D01*
X472779Y269503D01*
X472821Y269495D01*
X473688Y269495D01*
X479045Y264138D01*
X479045Y256562D01*
X473688Y251205D01*
X466112Y251205D01*
G37*
%LPD*%
%LPC*%
G36*
X531202Y509043D02*
X531202Y509043D01*
X528093Y512152D01*
X528093Y516548D01*
X530748Y519203D01*
X530788Y519267D01*
X530832Y519329D01*
X530834Y519341D01*
X530839Y519350D01*
X530843Y519387D01*
X530859Y519472D01*
X530859Y537846D01*
X530845Y537908D01*
X530838Y537971D01*
X530825Y537991D01*
X530820Y538015D01*
X530779Y538064D01*
X530745Y538117D01*
X530723Y538132D01*
X530710Y538148D01*
X530675Y538164D01*
X530625Y538197D01*
X528795Y538955D01*
X526509Y541241D01*
X525271Y544229D01*
X525271Y560671D01*
X526509Y563659D01*
X528795Y565945D01*
X531783Y567183D01*
X535017Y567183D01*
X538005Y565945D01*
X540291Y563659D01*
X541529Y560671D01*
X541529Y544229D01*
X540291Y541241D01*
X538005Y538955D01*
X536175Y538197D01*
X536124Y538160D01*
X536068Y538130D01*
X536054Y538110D01*
X536035Y538096D01*
X536005Y538040D01*
X535968Y537988D01*
X535963Y537962D01*
X535953Y537943D01*
X535952Y537905D01*
X535941Y537846D01*
X535941Y519472D01*
X535958Y519398D01*
X535971Y519323D01*
X535978Y519313D01*
X535980Y519303D01*
X536004Y519274D01*
X536052Y519203D01*
X538707Y516548D01*
X538707Y512152D01*
X535598Y509043D01*
X531202Y509043D01*
G37*
%LPD*%
%LPC*%
G36*
X709002Y356643D02*
X709002Y356643D01*
X705893Y359752D01*
X705893Y364148D01*
X708548Y366803D01*
X708557Y366818D01*
X708562Y366821D01*
X708568Y366835D01*
X708588Y366867D01*
X708632Y366929D01*
X708634Y366941D01*
X708639Y366950D01*
X708643Y366987D01*
X708659Y367072D01*
X708659Y385446D01*
X708645Y385508D01*
X708638Y385571D01*
X708625Y385591D01*
X708620Y385615D01*
X708579Y385664D01*
X708545Y385717D01*
X708523Y385732D01*
X708510Y385748D01*
X708475Y385764D01*
X708425Y385797D01*
X706595Y386555D01*
X704309Y388841D01*
X703071Y391829D01*
X703071Y408271D01*
X704309Y411259D01*
X706595Y413545D01*
X709583Y414783D01*
X712817Y414783D01*
X715805Y413545D01*
X718091Y411259D01*
X719329Y408271D01*
X719329Y391829D01*
X718091Y388841D01*
X715805Y386555D01*
X713975Y385797D01*
X713924Y385760D01*
X713868Y385730D01*
X713854Y385710D01*
X713835Y385696D01*
X713805Y385640D01*
X713768Y385588D01*
X713763Y385562D01*
X713753Y385543D01*
X713752Y385505D01*
X713741Y385446D01*
X713741Y367072D01*
X713758Y366998D01*
X713771Y366923D01*
X713778Y366913D01*
X713780Y366903D01*
X713804Y366874D01*
X713852Y366803D01*
X716507Y364148D01*
X716507Y359752D01*
X713398Y356643D01*
X709002Y356643D01*
G37*
%LPD*%
%LPC*%
G36*
X480983Y537717D02*
X480983Y537717D01*
X477995Y538955D01*
X475709Y541241D01*
X474471Y544229D01*
X474471Y560671D01*
X475709Y563659D01*
X477995Y565945D01*
X479825Y566703D01*
X479876Y566740D01*
X479932Y566770D01*
X479946Y566790D01*
X479965Y566804D01*
X479980Y566832D01*
X479981Y566833D01*
X479985Y566841D01*
X479995Y566860D01*
X480032Y566912D01*
X480037Y566938D01*
X480047Y566957D01*
X480047Y566980D01*
X480052Y566991D01*
X480051Y567014D01*
X480059Y567054D01*
X480059Y585428D01*
X480042Y585502D01*
X480029Y585577D01*
X480022Y585587D01*
X480020Y585597D01*
X479996Y585626D01*
X479948Y585697D01*
X477293Y588352D01*
X477293Y592748D01*
X480402Y595857D01*
X484798Y595857D01*
X487907Y592748D01*
X487907Y588352D01*
X485252Y585697D01*
X485212Y585633D01*
X485168Y585571D01*
X485166Y585559D01*
X485161Y585550D01*
X485157Y585513D01*
X485141Y585428D01*
X485141Y567054D01*
X485153Y567003D01*
X485154Y566963D01*
X485159Y566954D01*
X485162Y566929D01*
X485175Y566909D01*
X485180Y566885D01*
X485221Y566836D01*
X485255Y566783D01*
X485277Y566768D01*
X485290Y566752D01*
X485325Y566736D01*
X485375Y566703D01*
X487205Y565945D01*
X489491Y563659D01*
X490729Y560671D01*
X490729Y544229D01*
X489491Y541241D01*
X487205Y538955D01*
X484217Y537717D01*
X480983Y537717D01*
G37*
%LPD*%
%LPC*%
G36*
X341283Y537717D02*
X341283Y537717D01*
X338295Y538955D01*
X336009Y541241D01*
X334771Y544229D01*
X334771Y560671D01*
X336009Y563659D01*
X338295Y565945D01*
X340125Y566703D01*
X340176Y566740D01*
X340232Y566770D01*
X340246Y566790D01*
X340265Y566804D01*
X340280Y566832D01*
X340281Y566833D01*
X340285Y566841D01*
X340295Y566860D01*
X340332Y566912D01*
X340337Y566938D01*
X340347Y566957D01*
X340347Y566980D01*
X340352Y566991D01*
X340351Y567014D01*
X340359Y567054D01*
X340359Y585428D01*
X340342Y585502D01*
X340329Y585577D01*
X340322Y585587D01*
X340320Y585597D01*
X340296Y585626D01*
X340248Y585697D01*
X337593Y588352D01*
X337593Y592748D01*
X340702Y595857D01*
X345098Y595857D01*
X348207Y592748D01*
X348207Y588352D01*
X345552Y585697D01*
X345512Y585633D01*
X345468Y585571D01*
X345466Y585559D01*
X345461Y585550D01*
X345457Y585513D01*
X345441Y585428D01*
X345441Y567054D01*
X345453Y567003D01*
X345454Y566963D01*
X345459Y566954D01*
X345462Y566929D01*
X345475Y566909D01*
X345480Y566885D01*
X345521Y566836D01*
X345555Y566783D01*
X345577Y566768D01*
X345590Y566752D01*
X345625Y566736D01*
X345675Y566703D01*
X347505Y565945D01*
X349791Y563659D01*
X351029Y560671D01*
X351029Y544229D01*
X349791Y541241D01*
X347505Y538955D01*
X344517Y537717D01*
X341283Y537717D01*
G37*
%LPD*%
%LPC*%
G36*
X491512Y251205D02*
X491512Y251205D01*
X486155Y256562D01*
X486155Y264138D01*
X491512Y269495D01*
X492379Y269495D01*
X492429Y269506D01*
X492480Y269508D01*
X492512Y269526D01*
X492548Y269534D01*
X492587Y269567D01*
X492632Y269591D01*
X492653Y269621D01*
X492681Y269644D01*
X492702Y269691D01*
X492732Y269733D01*
X492740Y269775D01*
X492752Y269803D01*
X492751Y269833D01*
X492759Y269875D01*
X492759Y312378D01*
X492742Y312452D01*
X492729Y312527D01*
X492722Y312537D01*
X492720Y312547D01*
X492696Y312576D01*
X492648Y312647D01*
X489993Y315302D01*
X489993Y319698D01*
X493102Y322807D01*
X497498Y322807D01*
X500607Y319698D01*
X500607Y315302D01*
X497952Y312647D01*
X497912Y312583D01*
X497868Y312521D01*
X497866Y312509D01*
X497861Y312500D01*
X497857Y312463D01*
X497841Y312378D01*
X497841Y269875D01*
X497852Y269825D01*
X497854Y269774D01*
X497872Y269742D01*
X497880Y269706D01*
X497913Y269667D01*
X497937Y269622D01*
X497967Y269601D01*
X497990Y269573D01*
X498037Y269552D01*
X498079Y269522D01*
X498121Y269514D01*
X498149Y269502D01*
X498179Y269503D01*
X498221Y269495D01*
X499088Y269495D01*
X504445Y264138D01*
X504445Y256562D01*
X499088Y251205D01*
X491512Y251205D01*
G37*
%LPD*%
%LPC*%
G36*
X607402Y362993D02*
X607402Y362993D01*
X604293Y366102D01*
X604293Y370498D01*
X606948Y373153D01*
X606988Y373217D01*
X607032Y373279D01*
X607034Y373291D01*
X607039Y373300D01*
X607043Y373337D01*
X607059Y373422D01*
X607059Y385446D01*
X607045Y385508D01*
X607038Y385571D01*
X607025Y385591D01*
X607020Y385615D01*
X606979Y385664D01*
X606945Y385717D01*
X606923Y385732D01*
X606910Y385748D01*
X606875Y385764D01*
X606825Y385797D01*
X604995Y386555D01*
X602709Y388841D01*
X601471Y391829D01*
X601471Y408271D01*
X602709Y411259D01*
X604995Y413545D01*
X607983Y414783D01*
X611217Y414783D01*
X614205Y413545D01*
X616491Y411259D01*
X617729Y408271D01*
X617729Y391829D01*
X616491Y388841D01*
X614205Y386555D01*
X612375Y385797D01*
X612324Y385760D01*
X612268Y385730D01*
X612254Y385710D01*
X612235Y385696D01*
X612205Y385640D01*
X612168Y385588D01*
X612163Y385562D01*
X612153Y385543D01*
X612152Y385505D01*
X612141Y385446D01*
X612141Y373422D01*
X612158Y373348D01*
X612171Y373273D01*
X612178Y373263D01*
X612180Y373253D01*
X612204Y373224D01*
X612252Y373153D01*
X614907Y370498D01*
X614907Y366102D01*
X611798Y362993D01*
X607402Y362993D01*
G37*
%LPD*%
%LPC*%
G36*
X516912Y251205D02*
X516912Y251205D01*
X511555Y256562D01*
X511555Y264138D01*
X516912Y269495D01*
X517779Y269495D01*
X517829Y269506D01*
X517880Y269508D01*
X517912Y269526D01*
X517948Y269534D01*
X517987Y269567D01*
X518032Y269591D01*
X518053Y269621D01*
X518081Y269644D01*
X518102Y269691D01*
X518132Y269733D01*
X518140Y269775D01*
X518152Y269803D01*
X518151Y269833D01*
X518159Y269875D01*
X518159Y306028D01*
X518142Y306102D01*
X518129Y306177D01*
X518122Y306187D01*
X518120Y306197D01*
X518096Y306226D01*
X518048Y306297D01*
X515393Y308952D01*
X515393Y313348D01*
X518502Y316457D01*
X522898Y316457D01*
X526007Y313348D01*
X526007Y308952D01*
X523352Y306297D01*
X523312Y306233D01*
X523268Y306171D01*
X523266Y306159D01*
X523261Y306150D01*
X523257Y306113D01*
X523241Y306028D01*
X523241Y269875D01*
X523252Y269825D01*
X523254Y269774D01*
X523272Y269742D01*
X523280Y269706D01*
X523313Y269667D01*
X523337Y269622D01*
X523367Y269601D01*
X523390Y269573D01*
X523437Y269552D01*
X523479Y269522D01*
X523521Y269514D01*
X523549Y269502D01*
X523579Y269503D01*
X523621Y269495D01*
X524488Y269495D01*
X529845Y264138D01*
X529845Y256562D01*
X524488Y251205D01*
X516912Y251205D01*
G37*
%LPD*%
%LPC*%
G36*
X582002Y369343D02*
X582002Y369343D01*
X578893Y372452D01*
X578893Y376848D01*
X581548Y379503D01*
X581588Y379567D01*
X581632Y379629D01*
X581634Y379641D01*
X581639Y379650D01*
X581643Y379687D01*
X581659Y379772D01*
X581659Y385446D01*
X581645Y385508D01*
X581638Y385571D01*
X581625Y385591D01*
X581620Y385615D01*
X581579Y385664D01*
X581545Y385717D01*
X581523Y385732D01*
X581510Y385748D01*
X581475Y385764D01*
X581425Y385797D01*
X579595Y386555D01*
X577309Y388841D01*
X576071Y391829D01*
X576071Y408271D01*
X577309Y411259D01*
X579595Y413545D01*
X582583Y414783D01*
X585817Y414783D01*
X588805Y413545D01*
X591091Y411259D01*
X592329Y408271D01*
X592329Y391829D01*
X591091Y388841D01*
X588805Y386555D01*
X586975Y385797D01*
X586924Y385760D01*
X586868Y385730D01*
X586854Y385710D01*
X586835Y385696D01*
X586805Y385640D01*
X586768Y385588D01*
X586763Y385562D01*
X586753Y385543D01*
X586752Y385505D01*
X586741Y385446D01*
X586741Y379772D01*
X586758Y379698D01*
X586771Y379623D01*
X586778Y379613D01*
X586780Y379603D01*
X586804Y379574D01*
X586852Y379503D01*
X589507Y376848D01*
X589507Y372452D01*
X586398Y369343D01*
X582002Y369343D01*
G37*
%LPD*%
%LPC*%
G36*
X341283Y385317D02*
X341283Y385317D01*
X338295Y386555D01*
X336009Y388841D01*
X334771Y391829D01*
X334771Y408271D01*
X336009Y411259D01*
X338295Y413545D01*
X340125Y414303D01*
X340176Y414340D01*
X340232Y414370D01*
X340246Y414390D01*
X340265Y414404D01*
X340295Y414460D01*
X340332Y414512D01*
X340337Y414538D01*
X340347Y414557D01*
X340348Y414595D01*
X340359Y414654D01*
X340359Y420328D01*
X340346Y420386D01*
X340346Y420388D01*
X340345Y420389D01*
X340342Y420402D01*
X340329Y420477D01*
X340322Y420487D01*
X340320Y420497D01*
X340296Y420526D01*
X340248Y420597D01*
X337593Y423252D01*
X337593Y427648D01*
X340702Y430757D01*
X345098Y430757D01*
X348207Y427648D01*
X348207Y423252D01*
X345552Y420597D01*
X345512Y420533D01*
X345468Y420471D01*
X345466Y420459D01*
X345461Y420450D01*
X345457Y420413D01*
X345441Y420328D01*
X345441Y414654D01*
X345455Y414592D01*
X345462Y414529D01*
X345475Y414509D01*
X345480Y414485D01*
X345521Y414436D01*
X345555Y414383D01*
X345577Y414368D01*
X345590Y414352D01*
X345625Y414336D01*
X345675Y414303D01*
X347505Y413545D01*
X349791Y411259D01*
X351029Y408271D01*
X351029Y391829D01*
X349791Y388841D01*
X347505Y386555D01*
X344517Y385317D01*
X341283Y385317D01*
G37*
%LPD*%
%LPC*%
G36*
X455583Y385317D02*
X455583Y385317D01*
X452595Y386555D01*
X450309Y388841D01*
X449071Y391829D01*
X449071Y408271D01*
X450309Y411259D01*
X452595Y413545D01*
X454425Y414303D01*
X454476Y414340D01*
X454532Y414370D01*
X454546Y414390D01*
X454565Y414404D01*
X454595Y414460D01*
X454632Y414512D01*
X454637Y414538D01*
X454647Y414557D01*
X454648Y414595D01*
X454659Y414654D01*
X454659Y420328D01*
X454646Y420386D01*
X454646Y420388D01*
X454645Y420389D01*
X454642Y420402D01*
X454629Y420477D01*
X454622Y420487D01*
X454620Y420497D01*
X454596Y420526D01*
X454548Y420597D01*
X451893Y423252D01*
X451893Y427648D01*
X455002Y430757D01*
X459398Y430757D01*
X462507Y427648D01*
X462507Y423252D01*
X459852Y420597D01*
X459812Y420533D01*
X459768Y420471D01*
X459766Y420459D01*
X459761Y420450D01*
X459757Y420413D01*
X459741Y420328D01*
X459741Y414654D01*
X459755Y414592D01*
X459762Y414529D01*
X459775Y414509D01*
X459780Y414485D01*
X459821Y414436D01*
X459855Y414383D01*
X459877Y414368D01*
X459890Y414352D01*
X459925Y414336D01*
X459975Y414303D01*
X461805Y413545D01*
X464091Y411259D01*
X465329Y408271D01*
X465329Y391829D01*
X464091Y388841D01*
X461805Y386555D01*
X458817Y385317D01*
X455583Y385317D01*
G37*
%LPD*%
%LPC*%
G36*
X542312Y251205D02*
X542312Y251205D01*
X536955Y256562D01*
X536955Y264138D01*
X542312Y269495D01*
X543179Y269495D01*
X543229Y269506D01*
X543280Y269508D01*
X543312Y269526D01*
X543348Y269534D01*
X543387Y269567D01*
X543432Y269591D01*
X543453Y269621D01*
X543481Y269644D01*
X543502Y269691D01*
X543532Y269733D01*
X543540Y269775D01*
X543552Y269803D01*
X543551Y269833D01*
X543559Y269875D01*
X543559Y299678D01*
X543542Y299752D01*
X543529Y299827D01*
X543522Y299837D01*
X543520Y299847D01*
X543496Y299876D01*
X543448Y299947D01*
X540793Y302602D01*
X540793Y306998D01*
X543902Y310107D01*
X548298Y310107D01*
X551407Y306998D01*
X551407Y302602D01*
X548752Y299947D01*
X548712Y299883D01*
X548668Y299821D01*
X548666Y299809D01*
X548661Y299800D01*
X548657Y299763D01*
X548641Y299678D01*
X548641Y269875D01*
X548652Y269825D01*
X548654Y269774D01*
X548672Y269742D01*
X548680Y269706D01*
X548713Y269667D01*
X548737Y269622D01*
X548767Y269601D01*
X548790Y269573D01*
X548837Y269552D01*
X548879Y269522D01*
X548921Y269514D01*
X548949Y269502D01*
X548979Y269503D01*
X549021Y269495D01*
X549888Y269495D01*
X555245Y264138D01*
X555245Y256562D01*
X549888Y251205D01*
X542312Y251205D01*
G37*
%LPD*%
%LPC*%
G36*
X480983Y385317D02*
X480983Y385317D01*
X477995Y386555D01*
X475709Y388841D01*
X474471Y391829D01*
X474471Y408271D01*
X475709Y411259D01*
X477995Y413545D01*
X479347Y414105D01*
X479378Y414127D01*
X479414Y414141D01*
X479447Y414177D01*
X479487Y414206D01*
X479506Y414240D01*
X479532Y414268D01*
X479546Y414315D01*
X479569Y414359D01*
X479570Y414397D01*
X479581Y414434D01*
X479572Y414483D01*
X479574Y414532D01*
X479558Y414567D01*
X479551Y414605D01*
X479517Y414655D01*
X479501Y414690D01*
X479485Y414703D01*
X479470Y414725D01*
X477293Y416902D01*
X477293Y421298D01*
X480402Y424407D01*
X484798Y424407D01*
X487907Y421298D01*
X487907Y416902D01*
X485730Y414725D01*
X485710Y414692D01*
X485682Y414666D01*
X485665Y414620D01*
X485639Y414578D01*
X485635Y414540D01*
X485622Y414504D01*
X485627Y414455D01*
X485622Y414405D01*
X485636Y414369D01*
X485640Y414331D01*
X485666Y414290D01*
X485684Y414243D01*
X485712Y414217D01*
X485732Y414185D01*
X485783Y414151D01*
X485811Y414126D01*
X485831Y414120D01*
X485853Y414105D01*
X487205Y413545D01*
X489491Y411259D01*
X490729Y408271D01*
X490729Y391829D01*
X489491Y388841D01*
X487205Y386555D01*
X484217Y385317D01*
X480983Y385317D01*
G37*
%LPD*%
%LPC*%
G36*
X567712Y251205D02*
X567712Y251205D01*
X562355Y256562D01*
X562355Y264138D01*
X567712Y269495D01*
X568579Y269495D01*
X568629Y269506D01*
X568680Y269508D01*
X568712Y269526D01*
X568748Y269534D01*
X568787Y269567D01*
X568832Y269591D01*
X568853Y269621D01*
X568881Y269644D01*
X568902Y269691D01*
X568932Y269733D01*
X568940Y269775D01*
X568952Y269803D01*
X568951Y269833D01*
X568959Y269875D01*
X568959Y293328D01*
X568942Y293402D01*
X568929Y293477D01*
X568922Y293487D01*
X568920Y293497D01*
X568896Y293526D01*
X568848Y293597D01*
X566193Y296252D01*
X566193Y300648D01*
X569302Y303757D01*
X573698Y303757D01*
X576807Y300648D01*
X576807Y296252D01*
X574152Y293597D01*
X574112Y293533D01*
X574068Y293471D01*
X574066Y293459D01*
X574061Y293450D01*
X574057Y293413D01*
X574041Y293328D01*
X574041Y269875D01*
X574052Y269825D01*
X574054Y269774D01*
X574072Y269742D01*
X574080Y269706D01*
X574113Y269667D01*
X574137Y269622D01*
X574167Y269601D01*
X574190Y269573D01*
X574237Y269552D01*
X574279Y269522D01*
X574321Y269514D01*
X574349Y269502D01*
X574379Y269503D01*
X574421Y269495D01*
X575288Y269495D01*
X580645Y264138D01*
X580645Y256562D01*
X575288Y251205D01*
X567712Y251205D01*
G37*
%LPD*%
%LPC*%
G36*
X593112Y251205D02*
X593112Y251205D01*
X587755Y256562D01*
X587755Y264138D01*
X593112Y269495D01*
X593979Y269495D01*
X594029Y269506D01*
X594080Y269508D01*
X594112Y269526D01*
X594148Y269534D01*
X594187Y269567D01*
X594232Y269591D01*
X594253Y269621D01*
X594281Y269644D01*
X594302Y269691D01*
X594332Y269733D01*
X594340Y269775D01*
X594352Y269803D01*
X594351Y269833D01*
X594359Y269875D01*
X594359Y286978D01*
X594342Y287052D01*
X594329Y287127D01*
X594322Y287137D01*
X594320Y287147D01*
X594296Y287176D01*
X594248Y287247D01*
X591593Y289902D01*
X591593Y294298D01*
X594702Y297407D01*
X599098Y297407D01*
X602207Y294298D01*
X602207Y289902D01*
X599552Y287247D01*
X599512Y287183D01*
X599468Y287121D01*
X599466Y287109D01*
X599461Y287100D01*
X599457Y287063D01*
X599441Y286978D01*
X599441Y269875D01*
X599452Y269825D01*
X599454Y269774D01*
X599472Y269742D01*
X599480Y269706D01*
X599513Y269667D01*
X599537Y269622D01*
X599567Y269601D01*
X599590Y269573D01*
X599637Y269552D01*
X599679Y269522D01*
X599721Y269514D01*
X599749Y269502D01*
X599779Y269503D01*
X599821Y269495D01*
X600688Y269495D01*
X606045Y264138D01*
X606045Y256562D01*
X600688Y251205D01*
X593112Y251205D01*
G37*
%LPD*%
%LPC*%
G36*
X618512Y251205D02*
X618512Y251205D01*
X613155Y256562D01*
X613155Y264138D01*
X618512Y269495D01*
X619379Y269495D01*
X619429Y269506D01*
X619480Y269508D01*
X619512Y269526D01*
X619548Y269534D01*
X619587Y269567D01*
X619632Y269591D01*
X619653Y269621D01*
X619681Y269644D01*
X619702Y269691D01*
X619732Y269733D01*
X619740Y269775D01*
X619752Y269803D01*
X619751Y269833D01*
X619759Y269875D01*
X619759Y280628D01*
X619742Y280702D01*
X619729Y280777D01*
X619722Y280787D01*
X619720Y280797D01*
X619696Y280826D01*
X619648Y280897D01*
X616993Y283552D01*
X616993Y287948D01*
X620102Y291057D01*
X624498Y291057D01*
X627607Y287948D01*
X627607Y283552D01*
X624952Y280897D01*
X624912Y280833D01*
X624868Y280771D01*
X624866Y280759D01*
X624861Y280750D01*
X624857Y280713D01*
X624841Y280628D01*
X624841Y269875D01*
X624852Y269825D01*
X624854Y269774D01*
X624872Y269742D01*
X624880Y269706D01*
X624913Y269667D01*
X624937Y269622D01*
X624967Y269601D01*
X624990Y269573D01*
X625037Y269552D01*
X625079Y269522D01*
X625121Y269514D01*
X625149Y269502D01*
X625179Y269503D01*
X625221Y269495D01*
X626088Y269495D01*
X631445Y264138D01*
X631445Y256562D01*
X626088Y251205D01*
X618512Y251205D01*
G37*
%LPD*%
%LPC*%
G36*
X61883Y385317D02*
X61883Y385317D01*
X58895Y386555D01*
X56609Y388841D01*
X55371Y391829D01*
X55371Y408271D01*
X56609Y411259D01*
X58895Y413545D01*
X61883Y414783D01*
X65117Y414783D01*
X68105Y413545D01*
X70391Y411259D01*
X71629Y408271D01*
X71629Y391829D01*
X70391Y388841D01*
X68105Y386555D01*
X65117Y385317D01*
X61883Y385317D01*
G37*
%LPD*%
%LPC*%
G36*
X112683Y385317D02*
X112683Y385317D01*
X109695Y386555D01*
X107409Y388841D01*
X106171Y391829D01*
X106171Y408271D01*
X107409Y411259D01*
X109695Y413545D01*
X112683Y414783D01*
X115917Y414783D01*
X118905Y413545D01*
X121191Y411259D01*
X122429Y408271D01*
X122429Y391829D01*
X121191Y388841D01*
X118905Y386555D01*
X115917Y385317D01*
X112683Y385317D01*
G37*
%LPD*%
%LPC*%
G36*
X138083Y385317D02*
X138083Y385317D01*
X135095Y386555D01*
X132809Y388841D01*
X131571Y391829D01*
X131571Y408271D01*
X132809Y411259D01*
X135095Y413545D01*
X138083Y414783D01*
X141317Y414783D01*
X144305Y413545D01*
X146591Y411259D01*
X147829Y408271D01*
X147829Y391829D01*
X146591Y388841D01*
X144305Y386555D01*
X141317Y385317D01*
X138083Y385317D01*
G37*
%LPD*%
%LPC*%
G36*
X87283Y385317D02*
X87283Y385317D01*
X84295Y386555D01*
X82009Y388841D01*
X80771Y391829D01*
X80771Y408271D01*
X82009Y411259D01*
X84295Y413545D01*
X87283Y414783D01*
X90517Y414783D01*
X93505Y413545D01*
X95791Y411259D01*
X97029Y408271D01*
X97029Y391829D01*
X95791Y388841D01*
X93505Y386555D01*
X90517Y385317D01*
X87283Y385317D01*
G37*
%LPD*%
%LPC*%
G36*
X112683Y537717D02*
X112683Y537717D01*
X109695Y538955D01*
X107409Y541241D01*
X106171Y544229D01*
X106171Y560671D01*
X107409Y563659D01*
X109695Y565945D01*
X112683Y567183D01*
X115917Y567183D01*
X118905Y565945D01*
X121191Y563659D01*
X122429Y560671D01*
X122429Y544229D01*
X121191Y541241D01*
X118905Y538955D01*
X115917Y537717D01*
X112683Y537717D01*
G37*
%LPD*%
%LPC*%
G36*
X138083Y537717D02*
X138083Y537717D01*
X135095Y538955D01*
X132809Y541241D01*
X131571Y544229D01*
X131571Y560671D01*
X132809Y563659D01*
X135095Y565945D01*
X138083Y567183D01*
X141317Y567183D01*
X144305Y565945D01*
X146591Y563659D01*
X147829Y560671D01*
X147829Y544229D01*
X146591Y541241D01*
X144305Y538955D01*
X141317Y537717D01*
X138083Y537717D01*
G37*
%LPD*%
%LPC*%
G36*
X265083Y537717D02*
X265083Y537717D01*
X262095Y538955D01*
X259809Y541241D01*
X258571Y544229D01*
X258571Y560671D01*
X259809Y563659D01*
X262095Y565945D01*
X265083Y567183D01*
X268317Y567183D01*
X271305Y565945D01*
X273591Y563659D01*
X274829Y560671D01*
X274829Y544229D01*
X273591Y541241D01*
X271305Y538955D01*
X268317Y537717D01*
X265083Y537717D01*
G37*
%LPD*%
%LPC*%
G36*
X315883Y537717D02*
X315883Y537717D01*
X312895Y538955D01*
X310609Y541241D01*
X309371Y544229D01*
X309371Y560671D01*
X310609Y563659D01*
X312895Y565945D01*
X315883Y567183D01*
X319117Y567183D01*
X322105Y565945D01*
X324391Y563659D01*
X325629Y560671D01*
X325629Y544229D01*
X324391Y541241D01*
X322105Y538955D01*
X319117Y537717D01*
X315883Y537717D01*
G37*
%LPD*%
%LPC*%
G36*
X290483Y537717D02*
X290483Y537717D01*
X287495Y538955D01*
X285209Y541241D01*
X283971Y544229D01*
X283971Y560671D01*
X285209Y563659D01*
X287495Y565945D01*
X290483Y567183D01*
X293717Y567183D01*
X296705Y565945D01*
X298991Y563659D01*
X300229Y560671D01*
X300229Y544229D01*
X298991Y541241D01*
X296705Y538955D01*
X293717Y537717D01*
X290483Y537717D01*
G37*
%LPD*%
%LPC*%
G36*
X640230Y622150D02*
X640230Y622150D01*
X636775Y623581D01*
X634131Y626225D01*
X632700Y629680D01*
X632700Y633420D01*
X634131Y636875D01*
X636775Y639519D01*
X638575Y640264D01*
X638626Y640301D01*
X638682Y640331D01*
X638696Y640351D01*
X638715Y640365D01*
X638745Y640421D01*
X638782Y640473D01*
X638787Y640499D01*
X638797Y640518D01*
X638798Y640556D01*
X638809Y640615D01*
X638809Y648928D01*
X638792Y649002D01*
X638779Y649077D01*
X638772Y649087D01*
X638770Y649097D01*
X638746Y649126D01*
X638698Y649197D01*
X636043Y651852D01*
X636043Y656248D01*
X639152Y659357D01*
X643548Y659357D01*
X646657Y656248D01*
X646657Y651852D01*
X644002Y649197D01*
X643962Y649133D01*
X643918Y649071D01*
X643916Y649059D01*
X643911Y649050D01*
X643907Y649013D01*
X643891Y648928D01*
X643891Y641237D01*
X643905Y641175D01*
X643912Y641112D01*
X643925Y641091D01*
X643930Y641068D01*
X643971Y641019D01*
X644005Y640965D01*
X644027Y640950D01*
X644040Y640934D01*
X644075Y640919D01*
X644125Y640885D01*
X647425Y639519D01*
X650069Y636875D01*
X651500Y633420D01*
X651500Y629680D01*
X650069Y626225D01*
X647425Y623581D01*
X643970Y622150D01*
X640230Y622150D01*
G37*
%LPD*%
%LPC*%
G36*
X513230Y622150D02*
X513230Y622150D01*
X509775Y623581D01*
X507131Y626225D01*
X505700Y629680D01*
X505700Y633420D01*
X507131Y636875D01*
X509775Y639519D01*
X512325Y640575D01*
X512376Y640612D01*
X512432Y640642D01*
X512446Y640662D01*
X512465Y640676D01*
X512495Y640732D01*
X512532Y640784D01*
X512537Y640810D01*
X512547Y640829D01*
X512548Y640866D01*
X512559Y640926D01*
X512559Y642013D01*
X512548Y642063D01*
X512546Y642114D01*
X512528Y642146D01*
X512520Y642182D01*
X512487Y642221D01*
X512463Y642266D01*
X512433Y642287D01*
X512410Y642315D01*
X512363Y642336D01*
X512321Y642366D01*
X512279Y642374D01*
X512251Y642386D01*
X512221Y642385D01*
X512179Y642393D01*
X512152Y642393D01*
X509043Y645502D01*
X509043Y649898D01*
X512152Y653007D01*
X516548Y653007D01*
X519657Y649898D01*
X519657Y645502D01*
X517752Y643597D01*
X517712Y643533D01*
X517668Y643471D01*
X517666Y643459D01*
X517661Y643450D01*
X517657Y643413D01*
X517641Y643328D01*
X517641Y640926D01*
X517655Y640864D01*
X517662Y640801D01*
X517675Y640781D01*
X517680Y640757D01*
X517721Y640708D01*
X517755Y640655D01*
X517777Y640640D01*
X517790Y640623D01*
X517825Y640608D01*
X517875Y640575D01*
X520425Y639519D01*
X523069Y636875D01*
X524500Y633420D01*
X524500Y629680D01*
X523069Y626225D01*
X520425Y623581D01*
X516970Y622150D01*
X513230Y622150D01*
G37*
%LPD*%
%LPC*%
G36*
X480730Y603650D02*
X480730Y603650D01*
X477275Y605081D01*
X474631Y607725D01*
X473200Y611180D01*
X473200Y614920D01*
X474631Y618375D01*
X477275Y621019D01*
X480730Y622450D01*
X484470Y622450D01*
X487925Y621019D01*
X490569Y618375D01*
X492000Y614920D01*
X492000Y611180D01*
X490569Y607725D01*
X487925Y605081D01*
X484470Y603650D01*
X480730Y603650D01*
G37*
%LPD*%
%LPC*%
G36*
X448230Y622150D02*
X448230Y622150D01*
X444775Y623581D01*
X442131Y626225D01*
X440700Y629680D01*
X440700Y633420D01*
X442131Y636875D01*
X444775Y639519D01*
X448230Y640950D01*
X451970Y640950D01*
X455425Y639519D01*
X458069Y636875D01*
X459500Y633420D01*
X459500Y629680D01*
X458069Y626225D01*
X455425Y623581D01*
X451970Y622150D01*
X448230Y622150D01*
G37*
%LPD*%
%LPC*%
G36*
X575230Y622150D02*
X575230Y622150D01*
X571775Y623581D01*
X569131Y626225D01*
X567700Y629680D01*
X567700Y633420D01*
X569131Y636875D01*
X571775Y639519D01*
X575230Y640950D01*
X578970Y640950D01*
X582425Y639519D01*
X585069Y636875D01*
X586500Y633420D01*
X586500Y629680D01*
X585069Y626225D01*
X582425Y623581D01*
X578970Y622150D01*
X575230Y622150D01*
G37*
%LPD*%
%LPC*%
G36*
X607730Y603650D02*
X607730Y603650D01*
X604275Y605081D01*
X601631Y607725D01*
X600200Y611180D01*
X600200Y614920D01*
X601631Y618375D01*
X604275Y621019D01*
X607730Y622450D01*
X611470Y622450D01*
X614925Y621019D01*
X617569Y618375D01*
X619000Y614920D01*
X619000Y611180D01*
X617569Y607725D01*
X614925Y605081D01*
X611470Y603650D01*
X607730Y603650D01*
G37*
%LPD*%
%LPC*%
G36*
X59712Y657605D02*
X59712Y657605D01*
X54355Y662962D01*
X54355Y670538D01*
X59712Y675895D01*
X67288Y675895D01*
X72645Y670538D01*
X72645Y662962D01*
X67288Y657605D01*
X59712Y657605D01*
G37*
%LPD*%
%LPC*%
G36*
X262912Y251205D02*
X262912Y251205D01*
X257555Y256562D01*
X257555Y264138D01*
X262912Y269495D01*
X270488Y269495D01*
X275845Y264138D01*
X275845Y256562D01*
X270488Y251205D01*
X262912Y251205D01*
G37*
%LPD*%
%LPC*%
G36*
X237512Y251205D02*
X237512Y251205D01*
X232155Y256562D01*
X232155Y264138D01*
X237512Y269495D01*
X245088Y269495D01*
X250445Y264138D01*
X250445Y256562D01*
X245088Y251205D01*
X237512Y251205D01*
G37*
%LPD*%
%LPC*%
G36*
X313712Y251205D02*
X313712Y251205D01*
X308355Y256562D01*
X308355Y264138D01*
X313712Y269495D01*
X321288Y269495D01*
X326645Y264138D01*
X326645Y256562D01*
X321288Y251205D01*
X313712Y251205D01*
G37*
%LPD*%
%LPC*%
G36*
X389912Y251205D02*
X389912Y251205D01*
X384555Y256562D01*
X384555Y264138D01*
X389912Y269495D01*
X397488Y269495D01*
X402845Y264138D01*
X402845Y256562D01*
X397488Y251205D01*
X389912Y251205D01*
G37*
%LPD*%
%LPC*%
G36*
X339112Y251205D02*
X339112Y251205D01*
X333755Y256562D01*
X333755Y264138D01*
X339112Y269495D01*
X346688Y269495D01*
X352045Y264138D01*
X352045Y256562D01*
X346688Y251205D01*
X339112Y251205D01*
G37*
%LPD*%
%LPC*%
G36*
X89661Y553211D02*
X89661Y553211D01*
X89661Y568199D01*
X89801Y568199D01*
X91567Y567847D01*
X93232Y567158D01*
X94729Y566157D01*
X96003Y564883D01*
X97004Y563386D01*
X97693Y561721D01*
X98045Y559955D01*
X98045Y553211D01*
X89661Y553211D01*
G37*
%LPD*%
%LPC*%
G36*
X813561Y400811D02*
X813561Y400811D01*
X813561Y415799D01*
X813701Y415799D01*
X815467Y415447D01*
X817132Y414758D01*
X818629Y413757D01*
X819903Y412483D01*
X820904Y410986D01*
X821593Y409321D01*
X821945Y407555D01*
X821945Y400811D01*
X813561Y400811D01*
G37*
%LPD*%
%LPC*%
G36*
X432561Y400811D02*
X432561Y400811D01*
X432561Y415799D01*
X432701Y415799D01*
X434467Y415447D01*
X436132Y414758D01*
X437629Y413757D01*
X438903Y412483D01*
X439904Y410986D01*
X440593Y409321D01*
X440945Y407555D01*
X440945Y400811D01*
X432561Y400811D01*
G37*
%LPD*%
%LPC*%
G36*
X457961Y553211D02*
X457961Y553211D01*
X457961Y568199D01*
X458101Y568199D01*
X459867Y567847D01*
X461532Y567158D01*
X463029Y566157D01*
X464303Y564883D01*
X465304Y563386D01*
X465993Y561721D01*
X466345Y559955D01*
X466345Y553211D01*
X457961Y553211D01*
G37*
%LPD*%
%LPC*%
G36*
X457961Y536701D02*
X457961Y536701D01*
X457961Y551689D01*
X466345Y551689D01*
X466345Y544945D01*
X466145Y543941D01*
X466069Y543561D01*
X466069Y543560D01*
X465993Y543179D01*
X465304Y541514D01*
X464303Y540017D01*
X463029Y538743D01*
X461532Y537742D01*
X459867Y537053D01*
X458101Y536701D01*
X457961Y536701D01*
G37*
%LPD*%
%LPC*%
G36*
X89661Y536701D02*
X89661Y536701D01*
X89661Y551689D01*
X98045Y551689D01*
X98045Y544945D01*
X97845Y543941D01*
X97769Y543561D01*
X97769Y543560D01*
X97693Y543179D01*
X97004Y541514D01*
X96003Y540017D01*
X94729Y538743D01*
X93232Y537742D01*
X91567Y537053D01*
X89801Y536701D01*
X89661Y536701D01*
G37*
%LPD*%
%LPC*%
G36*
X813561Y384301D02*
X813561Y384301D01*
X813561Y399289D01*
X821945Y399289D01*
X821945Y392545D01*
X821880Y392221D01*
X821729Y391461D01*
X821729Y391460D01*
X821653Y391080D01*
X821593Y390779D01*
X820904Y389114D01*
X819903Y387617D01*
X818629Y386343D01*
X817132Y385342D01*
X815467Y384653D01*
X813701Y384301D01*
X813561Y384301D01*
G37*
%LPD*%
%LPC*%
G36*
X432561Y384301D02*
X432561Y384301D01*
X432561Y399289D01*
X440945Y399289D01*
X440945Y392545D01*
X440880Y392221D01*
X440729Y391461D01*
X440729Y391460D01*
X440653Y391080D01*
X440593Y390779D01*
X439904Y389114D01*
X438903Y387617D01*
X437629Y386343D01*
X436132Y385342D01*
X434467Y384653D01*
X432701Y384301D01*
X432561Y384301D01*
G37*
%LPD*%
%LPC*%
G36*
X79755Y553211D02*
X79755Y553211D01*
X79755Y559955D01*
X79869Y560527D01*
X79945Y560907D01*
X80096Y561667D01*
X80096Y561668D01*
X80107Y561721D01*
X80796Y563386D01*
X81797Y564883D01*
X83071Y566157D01*
X84568Y567158D01*
X86233Y567847D01*
X87999Y568199D01*
X88139Y568199D01*
X88139Y553211D01*
X79755Y553211D01*
G37*
%LPD*%
%LPC*%
G36*
X448055Y553211D02*
X448055Y553211D01*
X448055Y559955D01*
X448169Y560527D01*
X448245Y560907D01*
X448396Y561667D01*
X448396Y561668D01*
X448407Y561721D01*
X449096Y563386D01*
X450097Y564883D01*
X451371Y566157D01*
X452868Y567158D01*
X454533Y567847D01*
X456299Y568199D01*
X456439Y568199D01*
X456439Y553211D01*
X448055Y553211D01*
G37*
%LPD*%
%LPC*%
G36*
X803655Y400811D02*
X803655Y400811D01*
X803655Y407555D01*
X803677Y407666D01*
X803753Y408046D01*
X803753Y408047D01*
X803980Y409187D01*
X804007Y409321D01*
X804696Y410986D01*
X805697Y412483D01*
X806971Y413757D01*
X808468Y414758D01*
X810133Y415447D01*
X811899Y415799D01*
X812039Y415799D01*
X812039Y400811D01*
X803655Y400811D01*
G37*
%LPD*%
%LPC*%
G36*
X811899Y384301D02*
X811899Y384301D01*
X810133Y384653D01*
X808468Y385342D01*
X806971Y386343D01*
X805697Y387617D01*
X804696Y389114D01*
X804007Y390779D01*
X803655Y392545D01*
X803655Y399289D01*
X812039Y399289D01*
X812039Y384301D01*
X811899Y384301D01*
G37*
%LPD*%
%LPC*%
G36*
X456299Y536701D02*
X456299Y536701D01*
X454533Y537053D01*
X452868Y537742D01*
X451371Y538743D01*
X450097Y540017D01*
X449096Y541514D01*
X448407Y543179D01*
X448055Y544945D01*
X448055Y551689D01*
X456439Y551689D01*
X456439Y536701D01*
X456299Y536701D01*
G37*
%LPD*%
%LPC*%
G36*
X87999Y536701D02*
X87999Y536701D01*
X86233Y537053D01*
X84568Y537742D01*
X83071Y538743D01*
X81797Y540017D01*
X80796Y541514D01*
X80107Y543179D01*
X79755Y544945D01*
X79755Y551689D01*
X88139Y551689D01*
X88139Y536701D01*
X87999Y536701D01*
G37*
%LPD*%
%LPC*%
G36*
X648461Y261111D02*
X648461Y261111D01*
X648461Y270511D01*
X655655Y270511D01*
X656301Y270338D01*
X656880Y270003D01*
X657353Y269530D01*
X657688Y268951D01*
X657715Y268847D01*
X657861Y268305D01*
X657861Y261111D01*
X648461Y261111D01*
G37*
%LPD*%
%LPC*%
G36*
X648461Y235711D02*
X648461Y235711D01*
X648461Y245111D01*
X655655Y245111D01*
X656301Y244938D01*
X656880Y244603D01*
X657353Y244130D01*
X657688Y243551D01*
X657861Y242905D01*
X657861Y235711D01*
X648461Y235711D01*
G37*
%LPD*%
%LPC*%
G36*
X64261Y616711D02*
X64261Y616711D01*
X64261Y626111D01*
X71455Y626111D01*
X72101Y625938D01*
X72680Y625603D01*
X73153Y625130D01*
X73488Y624551D01*
X73661Y623905D01*
X73661Y616711D01*
X64261Y616711D01*
G37*
%LPD*%
%LPC*%
G36*
X637539Y235711D02*
X637539Y235711D01*
X637539Y242905D01*
X637712Y243551D01*
X638047Y244130D01*
X638520Y244603D01*
X639099Y244938D01*
X639745Y245111D01*
X646939Y245111D01*
X646939Y235711D01*
X637539Y235711D01*
G37*
%LPD*%
%LPC*%
G36*
X637539Y261111D02*
X637539Y261111D01*
X637539Y268305D01*
X637712Y268951D01*
X638047Y269530D01*
X638520Y270003D01*
X639099Y270338D01*
X639745Y270511D01*
X646939Y270511D01*
X646939Y261111D01*
X637539Y261111D01*
G37*
%LPD*%
%LPC*%
G36*
X648461Y224789D02*
X648461Y224789D01*
X648461Y234189D01*
X657861Y234189D01*
X657861Y226995D01*
X657688Y226349D01*
X657353Y225770D01*
X656880Y225297D01*
X656301Y224962D01*
X655655Y224789D01*
X648461Y224789D01*
G37*
%LPD*%
%LPC*%
G36*
X648461Y250189D02*
X648461Y250189D01*
X648461Y259589D01*
X657861Y259589D01*
X657861Y252395D01*
X657688Y251749D01*
X657353Y251170D01*
X656880Y250697D01*
X656301Y250362D01*
X655655Y250189D01*
X648461Y250189D01*
G37*
%LPD*%
%LPC*%
G36*
X639745Y250189D02*
X639745Y250189D01*
X639099Y250362D01*
X638520Y250697D01*
X638047Y251170D01*
X637712Y251749D01*
X637539Y252395D01*
X637539Y259589D01*
X646939Y259589D01*
X646939Y250189D01*
X639745Y250189D01*
G37*
%LPD*%
%LPC*%
G36*
X639745Y224789D02*
X639745Y224789D01*
X639099Y224962D01*
X638520Y225297D01*
X638047Y225770D01*
X637712Y226349D01*
X637539Y226995D01*
X637539Y234189D01*
X646939Y234189D01*
X646939Y224789D01*
X639745Y224789D01*
G37*
%LPD*%
%LPC*%
G36*
X577861Y677311D02*
X577861Y677311D01*
X577861Y686966D01*
X577920Y686966D01*
X579539Y686709D01*
X581098Y686203D01*
X582559Y685458D01*
X583885Y684495D01*
X585045Y683335D01*
X586008Y682009D01*
X586753Y680548D01*
X587259Y678989D01*
X587516Y677370D01*
X587516Y677311D01*
X577861Y677311D01*
G37*
%LPD*%
%LPC*%
G36*
X450861Y677311D02*
X450861Y677311D01*
X450861Y686966D01*
X450920Y686966D01*
X452539Y686709D01*
X454098Y686203D01*
X455559Y685458D01*
X456885Y684495D01*
X458045Y683335D01*
X459008Y682009D01*
X459753Y680548D01*
X460259Y678989D01*
X460516Y677370D01*
X460516Y677311D01*
X450861Y677311D01*
G37*
%LPD*%
%LPC*%
G36*
X642861Y677311D02*
X642861Y677311D01*
X642861Y686966D01*
X642920Y686966D01*
X644539Y686709D01*
X646098Y686203D01*
X647559Y685458D01*
X648885Y684495D01*
X650045Y683335D01*
X651008Y682009D01*
X651753Y680548D01*
X652259Y678989D01*
X652516Y677370D01*
X652516Y677311D01*
X642861Y677311D01*
G37*
%LPD*%
%LPC*%
G36*
X515861Y677311D02*
X515861Y677311D01*
X515861Y686966D01*
X515920Y686966D01*
X517539Y686709D01*
X519098Y686203D01*
X520559Y685458D01*
X521885Y684495D01*
X523045Y683335D01*
X524008Y682009D01*
X524753Y680548D01*
X525259Y678989D01*
X525516Y677370D01*
X525516Y677311D01*
X515861Y677311D01*
G37*
%LPD*%
%LPC*%
G36*
X642861Y666134D02*
X642861Y666134D01*
X642861Y675789D01*
X652516Y675789D01*
X652516Y675730D01*
X652259Y674111D01*
X651753Y672552D01*
X651008Y671091D01*
X650045Y669765D01*
X648885Y668605D01*
X647559Y667642D01*
X646098Y666897D01*
X644539Y666391D01*
X642920Y666134D01*
X642861Y666134D01*
G37*
%LPD*%
%LPC*%
G36*
X450861Y666134D02*
X450861Y666134D01*
X450861Y675789D01*
X460516Y675789D01*
X460516Y675730D01*
X460259Y674111D01*
X459753Y672552D01*
X459008Y671091D01*
X458045Y669765D01*
X456885Y668605D01*
X455559Y667642D01*
X454098Y666897D01*
X452539Y666391D01*
X450920Y666134D01*
X450861Y666134D01*
G37*
%LPD*%
%LPC*%
G36*
X577861Y666134D02*
X577861Y666134D01*
X577861Y675789D01*
X587516Y675789D01*
X587516Y675730D01*
X587259Y674111D01*
X586753Y672552D01*
X586008Y671091D01*
X585045Y669765D01*
X583885Y668605D01*
X582559Y667642D01*
X581098Y666897D01*
X579539Y666391D01*
X577920Y666134D01*
X577861Y666134D01*
G37*
%LPD*%
%LPC*%
G36*
X631684Y677311D02*
X631684Y677311D01*
X631684Y677370D01*
X631941Y678989D01*
X632447Y680548D01*
X633192Y682009D01*
X634155Y683335D01*
X635315Y684495D01*
X636641Y685458D01*
X638102Y686203D01*
X639661Y686709D01*
X641280Y686966D01*
X641339Y686966D01*
X641339Y677311D01*
X631684Y677311D01*
G37*
%LPD*%
%LPC*%
G36*
X566684Y677311D02*
X566684Y677311D01*
X566684Y677370D01*
X566941Y678989D01*
X567447Y680548D01*
X568192Y682009D01*
X569155Y683335D01*
X570315Y684495D01*
X571641Y685458D01*
X573102Y686203D01*
X574661Y686709D01*
X576280Y686966D01*
X576339Y686966D01*
X576339Y677311D01*
X566684Y677311D01*
G37*
%LPD*%
%LPC*%
G36*
X504684Y677311D02*
X504684Y677311D01*
X504684Y677370D01*
X504941Y678989D01*
X505447Y680548D01*
X506192Y682009D01*
X507155Y683335D01*
X508315Y684495D01*
X509641Y685458D01*
X511102Y686203D01*
X512661Y686709D01*
X514280Y686966D01*
X514339Y686966D01*
X514339Y677311D01*
X504684Y677311D01*
G37*
%LPD*%
%LPC*%
G36*
X515861Y666134D02*
X515861Y666134D01*
X515861Y675789D01*
X525516Y675789D01*
X525516Y675730D01*
X525259Y674111D01*
X524753Y672552D01*
X524008Y671091D01*
X523045Y669765D01*
X521885Y668605D01*
X520559Y667642D01*
X519098Y666897D01*
X517539Y666391D01*
X515920Y666134D01*
X515861Y666134D01*
G37*
%LPD*%
%LPC*%
G36*
X439684Y677311D02*
X439684Y677311D01*
X439684Y677370D01*
X439941Y678989D01*
X440447Y680548D01*
X441192Y682009D01*
X442155Y683335D01*
X443315Y684495D01*
X444641Y685458D01*
X446102Y686203D01*
X447661Y686709D01*
X449280Y686966D01*
X449339Y686966D01*
X449339Y677311D01*
X439684Y677311D01*
G37*
%LPD*%
%LPC*%
G36*
X641280Y666134D02*
X641280Y666134D01*
X639661Y666391D01*
X638102Y666897D01*
X636641Y667642D01*
X635315Y668605D01*
X634155Y669765D01*
X633192Y671091D01*
X632447Y672552D01*
X631941Y674111D01*
X631684Y675730D01*
X631684Y675789D01*
X641339Y675789D01*
X641339Y666134D01*
X641280Y666134D01*
G37*
%LPD*%
%LPC*%
G36*
X576280Y666134D02*
X576280Y666134D01*
X574661Y666391D01*
X573102Y666897D01*
X571641Y667642D01*
X570315Y668605D01*
X569155Y669765D01*
X568192Y671091D01*
X567447Y672552D01*
X566941Y674111D01*
X566684Y675730D01*
X566684Y675789D01*
X576339Y675789D01*
X576339Y666134D01*
X576280Y666134D01*
G37*
%LPD*%
%LPC*%
G36*
X449280Y666134D02*
X449280Y666134D01*
X447661Y666391D01*
X446102Y666897D01*
X444641Y667642D01*
X443315Y668605D01*
X442155Y669765D01*
X441192Y671091D01*
X440447Y672552D01*
X439941Y674111D01*
X439684Y675730D01*
X439684Y675789D01*
X449339Y675789D01*
X449339Y666134D01*
X449280Y666134D01*
G37*
%LPD*%
%LPC*%
G36*
X514280Y666134D02*
X514280Y666134D01*
X512661Y666391D01*
X511102Y666897D01*
X509641Y667642D01*
X508315Y668605D01*
X507155Y669765D01*
X506192Y671091D01*
X505447Y672552D01*
X504941Y674111D01*
X504684Y675730D01*
X504684Y675789D01*
X514339Y675789D01*
X514339Y666134D01*
X514280Y666134D01*
G37*
%LPD*%
%LPC*%
G36*
X515099Y676549D02*
X515099Y676549D01*
X515099Y676551D01*
X515101Y676551D01*
X515101Y676549D01*
X515099Y676549D01*
G37*
%LPD*%
%LPC*%
G36*
X812799Y400049D02*
X812799Y400049D01*
X812799Y400051D01*
X812801Y400051D01*
X812801Y400049D01*
X812799Y400049D01*
G37*
%LPD*%
%LPC*%
G36*
X88899Y552449D02*
X88899Y552449D01*
X88899Y552451D01*
X88901Y552451D01*
X88901Y552449D01*
X88899Y552449D01*
G37*
%LPD*%
%LPC*%
G36*
X457199Y552449D02*
X457199Y552449D01*
X457199Y552451D01*
X457201Y552451D01*
X457201Y552449D01*
X457199Y552449D01*
G37*
%LPD*%
%LPC*%
G36*
X647699Y260349D02*
X647699Y260349D01*
X647699Y260351D01*
X647701Y260351D01*
X647701Y260349D01*
X647699Y260349D01*
G37*
%LPD*%
%LPC*%
G36*
X450099Y676549D02*
X450099Y676549D01*
X450099Y676551D01*
X450101Y676551D01*
X450101Y676549D01*
X450099Y676549D01*
G37*
%LPD*%
%LPC*%
G36*
X642099Y676549D02*
X642099Y676549D01*
X642099Y676551D01*
X642101Y676551D01*
X642101Y676549D01*
X642099Y676549D01*
G37*
%LPD*%
%LPC*%
G36*
X647699Y234949D02*
X647699Y234949D01*
X647699Y234951D01*
X647701Y234951D01*
X647701Y234949D01*
X647699Y234949D01*
G37*
%LPD*%
%LPC*%
G36*
X577099Y676549D02*
X577099Y676549D01*
X577099Y676551D01*
X577101Y676551D01*
X577101Y676549D01*
X577099Y676549D01*
G37*
%LPD*%
D10*
X63500Y393446D02*
X63500Y406654D01*
X88900Y406654D02*
X88900Y393446D01*
X114300Y393446D02*
X114300Y406654D01*
X139700Y406654D02*
X139700Y393446D01*
X165100Y393446D02*
X165100Y406654D01*
X190500Y406654D02*
X190500Y393446D01*
X215900Y393446D02*
X215900Y406654D01*
X241300Y406654D02*
X241300Y393446D01*
X266700Y393446D02*
X266700Y406654D01*
X292100Y406654D02*
X292100Y393446D01*
X317500Y393446D02*
X317500Y406654D01*
X342900Y406654D02*
X342900Y393446D01*
X342900Y545846D02*
X342900Y559054D01*
X317500Y559054D02*
X317500Y545846D01*
X292100Y545846D02*
X292100Y559054D01*
X266700Y559054D02*
X266700Y545846D01*
X241300Y545846D02*
X241300Y559054D01*
X215900Y559054D02*
X215900Y545846D01*
X190500Y545846D02*
X190500Y559054D01*
X165100Y559054D02*
X165100Y545846D01*
X139700Y545846D02*
X139700Y559054D01*
X114300Y559054D02*
X114300Y545846D01*
X88900Y545846D02*
X88900Y559054D01*
X63500Y559054D02*
X63500Y545846D01*
X431800Y406654D02*
X431800Y393446D01*
X457200Y393446D02*
X457200Y406654D01*
X584200Y406654D02*
X584200Y393446D01*
X609600Y393446D02*
X609600Y406654D01*
X482600Y406654D02*
X482600Y393446D01*
X508000Y393446D02*
X508000Y406654D01*
X558800Y406654D02*
X558800Y393446D01*
X533400Y393446D02*
X533400Y406654D01*
X635000Y406654D02*
X635000Y393446D01*
X660400Y393446D02*
X660400Y406654D01*
X685800Y406654D02*
X685800Y393446D01*
X711200Y393446D02*
X711200Y406654D01*
X736600Y406654D02*
X736600Y393446D01*
X762000Y393446D02*
X762000Y406654D01*
X787400Y406654D02*
X787400Y393446D01*
X812800Y393446D02*
X812800Y406654D01*
X812800Y545846D02*
X812800Y559054D01*
X787400Y559054D02*
X787400Y545846D01*
X762000Y545846D02*
X762000Y559054D01*
X736600Y559054D02*
X736600Y545846D01*
X711200Y545846D02*
X711200Y559054D01*
X685800Y559054D02*
X685800Y545846D01*
X660400Y545846D02*
X660400Y559054D01*
X635000Y559054D02*
X635000Y545846D01*
X609600Y545846D02*
X609600Y559054D01*
X584200Y559054D02*
X584200Y545846D01*
X558800Y545846D02*
X558800Y559054D01*
X533400Y559054D02*
X533400Y545846D01*
X508000Y545846D02*
X508000Y559054D01*
X482600Y559054D02*
X482600Y545846D01*
X457200Y545846D02*
X457200Y559054D01*
X431800Y559054D02*
X431800Y545846D01*
D11*
X647700Y260350D03*
D12*
X622300Y260350D03*
X596900Y260350D03*
X571500Y260350D03*
X546100Y260350D03*
X520700Y260350D03*
X495300Y260350D03*
X469900Y260350D03*
X444500Y260350D03*
X419100Y260350D03*
X393700Y260350D03*
X368300Y260350D03*
X342900Y260350D03*
X317500Y260350D03*
X292100Y260350D03*
X266700Y260350D03*
X241300Y260350D03*
X215900Y260350D03*
D11*
X647700Y234950D03*
D12*
X622300Y234950D03*
X596900Y234950D03*
X571500Y234950D03*
X546100Y234950D03*
X520700Y234950D03*
X495300Y234950D03*
X469900Y234950D03*
X444500Y234950D03*
X419100Y234950D03*
X393700Y234950D03*
X368300Y234950D03*
X342900Y234950D03*
X317500Y234950D03*
X292100Y234950D03*
X266700Y234950D03*
X241300Y234950D03*
X215900Y234950D03*
D11*
X63500Y615950D03*
D13*
X63500Y641350D03*
X63500Y666750D03*
X63500Y692150D03*
D14*
X450100Y676550D03*
X515100Y676550D03*
X450100Y631550D03*
X515100Y631550D03*
X482600Y613050D03*
X577100Y676550D03*
X642100Y676550D03*
X577100Y631550D03*
X642100Y631550D03*
X609600Y613050D03*
D15*
X647700Y76200D03*
X622300Y76200D03*
X596900Y76200D03*
X571500Y76200D03*
X546100Y76200D03*
X520700Y76200D03*
X495300Y76200D03*
X469900Y76200D03*
X444500Y76200D03*
X419100Y76200D03*
X393700Y76200D03*
X368300Y76200D03*
X342900Y76200D03*
X317500Y76200D03*
X292100Y76200D03*
X266700Y76200D03*
X241300Y76200D03*
X215900Y76200D03*
D16*
X622300Y285750D03*
X736600Y285750D03*
D17*
X736600Y400050D01*
X622300Y285750D02*
X622300Y260350D01*
D16*
X596900Y292100D03*
X762000Y292100D03*
D17*
X762000Y400050D01*
X596900Y292100D02*
X596900Y260350D01*
D16*
X571500Y298450D03*
X787400Y298450D03*
D17*
X787400Y400050D01*
X571500Y298450D02*
X571500Y260350D01*
D16*
X546100Y304800D03*
X825500Y304800D03*
D17*
X825500Y539750D01*
X812800Y552450D01*
X546100Y304800D02*
X546100Y260350D01*
D16*
X520700Y311150D03*
X800100Y311150D03*
D17*
X800100Y539750D01*
X787400Y552450D01*
X520700Y311150D02*
X520700Y260350D01*
D16*
X495300Y317500D03*
X774700Y317500D03*
D17*
X774700Y539750D01*
X762000Y552450D01*
X495300Y317500D02*
X495300Y260350D01*
D16*
X469900Y323850D03*
X749300Y323850D03*
D17*
X749300Y539750D01*
X736600Y552450D01*
X469900Y323850D02*
X469900Y260350D01*
D16*
X444500Y330200D03*
X723900Y330200D03*
D17*
X723900Y539750D01*
X711200Y552450D01*
X444500Y330200D02*
X444500Y260350D01*
D16*
X368300Y336550D03*
X685800Y336550D03*
D17*
X685800Y400050D01*
X368300Y336550D02*
X368300Y260350D01*
D16*
X279400Y457200D03*
X635000Y457200D03*
D17*
X635000Y552450D01*
X292100Y260350D02*
X279400Y273050D01*
X279400Y457200D01*
D16*
X228600Y463550D03*
X685800Y463550D03*
D17*
X685800Y552450D01*
X228600Y273050D02*
X215900Y260350D01*
X228600Y273050D02*
X228600Y463550D01*
X711200Y400050D02*
X711200Y361950D01*
X571500Y234950D02*
X571500Y76200D01*
X571500Y234950D02*
X584200Y247650D01*
D16*
X577850Y361950D03*
D17*
X577878Y340281D02*
X584200Y333959D01*
X577878Y361922D02*
X577850Y361950D01*
X577878Y361922D02*
X577878Y340281D01*
D16*
X711200Y361950D03*
D17*
X584200Y333959D02*
X584200Y247650D01*
D16*
X660400Y342900D03*
D17*
X660400Y400050D01*
X546100Y234950D02*
X546100Y76200D01*
X546100Y234950D02*
X558800Y247650D01*
X558800Y342900D01*
D16*
X558800Y342900D03*
D17*
X520700Y234950D02*
X520700Y76200D01*
X520700Y234950D02*
X533400Y247650D01*
X533400Y336550D01*
X546100Y349250D01*
D16*
X546100Y349250D03*
X635000Y349250D03*
D17*
X635000Y400050D01*
X609600Y400050D02*
X609600Y368300D01*
X495300Y234950D02*
X495300Y76200D01*
X495300Y234950D02*
X508000Y247650D01*
X508000Y333959D01*
X501678Y340281D01*
X501678Y368272D02*
X501650Y368300D01*
X501678Y368272D02*
X501678Y340281D01*
D16*
X501650Y368300D03*
X609600Y368300D03*
D17*
X584200Y374650D02*
X584200Y400050D01*
X469900Y234950D02*
X469900Y76200D01*
X469900Y234950D02*
X482600Y247650D01*
D16*
X482600Y374650D03*
X584200Y374650D03*
D17*
X482600Y374650D02*
X482600Y247650D01*
D16*
X457200Y355600D03*
X558800Y355600D03*
D17*
X558800Y400050D01*
X444500Y234950D02*
X444500Y76200D01*
X444500Y234950D02*
X457200Y247650D01*
X457200Y355600D01*
D16*
X431800Y349250D03*
X533400Y349250D03*
D17*
X533400Y400050D01*
X419100Y234950D02*
X419100Y76200D01*
X431800Y247650D02*
X431800Y349250D01*
X431800Y247650D02*
X419100Y234950D01*
D16*
X558800Y482600D03*
D17*
X558800Y552450D01*
X393700Y234950D02*
X393700Y76200D01*
X393700Y234950D02*
X406400Y247650D01*
X406400Y482600D01*
D16*
X406400Y482600D03*
X381000Y342872D03*
X508000Y342900D03*
D17*
X508000Y400050D01*
X368300Y234950D02*
X368300Y76200D01*
X381000Y247650D02*
X381000Y342872D01*
X381000Y247650D02*
X368300Y234950D01*
D16*
X584200Y476250D03*
D17*
X584200Y552450D01*
X342900Y88900D02*
X349250Y82550D01*
X342900Y76200D01*
X342900Y88900D02*
X342900Y234950D01*
X355600Y247650D01*
X355600Y476250D01*
D16*
X355600Y476250D03*
X330200Y469900D03*
X660400Y469900D03*
D17*
X660400Y552450D01*
X317500Y234950D02*
X317500Y76200D01*
X317500Y234950D02*
X330200Y247650D01*
X330200Y469900D01*
D16*
X304800Y450850D03*
X609600Y450850D03*
D17*
X609600Y552450D01*
X292100Y234950D02*
X292100Y76200D01*
X292100Y234950D02*
X304800Y247650D01*
X304800Y450850D01*
D18*
X431800Y552450D02*
X431800Y603250D01*
D16*
X431800Y603250D03*
X63500Y603024D03*
D18*
X63500Y552450D01*
X52324Y606857D02*
X52324Y625043D01*
X63500Y595681D02*
X63500Y552450D01*
X63500Y636219D02*
X63500Y641350D01*
X52324Y606857D02*
X63500Y595681D01*
X52324Y625043D02*
X63500Y636219D01*
X419100Y552450D02*
X419100Y260350D01*
X419100Y552450D02*
X431800Y552450D01*
D17*
X647700Y234950D02*
X647700Y76200D01*
X482600Y400050D02*
X482600Y419100D01*
D16*
X482600Y419100D03*
X323850Y419100D03*
D17*
X323850Y406400D01*
X317500Y400050D01*
X292100Y400050D02*
X292100Y508000D01*
D16*
X292100Y508000D03*
X508000Y508000D03*
D17*
X508000Y552450D01*
X266700Y514350D02*
X266700Y400050D01*
D16*
X266700Y514350D03*
X533400Y514350D03*
D17*
X533400Y552450D01*
X622300Y234950D02*
X622300Y76200D01*
X596900Y76200D02*
X596900Y234950D01*
X266700Y234950D02*
X266700Y76200D01*
X241300Y76200D02*
X241300Y234950D01*
X215900Y234950D02*
X215900Y76200D01*
X482600Y552450D02*
X482600Y590550D01*
D16*
X482600Y590550D03*
X342900Y590550D03*
D17*
X342900Y552450D01*
X457200Y425450D02*
X457200Y400050D01*
D16*
X457200Y425450D03*
X342900Y425450D03*
D17*
X342900Y400050D01*
X155956Y542058D02*
X155956Y562842D01*
X165100Y532914D02*
X165100Y400050D01*
X165100Y532914D02*
X155956Y542058D01*
X155956Y562842D02*
X165100Y571986D01*
D16*
X165100Y692150D03*
D17*
X165100Y571986D01*
X181356Y562842D02*
X181356Y542058D01*
X190500Y532914D02*
X190500Y400050D01*
X190500Y532914D02*
X181356Y542058D01*
X181356Y562842D02*
X190500Y571986D01*
D16*
X190500Y666750D03*
D17*
X190500Y571986D01*
X206756Y562842D02*
X206756Y542058D01*
X215900Y532914D02*
X215900Y400050D01*
X215900Y532914D02*
X206756Y542058D01*
X206756Y562842D02*
X215900Y571986D01*
D16*
X215900Y647700D03*
X514350Y647700D03*
D17*
X515100Y646950D01*
X515100Y631550D01*
X215900Y647700D02*
X215900Y571986D01*
X241300Y414557D02*
X241300Y400050D01*
X232156Y542058D02*
X232156Y562842D01*
X241300Y571986D01*
X247622Y420879D02*
X241300Y414557D01*
X247622Y420879D02*
X247622Y526592D01*
X232156Y542058D01*
D16*
X241300Y654050D03*
X641350Y654050D03*
D17*
X641350Y632300D02*
X642100Y631550D01*
X241300Y654050D02*
X241300Y571986D01*
X641350Y632300D02*
X641350Y654050D01*
M02*
