G04 EAGLE Gerber RS-274X export*
G75*
%MOMM*%
%FSLAX34Y34*%
%LPD*%
%INBottom Solder Mask*%
%IPPOS*%
%AMOC8*
5,1,8,0,0,1.08239X$1,22.5*%
G01*
%ADD10C,1.524000*%
%ADD11R,1.727200X1.727200*%
%ADD12P,1.869504X8X292.500000*%
%ADD13P,1.869504X8X202.500000*%
%ADD14C,1.778200*%
%ADD15R,1.981200X13.203200*%
%ADD16C,0.959600*%


D10*
X63500Y393446D02*
X63500Y406654D01*
X88900Y406654D02*
X88900Y393446D01*
X114300Y393446D02*
X114300Y406654D01*
X139700Y406654D02*
X139700Y393446D01*
X165100Y393446D02*
X165100Y406654D01*
X190500Y406654D02*
X190500Y393446D01*
X215900Y393446D02*
X215900Y406654D01*
X241300Y406654D02*
X241300Y393446D01*
X266700Y393446D02*
X266700Y406654D01*
X292100Y406654D02*
X292100Y393446D01*
X317500Y393446D02*
X317500Y406654D01*
X342900Y406654D02*
X342900Y393446D01*
X342900Y545846D02*
X342900Y559054D01*
X317500Y559054D02*
X317500Y545846D01*
X292100Y545846D02*
X292100Y559054D01*
X266700Y559054D02*
X266700Y545846D01*
X241300Y545846D02*
X241300Y559054D01*
X215900Y559054D02*
X215900Y545846D01*
X190500Y545846D02*
X190500Y559054D01*
X165100Y559054D02*
X165100Y545846D01*
X139700Y545846D02*
X139700Y559054D01*
X114300Y559054D02*
X114300Y545846D01*
X88900Y545846D02*
X88900Y559054D01*
X63500Y559054D02*
X63500Y545846D01*
X431800Y406654D02*
X431800Y393446D01*
X457200Y393446D02*
X457200Y406654D01*
X584200Y406654D02*
X584200Y393446D01*
X609600Y393446D02*
X609600Y406654D01*
X482600Y406654D02*
X482600Y393446D01*
X508000Y393446D02*
X508000Y406654D01*
X558800Y406654D02*
X558800Y393446D01*
X533400Y393446D02*
X533400Y406654D01*
X635000Y406654D02*
X635000Y393446D01*
X660400Y393446D02*
X660400Y406654D01*
X685800Y406654D02*
X685800Y393446D01*
X711200Y393446D02*
X711200Y406654D01*
X736600Y406654D02*
X736600Y393446D01*
X762000Y393446D02*
X762000Y406654D01*
X787400Y406654D02*
X787400Y393446D01*
X812800Y393446D02*
X812800Y406654D01*
X812800Y545846D02*
X812800Y559054D01*
X787400Y559054D02*
X787400Y545846D01*
X762000Y545846D02*
X762000Y559054D01*
X736600Y559054D02*
X736600Y545846D01*
X711200Y545846D02*
X711200Y559054D01*
X685800Y559054D02*
X685800Y545846D01*
X660400Y545846D02*
X660400Y559054D01*
X635000Y559054D02*
X635000Y545846D01*
X609600Y545846D02*
X609600Y559054D01*
X584200Y559054D02*
X584200Y545846D01*
X558800Y545846D02*
X558800Y559054D01*
X533400Y559054D02*
X533400Y545846D01*
X508000Y545846D02*
X508000Y559054D01*
X482600Y559054D02*
X482600Y545846D01*
X457200Y545846D02*
X457200Y559054D01*
X431800Y559054D02*
X431800Y545846D01*
D11*
X647700Y260350D03*
D12*
X622300Y260350D03*
X596900Y260350D03*
X571500Y260350D03*
X546100Y260350D03*
X520700Y260350D03*
X495300Y260350D03*
X469900Y260350D03*
X444500Y260350D03*
X419100Y260350D03*
X393700Y260350D03*
X368300Y260350D03*
X342900Y260350D03*
X317500Y260350D03*
X292100Y260350D03*
X266700Y260350D03*
X241300Y260350D03*
X215900Y260350D03*
D11*
X647700Y234950D03*
D12*
X622300Y234950D03*
X596900Y234950D03*
X571500Y234950D03*
X546100Y234950D03*
X520700Y234950D03*
X495300Y234950D03*
X469900Y234950D03*
X444500Y234950D03*
X419100Y234950D03*
X393700Y234950D03*
X368300Y234950D03*
X342900Y234950D03*
X317500Y234950D03*
X292100Y234950D03*
X266700Y234950D03*
X241300Y234950D03*
X215900Y234950D03*
D11*
X63500Y615950D03*
D13*
X63500Y641350D03*
X63500Y666750D03*
X63500Y692150D03*
D14*
X450100Y676550D03*
X515100Y676550D03*
X450100Y631550D03*
X515100Y631550D03*
X482600Y613050D03*
X577100Y676550D03*
X642100Y676550D03*
X577100Y631550D03*
X642100Y631550D03*
X609600Y613050D03*
D15*
X647700Y76200D03*
X622300Y76200D03*
X596900Y76200D03*
X571500Y76200D03*
X546100Y76200D03*
X520700Y76200D03*
X495300Y76200D03*
X469900Y76200D03*
X444500Y76200D03*
X419100Y76200D03*
X393700Y76200D03*
X368300Y76200D03*
X342900Y76200D03*
X317500Y76200D03*
X292100Y76200D03*
X266700Y76200D03*
X241300Y76200D03*
X215900Y76200D03*
D16*
X622300Y285750D03*
X736600Y285750D03*
X596900Y292100D03*
X762000Y292100D03*
X571500Y298450D03*
X787400Y298450D03*
X546100Y304800D03*
X825500Y304800D03*
X520700Y311150D03*
X800100Y311150D03*
X495300Y317500D03*
X774700Y317500D03*
X469900Y323850D03*
X749300Y323850D03*
X444500Y330200D03*
X723900Y330200D03*
X368300Y336550D03*
X685800Y336550D03*
X279400Y457200D03*
X635000Y457200D03*
X228600Y463550D03*
X685800Y463550D03*
X577850Y361950D03*
X711200Y361950D03*
X660400Y342900D03*
X558800Y342900D03*
X546100Y349250D03*
X635000Y349250D03*
X501650Y368300D03*
X609600Y368300D03*
X482600Y374650D03*
X584200Y374650D03*
X457200Y355600D03*
X558800Y355600D03*
X431800Y349250D03*
X533400Y349250D03*
X558800Y482600D03*
X406400Y482600D03*
X381000Y342872D03*
X508000Y342900D03*
X584200Y476250D03*
X355600Y476250D03*
X330200Y469900D03*
X660400Y469900D03*
X304800Y450850D03*
X609600Y450850D03*
X431800Y603250D03*
X63500Y603024D03*
X482600Y419100D03*
X323850Y419100D03*
X292100Y508000D03*
X508000Y508000D03*
X266700Y514350D03*
X533400Y514350D03*
X482600Y590550D03*
X342900Y590550D03*
X457200Y425450D03*
X342900Y425450D03*
X165100Y692150D03*
X190500Y666750D03*
X215900Y647700D03*
X514350Y647700D03*
X241300Y654050D03*
X641350Y654050D03*
M02*
