G04 EAGLE Gerber RS-274X export*
G75*
%MOMM*%
%FSLAX34Y34*%
%LPD*%
%INMechanical*%
%IPPOS*%
%AMOC8*
5,1,8,0,0,1.08239X$1,22.5*%
G01*
%ADD10C,0.076200*%
%ADD11C,0.254000*%


D10*
X190500Y139700D02*
X190500Y28030D01*
X190506Y27506D01*
X190525Y26983D01*
X190557Y26460D01*
X190601Y25938D01*
X190658Y25417D01*
X190728Y24897D01*
X190809Y24380D01*
X190904Y23865D01*
X191011Y23352D01*
X191130Y22842D01*
X191261Y22335D01*
X191405Y21831D01*
X191561Y21331D01*
X191729Y20834D01*
X191909Y20342D01*
X192101Y19855D01*
X192304Y19372D01*
X192519Y18894D01*
X192745Y18422D01*
X192983Y17955D01*
X193232Y17494D01*
X193492Y17039D01*
X193764Y16591D01*
X194045Y16149D01*
X194338Y15714D01*
X194641Y15287D01*
X194954Y14867D01*
X195277Y14454D01*
X195610Y14050D01*
X195952Y13654D01*
X196304Y13266D01*
X196666Y12886D01*
X197036Y12516D01*
X197416Y12154D01*
X197804Y11802D01*
X198200Y11460D01*
X198604Y11127D01*
X199017Y10804D01*
X199437Y10491D01*
X199864Y10188D01*
X200299Y9895D01*
X200741Y9614D01*
X201189Y9342D01*
X201644Y9082D01*
X202105Y8833D01*
X202572Y8595D01*
X203044Y8369D01*
X203522Y8154D01*
X204005Y7951D01*
X204492Y7759D01*
X204984Y7579D01*
X205481Y7411D01*
X205981Y7255D01*
X206485Y7111D01*
X206992Y6980D01*
X207502Y6861D01*
X208015Y6754D01*
X208530Y6659D01*
X209047Y6578D01*
X209567Y6508D01*
X210088Y6451D01*
X210610Y6407D01*
X211133Y6375D01*
X211656Y6356D01*
X212180Y6350D01*
X651420Y6350D01*
X651944Y6356D01*
X652467Y6375D01*
X652990Y6407D01*
X653512Y6451D01*
X654033Y6508D01*
X654553Y6578D01*
X655070Y6659D01*
X655585Y6754D01*
X656098Y6861D01*
X656608Y6980D01*
X657115Y7111D01*
X657619Y7255D01*
X658119Y7411D01*
X658616Y7579D01*
X659108Y7759D01*
X659595Y7951D01*
X660078Y8154D01*
X660556Y8369D01*
X661028Y8595D01*
X661495Y8833D01*
X661956Y9082D01*
X662411Y9342D01*
X662859Y9614D01*
X663301Y9895D01*
X663736Y10188D01*
X664163Y10491D01*
X664583Y10804D01*
X664996Y11127D01*
X665400Y11460D01*
X665796Y11802D01*
X666184Y12154D01*
X666564Y12516D01*
X666934Y12886D01*
X667296Y13266D01*
X667648Y13654D01*
X667990Y14050D01*
X668323Y14454D01*
X668646Y14867D01*
X668959Y15287D01*
X669262Y15714D01*
X669555Y16149D01*
X669836Y16591D01*
X670108Y17039D01*
X670368Y17494D01*
X670617Y17955D01*
X670855Y18422D01*
X671081Y18894D01*
X671296Y19372D01*
X671499Y19855D01*
X671691Y20342D01*
X671871Y20834D01*
X672039Y21331D01*
X672195Y21831D01*
X672339Y22335D01*
X672470Y22842D01*
X672589Y23352D01*
X672696Y23865D01*
X672791Y24380D01*
X672872Y24897D01*
X672942Y25417D01*
X672999Y25938D01*
X673043Y26460D01*
X673075Y26983D01*
X673094Y27506D01*
X673100Y28030D01*
X673100Y139700D01*
X822870Y139700D01*
X823394Y139706D01*
X823917Y139725D01*
X824440Y139757D01*
X824962Y139801D01*
X825483Y139858D01*
X826003Y139928D01*
X826520Y140009D01*
X827035Y140104D01*
X827548Y140211D01*
X828058Y140330D01*
X828565Y140461D01*
X829069Y140605D01*
X829569Y140761D01*
X830066Y140929D01*
X830558Y141109D01*
X831045Y141301D01*
X831528Y141504D01*
X832006Y141719D01*
X832478Y141945D01*
X832945Y142183D01*
X833406Y142432D01*
X833861Y142692D01*
X834309Y142964D01*
X834751Y143245D01*
X835186Y143538D01*
X835613Y143841D01*
X836033Y144154D01*
X836446Y144477D01*
X836850Y144810D01*
X837246Y145152D01*
X837634Y145504D01*
X838014Y145866D01*
X838384Y146236D01*
X838746Y146616D01*
X839098Y147004D01*
X839440Y147400D01*
X839773Y147804D01*
X840096Y148217D01*
X840409Y148637D01*
X840712Y149064D01*
X841005Y149499D01*
X841286Y149941D01*
X841558Y150389D01*
X841818Y150844D01*
X842067Y151305D01*
X842305Y151772D01*
X842531Y152244D01*
X842746Y152722D01*
X842949Y153205D01*
X843141Y153692D01*
X843321Y154184D01*
X843489Y154681D01*
X843645Y155181D01*
X843789Y155685D01*
X843920Y156192D01*
X844039Y156702D01*
X844146Y157215D01*
X844241Y157730D01*
X844322Y158247D01*
X844392Y158767D01*
X844449Y159288D01*
X844493Y159810D01*
X844525Y160333D01*
X844544Y160856D01*
X844550Y161380D01*
X844550Y689520D01*
X844544Y690044D01*
X844525Y690567D01*
X844493Y691090D01*
X844449Y691612D01*
X844392Y692133D01*
X844322Y692653D01*
X844241Y693170D01*
X844146Y693685D01*
X844039Y694198D01*
X843920Y694708D01*
X843789Y695215D01*
X843645Y695719D01*
X843489Y696219D01*
X843321Y696716D01*
X843141Y697208D01*
X842949Y697695D01*
X842746Y698178D01*
X842531Y698656D01*
X842305Y699128D01*
X842067Y699595D01*
X841818Y700056D01*
X841558Y700511D01*
X841286Y700959D01*
X841005Y701401D01*
X840712Y701836D01*
X840409Y702263D01*
X840096Y702683D01*
X839773Y703096D01*
X839440Y703500D01*
X839098Y703896D01*
X838746Y704284D01*
X838384Y704664D01*
X838014Y705034D01*
X837634Y705396D01*
X837246Y705748D01*
X836850Y706090D01*
X836446Y706423D01*
X836033Y706746D01*
X835613Y707059D01*
X835186Y707362D01*
X834751Y707655D01*
X834309Y707936D01*
X833861Y708208D01*
X833406Y708468D01*
X832945Y708717D01*
X832478Y708955D01*
X832006Y709181D01*
X831528Y709396D01*
X831045Y709599D01*
X830558Y709791D01*
X830066Y709971D01*
X829569Y710139D01*
X829069Y710295D01*
X828565Y710439D01*
X828058Y710570D01*
X827548Y710689D01*
X827035Y710796D01*
X826520Y710891D01*
X826003Y710972D01*
X825483Y711042D01*
X824962Y711099D01*
X824440Y711143D01*
X823917Y711175D01*
X823394Y711194D01*
X822870Y711200D01*
X40730Y711200D01*
X40206Y711194D01*
X39683Y711175D01*
X39160Y711143D01*
X38638Y711099D01*
X38117Y711042D01*
X37597Y710972D01*
X37080Y710891D01*
X36565Y710796D01*
X36052Y710689D01*
X35542Y710570D01*
X35035Y710439D01*
X34531Y710295D01*
X34031Y710139D01*
X33534Y709971D01*
X33042Y709791D01*
X32555Y709599D01*
X32072Y709396D01*
X31594Y709181D01*
X31122Y708955D01*
X30655Y708717D01*
X30194Y708468D01*
X29739Y708208D01*
X29291Y707936D01*
X28849Y707655D01*
X28414Y707362D01*
X27987Y707059D01*
X27567Y706746D01*
X27154Y706423D01*
X26750Y706090D01*
X26354Y705748D01*
X25966Y705396D01*
X25586Y705034D01*
X25216Y704664D01*
X24854Y704284D01*
X24502Y703896D01*
X24160Y703500D01*
X23827Y703096D01*
X23504Y702683D01*
X23191Y702263D01*
X22888Y701836D01*
X22595Y701401D01*
X22314Y700959D01*
X22042Y700511D01*
X21782Y700056D01*
X21533Y699595D01*
X21295Y699128D01*
X21069Y698656D01*
X20854Y698178D01*
X20651Y697695D01*
X20459Y697208D01*
X20279Y696716D01*
X20111Y696219D01*
X19955Y695719D01*
X19811Y695215D01*
X19680Y694708D01*
X19561Y694198D01*
X19454Y693685D01*
X19359Y693170D01*
X19278Y692653D01*
X19208Y692133D01*
X19151Y691612D01*
X19107Y691090D01*
X19075Y690567D01*
X19056Y690044D01*
X19050Y689520D01*
X19050Y161380D01*
X19056Y160856D01*
X19075Y160333D01*
X19107Y159810D01*
X19151Y159288D01*
X19208Y158767D01*
X19278Y158247D01*
X19359Y157730D01*
X19454Y157215D01*
X19561Y156702D01*
X19680Y156192D01*
X19811Y155685D01*
X19955Y155181D01*
X20111Y154681D01*
X20279Y154184D01*
X20459Y153692D01*
X20651Y153205D01*
X20854Y152722D01*
X21069Y152244D01*
X21295Y151772D01*
X21533Y151305D01*
X21782Y150844D01*
X22042Y150389D01*
X22314Y149941D01*
X22595Y149499D01*
X22888Y149064D01*
X23191Y148637D01*
X23504Y148217D01*
X23827Y147804D01*
X24160Y147400D01*
X24502Y147004D01*
X24854Y146616D01*
X25216Y146236D01*
X25586Y145866D01*
X25966Y145504D01*
X26354Y145152D01*
X26750Y144810D01*
X27154Y144477D01*
X27567Y144154D01*
X27987Y143841D01*
X28414Y143538D01*
X28849Y143245D01*
X29291Y142964D01*
X29739Y142692D01*
X30194Y142432D01*
X30655Y142183D01*
X31122Y141945D01*
X31594Y141719D01*
X32072Y141504D01*
X32555Y141301D01*
X33042Y141109D01*
X33534Y140929D01*
X34031Y140761D01*
X34531Y140605D01*
X35035Y140461D01*
X35542Y140330D01*
X36052Y140211D01*
X36565Y140104D01*
X37080Y140009D01*
X37597Y139928D01*
X38117Y139858D01*
X38638Y139801D01*
X39160Y139757D01*
X39683Y139725D01*
X40206Y139706D01*
X40730Y139700D01*
X190500Y139700D01*
D11*
X19050Y161380D02*
X19133Y159491D01*
X19379Y157616D01*
X19789Y155769D01*
X20357Y153965D01*
X21081Y152218D01*
X21955Y150540D01*
X22971Y148945D01*
X24122Y147444D01*
X25400Y146050D01*
X26794Y144772D01*
X28295Y143621D01*
X29890Y142605D01*
X31568Y141731D01*
X33315Y141007D01*
X35119Y140439D01*
X36966Y140029D01*
X38841Y139783D01*
X40730Y139700D01*
X190500Y139700D01*
X190500Y28030D01*
X190583Y26141D01*
X190829Y24266D01*
X191239Y22419D01*
X191807Y20615D01*
X192531Y18868D01*
X193405Y17190D01*
X194421Y15595D01*
X195572Y14094D01*
X196850Y12700D01*
X198244Y11422D01*
X199745Y10271D01*
X201340Y9255D01*
X203018Y8381D01*
X204765Y7657D01*
X206569Y7089D01*
X208416Y6679D01*
X210291Y6433D01*
X212180Y6350D01*
X651420Y6350D01*
X653309Y6433D01*
X655185Y6679D01*
X657031Y7089D01*
X658835Y7657D01*
X660582Y8381D01*
X662260Y9255D01*
X663855Y10271D01*
X665356Y11422D01*
X666750Y12700D01*
X668028Y14094D01*
X669179Y15595D01*
X670195Y17190D01*
X671069Y18868D01*
X671793Y20615D01*
X672361Y22419D01*
X672771Y24266D01*
X673018Y26141D01*
X673100Y28030D01*
X673100Y139700D01*
X822870Y139700D01*
X824759Y139783D01*
X826635Y140029D01*
X828481Y140439D01*
X830285Y141007D01*
X832032Y141731D01*
X833710Y142605D01*
X835305Y143621D01*
X836806Y144772D01*
X838200Y146050D01*
X839478Y147444D01*
X840629Y148945D01*
X841645Y150540D01*
X842519Y152218D01*
X843243Y153965D01*
X843811Y155769D01*
X844221Y157616D01*
X844468Y159491D01*
X844550Y161380D01*
X844550Y689520D01*
X844468Y691409D01*
X844221Y693285D01*
X843811Y695131D01*
X843243Y696935D01*
X842519Y698682D01*
X841645Y700360D01*
X840629Y701955D01*
X839478Y703456D01*
X838200Y704850D01*
X836806Y706128D01*
X835305Y707279D01*
X833710Y708295D01*
X832032Y709169D01*
X830285Y709893D01*
X828481Y710461D01*
X826635Y710871D01*
X824759Y711118D01*
X822870Y711200D01*
X40730Y711200D01*
X38841Y711118D01*
X36966Y710871D01*
X35119Y710461D01*
X33315Y709893D01*
X31568Y709169D01*
X29890Y708295D01*
X28295Y707279D01*
X26794Y706128D01*
X25400Y704850D01*
X24122Y703456D01*
X22971Y701955D01*
X21955Y700360D01*
X21081Y698682D01*
X20357Y696935D01*
X19789Y695131D01*
X19379Y693285D01*
X19133Y691409D01*
X19050Y689520D01*
X19050Y161380D01*
M02*
