M48
;GenerationSoftware,Autodesk,EAGLE,9.6.2*%
;CreationDate,2024-03-21T07:45:51Z*%
FMAT,2
ICI,OFF
METRIC,TZ,000.000
T4C0.350
T3C0.813
T2C1.016
T1C1.050
%
G90
M71
T1
X60960Y61305
X48260Y61305
X51510Y63155
X45010Y67655
X45010Y63155
X51510Y67655
X64210Y63155
X57710Y63155
X64210Y67655
X57710Y67655
T2
X34290Y26035
X36830Y26035
X39370Y26035
X41910Y26035
X44450Y26035
X31750Y26035
X49530Y26035
X52070Y26035
X54610Y26035
X57150Y26035
X59690Y26035
X62230Y26035
X64770Y26035
X39370Y23495
X46990Y26035
X6350Y69215
X6350Y66675
X6350Y64135
X6350Y61595
X21590Y23495
X24130Y23495
X26670Y23495
X29210Y23495
X31750Y23495
X34290Y23495
X36830Y23495
X41910Y23495
X44450Y23495
X46990Y23495
X49530Y23495
X52070Y23495
X54610Y23495
X57150Y23495
X59690Y23495
X62230Y23495
X64770Y23495
X21590Y26035
X24130Y26035
X26670Y26035
X29210Y26035
T3
X76200Y55245
X73660Y55245
X71120Y55245
X68580Y55245
X66040Y55245
X63500Y55245
X60960Y55245
X58420Y55245
X55880Y55245
X53340Y55245
X50800Y55245
X48260Y55245
X45720Y55245
X43180Y55245
X6350Y40005
X8890Y40005
X11430Y40005
X13970Y40005
X16510Y40005
X19050Y40005
X21590Y40005
X24130Y40005
X26670Y40005
X29210Y40005
X31750Y40005
X34290Y40005
X34290Y55245
X31750Y55245
X29210Y55245
X26670Y55245
X24130Y55245
X21590Y55245
X19050Y55245
X16510Y55245
X13970Y55245
X11430Y55245
X8890Y55245
X6350Y55245
X43180Y40005
X45720Y40005
X58420Y40005
X60960Y40005
X48260Y40005
X50800Y40005
X55880Y40005
X53340Y40005
X63500Y40005
X66040Y40005
X68580Y40005
X71120Y40005
X73660Y40005
X76200Y40005
X78740Y40005
X81280Y40005
X81280Y55245
X78740Y55245
T4
X62230Y28575
X73660Y28575
X59690Y29210
X76200Y29210
X57150Y29845
X78740Y29845
X54610Y30480
X82550Y30480
X52070Y31115
X80010Y31115
X49530Y31750
X77470Y31750
X46990Y32385
X74930Y32385
X64135Y65405
X24130Y65405
X51435Y64770
X21590Y64770
X19050Y66675
X16510Y69215
X34290Y42545
X45720Y42545
X34290Y59055
X48260Y59055
X53340Y51435
X26670Y51435
X50800Y50800
X29210Y50800
X32385Y41910
X48260Y41910
X6350Y60302
X43180Y60325
X60960Y45085
X30480Y45085
X66040Y46990
X33020Y46990
X35560Y47625
X58420Y47625
X50800Y34290
X38100Y34287
X40640Y48260
X55880Y48260
X68580Y46355
X53340Y34925
X43180Y34925
X55880Y35560
X45720Y35560
X58420Y37465
X48260Y37465
X60960Y36830
X50165Y36830
X63500Y34925
X54610Y34925
X55880Y34290
X66040Y34290
X71120Y36195
X57785Y36195
X22860Y46355
X63500Y45720
X27940Y45720
X68580Y33655
X36830Y33655
X72390Y33020
X44450Y33020
M30