G04 EAGLE Gerber RS-274X export*
G75*
%MOMM*%
%FSLAX34Y34*%
%LPD*%
%INBottom Copper*%
%IPPOS*%
%AMOC8*
5,1,8,0,0,1.08239X$1,22.5*%
G01*
%ADD10C,1.320800*%
%ADD11R,1.524000X1.524000*%
%ADD12P,1.649562X8X292.500000*%
%ADD13P,1.649562X8X202.500000*%
%ADD14C,1.575000*%
%ADD15R,1.778000X13.000000*%
%ADD16C,0.756400*%
%ADD17C,0.203200*%
%ADD18C,0.406400*%

G36*
X484505Y120270D02*
X484505Y120270D01*
X484555Y120281D01*
X484606Y120283D01*
X484638Y120301D01*
X484674Y120309D01*
X484713Y120342D01*
X484758Y120366D01*
X484779Y120396D01*
X484807Y120419D01*
X484828Y120466D01*
X484858Y120508D01*
X484866Y120550D01*
X484878Y120578D01*
X484877Y120608D01*
X484885Y120650D01*
X484885Y141832D01*
X485778Y142725D01*
X492379Y142725D01*
X492429Y142736D01*
X492480Y142738D01*
X492512Y142756D01*
X492548Y142764D01*
X492587Y142797D01*
X492632Y142821D01*
X492653Y142851D01*
X492681Y142874D01*
X492702Y142921D01*
X492732Y142963D01*
X492740Y143005D01*
X492752Y143033D01*
X492751Y143063D01*
X492759Y143105D01*
X492759Y219372D01*
X492742Y219446D01*
X492729Y219520D01*
X492722Y219531D01*
X492720Y219540D01*
X492696Y219569D01*
X492648Y219641D01*
X482599Y229689D01*
X482599Y240211D01*
X492648Y250259D01*
X492688Y250324D01*
X492732Y250386D01*
X492734Y250398D01*
X492739Y250407D01*
X492743Y250444D01*
X492759Y250528D01*
X492759Y250825D01*
X492748Y250875D01*
X492746Y250926D01*
X492728Y250958D01*
X492720Y250994D01*
X492687Y251033D01*
X492663Y251078D01*
X492633Y251099D01*
X492610Y251127D01*
X492563Y251148D01*
X492521Y251178D01*
X492479Y251186D01*
X492451Y251198D01*
X492421Y251197D01*
X492379Y251205D01*
X491512Y251205D01*
X486155Y256562D01*
X486155Y264138D01*
X491512Y269495D01*
X499088Y269495D01*
X504445Y264138D01*
X504445Y256562D01*
X499088Y251205D01*
X498221Y251205D01*
X498171Y251194D01*
X498120Y251192D01*
X498088Y251174D01*
X498052Y251166D01*
X498013Y251133D01*
X497968Y251109D01*
X497947Y251079D01*
X497919Y251056D01*
X497898Y251009D01*
X497868Y250967D01*
X497860Y250925D01*
X497848Y250897D01*
X497849Y250867D01*
X497841Y250825D01*
X497841Y248266D01*
X494319Y244744D01*
X494305Y244722D01*
X494285Y244706D01*
X494260Y244649D01*
X494227Y244597D01*
X494225Y244571D01*
X494214Y244547D01*
X494216Y244486D01*
X494211Y244424D01*
X494220Y244400D01*
X494221Y244374D01*
X494250Y244320D01*
X494272Y244262D01*
X494291Y244245D01*
X494303Y244222D01*
X494354Y244187D01*
X494399Y244145D01*
X494424Y244137D01*
X494445Y244122D01*
X494530Y244106D01*
X494565Y244095D01*
X494575Y244097D01*
X494587Y244095D01*
X499088Y244095D01*
X504445Y238738D01*
X504445Y231162D01*
X499088Y225805D01*
X494587Y225805D01*
X494562Y225799D01*
X494537Y225802D01*
X494479Y225780D01*
X494419Y225766D01*
X494399Y225749D01*
X494375Y225740D01*
X494333Y225695D01*
X494285Y225656D01*
X494274Y225632D01*
X494257Y225613D01*
X494239Y225554D01*
X494214Y225497D01*
X494215Y225472D01*
X494208Y225447D01*
X494218Y225386D01*
X494221Y225324D01*
X494233Y225302D01*
X494237Y225276D01*
X494286Y225205D01*
X494303Y225172D01*
X494312Y225166D01*
X494319Y225156D01*
X497841Y221634D01*
X497841Y143105D01*
X497852Y143055D01*
X497854Y143004D01*
X497872Y142972D01*
X497880Y142936D01*
X497913Y142897D01*
X497937Y142852D01*
X497967Y142831D01*
X497990Y142803D01*
X498037Y142782D01*
X498079Y142752D01*
X498121Y142744D01*
X498149Y142732D01*
X498179Y142733D01*
X498221Y142725D01*
X504822Y142725D01*
X505715Y141832D01*
X505715Y120650D01*
X505726Y120600D01*
X505728Y120549D01*
X505746Y120517D01*
X505754Y120481D01*
X505787Y120442D01*
X505811Y120397D01*
X505841Y120376D01*
X505864Y120348D01*
X505911Y120327D01*
X505953Y120297D01*
X505995Y120289D01*
X506023Y120277D01*
X506053Y120278D01*
X506095Y120270D01*
X509905Y120270D01*
X509955Y120281D01*
X510006Y120283D01*
X510038Y120301D01*
X510074Y120309D01*
X510113Y120342D01*
X510158Y120366D01*
X510179Y120396D01*
X510207Y120419D01*
X510228Y120466D01*
X510258Y120508D01*
X510266Y120550D01*
X510278Y120578D01*
X510277Y120608D01*
X510285Y120650D01*
X510285Y141832D01*
X511178Y142725D01*
X517779Y142725D01*
X517829Y142736D01*
X517880Y142738D01*
X517912Y142756D01*
X517948Y142764D01*
X517987Y142797D01*
X518032Y142821D01*
X518053Y142851D01*
X518081Y142874D01*
X518102Y142921D01*
X518132Y142963D01*
X518140Y143005D01*
X518152Y143033D01*
X518151Y143063D01*
X518159Y143105D01*
X518159Y219372D01*
X518142Y219446D01*
X518129Y219520D01*
X518122Y219531D01*
X518120Y219540D01*
X518096Y219569D01*
X518048Y219641D01*
X507999Y229689D01*
X507999Y240211D01*
X518048Y250259D01*
X518088Y250324D01*
X518132Y250386D01*
X518134Y250398D01*
X518139Y250407D01*
X518143Y250444D01*
X518159Y250528D01*
X518159Y250825D01*
X518148Y250875D01*
X518146Y250926D01*
X518128Y250958D01*
X518120Y250994D01*
X518087Y251033D01*
X518063Y251078D01*
X518033Y251099D01*
X518010Y251127D01*
X517963Y251148D01*
X517921Y251178D01*
X517879Y251186D01*
X517851Y251198D01*
X517821Y251197D01*
X517779Y251205D01*
X516912Y251205D01*
X511555Y256562D01*
X511555Y264138D01*
X516912Y269495D01*
X524488Y269495D01*
X529845Y264138D01*
X529845Y256562D01*
X524488Y251205D01*
X523621Y251205D01*
X523571Y251194D01*
X523520Y251192D01*
X523488Y251174D01*
X523452Y251166D01*
X523413Y251133D01*
X523368Y251109D01*
X523347Y251079D01*
X523319Y251056D01*
X523298Y251009D01*
X523268Y250967D01*
X523260Y250925D01*
X523248Y250897D01*
X523249Y250867D01*
X523241Y250825D01*
X523241Y248266D01*
X519719Y244744D01*
X519705Y244722D01*
X519685Y244706D01*
X519660Y244649D01*
X519627Y244597D01*
X519625Y244571D01*
X519614Y244547D01*
X519616Y244486D01*
X519611Y244424D01*
X519620Y244400D01*
X519621Y244374D01*
X519650Y244320D01*
X519672Y244262D01*
X519691Y244245D01*
X519703Y244222D01*
X519754Y244187D01*
X519799Y244145D01*
X519824Y244137D01*
X519845Y244122D01*
X519930Y244106D01*
X519965Y244095D01*
X519975Y244097D01*
X519987Y244095D01*
X524488Y244095D01*
X529845Y238738D01*
X529845Y231162D01*
X524488Y225805D01*
X519987Y225805D01*
X519962Y225799D01*
X519937Y225802D01*
X519879Y225780D01*
X519819Y225766D01*
X519799Y225749D01*
X519775Y225740D01*
X519733Y225695D01*
X519685Y225656D01*
X519674Y225632D01*
X519657Y225613D01*
X519639Y225554D01*
X519614Y225497D01*
X519615Y225472D01*
X519608Y225447D01*
X519618Y225386D01*
X519621Y225324D01*
X519633Y225302D01*
X519637Y225276D01*
X519686Y225205D01*
X519703Y225172D01*
X519712Y225166D01*
X519719Y225156D01*
X523241Y221634D01*
X523241Y143105D01*
X523252Y143055D01*
X523254Y143004D01*
X523272Y142972D01*
X523280Y142936D01*
X523313Y142897D01*
X523337Y142852D01*
X523367Y142831D01*
X523390Y142803D01*
X523437Y142782D01*
X523479Y142752D01*
X523521Y142744D01*
X523549Y142732D01*
X523579Y142733D01*
X523621Y142725D01*
X530222Y142725D01*
X531115Y141832D01*
X531115Y120650D01*
X531126Y120600D01*
X531128Y120549D01*
X531146Y120517D01*
X531154Y120481D01*
X531187Y120442D01*
X531211Y120397D01*
X531241Y120376D01*
X531264Y120348D01*
X531311Y120327D01*
X531353Y120297D01*
X531395Y120289D01*
X531423Y120277D01*
X531453Y120278D01*
X531495Y120270D01*
X535305Y120270D01*
X535355Y120281D01*
X535406Y120283D01*
X535438Y120301D01*
X535474Y120309D01*
X535513Y120342D01*
X535558Y120366D01*
X535579Y120396D01*
X535607Y120419D01*
X535628Y120466D01*
X535658Y120508D01*
X535666Y120550D01*
X535678Y120578D01*
X535677Y120608D01*
X535685Y120650D01*
X535685Y141832D01*
X536578Y142725D01*
X543179Y142725D01*
X543229Y142736D01*
X543280Y142738D01*
X543312Y142756D01*
X543348Y142764D01*
X543387Y142797D01*
X543432Y142821D01*
X543453Y142851D01*
X543481Y142874D01*
X543502Y142921D01*
X543532Y142963D01*
X543540Y143005D01*
X543552Y143033D01*
X543551Y143063D01*
X543559Y143105D01*
X543559Y219372D01*
X543542Y219446D01*
X543529Y219520D01*
X543522Y219531D01*
X543520Y219540D01*
X543496Y219569D01*
X543448Y219641D01*
X533399Y229689D01*
X533399Y240211D01*
X543448Y250259D01*
X543488Y250324D01*
X543532Y250386D01*
X543534Y250398D01*
X543539Y250407D01*
X543543Y250444D01*
X543559Y250528D01*
X543559Y250825D01*
X543548Y250875D01*
X543546Y250926D01*
X543528Y250958D01*
X543520Y250994D01*
X543487Y251033D01*
X543463Y251078D01*
X543433Y251099D01*
X543410Y251127D01*
X543363Y251148D01*
X543321Y251178D01*
X543279Y251186D01*
X543251Y251198D01*
X543221Y251197D01*
X543179Y251205D01*
X542312Y251205D01*
X536955Y256562D01*
X536955Y264138D01*
X542312Y269495D01*
X549888Y269495D01*
X555245Y264138D01*
X555245Y256562D01*
X549888Y251205D01*
X549021Y251205D01*
X548971Y251194D01*
X548920Y251192D01*
X548888Y251174D01*
X548852Y251166D01*
X548813Y251133D01*
X548768Y251109D01*
X548747Y251079D01*
X548719Y251056D01*
X548698Y251009D01*
X548668Y250967D01*
X548660Y250925D01*
X548648Y250897D01*
X548649Y250867D01*
X548641Y250825D01*
X548641Y248266D01*
X545119Y244744D01*
X545105Y244722D01*
X545085Y244706D01*
X545060Y244649D01*
X545027Y244597D01*
X545025Y244571D01*
X545014Y244547D01*
X545016Y244486D01*
X545011Y244424D01*
X545020Y244400D01*
X545021Y244374D01*
X545050Y244320D01*
X545072Y244262D01*
X545091Y244245D01*
X545103Y244222D01*
X545154Y244187D01*
X545199Y244145D01*
X545224Y244137D01*
X545245Y244122D01*
X545330Y244106D01*
X545365Y244095D01*
X545375Y244097D01*
X545387Y244095D01*
X549888Y244095D01*
X555245Y238738D01*
X555245Y231162D01*
X549888Y225805D01*
X545387Y225805D01*
X545362Y225799D01*
X545337Y225802D01*
X545279Y225780D01*
X545219Y225766D01*
X545199Y225749D01*
X545175Y225740D01*
X545133Y225695D01*
X545085Y225656D01*
X545074Y225632D01*
X545057Y225613D01*
X545039Y225554D01*
X545014Y225497D01*
X545015Y225472D01*
X545008Y225447D01*
X545018Y225386D01*
X545021Y225324D01*
X545033Y225302D01*
X545037Y225276D01*
X545086Y225205D01*
X545103Y225172D01*
X545112Y225166D01*
X545119Y225156D01*
X548641Y221634D01*
X548641Y143105D01*
X548652Y143055D01*
X548654Y143004D01*
X548672Y142972D01*
X548680Y142936D01*
X548713Y142897D01*
X548737Y142852D01*
X548767Y142831D01*
X548790Y142803D01*
X548837Y142782D01*
X548879Y142752D01*
X548921Y142744D01*
X548949Y142732D01*
X548979Y142733D01*
X549021Y142725D01*
X555622Y142725D01*
X556515Y141832D01*
X556515Y120650D01*
X556526Y120600D01*
X556528Y120549D01*
X556546Y120517D01*
X556554Y120481D01*
X556587Y120442D01*
X556611Y120397D01*
X556641Y120376D01*
X556664Y120348D01*
X556711Y120327D01*
X556753Y120297D01*
X556795Y120289D01*
X556823Y120277D01*
X556853Y120278D01*
X556895Y120270D01*
X560705Y120270D01*
X560755Y120281D01*
X560806Y120283D01*
X560838Y120301D01*
X560874Y120309D01*
X560913Y120342D01*
X560958Y120366D01*
X560979Y120396D01*
X561007Y120419D01*
X561028Y120466D01*
X561058Y120508D01*
X561066Y120550D01*
X561078Y120578D01*
X561077Y120608D01*
X561085Y120650D01*
X561085Y141832D01*
X561978Y142725D01*
X568579Y142725D01*
X568629Y142736D01*
X568680Y142738D01*
X568712Y142756D01*
X568748Y142764D01*
X568787Y142797D01*
X568832Y142821D01*
X568853Y142851D01*
X568881Y142874D01*
X568902Y142921D01*
X568932Y142963D01*
X568940Y143005D01*
X568952Y143033D01*
X568951Y143063D01*
X568959Y143105D01*
X568959Y219372D01*
X568942Y219446D01*
X568929Y219520D01*
X568922Y219531D01*
X568920Y219540D01*
X568896Y219569D01*
X568848Y219641D01*
X558799Y229689D01*
X558799Y240211D01*
X568848Y250259D01*
X568888Y250324D01*
X568932Y250386D01*
X568934Y250398D01*
X568939Y250407D01*
X568943Y250444D01*
X568959Y250528D01*
X568959Y250825D01*
X568948Y250875D01*
X568946Y250926D01*
X568928Y250958D01*
X568920Y250994D01*
X568887Y251033D01*
X568863Y251078D01*
X568833Y251099D01*
X568810Y251127D01*
X568763Y251148D01*
X568721Y251178D01*
X568679Y251186D01*
X568651Y251198D01*
X568621Y251197D01*
X568579Y251205D01*
X567712Y251205D01*
X562355Y256562D01*
X562355Y264138D01*
X567712Y269495D01*
X575288Y269495D01*
X580645Y264138D01*
X580645Y256562D01*
X575288Y251205D01*
X574421Y251205D01*
X574371Y251194D01*
X574320Y251192D01*
X574288Y251174D01*
X574252Y251166D01*
X574213Y251133D01*
X574168Y251109D01*
X574147Y251079D01*
X574119Y251056D01*
X574098Y251009D01*
X574068Y250967D01*
X574060Y250925D01*
X574048Y250897D01*
X574049Y250867D01*
X574041Y250825D01*
X574041Y248266D01*
X570519Y244744D01*
X570505Y244722D01*
X570485Y244706D01*
X570460Y244649D01*
X570427Y244597D01*
X570425Y244571D01*
X570414Y244547D01*
X570416Y244486D01*
X570411Y244424D01*
X570420Y244400D01*
X570421Y244374D01*
X570450Y244320D01*
X570472Y244262D01*
X570491Y244245D01*
X570503Y244222D01*
X570554Y244187D01*
X570599Y244145D01*
X570624Y244137D01*
X570645Y244122D01*
X570730Y244106D01*
X570765Y244095D01*
X570775Y244097D01*
X570787Y244095D01*
X575288Y244095D01*
X580645Y238738D01*
X580645Y231162D01*
X575288Y225805D01*
X570787Y225805D01*
X570762Y225799D01*
X570737Y225802D01*
X570679Y225780D01*
X570619Y225766D01*
X570599Y225749D01*
X570575Y225740D01*
X570533Y225695D01*
X570485Y225656D01*
X570474Y225632D01*
X570457Y225613D01*
X570439Y225554D01*
X570414Y225497D01*
X570415Y225472D01*
X570408Y225447D01*
X570418Y225386D01*
X570421Y225324D01*
X570433Y225302D01*
X570437Y225276D01*
X570486Y225205D01*
X570503Y225172D01*
X570512Y225166D01*
X570519Y225156D01*
X574041Y221634D01*
X574041Y143105D01*
X574052Y143055D01*
X574054Y143004D01*
X574072Y142972D01*
X574080Y142936D01*
X574113Y142897D01*
X574137Y142852D01*
X574167Y142831D01*
X574190Y142803D01*
X574237Y142782D01*
X574279Y142752D01*
X574321Y142744D01*
X574349Y142732D01*
X574379Y142733D01*
X574421Y142725D01*
X581022Y142725D01*
X581915Y141832D01*
X581915Y120650D01*
X581926Y120600D01*
X581928Y120549D01*
X581946Y120517D01*
X581954Y120481D01*
X581987Y120442D01*
X582011Y120397D01*
X582041Y120376D01*
X582064Y120348D01*
X582111Y120327D01*
X582153Y120297D01*
X582195Y120289D01*
X582223Y120277D01*
X582253Y120278D01*
X582295Y120270D01*
X586105Y120270D01*
X586155Y120281D01*
X586206Y120283D01*
X586238Y120301D01*
X586274Y120309D01*
X586313Y120342D01*
X586358Y120366D01*
X586379Y120396D01*
X586407Y120419D01*
X586428Y120466D01*
X586458Y120508D01*
X586466Y120550D01*
X586478Y120578D01*
X586477Y120608D01*
X586485Y120650D01*
X586485Y141832D01*
X587378Y142725D01*
X593979Y142725D01*
X594029Y142736D01*
X594080Y142738D01*
X594112Y142756D01*
X594148Y142764D01*
X594187Y142797D01*
X594232Y142821D01*
X594253Y142851D01*
X594281Y142874D01*
X594302Y142921D01*
X594332Y142963D01*
X594340Y143005D01*
X594352Y143033D01*
X594351Y143063D01*
X594359Y143105D01*
X594359Y219372D01*
X594342Y219446D01*
X594329Y219520D01*
X594322Y219531D01*
X594320Y219540D01*
X594296Y219569D01*
X594248Y219641D01*
X584199Y229689D01*
X584199Y240211D01*
X594248Y250259D01*
X594288Y250324D01*
X594332Y250386D01*
X594334Y250398D01*
X594339Y250407D01*
X594343Y250444D01*
X594359Y250528D01*
X594359Y250825D01*
X594348Y250875D01*
X594346Y250926D01*
X594328Y250958D01*
X594320Y250994D01*
X594287Y251033D01*
X594263Y251078D01*
X594233Y251099D01*
X594210Y251127D01*
X594163Y251148D01*
X594121Y251178D01*
X594079Y251186D01*
X594051Y251198D01*
X594021Y251197D01*
X593979Y251205D01*
X593112Y251205D01*
X587755Y256562D01*
X587755Y264138D01*
X593112Y269495D01*
X600688Y269495D01*
X606045Y264138D01*
X606045Y256562D01*
X600688Y251205D01*
X599821Y251205D01*
X599771Y251194D01*
X599720Y251192D01*
X599688Y251174D01*
X599652Y251166D01*
X599613Y251133D01*
X599568Y251109D01*
X599547Y251079D01*
X599519Y251056D01*
X599498Y251009D01*
X599468Y250967D01*
X599460Y250925D01*
X599448Y250897D01*
X599449Y250867D01*
X599441Y250825D01*
X599441Y248266D01*
X595919Y244744D01*
X595905Y244722D01*
X595885Y244706D01*
X595860Y244649D01*
X595827Y244597D01*
X595825Y244571D01*
X595814Y244547D01*
X595816Y244486D01*
X595811Y244424D01*
X595820Y244400D01*
X595821Y244374D01*
X595850Y244320D01*
X595872Y244262D01*
X595891Y244245D01*
X595903Y244222D01*
X595954Y244187D01*
X595999Y244145D01*
X596024Y244137D01*
X596045Y244122D01*
X596130Y244106D01*
X596165Y244095D01*
X596175Y244097D01*
X596187Y244095D01*
X600688Y244095D01*
X606045Y238738D01*
X606045Y231162D01*
X600688Y225805D01*
X596187Y225805D01*
X596162Y225799D01*
X596137Y225802D01*
X596079Y225780D01*
X596019Y225766D01*
X595999Y225749D01*
X595975Y225740D01*
X595933Y225695D01*
X595885Y225656D01*
X595874Y225632D01*
X595857Y225613D01*
X595839Y225554D01*
X595814Y225497D01*
X595815Y225472D01*
X595808Y225447D01*
X595818Y225386D01*
X595821Y225324D01*
X595833Y225302D01*
X595837Y225276D01*
X595886Y225205D01*
X595903Y225172D01*
X595912Y225166D01*
X595919Y225156D01*
X599441Y221634D01*
X599441Y143105D01*
X599452Y143055D01*
X599454Y143004D01*
X599472Y142972D01*
X599480Y142936D01*
X599513Y142897D01*
X599537Y142852D01*
X599567Y142831D01*
X599590Y142803D01*
X599637Y142782D01*
X599679Y142752D01*
X599721Y142744D01*
X599749Y142732D01*
X599779Y142733D01*
X599821Y142725D01*
X606422Y142725D01*
X607315Y141832D01*
X607315Y120650D01*
X607326Y120600D01*
X607328Y120549D01*
X607346Y120517D01*
X607354Y120481D01*
X607387Y120442D01*
X607411Y120397D01*
X607441Y120376D01*
X607464Y120348D01*
X607511Y120327D01*
X607553Y120297D01*
X607595Y120289D01*
X607623Y120277D01*
X607653Y120278D01*
X607695Y120270D01*
X611505Y120270D01*
X611555Y120281D01*
X611606Y120283D01*
X611638Y120301D01*
X611674Y120309D01*
X611713Y120342D01*
X611758Y120366D01*
X611779Y120396D01*
X611807Y120419D01*
X611828Y120466D01*
X611858Y120508D01*
X611866Y120550D01*
X611878Y120578D01*
X611877Y120608D01*
X611885Y120650D01*
X611885Y141832D01*
X612778Y142725D01*
X619379Y142725D01*
X619429Y142736D01*
X619480Y142738D01*
X619512Y142756D01*
X619548Y142764D01*
X619587Y142797D01*
X619632Y142821D01*
X619653Y142851D01*
X619681Y142874D01*
X619702Y142921D01*
X619732Y142963D01*
X619740Y143005D01*
X619752Y143033D01*
X619751Y143063D01*
X619759Y143105D01*
X619759Y219372D01*
X619742Y219446D01*
X619729Y219520D01*
X619722Y219531D01*
X619720Y219540D01*
X619696Y219569D01*
X619648Y219641D01*
X609599Y229689D01*
X609599Y240211D01*
X619648Y250259D01*
X619688Y250324D01*
X619732Y250386D01*
X619734Y250398D01*
X619739Y250407D01*
X619743Y250444D01*
X619759Y250528D01*
X619759Y250825D01*
X619748Y250875D01*
X619746Y250926D01*
X619728Y250958D01*
X619720Y250994D01*
X619687Y251033D01*
X619663Y251078D01*
X619633Y251099D01*
X619610Y251127D01*
X619563Y251148D01*
X619521Y251178D01*
X619479Y251186D01*
X619451Y251198D01*
X619421Y251197D01*
X619379Y251205D01*
X618512Y251205D01*
X613155Y256562D01*
X613155Y264138D01*
X618512Y269495D01*
X626088Y269495D01*
X631445Y264138D01*
X631445Y256562D01*
X626088Y251205D01*
X625221Y251205D01*
X625171Y251194D01*
X625120Y251192D01*
X625088Y251174D01*
X625052Y251166D01*
X625013Y251133D01*
X624968Y251109D01*
X624947Y251079D01*
X624919Y251056D01*
X624898Y251009D01*
X624868Y250967D01*
X624860Y250925D01*
X624848Y250897D01*
X624849Y250867D01*
X624841Y250825D01*
X624841Y248266D01*
X621319Y244744D01*
X621305Y244722D01*
X621285Y244706D01*
X621260Y244649D01*
X621227Y244597D01*
X621225Y244571D01*
X621214Y244547D01*
X621216Y244486D01*
X621211Y244424D01*
X621220Y244400D01*
X621221Y244374D01*
X621250Y244320D01*
X621272Y244262D01*
X621291Y244245D01*
X621303Y244222D01*
X621354Y244187D01*
X621399Y244145D01*
X621424Y244137D01*
X621445Y244122D01*
X621530Y244106D01*
X621565Y244095D01*
X621575Y244097D01*
X621587Y244095D01*
X626088Y244095D01*
X631445Y238738D01*
X631445Y231162D01*
X626088Y225805D01*
X621587Y225805D01*
X621562Y225799D01*
X621537Y225802D01*
X621479Y225780D01*
X621419Y225766D01*
X621399Y225749D01*
X621375Y225740D01*
X621333Y225695D01*
X621285Y225656D01*
X621274Y225632D01*
X621257Y225613D01*
X621239Y225554D01*
X621214Y225497D01*
X621215Y225472D01*
X621208Y225447D01*
X621218Y225386D01*
X621221Y225324D01*
X621233Y225302D01*
X621237Y225276D01*
X621286Y225205D01*
X621303Y225172D01*
X621312Y225166D01*
X621319Y225156D01*
X624841Y221634D01*
X624841Y143105D01*
X624852Y143055D01*
X624854Y143004D01*
X624872Y142972D01*
X624880Y142936D01*
X624913Y142897D01*
X624937Y142852D01*
X624967Y142831D01*
X624990Y142803D01*
X625037Y142782D01*
X625079Y142752D01*
X625121Y142744D01*
X625149Y142732D01*
X625179Y142733D01*
X625221Y142725D01*
X631822Y142725D01*
X632715Y141832D01*
X632715Y120650D01*
X632726Y120600D01*
X632728Y120549D01*
X632746Y120517D01*
X632754Y120481D01*
X632787Y120442D01*
X632811Y120397D01*
X632841Y120376D01*
X632864Y120348D01*
X632911Y120327D01*
X632953Y120297D01*
X632995Y120289D01*
X633023Y120277D01*
X633053Y120278D01*
X633095Y120270D01*
X635889Y120270D01*
X635939Y120281D01*
X635990Y120283D01*
X636022Y120301D01*
X636058Y120309D01*
X636097Y120342D01*
X636142Y120366D01*
X636163Y120396D01*
X636191Y120419D01*
X636212Y120466D01*
X636242Y120508D01*
X636250Y120550D01*
X636262Y120578D01*
X636261Y120608D01*
X636269Y120650D01*
X636269Y141535D01*
X636442Y142181D01*
X636777Y142760D01*
X637250Y143233D01*
X637829Y143568D01*
X638475Y143741D01*
X646939Y143741D01*
X646939Y120650D01*
X646950Y120600D01*
X646952Y120549D01*
X646970Y120517D01*
X646978Y120481D01*
X647011Y120442D01*
X647035Y120397D01*
X647065Y120376D01*
X647088Y120348D01*
X647135Y120327D01*
X647177Y120297D01*
X647219Y120289D01*
X647247Y120277D01*
X647277Y120278D01*
X647319Y120270D01*
X648081Y120270D01*
X648131Y120281D01*
X648182Y120283D01*
X648214Y120301D01*
X648250Y120309D01*
X648289Y120342D01*
X648334Y120366D01*
X648355Y120396D01*
X648383Y120419D01*
X648404Y120466D01*
X648434Y120508D01*
X648442Y120550D01*
X648454Y120578D01*
X648453Y120608D01*
X648461Y120650D01*
X648461Y143741D01*
X656925Y143741D01*
X657571Y143568D01*
X658150Y143233D01*
X658623Y142760D01*
X658958Y142181D01*
X659131Y141535D01*
X659131Y120650D01*
X659142Y120600D01*
X659144Y120549D01*
X659162Y120517D01*
X659170Y120481D01*
X659203Y120442D01*
X659227Y120397D01*
X659257Y120376D01*
X659280Y120348D01*
X659327Y120327D01*
X659369Y120297D01*
X659411Y120289D01*
X659439Y120277D01*
X659469Y120278D01*
X659511Y120270D01*
X662178Y120270D01*
X662228Y120281D01*
X662279Y120283D01*
X662311Y120301D01*
X662347Y120309D01*
X662386Y120342D01*
X662431Y120366D01*
X662452Y120396D01*
X662480Y120419D01*
X662501Y120466D01*
X662531Y120508D01*
X662539Y120550D01*
X662551Y120578D01*
X662550Y120608D01*
X662558Y120650D01*
X662558Y141797D01*
X664163Y145671D01*
X667129Y148637D01*
X671003Y150242D01*
X822870Y150242D01*
X822883Y150245D01*
X822900Y150243D01*
X824583Y150375D01*
X824617Y150386D01*
X824670Y150393D01*
X827871Y151433D01*
X827904Y151453D01*
X827977Y151487D01*
X830700Y153465D01*
X830726Y153494D01*
X830785Y153550D01*
X832763Y156273D01*
X832778Y156308D01*
X832817Y156379D01*
X833857Y159580D01*
X833860Y159615D01*
X833875Y159667D01*
X834007Y161350D01*
X834005Y161364D01*
X834008Y161380D01*
X834008Y689520D01*
X834005Y689533D01*
X834007Y689550D01*
X833875Y691233D01*
X833864Y691267D01*
X833857Y691320D01*
X832817Y694521D01*
X832797Y694554D01*
X832763Y694627D01*
X830785Y697350D01*
X830776Y697358D01*
X830774Y697362D01*
X830760Y697372D01*
X830756Y697376D01*
X830700Y697435D01*
X827977Y699413D01*
X827942Y699428D01*
X827871Y699467D01*
X824670Y700507D01*
X824635Y700510D01*
X824583Y700525D01*
X822900Y700657D01*
X822886Y700655D01*
X822870Y700658D01*
X68842Y700658D01*
X68817Y700652D01*
X68791Y700655D01*
X68734Y700633D01*
X68674Y700619D01*
X68654Y700602D01*
X68630Y700593D01*
X68588Y700548D01*
X68540Y700509D01*
X68529Y700485D01*
X68512Y700466D01*
X68494Y700407D01*
X68469Y700350D01*
X68470Y700325D01*
X68463Y700300D01*
X68473Y700239D01*
X68476Y700177D01*
X68488Y700155D01*
X68492Y700129D01*
X68541Y700058D01*
X68558Y700025D01*
X68567Y700019D01*
X68573Y700009D01*
X72645Y695938D01*
X72645Y695071D01*
X72656Y695021D01*
X72658Y694970D01*
X72676Y694938D01*
X72684Y694902D01*
X72717Y694863D01*
X72741Y694818D01*
X72771Y694797D01*
X72794Y694769D01*
X72841Y694748D01*
X72883Y694718D01*
X72925Y694710D01*
X72953Y694698D01*
X72983Y694699D01*
X73025Y694691D01*
X159978Y694691D01*
X160052Y694708D01*
X160127Y694721D01*
X160137Y694728D01*
X160147Y694730D01*
X160176Y694754D01*
X160247Y694802D01*
X162902Y697457D01*
X167298Y697457D01*
X170407Y694348D01*
X170407Y689952D01*
X167298Y686843D01*
X162902Y686843D01*
X160247Y689498D01*
X160183Y689538D01*
X160121Y689582D01*
X160109Y689584D01*
X160100Y689589D01*
X160063Y689593D01*
X159978Y689609D01*
X73025Y689609D01*
X72975Y689598D01*
X72924Y689596D01*
X72892Y689578D01*
X72856Y689570D01*
X72817Y689537D01*
X72772Y689513D01*
X72751Y689483D01*
X72723Y689460D01*
X72702Y689413D01*
X72672Y689371D01*
X72664Y689329D01*
X72652Y689301D01*
X72653Y689271D01*
X72645Y689229D01*
X72645Y688362D01*
X67288Y683005D01*
X59712Y683005D01*
X54355Y688362D01*
X54355Y695938D01*
X58427Y700009D01*
X58440Y700031D01*
X58460Y700047D01*
X58485Y700104D01*
X58518Y700156D01*
X58520Y700182D01*
X58531Y700206D01*
X58529Y700267D01*
X58535Y700329D01*
X58525Y700353D01*
X58524Y700379D01*
X58495Y700433D01*
X58473Y700491D01*
X58454Y700508D01*
X58442Y700531D01*
X58391Y700566D01*
X58346Y700608D01*
X58321Y700616D01*
X58300Y700631D01*
X58215Y700647D01*
X58180Y700658D01*
X58170Y700656D01*
X58158Y700658D01*
X40730Y700658D01*
X40717Y700655D01*
X40700Y700657D01*
X39017Y700525D01*
X38983Y700514D01*
X38930Y700507D01*
X35729Y699467D01*
X35696Y699447D01*
X35623Y699413D01*
X32900Y697435D01*
X32874Y697406D01*
X32815Y697350D01*
X30837Y694627D01*
X30822Y694592D01*
X30783Y694521D01*
X29743Y691320D01*
X29740Y691285D01*
X29725Y691233D01*
X29593Y689550D01*
X29595Y689536D01*
X29592Y689520D01*
X29592Y161380D01*
X29595Y161367D01*
X29593Y161350D01*
X29725Y159667D01*
X29736Y159633D01*
X29743Y159580D01*
X30783Y156379D01*
X30803Y156346D01*
X30837Y156273D01*
X32815Y153550D01*
X32844Y153524D01*
X32900Y153465D01*
X35623Y151487D01*
X35658Y151472D01*
X35729Y151433D01*
X38930Y150393D01*
X38965Y150390D01*
X39017Y150375D01*
X40700Y150243D01*
X40714Y150245D01*
X40730Y150242D01*
X192597Y150242D01*
X196471Y148637D01*
X199437Y145671D01*
X201042Y141797D01*
X201042Y120650D01*
X201053Y120600D01*
X201055Y120549D01*
X201073Y120517D01*
X201081Y120481D01*
X201114Y120442D01*
X201138Y120397D01*
X201168Y120376D01*
X201191Y120348D01*
X201238Y120327D01*
X201280Y120297D01*
X201322Y120289D01*
X201350Y120277D01*
X201380Y120278D01*
X201422Y120270D01*
X205105Y120270D01*
X205155Y120281D01*
X205206Y120283D01*
X205238Y120301D01*
X205274Y120309D01*
X205313Y120342D01*
X205358Y120366D01*
X205379Y120396D01*
X205407Y120419D01*
X205428Y120466D01*
X205458Y120508D01*
X205466Y120550D01*
X205478Y120578D01*
X205477Y120608D01*
X205485Y120650D01*
X205485Y141832D01*
X206378Y142725D01*
X212979Y142725D01*
X213029Y142736D01*
X213080Y142738D01*
X213112Y142756D01*
X213148Y142764D01*
X213187Y142797D01*
X213232Y142821D01*
X213253Y142851D01*
X213281Y142874D01*
X213302Y142921D01*
X213332Y142963D01*
X213340Y143005D01*
X213352Y143033D01*
X213351Y143063D01*
X213359Y143105D01*
X213359Y219372D01*
X213342Y219446D01*
X213329Y219520D01*
X213322Y219531D01*
X213320Y219540D01*
X213296Y219569D01*
X213248Y219641D01*
X203199Y229689D01*
X203199Y240211D01*
X213248Y250259D01*
X213288Y250324D01*
X213332Y250386D01*
X213334Y250398D01*
X213339Y250407D01*
X213343Y250444D01*
X213359Y250528D01*
X213359Y250825D01*
X213348Y250875D01*
X213346Y250926D01*
X213328Y250958D01*
X213320Y250994D01*
X213287Y251033D01*
X213263Y251078D01*
X213233Y251099D01*
X213210Y251127D01*
X213163Y251148D01*
X213121Y251178D01*
X213079Y251186D01*
X213051Y251198D01*
X213021Y251197D01*
X212979Y251205D01*
X212112Y251205D01*
X206755Y256562D01*
X206755Y264138D01*
X212112Y269495D01*
X219688Y269495D01*
X225045Y264138D01*
X225045Y256562D01*
X219688Y251205D01*
X218821Y251205D01*
X218771Y251194D01*
X218720Y251192D01*
X218688Y251174D01*
X218652Y251166D01*
X218613Y251133D01*
X218568Y251109D01*
X218547Y251079D01*
X218519Y251056D01*
X218498Y251009D01*
X218468Y250967D01*
X218460Y250925D01*
X218448Y250897D01*
X218449Y250867D01*
X218441Y250825D01*
X218441Y248266D01*
X214919Y244744D01*
X214905Y244722D01*
X214885Y244706D01*
X214860Y244649D01*
X214827Y244597D01*
X214825Y244571D01*
X214814Y244547D01*
X214816Y244486D01*
X214811Y244424D01*
X214820Y244400D01*
X214821Y244374D01*
X214850Y244320D01*
X214872Y244262D01*
X214891Y244245D01*
X214903Y244222D01*
X214954Y244187D01*
X214999Y244145D01*
X215024Y244137D01*
X215045Y244122D01*
X215130Y244106D01*
X215165Y244095D01*
X215175Y244097D01*
X215187Y244095D01*
X219688Y244095D01*
X225045Y238738D01*
X225045Y231162D01*
X219688Y225805D01*
X215187Y225805D01*
X215162Y225799D01*
X215137Y225802D01*
X215079Y225780D01*
X215019Y225766D01*
X214999Y225749D01*
X214975Y225740D01*
X214933Y225695D01*
X214885Y225656D01*
X214874Y225632D01*
X214857Y225613D01*
X214839Y225554D01*
X214814Y225497D01*
X214815Y225472D01*
X214808Y225447D01*
X214818Y225386D01*
X214821Y225324D01*
X214833Y225302D01*
X214837Y225276D01*
X214886Y225205D01*
X214903Y225172D01*
X214912Y225166D01*
X214919Y225156D01*
X218441Y221634D01*
X218441Y143105D01*
X218452Y143055D01*
X218454Y143004D01*
X218472Y142972D01*
X218480Y142936D01*
X218513Y142897D01*
X218537Y142852D01*
X218567Y142831D01*
X218590Y142803D01*
X218637Y142782D01*
X218679Y142752D01*
X218721Y142744D01*
X218749Y142732D01*
X218779Y142733D01*
X218821Y142725D01*
X225422Y142725D01*
X226315Y141832D01*
X226315Y120650D01*
X226326Y120600D01*
X226328Y120549D01*
X226346Y120517D01*
X226354Y120481D01*
X226387Y120442D01*
X226411Y120397D01*
X226441Y120376D01*
X226464Y120348D01*
X226511Y120327D01*
X226553Y120297D01*
X226595Y120289D01*
X226623Y120277D01*
X226653Y120278D01*
X226695Y120270D01*
X230505Y120270D01*
X230555Y120281D01*
X230606Y120283D01*
X230638Y120301D01*
X230674Y120309D01*
X230713Y120342D01*
X230758Y120366D01*
X230779Y120396D01*
X230807Y120419D01*
X230828Y120466D01*
X230858Y120508D01*
X230866Y120550D01*
X230878Y120578D01*
X230877Y120608D01*
X230885Y120650D01*
X230885Y141832D01*
X231778Y142725D01*
X238379Y142725D01*
X238429Y142736D01*
X238480Y142738D01*
X238512Y142756D01*
X238548Y142764D01*
X238587Y142797D01*
X238632Y142821D01*
X238653Y142851D01*
X238681Y142874D01*
X238702Y142921D01*
X238732Y142963D01*
X238740Y143005D01*
X238752Y143033D01*
X238751Y143063D01*
X238759Y143105D01*
X238759Y219372D01*
X238742Y219446D01*
X238729Y219520D01*
X238722Y219531D01*
X238720Y219540D01*
X238696Y219569D01*
X238648Y219641D01*
X230199Y228089D01*
X230199Y228090D01*
X228599Y229689D01*
X228599Y240211D01*
X230199Y241810D01*
X230199Y241811D01*
X238648Y250259D01*
X238688Y250324D01*
X238732Y250386D01*
X238734Y250398D01*
X238739Y250407D01*
X238743Y250444D01*
X238759Y250528D01*
X238759Y250825D01*
X238748Y250875D01*
X238746Y250926D01*
X238728Y250958D01*
X238720Y250994D01*
X238687Y251033D01*
X238663Y251078D01*
X238633Y251099D01*
X238610Y251127D01*
X238563Y251148D01*
X238521Y251178D01*
X238479Y251186D01*
X238451Y251198D01*
X238421Y251197D01*
X238379Y251205D01*
X237512Y251205D01*
X232155Y256562D01*
X232155Y264138D01*
X237512Y269495D01*
X245088Y269495D01*
X250445Y264138D01*
X250445Y256562D01*
X245088Y251205D01*
X244221Y251205D01*
X244171Y251194D01*
X244120Y251192D01*
X244088Y251174D01*
X244052Y251166D01*
X244013Y251133D01*
X243968Y251109D01*
X243947Y251079D01*
X243919Y251056D01*
X243898Y251009D01*
X243868Y250967D01*
X243860Y250925D01*
X243848Y250897D01*
X243849Y250867D01*
X243841Y250825D01*
X243841Y248266D01*
X240319Y244744D01*
X240305Y244722D01*
X240285Y244706D01*
X240260Y244649D01*
X240227Y244597D01*
X240225Y244571D01*
X240214Y244547D01*
X240216Y244486D01*
X240211Y244424D01*
X240220Y244400D01*
X240221Y244374D01*
X240250Y244320D01*
X240272Y244262D01*
X240291Y244245D01*
X240303Y244222D01*
X240354Y244187D01*
X240399Y244145D01*
X240424Y244137D01*
X240445Y244122D01*
X240530Y244106D01*
X240565Y244095D01*
X240575Y244097D01*
X240587Y244095D01*
X245088Y244095D01*
X250445Y238738D01*
X250445Y231162D01*
X245088Y225805D01*
X240587Y225805D01*
X240562Y225799D01*
X240537Y225802D01*
X240479Y225780D01*
X240419Y225766D01*
X240399Y225749D01*
X240375Y225740D01*
X240333Y225695D01*
X240285Y225656D01*
X240274Y225632D01*
X240257Y225613D01*
X240239Y225554D01*
X240214Y225497D01*
X240215Y225472D01*
X240208Y225447D01*
X240218Y225386D01*
X240221Y225324D01*
X240233Y225302D01*
X240237Y225276D01*
X240286Y225205D01*
X240303Y225172D01*
X240312Y225166D01*
X240319Y225156D01*
X242241Y223234D01*
X243841Y221634D01*
X243841Y143105D01*
X243852Y143055D01*
X243854Y143004D01*
X243872Y142972D01*
X243880Y142936D01*
X243913Y142897D01*
X243937Y142852D01*
X243967Y142831D01*
X243990Y142803D01*
X244037Y142782D01*
X244079Y142752D01*
X244121Y142744D01*
X244149Y142732D01*
X244179Y142733D01*
X244221Y142725D01*
X250822Y142725D01*
X251715Y141832D01*
X251715Y120650D01*
X251726Y120600D01*
X251728Y120549D01*
X251746Y120517D01*
X251754Y120481D01*
X251787Y120442D01*
X251811Y120397D01*
X251841Y120376D01*
X251864Y120348D01*
X251911Y120327D01*
X251953Y120297D01*
X251995Y120289D01*
X252023Y120277D01*
X252053Y120278D01*
X252095Y120270D01*
X255905Y120270D01*
X255955Y120281D01*
X256006Y120283D01*
X256038Y120301D01*
X256074Y120309D01*
X256113Y120342D01*
X256158Y120366D01*
X256179Y120396D01*
X256207Y120419D01*
X256228Y120466D01*
X256258Y120508D01*
X256266Y120550D01*
X256278Y120578D01*
X256277Y120608D01*
X256285Y120650D01*
X256285Y141832D01*
X257178Y142725D01*
X263779Y142725D01*
X263829Y142736D01*
X263880Y142738D01*
X263912Y142756D01*
X263948Y142764D01*
X263987Y142797D01*
X264032Y142821D01*
X264053Y142851D01*
X264081Y142874D01*
X264102Y142921D01*
X264132Y142963D01*
X264140Y143005D01*
X264152Y143033D01*
X264151Y143063D01*
X264159Y143105D01*
X264159Y219372D01*
X264142Y219446D01*
X264129Y219520D01*
X264122Y219531D01*
X264120Y219540D01*
X264096Y219569D01*
X264048Y219641D01*
X253999Y229689D01*
X253999Y240211D01*
X264048Y250259D01*
X264088Y250324D01*
X264132Y250386D01*
X264134Y250398D01*
X264139Y250407D01*
X264143Y250444D01*
X264159Y250528D01*
X264159Y250825D01*
X264148Y250875D01*
X264146Y250926D01*
X264128Y250958D01*
X264120Y250994D01*
X264087Y251033D01*
X264063Y251078D01*
X264033Y251099D01*
X264010Y251127D01*
X263963Y251148D01*
X263921Y251178D01*
X263879Y251186D01*
X263851Y251198D01*
X263821Y251197D01*
X263779Y251205D01*
X262912Y251205D01*
X257555Y256562D01*
X257555Y264138D01*
X262912Y269495D01*
X270488Y269495D01*
X275845Y264138D01*
X275845Y256562D01*
X270488Y251205D01*
X269621Y251205D01*
X269571Y251194D01*
X269520Y251192D01*
X269488Y251174D01*
X269452Y251166D01*
X269413Y251133D01*
X269368Y251109D01*
X269347Y251079D01*
X269319Y251056D01*
X269298Y251009D01*
X269268Y250967D01*
X269260Y250925D01*
X269248Y250897D01*
X269249Y250867D01*
X269241Y250825D01*
X269241Y248266D01*
X265719Y244744D01*
X265705Y244722D01*
X265685Y244706D01*
X265660Y244649D01*
X265627Y244597D01*
X265625Y244571D01*
X265614Y244547D01*
X265616Y244486D01*
X265611Y244424D01*
X265620Y244400D01*
X265621Y244374D01*
X265650Y244320D01*
X265672Y244262D01*
X265691Y244245D01*
X265703Y244222D01*
X265754Y244187D01*
X265799Y244145D01*
X265824Y244137D01*
X265845Y244122D01*
X265930Y244106D01*
X265965Y244095D01*
X265975Y244097D01*
X265987Y244095D01*
X270488Y244095D01*
X275845Y238738D01*
X275845Y231162D01*
X270488Y225805D01*
X265987Y225805D01*
X265962Y225799D01*
X265937Y225802D01*
X265879Y225780D01*
X265819Y225766D01*
X265799Y225749D01*
X265775Y225740D01*
X265733Y225695D01*
X265685Y225656D01*
X265674Y225632D01*
X265657Y225613D01*
X265639Y225554D01*
X265614Y225497D01*
X265615Y225472D01*
X265608Y225447D01*
X265618Y225386D01*
X265621Y225324D01*
X265633Y225302D01*
X265637Y225276D01*
X265686Y225205D01*
X265703Y225172D01*
X265712Y225166D01*
X265719Y225156D01*
X269241Y221634D01*
X269241Y143105D01*
X269252Y143055D01*
X269254Y143004D01*
X269272Y142972D01*
X269280Y142936D01*
X269313Y142897D01*
X269337Y142852D01*
X269367Y142831D01*
X269390Y142803D01*
X269437Y142782D01*
X269479Y142752D01*
X269521Y142744D01*
X269549Y142732D01*
X269579Y142733D01*
X269621Y142725D01*
X276222Y142725D01*
X277115Y141832D01*
X277115Y120650D01*
X277126Y120600D01*
X277128Y120549D01*
X277146Y120517D01*
X277154Y120481D01*
X277187Y120442D01*
X277211Y120397D01*
X277241Y120376D01*
X277264Y120348D01*
X277311Y120327D01*
X277353Y120297D01*
X277395Y120289D01*
X277423Y120277D01*
X277453Y120278D01*
X277495Y120270D01*
X281305Y120270D01*
X281355Y120281D01*
X281406Y120283D01*
X281438Y120301D01*
X281474Y120309D01*
X281513Y120342D01*
X281558Y120366D01*
X281579Y120396D01*
X281607Y120419D01*
X281628Y120466D01*
X281658Y120508D01*
X281666Y120550D01*
X281678Y120578D01*
X281677Y120608D01*
X281685Y120650D01*
X281685Y141832D01*
X282578Y142725D01*
X289179Y142725D01*
X289229Y142736D01*
X289280Y142738D01*
X289312Y142756D01*
X289348Y142764D01*
X289387Y142797D01*
X289432Y142821D01*
X289453Y142851D01*
X289481Y142874D01*
X289502Y142921D01*
X289532Y142963D01*
X289540Y143005D01*
X289552Y143033D01*
X289551Y143063D01*
X289559Y143105D01*
X289559Y219372D01*
X289542Y219446D01*
X289529Y219520D01*
X289522Y219531D01*
X289520Y219540D01*
X289496Y219569D01*
X289448Y219641D01*
X279399Y229689D01*
X279399Y240211D01*
X289448Y250259D01*
X289488Y250324D01*
X289532Y250386D01*
X289534Y250398D01*
X289539Y250407D01*
X289543Y250444D01*
X289559Y250528D01*
X289559Y250825D01*
X289548Y250875D01*
X289546Y250926D01*
X289528Y250958D01*
X289520Y250994D01*
X289487Y251033D01*
X289463Y251078D01*
X289433Y251099D01*
X289410Y251127D01*
X289363Y251148D01*
X289321Y251178D01*
X289279Y251186D01*
X289251Y251198D01*
X289221Y251197D01*
X289179Y251205D01*
X288312Y251205D01*
X282955Y256562D01*
X282955Y264138D01*
X288312Y269495D01*
X295888Y269495D01*
X301245Y264138D01*
X301245Y256562D01*
X295888Y251205D01*
X295021Y251205D01*
X294971Y251194D01*
X294920Y251192D01*
X294888Y251174D01*
X294852Y251166D01*
X294813Y251133D01*
X294768Y251109D01*
X294747Y251079D01*
X294719Y251056D01*
X294698Y251009D01*
X294668Y250967D01*
X294660Y250925D01*
X294648Y250897D01*
X294649Y250867D01*
X294641Y250825D01*
X294641Y248266D01*
X291119Y244744D01*
X291105Y244722D01*
X291085Y244706D01*
X291060Y244649D01*
X291027Y244597D01*
X291025Y244571D01*
X291014Y244547D01*
X291016Y244486D01*
X291011Y244424D01*
X291020Y244400D01*
X291021Y244374D01*
X291050Y244320D01*
X291072Y244262D01*
X291091Y244245D01*
X291103Y244222D01*
X291154Y244187D01*
X291199Y244145D01*
X291224Y244137D01*
X291245Y244122D01*
X291330Y244106D01*
X291365Y244095D01*
X291375Y244097D01*
X291387Y244095D01*
X295888Y244095D01*
X301245Y238738D01*
X301245Y231162D01*
X295888Y225805D01*
X291387Y225805D01*
X291362Y225799D01*
X291337Y225802D01*
X291279Y225780D01*
X291219Y225766D01*
X291199Y225749D01*
X291175Y225740D01*
X291133Y225695D01*
X291085Y225656D01*
X291074Y225632D01*
X291057Y225613D01*
X291039Y225554D01*
X291014Y225497D01*
X291015Y225472D01*
X291008Y225447D01*
X291018Y225386D01*
X291021Y225324D01*
X291033Y225302D01*
X291037Y225276D01*
X291086Y225205D01*
X291103Y225172D01*
X291112Y225166D01*
X291119Y225156D01*
X294641Y221634D01*
X294641Y143105D01*
X294652Y143055D01*
X294654Y143004D01*
X294672Y142972D01*
X294680Y142936D01*
X294713Y142897D01*
X294737Y142852D01*
X294767Y142831D01*
X294790Y142803D01*
X294837Y142782D01*
X294879Y142752D01*
X294921Y142744D01*
X294949Y142732D01*
X294979Y142733D01*
X295021Y142725D01*
X301622Y142725D01*
X302515Y141832D01*
X302515Y120650D01*
X302526Y120600D01*
X302528Y120549D01*
X302546Y120517D01*
X302554Y120481D01*
X302587Y120442D01*
X302611Y120397D01*
X302641Y120376D01*
X302664Y120348D01*
X302711Y120327D01*
X302753Y120297D01*
X302795Y120289D01*
X302823Y120277D01*
X302853Y120278D01*
X302895Y120270D01*
X306705Y120270D01*
X306755Y120281D01*
X306806Y120283D01*
X306838Y120301D01*
X306874Y120309D01*
X306913Y120342D01*
X306958Y120366D01*
X306979Y120396D01*
X307007Y120419D01*
X307028Y120466D01*
X307058Y120508D01*
X307066Y120550D01*
X307078Y120578D01*
X307077Y120608D01*
X307085Y120650D01*
X307085Y141832D01*
X307978Y142725D01*
X314579Y142725D01*
X314629Y142736D01*
X314680Y142738D01*
X314712Y142756D01*
X314748Y142764D01*
X314787Y142797D01*
X314832Y142821D01*
X314853Y142851D01*
X314881Y142874D01*
X314902Y142921D01*
X314932Y142963D01*
X314940Y143005D01*
X314952Y143033D01*
X314951Y143063D01*
X314959Y143105D01*
X314959Y219372D01*
X314942Y219446D01*
X314929Y219520D01*
X314922Y219531D01*
X314920Y219540D01*
X314896Y219569D01*
X314848Y219641D01*
X304799Y229689D01*
X304799Y240211D01*
X314848Y250259D01*
X314888Y250324D01*
X314932Y250386D01*
X314934Y250398D01*
X314939Y250407D01*
X314943Y250444D01*
X314959Y250528D01*
X314959Y250825D01*
X314948Y250875D01*
X314946Y250926D01*
X314928Y250958D01*
X314920Y250994D01*
X314887Y251033D01*
X314863Y251078D01*
X314833Y251099D01*
X314810Y251127D01*
X314763Y251148D01*
X314721Y251178D01*
X314679Y251186D01*
X314651Y251198D01*
X314621Y251197D01*
X314579Y251205D01*
X313712Y251205D01*
X308355Y256562D01*
X308355Y264138D01*
X313712Y269495D01*
X321288Y269495D01*
X326645Y264138D01*
X326645Y256562D01*
X321288Y251205D01*
X320421Y251205D01*
X320371Y251194D01*
X320320Y251192D01*
X320288Y251174D01*
X320252Y251166D01*
X320213Y251133D01*
X320168Y251109D01*
X320147Y251079D01*
X320119Y251056D01*
X320098Y251009D01*
X320068Y250967D01*
X320060Y250925D01*
X320048Y250897D01*
X320049Y250867D01*
X320041Y250825D01*
X320041Y248266D01*
X316519Y244744D01*
X316505Y244722D01*
X316485Y244706D01*
X316460Y244649D01*
X316427Y244597D01*
X316425Y244571D01*
X316414Y244547D01*
X316416Y244486D01*
X316411Y244424D01*
X316420Y244400D01*
X316421Y244374D01*
X316450Y244320D01*
X316472Y244262D01*
X316491Y244245D01*
X316503Y244222D01*
X316554Y244187D01*
X316599Y244145D01*
X316624Y244137D01*
X316645Y244122D01*
X316730Y244106D01*
X316765Y244095D01*
X316775Y244097D01*
X316787Y244095D01*
X321288Y244095D01*
X326645Y238738D01*
X326645Y231162D01*
X321288Y225805D01*
X316787Y225805D01*
X316762Y225799D01*
X316737Y225802D01*
X316679Y225780D01*
X316619Y225766D01*
X316599Y225749D01*
X316575Y225740D01*
X316533Y225695D01*
X316485Y225656D01*
X316474Y225632D01*
X316457Y225613D01*
X316439Y225554D01*
X316414Y225497D01*
X316415Y225472D01*
X316408Y225447D01*
X316418Y225386D01*
X316421Y225324D01*
X316433Y225302D01*
X316437Y225276D01*
X316486Y225205D01*
X316503Y225172D01*
X316512Y225166D01*
X316519Y225156D01*
X320041Y221634D01*
X320041Y143105D01*
X320052Y143055D01*
X320054Y143004D01*
X320072Y142972D01*
X320080Y142936D01*
X320113Y142897D01*
X320137Y142852D01*
X320167Y142831D01*
X320190Y142803D01*
X320237Y142782D01*
X320279Y142752D01*
X320321Y142744D01*
X320349Y142732D01*
X320379Y142733D01*
X320421Y142725D01*
X327022Y142725D01*
X327915Y141832D01*
X327915Y120650D01*
X327926Y120600D01*
X327928Y120549D01*
X327946Y120517D01*
X327954Y120481D01*
X327987Y120442D01*
X328011Y120397D01*
X328041Y120376D01*
X328064Y120348D01*
X328111Y120327D01*
X328153Y120297D01*
X328195Y120289D01*
X328223Y120277D01*
X328253Y120278D01*
X328295Y120270D01*
X332105Y120270D01*
X332155Y120281D01*
X332206Y120283D01*
X332238Y120301D01*
X332274Y120309D01*
X332313Y120342D01*
X332358Y120366D01*
X332379Y120396D01*
X332407Y120419D01*
X332428Y120466D01*
X332458Y120508D01*
X332466Y120550D01*
X332478Y120578D01*
X332477Y120608D01*
X332485Y120650D01*
X332485Y141832D01*
X333378Y142725D01*
X339979Y142725D01*
X340029Y142736D01*
X340080Y142738D01*
X340112Y142756D01*
X340148Y142764D01*
X340187Y142797D01*
X340232Y142821D01*
X340253Y142851D01*
X340281Y142874D01*
X340302Y142921D01*
X340332Y142963D01*
X340340Y143005D01*
X340352Y143033D01*
X340351Y143063D01*
X340359Y143105D01*
X340359Y219372D01*
X340342Y219446D01*
X340329Y219520D01*
X340322Y219531D01*
X340320Y219540D01*
X340296Y219569D01*
X340248Y219641D01*
X330199Y229689D01*
X330199Y240211D01*
X340248Y250259D01*
X340288Y250324D01*
X340332Y250386D01*
X340334Y250398D01*
X340339Y250407D01*
X340343Y250444D01*
X340359Y250528D01*
X340359Y250825D01*
X340348Y250875D01*
X340346Y250926D01*
X340328Y250958D01*
X340320Y250994D01*
X340287Y251033D01*
X340263Y251078D01*
X340233Y251099D01*
X340210Y251127D01*
X340163Y251148D01*
X340121Y251178D01*
X340079Y251186D01*
X340051Y251198D01*
X340021Y251197D01*
X339979Y251205D01*
X339112Y251205D01*
X333755Y256562D01*
X333755Y264138D01*
X339112Y269495D01*
X346688Y269495D01*
X352045Y264138D01*
X352045Y256562D01*
X346688Y251205D01*
X345821Y251205D01*
X345771Y251194D01*
X345720Y251192D01*
X345688Y251174D01*
X345652Y251166D01*
X345613Y251133D01*
X345568Y251109D01*
X345547Y251079D01*
X345519Y251056D01*
X345498Y251009D01*
X345468Y250967D01*
X345460Y250925D01*
X345448Y250897D01*
X345449Y250867D01*
X345441Y250825D01*
X345441Y248266D01*
X341919Y244744D01*
X341905Y244722D01*
X341885Y244706D01*
X341860Y244649D01*
X341827Y244597D01*
X341825Y244571D01*
X341814Y244547D01*
X341816Y244486D01*
X341811Y244424D01*
X341820Y244400D01*
X341821Y244374D01*
X341850Y244320D01*
X341872Y244262D01*
X341891Y244245D01*
X341903Y244222D01*
X341954Y244187D01*
X341999Y244145D01*
X342024Y244137D01*
X342045Y244122D01*
X342130Y244106D01*
X342165Y244095D01*
X342175Y244097D01*
X342187Y244095D01*
X346688Y244095D01*
X352045Y238738D01*
X352045Y231162D01*
X346688Y225805D01*
X342187Y225805D01*
X342162Y225799D01*
X342137Y225802D01*
X342079Y225780D01*
X342019Y225766D01*
X341999Y225749D01*
X341975Y225740D01*
X341933Y225695D01*
X341885Y225656D01*
X341874Y225632D01*
X341857Y225613D01*
X341839Y225554D01*
X341814Y225497D01*
X341815Y225472D01*
X341808Y225447D01*
X341818Y225386D01*
X341821Y225324D01*
X341833Y225302D01*
X341837Y225276D01*
X341886Y225205D01*
X341903Y225172D01*
X341912Y225166D01*
X341919Y225156D01*
X345441Y221634D01*
X345441Y143105D01*
X345452Y143055D01*
X345454Y143004D01*
X345472Y142972D01*
X345480Y142936D01*
X345513Y142897D01*
X345537Y142852D01*
X345567Y142831D01*
X345590Y142803D01*
X345637Y142782D01*
X345679Y142752D01*
X345721Y142744D01*
X345749Y142732D01*
X345779Y142733D01*
X345821Y142725D01*
X352422Y142725D01*
X353315Y141832D01*
X353315Y120650D01*
X353326Y120600D01*
X353328Y120549D01*
X353346Y120517D01*
X353354Y120481D01*
X353387Y120442D01*
X353411Y120397D01*
X353441Y120376D01*
X353464Y120348D01*
X353511Y120327D01*
X353553Y120297D01*
X353595Y120289D01*
X353623Y120277D01*
X353653Y120278D01*
X353695Y120270D01*
X357505Y120270D01*
X357555Y120281D01*
X357606Y120283D01*
X357638Y120301D01*
X357674Y120309D01*
X357713Y120342D01*
X357758Y120366D01*
X357779Y120396D01*
X357807Y120419D01*
X357828Y120466D01*
X357858Y120508D01*
X357866Y120550D01*
X357878Y120578D01*
X357877Y120608D01*
X357885Y120650D01*
X357885Y141832D01*
X358778Y142725D01*
X365379Y142725D01*
X365429Y142736D01*
X365480Y142738D01*
X365512Y142756D01*
X365548Y142764D01*
X365587Y142797D01*
X365632Y142821D01*
X365653Y142851D01*
X365681Y142874D01*
X365702Y142921D01*
X365732Y142963D01*
X365740Y143005D01*
X365752Y143033D01*
X365751Y143063D01*
X365759Y143105D01*
X365759Y219372D01*
X365742Y219446D01*
X365729Y219520D01*
X365722Y219531D01*
X365720Y219540D01*
X365696Y219569D01*
X365648Y219641D01*
X355599Y229689D01*
X355599Y240211D01*
X365648Y250259D01*
X365688Y250324D01*
X365732Y250386D01*
X365734Y250398D01*
X365739Y250407D01*
X365743Y250444D01*
X365759Y250528D01*
X365759Y250825D01*
X365748Y250875D01*
X365746Y250926D01*
X365728Y250958D01*
X365720Y250994D01*
X365687Y251033D01*
X365663Y251078D01*
X365633Y251099D01*
X365610Y251127D01*
X365563Y251148D01*
X365521Y251178D01*
X365479Y251186D01*
X365451Y251198D01*
X365421Y251197D01*
X365379Y251205D01*
X364512Y251205D01*
X359155Y256562D01*
X359155Y264138D01*
X364512Y269495D01*
X372088Y269495D01*
X377445Y264138D01*
X377445Y256562D01*
X372088Y251205D01*
X371221Y251205D01*
X371171Y251194D01*
X371120Y251192D01*
X371088Y251174D01*
X371052Y251166D01*
X371013Y251133D01*
X370968Y251109D01*
X370947Y251079D01*
X370919Y251056D01*
X370898Y251009D01*
X370868Y250967D01*
X370860Y250925D01*
X370848Y250897D01*
X370849Y250867D01*
X370841Y250825D01*
X370841Y248266D01*
X369241Y246666D01*
X367319Y244744D01*
X367305Y244722D01*
X367285Y244706D01*
X367260Y244649D01*
X367227Y244597D01*
X367225Y244571D01*
X367214Y244547D01*
X367216Y244486D01*
X367211Y244424D01*
X367220Y244400D01*
X367221Y244374D01*
X367250Y244320D01*
X367272Y244262D01*
X367291Y244245D01*
X367303Y244222D01*
X367354Y244187D01*
X367399Y244145D01*
X367424Y244137D01*
X367445Y244122D01*
X367530Y244106D01*
X367565Y244095D01*
X367575Y244097D01*
X367587Y244095D01*
X372088Y244095D01*
X377445Y238738D01*
X377445Y231162D01*
X372088Y225805D01*
X367587Y225805D01*
X367562Y225799D01*
X367537Y225802D01*
X367479Y225780D01*
X367419Y225766D01*
X367399Y225749D01*
X367375Y225740D01*
X367333Y225695D01*
X367285Y225656D01*
X367274Y225632D01*
X367257Y225613D01*
X367239Y225554D01*
X367214Y225497D01*
X367215Y225472D01*
X367208Y225447D01*
X367218Y225386D01*
X367221Y225324D01*
X367233Y225302D01*
X367237Y225276D01*
X367286Y225205D01*
X367303Y225172D01*
X367312Y225166D01*
X367319Y225156D01*
X370841Y221634D01*
X370841Y143105D01*
X370852Y143055D01*
X370854Y143004D01*
X370872Y142972D01*
X370880Y142936D01*
X370913Y142897D01*
X370937Y142852D01*
X370967Y142831D01*
X370990Y142803D01*
X371037Y142782D01*
X371079Y142752D01*
X371121Y142744D01*
X371149Y142732D01*
X371179Y142733D01*
X371221Y142725D01*
X377822Y142725D01*
X378715Y141832D01*
X378715Y120650D01*
X378726Y120600D01*
X378728Y120549D01*
X378746Y120517D01*
X378754Y120481D01*
X378787Y120442D01*
X378811Y120397D01*
X378841Y120376D01*
X378864Y120348D01*
X378911Y120327D01*
X378953Y120297D01*
X378995Y120289D01*
X379023Y120277D01*
X379053Y120278D01*
X379095Y120270D01*
X382905Y120270D01*
X382955Y120281D01*
X383006Y120283D01*
X383038Y120301D01*
X383074Y120309D01*
X383113Y120342D01*
X383158Y120366D01*
X383179Y120396D01*
X383207Y120419D01*
X383228Y120466D01*
X383258Y120508D01*
X383266Y120550D01*
X383278Y120578D01*
X383277Y120608D01*
X383285Y120650D01*
X383285Y141832D01*
X384178Y142725D01*
X390779Y142725D01*
X390829Y142736D01*
X390880Y142738D01*
X390912Y142756D01*
X390948Y142764D01*
X390987Y142797D01*
X391032Y142821D01*
X391053Y142851D01*
X391081Y142874D01*
X391102Y142921D01*
X391132Y142963D01*
X391140Y143005D01*
X391152Y143033D01*
X391151Y143063D01*
X391159Y143105D01*
X391159Y219372D01*
X391142Y219446D01*
X391129Y219520D01*
X391122Y219531D01*
X391120Y219540D01*
X391096Y219569D01*
X391048Y219641D01*
X380999Y229689D01*
X380999Y240211D01*
X391048Y250259D01*
X391088Y250324D01*
X391132Y250386D01*
X391134Y250398D01*
X391139Y250407D01*
X391143Y250444D01*
X391159Y250528D01*
X391159Y250825D01*
X391148Y250875D01*
X391146Y250926D01*
X391128Y250958D01*
X391120Y250994D01*
X391087Y251033D01*
X391063Y251078D01*
X391033Y251099D01*
X391010Y251127D01*
X390963Y251148D01*
X390921Y251178D01*
X390879Y251186D01*
X390851Y251198D01*
X390821Y251197D01*
X390779Y251205D01*
X389912Y251205D01*
X384555Y256562D01*
X384555Y264138D01*
X389912Y269495D01*
X397488Y269495D01*
X402845Y264138D01*
X402845Y256562D01*
X397488Y251205D01*
X396621Y251205D01*
X396571Y251194D01*
X396520Y251192D01*
X396488Y251174D01*
X396452Y251166D01*
X396413Y251133D01*
X396368Y251109D01*
X396347Y251079D01*
X396319Y251056D01*
X396298Y251009D01*
X396268Y250967D01*
X396260Y250925D01*
X396248Y250897D01*
X396249Y250867D01*
X396241Y250825D01*
X396241Y248266D01*
X392719Y244744D01*
X392705Y244722D01*
X392685Y244706D01*
X392660Y244649D01*
X392627Y244597D01*
X392625Y244571D01*
X392614Y244547D01*
X392616Y244486D01*
X392611Y244424D01*
X392620Y244400D01*
X392621Y244374D01*
X392650Y244320D01*
X392672Y244262D01*
X392691Y244245D01*
X392703Y244222D01*
X392754Y244187D01*
X392799Y244145D01*
X392824Y244137D01*
X392845Y244122D01*
X392930Y244106D01*
X392965Y244095D01*
X392975Y244097D01*
X392987Y244095D01*
X397488Y244095D01*
X402845Y238738D01*
X402845Y231162D01*
X397488Y225805D01*
X392987Y225805D01*
X392962Y225799D01*
X392937Y225802D01*
X392879Y225780D01*
X392819Y225766D01*
X392799Y225749D01*
X392775Y225740D01*
X392733Y225695D01*
X392685Y225656D01*
X392674Y225632D01*
X392657Y225613D01*
X392639Y225554D01*
X392614Y225497D01*
X392615Y225472D01*
X392608Y225447D01*
X392618Y225386D01*
X392621Y225324D01*
X392633Y225302D01*
X392637Y225276D01*
X392686Y225205D01*
X392703Y225172D01*
X392712Y225166D01*
X392719Y225156D01*
X396241Y221634D01*
X396241Y143105D01*
X396252Y143055D01*
X396254Y143004D01*
X396272Y142972D01*
X396280Y142936D01*
X396313Y142897D01*
X396337Y142852D01*
X396367Y142831D01*
X396390Y142803D01*
X396437Y142782D01*
X396479Y142752D01*
X396521Y142744D01*
X396549Y142732D01*
X396579Y142733D01*
X396621Y142725D01*
X403222Y142725D01*
X404115Y141832D01*
X404115Y120650D01*
X404126Y120600D01*
X404128Y120549D01*
X404146Y120517D01*
X404154Y120481D01*
X404187Y120442D01*
X404211Y120397D01*
X404241Y120376D01*
X404264Y120348D01*
X404311Y120327D01*
X404353Y120297D01*
X404395Y120289D01*
X404423Y120277D01*
X404453Y120278D01*
X404495Y120270D01*
X408305Y120270D01*
X408355Y120281D01*
X408406Y120283D01*
X408438Y120301D01*
X408474Y120309D01*
X408513Y120342D01*
X408558Y120366D01*
X408579Y120396D01*
X408607Y120419D01*
X408628Y120466D01*
X408658Y120508D01*
X408666Y120550D01*
X408678Y120578D01*
X408677Y120608D01*
X408685Y120650D01*
X408685Y141832D01*
X409578Y142725D01*
X416179Y142725D01*
X416229Y142736D01*
X416280Y142738D01*
X416312Y142756D01*
X416348Y142764D01*
X416387Y142797D01*
X416432Y142821D01*
X416453Y142851D01*
X416481Y142874D01*
X416502Y142921D01*
X416532Y142963D01*
X416540Y143005D01*
X416552Y143033D01*
X416551Y143063D01*
X416559Y143105D01*
X416559Y219372D01*
X416542Y219446D01*
X416529Y219520D01*
X416522Y219531D01*
X416520Y219540D01*
X416496Y219569D01*
X416448Y219641D01*
X406399Y229689D01*
X406399Y240211D01*
X416448Y250259D01*
X416488Y250324D01*
X416532Y250386D01*
X416534Y250398D01*
X416539Y250407D01*
X416543Y250444D01*
X416559Y250528D01*
X416559Y250825D01*
X416548Y250875D01*
X416546Y250926D01*
X416528Y250958D01*
X416520Y250994D01*
X416487Y251033D01*
X416463Y251078D01*
X416433Y251099D01*
X416410Y251127D01*
X416363Y251148D01*
X416321Y251178D01*
X416279Y251186D01*
X416251Y251198D01*
X416221Y251197D01*
X416179Y251205D01*
X415312Y251205D01*
X409955Y256562D01*
X409955Y264138D01*
X415312Y269495D01*
X422888Y269495D01*
X428245Y264138D01*
X428245Y256562D01*
X422888Y251205D01*
X422021Y251205D01*
X421971Y251194D01*
X421920Y251192D01*
X421888Y251174D01*
X421852Y251166D01*
X421813Y251133D01*
X421768Y251109D01*
X421747Y251079D01*
X421719Y251056D01*
X421698Y251009D01*
X421668Y250967D01*
X421660Y250925D01*
X421648Y250897D01*
X421649Y250867D01*
X421641Y250825D01*
X421641Y248266D01*
X418119Y244744D01*
X418105Y244722D01*
X418085Y244706D01*
X418060Y244649D01*
X418027Y244597D01*
X418025Y244571D01*
X418014Y244547D01*
X418016Y244486D01*
X418011Y244424D01*
X418020Y244400D01*
X418021Y244374D01*
X418050Y244320D01*
X418072Y244262D01*
X418091Y244245D01*
X418103Y244222D01*
X418154Y244187D01*
X418199Y244145D01*
X418224Y244137D01*
X418245Y244122D01*
X418330Y244106D01*
X418365Y244095D01*
X418375Y244097D01*
X418387Y244095D01*
X422888Y244095D01*
X428245Y238738D01*
X428245Y231162D01*
X422888Y225805D01*
X418387Y225805D01*
X418362Y225799D01*
X418337Y225802D01*
X418279Y225780D01*
X418219Y225766D01*
X418199Y225749D01*
X418175Y225740D01*
X418133Y225695D01*
X418085Y225656D01*
X418074Y225632D01*
X418057Y225613D01*
X418039Y225554D01*
X418014Y225497D01*
X418015Y225472D01*
X418008Y225447D01*
X418018Y225386D01*
X418021Y225324D01*
X418033Y225302D01*
X418037Y225276D01*
X418086Y225205D01*
X418103Y225172D01*
X418112Y225166D01*
X418119Y225156D01*
X421641Y221634D01*
X421641Y143105D01*
X421652Y143055D01*
X421654Y143004D01*
X421672Y142972D01*
X421680Y142936D01*
X421713Y142897D01*
X421737Y142852D01*
X421767Y142831D01*
X421790Y142803D01*
X421837Y142782D01*
X421879Y142752D01*
X421921Y142744D01*
X421949Y142732D01*
X421979Y142733D01*
X422021Y142725D01*
X428622Y142725D01*
X429515Y141832D01*
X429515Y120650D01*
X429526Y120600D01*
X429528Y120549D01*
X429546Y120517D01*
X429554Y120481D01*
X429587Y120442D01*
X429611Y120397D01*
X429641Y120376D01*
X429664Y120348D01*
X429711Y120327D01*
X429753Y120297D01*
X429795Y120289D01*
X429823Y120277D01*
X429853Y120278D01*
X429895Y120270D01*
X433705Y120270D01*
X433755Y120281D01*
X433806Y120283D01*
X433838Y120301D01*
X433874Y120309D01*
X433913Y120342D01*
X433958Y120366D01*
X433979Y120396D01*
X434007Y120419D01*
X434028Y120466D01*
X434058Y120508D01*
X434066Y120550D01*
X434078Y120578D01*
X434077Y120608D01*
X434085Y120650D01*
X434085Y141832D01*
X434978Y142725D01*
X441579Y142725D01*
X441629Y142736D01*
X441680Y142738D01*
X441712Y142756D01*
X441748Y142764D01*
X441787Y142797D01*
X441832Y142821D01*
X441853Y142851D01*
X441881Y142874D01*
X441902Y142921D01*
X441932Y142963D01*
X441940Y143005D01*
X441952Y143033D01*
X441951Y143063D01*
X441959Y143105D01*
X441959Y219372D01*
X441942Y219446D01*
X441929Y219520D01*
X441922Y219531D01*
X441920Y219540D01*
X441896Y219569D01*
X441848Y219641D01*
X433399Y228089D01*
X433399Y228090D01*
X431799Y229689D01*
X431799Y240211D01*
X433399Y241810D01*
X433399Y241811D01*
X441848Y250259D01*
X441888Y250324D01*
X441932Y250386D01*
X441934Y250398D01*
X441939Y250407D01*
X441943Y250444D01*
X441959Y250528D01*
X441959Y250825D01*
X441948Y250875D01*
X441946Y250926D01*
X441928Y250958D01*
X441920Y250994D01*
X441887Y251033D01*
X441863Y251078D01*
X441833Y251099D01*
X441810Y251127D01*
X441763Y251148D01*
X441721Y251178D01*
X441679Y251186D01*
X441651Y251198D01*
X441621Y251197D01*
X441579Y251205D01*
X440712Y251205D01*
X435355Y256562D01*
X435355Y264138D01*
X440712Y269495D01*
X448288Y269495D01*
X453645Y264138D01*
X453645Y256562D01*
X448288Y251205D01*
X447421Y251205D01*
X447371Y251194D01*
X447320Y251192D01*
X447288Y251174D01*
X447252Y251166D01*
X447213Y251133D01*
X447168Y251109D01*
X447147Y251079D01*
X447119Y251056D01*
X447098Y251009D01*
X447068Y250967D01*
X447060Y250925D01*
X447048Y250897D01*
X447049Y250867D01*
X447041Y250825D01*
X447041Y248266D01*
X443519Y244744D01*
X443505Y244722D01*
X443485Y244706D01*
X443460Y244649D01*
X443427Y244597D01*
X443425Y244571D01*
X443414Y244547D01*
X443416Y244486D01*
X443411Y244424D01*
X443420Y244400D01*
X443421Y244374D01*
X443450Y244320D01*
X443472Y244262D01*
X443491Y244245D01*
X443503Y244222D01*
X443554Y244187D01*
X443599Y244145D01*
X443624Y244137D01*
X443645Y244122D01*
X443730Y244106D01*
X443765Y244095D01*
X443775Y244097D01*
X443787Y244095D01*
X448288Y244095D01*
X453645Y238738D01*
X453645Y231162D01*
X448288Y225805D01*
X443787Y225805D01*
X443762Y225799D01*
X443737Y225802D01*
X443679Y225780D01*
X443619Y225766D01*
X443599Y225749D01*
X443575Y225740D01*
X443533Y225695D01*
X443485Y225656D01*
X443474Y225632D01*
X443457Y225613D01*
X443439Y225554D01*
X443414Y225497D01*
X443415Y225472D01*
X443408Y225447D01*
X443418Y225386D01*
X443421Y225324D01*
X443433Y225302D01*
X443437Y225276D01*
X443486Y225205D01*
X443503Y225172D01*
X443512Y225166D01*
X443519Y225156D01*
X445441Y223234D01*
X447041Y221634D01*
X447041Y143105D01*
X447052Y143055D01*
X447054Y143004D01*
X447072Y142972D01*
X447080Y142936D01*
X447113Y142897D01*
X447137Y142852D01*
X447167Y142831D01*
X447190Y142803D01*
X447237Y142782D01*
X447279Y142752D01*
X447321Y142744D01*
X447349Y142732D01*
X447379Y142733D01*
X447421Y142725D01*
X454022Y142725D01*
X454915Y141832D01*
X454915Y120650D01*
X454926Y120600D01*
X454928Y120549D01*
X454946Y120517D01*
X454954Y120481D01*
X454987Y120442D01*
X455011Y120397D01*
X455041Y120376D01*
X455064Y120348D01*
X455111Y120327D01*
X455153Y120297D01*
X455195Y120289D01*
X455223Y120277D01*
X455253Y120278D01*
X455295Y120270D01*
X459105Y120270D01*
X459155Y120281D01*
X459206Y120283D01*
X459238Y120301D01*
X459274Y120309D01*
X459313Y120342D01*
X459358Y120366D01*
X459379Y120396D01*
X459407Y120419D01*
X459428Y120466D01*
X459458Y120508D01*
X459466Y120550D01*
X459478Y120578D01*
X459477Y120608D01*
X459485Y120650D01*
X459485Y141832D01*
X460378Y142725D01*
X466979Y142725D01*
X467029Y142736D01*
X467080Y142738D01*
X467112Y142756D01*
X467148Y142764D01*
X467187Y142797D01*
X467232Y142821D01*
X467253Y142851D01*
X467281Y142874D01*
X467302Y142921D01*
X467332Y142963D01*
X467340Y143005D01*
X467352Y143033D01*
X467351Y143063D01*
X467359Y143105D01*
X467359Y219372D01*
X467342Y219446D01*
X467329Y219520D01*
X467322Y219531D01*
X467320Y219540D01*
X467296Y219569D01*
X467248Y219641D01*
X457199Y229689D01*
X457199Y240211D01*
X467248Y250259D01*
X467288Y250324D01*
X467332Y250386D01*
X467334Y250398D01*
X467339Y250407D01*
X467343Y250444D01*
X467359Y250528D01*
X467359Y250825D01*
X467348Y250875D01*
X467346Y250926D01*
X467328Y250958D01*
X467320Y250994D01*
X467287Y251033D01*
X467263Y251078D01*
X467233Y251099D01*
X467210Y251127D01*
X467163Y251148D01*
X467121Y251178D01*
X467079Y251186D01*
X467051Y251198D01*
X467021Y251197D01*
X466979Y251205D01*
X466112Y251205D01*
X460755Y256562D01*
X460755Y264138D01*
X466112Y269495D01*
X473688Y269495D01*
X479045Y264138D01*
X479045Y256562D01*
X473688Y251205D01*
X472821Y251205D01*
X472771Y251194D01*
X472720Y251192D01*
X472688Y251174D01*
X472652Y251166D01*
X472613Y251133D01*
X472568Y251109D01*
X472547Y251079D01*
X472519Y251056D01*
X472498Y251009D01*
X472468Y250967D01*
X472460Y250925D01*
X472448Y250897D01*
X472449Y250867D01*
X472441Y250825D01*
X472441Y248266D01*
X468919Y244744D01*
X468905Y244722D01*
X468885Y244706D01*
X468860Y244649D01*
X468827Y244597D01*
X468825Y244571D01*
X468814Y244547D01*
X468816Y244486D01*
X468811Y244424D01*
X468820Y244400D01*
X468821Y244374D01*
X468850Y244320D01*
X468872Y244262D01*
X468891Y244245D01*
X468903Y244222D01*
X468954Y244187D01*
X468999Y244145D01*
X469024Y244137D01*
X469045Y244122D01*
X469130Y244106D01*
X469165Y244095D01*
X469175Y244097D01*
X469187Y244095D01*
X473688Y244095D01*
X479045Y238738D01*
X479045Y231162D01*
X473688Y225805D01*
X469187Y225805D01*
X469162Y225799D01*
X469137Y225802D01*
X469079Y225780D01*
X469019Y225766D01*
X468999Y225749D01*
X468975Y225740D01*
X468933Y225695D01*
X468885Y225656D01*
X468874Y225632D01*
X468857Y225613D01*
X468839Y225554D01*
X468814Y225497D01*
X468815Y225472D01*
X468808Y225447D01*
X468818Y225386D01*
X468821Y225324D01*
X468833Y225302D01*
X468837Y225276D01*
X468886Y225205D01*
X468903Y225172D01*
X468912Y225166D01*
X468919Y225156D01*
X472441Y221634D01*
X472441Y143105D01*
X472452Y143055D01*
X472454Y143004D01*
X472472Y142972D01*
X472480Y142936D01*
X472513Y142897D01*
X472537Y142852D01*
X472567Y142831D01*
X472590Y142803D01*
X472637Y142782D01*
X472679Y142752D01*
X472721Y142744D01*
X472749Y142732D01*
X472779Y142733D01*
X472821Y142725D01*
X479422Y142725D01*
X480315Y141832D01*
X480315Y120650D01*
X480326Y120600D01*
X480328Y120549D01*
X480346Y120517D01*
X480354Y120481D01*
X480387Y120442D01*
X480411Y120397D01*
X480441Y120376D01*
X480464Y120348D01*
X480511Y120327D01*
X480553Y120297D01*
X480595Y120289D01*
X480623Y120277D01*
X480653Y120278D01*
X480695Y120270D01*
X484505Y120270D01*
G37*
%LPC*%
G36*
X620102Y280443D02*
X620102Y280443D01*
X616993Y283552D01*
X616993Y287948D01*
X617955Y288910D01*
X617969Y288932D01*
X617989Y288948D01*
X618014Y289005D01*
X618047Y289057D01*
X618049Y289083D01*
X618060Y289107D01*
X618057Y289168D01*
X618063Y289230D01*
X618054Y289254D01*
X618053Y289280D01*
X618024Y289334D01*
X618002Y289392D01*
X617983Y289409D01*
X617970Y289432D01*
X617920Y289467D01*
X617875Y289509D01*
X617850Y289517D01*
X617829Y289532D01*
X617744Y289548D01*
X617708Y289559D01*
X617698Y289557D01*
X617686Y289559D01*
X602022Y289559D01*
X601948Y289542D01*
X601873Y289529D01*
X601863Y289522D01*
X601853Y289520D01*
X601824Y289496D01*
X601753Y289448D01*
X599098Y286793D01*
X594702Y286793D01*
X591593Y289902D01*
X591593Y294298D01*
X592555Y295260D01*
X592569Y295282D01*
X592589Y295298D01*
X592614Y295355D01*
X592647Y295407D01*
X592649Y295433D01*
X592660Y295457D01*
X592657Y295518D01*
X592663Y295580D01*
X592654Y295604D01*
X592653Y295630D01*
X592624Y295684D01*
X592602Y295742D01*
X592583Y295759D01*
X592570Y295782D01*
X592520Y295817D01*
X592475Y295859D01*
X592450Y295867D01*
X592429Y295882D01*
X592344Y295898D01*
X592308Y295909D01*
X592298Y295907D01*
X592286Y295909D01*
X576622Y295909D01*
X576548Y295892D01*
X576473Y295879D01*
X576463Y295872D01*
X576453Y295870D01*
X576424Y295846D01*
X576353Y295798D01*
X573698Y293143D01*
X569302Y293143D01*
X566193Y296252D01*
X566193Y300648D01*
X567155Y301610D01*
X567169Y301632D01*
X567189Y301648D01*
X567214Y301705D01*
X567247Y301757D01*
X567249Y301783D01*
X567260Y301807D01*
X567257Y301868D01*
X567263Y301930D01*
X567254Y301954D01*
X567253Y301980D01*
X567224Y302034D01*
X567202Y302092D01*
X567183Y302109D01*
X567170Y302132D01*
X567120Y302167D01*
X567075Y302209D01*
X567050Y302217D01*
X567029Y302232D01*
X566944Y302248D01*
X566908Y302259D01*
X566898Y302257D01*
X566886Y302259D01*
X551222Y302259D01*
X551148Y302242D01*
X551073Y302229D01*
X551063Y302222D01*
X551053Y302220D01*
X551024Y302196D01*
X550953Y302148D01*
X548298Y299493D01*
X543902Y299493D01*
X540793Y302602D01*
X540793Y306998D01*
X541755Y307960D01*
X541769Y307982D01*
X541789Y307998D01*
X541814Y308055D01*
X541847Y308107D01*
X541849Y308133D01*
X541860Y308157D01*
X541857Y308218D01*
X541863Y308280D01*
X541854Y308304D01*
X541853Y308330D01*
X541824Y308384D01*
X541802Y308442D01*
X541783Y308459D01*
X541770Y308482D01*
X541720Y308517D01*
X541675Y308559D01*
X541650Y308567D01*
X541629Y308582D01*
X541544Y308598D01*
X541508Y308609D01*
X541498Y308607D01*
X541486Y308609D01*
X525822Y308609D01*
X525748Y308592D01*
X525673Y308579D01*
X525663Y308572D01*
X525653Y308570D01*
X525624Y308546D01*
X525553Y308498D01*
X522898Y305843D01*
X518502Y305843D01*
X515393Y308952D01*
X515393Y313348D01*
X516355Y314310D01*
X516369Y314331D01*
X516387Y314347D01*
X516389Y314348D01*
X516414Y314405D01*
X516447Y314457D01*
X516449Y314483D01*
X516460Y314507D01*
X516457Y314568D01*
X516463Y314630D01*
X516454Y314654D01*
X516453Y314680D01*
X516424Y314734D01*
X516402Y314792D01*
X516383Y314809D01*
X516370Y314832D01*
X516320Y314867D01*
X516275Y314909D01*
X516250Y314917D01*
X516229Y314932D01*
X516144Y314948D01*
X516108Y314959D01*
X516098Y314957D01*
X516086Y314959D01*
X500422Y314959D01*
X500348Y314942D01*
X500273Y314929D01*
X500263Y314922D01*
X500253Y314920D01*
X500224Y314896D01*
X500153Y314848D01*
X497498Y312193D01*
X493102Y312193D01*
X489993Y315302D01*
X489993Y319698D01*
X490955Y320660D01*
X490969Y320682D01*
X490989Y320698D01*
X491014Y320755D01*
X491047Y320807D01*
X491049Y320833D01*
X491060Y320857D01*
X491057Y320918D01*
X491063Y320980D01*
X491054Y321004D01*
X491053Y321030D01*
X491024Y321084D01*
X491002Y321142D01*
X490983Y321159D01*
X490970Y321182D01*
X490920Y321217D01*
X490875Y321259D01*
X490850Y321267D01*
X490829Y321282D01*
X490744Y321298D01*
X490708Y321309D01*
X490698Y321307D01*
X490686Y321309D01*
X475022Y321309D01*
X474948Y321292D01*
X474873Y321279D01*
X474863Y321272D01*
X474853Y321270D01*
X474824Y321246D01*
X474753Y321198D01*
X472098Y318543D01*
X467702Y318543D01*
X464593Y321652D01*
X464593Y326048D01*
X465555Y327010D01*
X465569Y327032D01*
X465589Y327048D01*
X465614Y327105D01*
X465647Y327157D01*
X465649Y327183D01*
X465660Y327207D01*
X465657Y327268D01*
X465663Y327330D01*
X465654Y327354D01*
X465653Y327380D01*
X465624Y327434D01*
X465602Y327492D01*
X465583Y327509D01*
X465570Y327532D01*
X465520Y327567D01*
X465475Y327609D01*
X465450Y327617D01*
X465429Y327632D01*
X465344Y327648D01*
X465308Y327659D01*
X465298Y327657D01*
X465286Y327659D01*
X449622Y327659D01*
X449548Y327642D01*
X449473Y327629D01*
X449463Y327622D01*
X449453Y327620D01*
X449424Y327596D01*
X449353Y327548D01*
X446698Y324893D01*
X442302Y324893D01*
X439193Y328002D01*
X439193Y332398D01*
X440155Y333360D01*
X440169Y333382D01*
X440189Y333398D01*
X440214Y333455D01*
X440247Y333507D01*
X440249Y333533D01*
X440260Y333557D01*
X440257Y333618D01*
X440263Y333680D01*
X440254Y333704D01*
X440253Y333730D01*
X440224Y333784D01*
X440202Y333842D01*
X440183Y333859D01*
X440170Y333882D01*
X440120Y333917D01*
X440075Y333959D01*
X440050Y333967D01*
X440029Y333982D01*
X439944Y333998D01*
X439908Y334009D01*
X439898Y334007D01*
X439886Y334009D01*
X373422Y334009D01*
X373348Y333992D01*
X373273Y333979D01*
X373263Y333972D01*
X373253Y333970D01*
X373224Y333946D01*
X373153Y333898D01*
X370498Y331243D01*
X366102Y331243D01*
X362993Y334352D01*
X362993Y338748D01*
X366102Y341857D01*
X370498Y341857D01*
X373153Y339202D01*
X373217Y339162D01*
X373279Y339118D01*
X373291Y339116D01*
X373300Y339111D01*
X373337Y339107D01*
X373422Y339091D01*
X376358Y339091D01*
X376384Y339097D01*
X376409Y339094D01*
X376467Y339116D01*
X376527Y339130D01*
X376547Y339147D01*
X376571Y339156D01*
X376613Y339201D01*
X376661Y339240D01*
X376671Y339264D01*
X376689Y339283D01*
X376706Y339342D01*
X376732Y339399D01*
X376731Y339424D01*
X376738Y339449D01*
X376727Y339510D01*
X376725Y339572D01*
X376713Y339594D01*
X376708Y339620D01*
X376660Y339691D01*
X376642Y339724D01*
X376634Y339730D01*
X376627Y339740D01*
X375693Y340674D01*
X375693Y345070D01*
X378802Y348179D01*
X383198Y348179D01*
X385853Y345524D01*
X385917Y345484D01*
X385979Y345440D01*
X385991Y345438D01*
X386000Y345433D01*
X386037Y345429D01*
X386122Y345413D01*
X427214Y345413D01*
X427240Y345419D01*
X427265Y345416D01*
X427323Y345438D01*
X427383Y345452D01*
X427403Y345469D01*
X427427Y345478D01*
X427469Y345523D01*
X427517Y345562D01*
X427527Y345586D01*
X427545Y345605D01*
X427562Y345664D01*
X427588Y345721D01*
X427587Y345746D01*
X427594Y345771D01*
X427583Y345832D01*
X427581Y345894D01*
X427569Y345916D01*
X427564Y345942D01*
X427516Y346013D01*
X427498Y346046D01*
X427490Y346052D01*
X427483Y346062D01*
X426493Y347052D01*
X426493Y351448D01*
X429602Y354557D01*
X433998Y354557D01*
X436653Y351902D01*
X436717Y351862D01*
X436779Y351818D01*
X436791Y351816D01*
X436800Y351811D01*
X436837Y351807D01*
X436922Y351791D01*
X452586Y351791D01*
X452612Y351797D01*
X452637Y351794D01*
X452695Y351816D01*
X452755Y351830D01*
X452775Y351847D01*
X452799Y351856D01*
X452841Y351901D01*
X452889Y351940D01*
X452899Y351964D01*
X452917Y351983D01*
X452934Y352042D01*
X452960Y352099D01*
X452959Y352124D01*
X452966Y352149D01*
X452955Y352210D01*
X452953Y352272D01*
X452941Y352294D01*
X452936Y352320D01*
X452888Y352391D01*
X452870Y352424D01*
X452862Y352430D01*
X452855Y352440D01*
X451893Y353402D01*
X451893Y357798D01*
X455002Y360907D01*
X459398Y360907D01*
X462053Y358252D01*
X462117Y358212D01*
X462179Y358168D01*
X462191Y358166D01*
X462200Y358161D01*
X462237Y358157D01*
X462322Y358141D01*
X553678Y358141D01*
X553752Y358158D01*
X553827Y358171D01*
X553837Y358178D01*
X553847Y358180D01*
X553876Y358204D01*
X553947Y358252D01*
X556602Y360907D01*
X560998Y360907D01*
X564107Y357798D01*
X564107Y353402D01*
X563145Y352440D01*
X563131Y352418D01*
X563111Y352402D01*
X563086Y352345D01*
X563053Y352293D01*
X563051Y352267D01*
X563040Y352243D01*
X563043Y352182D01*
X563037Y352120D01*
X563046Y352096D01*
X563047Y352070D01*
X563076Y352016D01*
X563098Y351958D01*
X563117Y351941D01*
X563130Y351918D01*
X563180Y351883D01*
X563225Y351841D01*
X563250Y351833D01*
X563271Y351818D01*
X563356Y351802D01*
X563392Y351791D01*
X563402Y351793D01*
X563414Y351791D01*
X629878Y351791D01*
X629952Y351808D01*
X630027Y351821D01*
X630037Y351828D01*
X630047Y351830D01*
X630076Y351854D01*
X630147Y351902D01*
X632802Y354557D01*
X637198Y354557D01*
X640307Y351448D01*
X640307Y347052D01*
X639345Y346090D01*
X639331Y346068D01*
X639311Y346052D01*
X639286Y345995D01*
X639253Y345943D01*
X639251Y345917D01*
X639240Y345893D01*
X639243Y345832D01*
X639237Y345770D01*
X639246Y345746D01*
X639247Y345720D01*
X639276Y345666D01*
X639298Y345608D01*
X639317Y345591D01*
X639330Y345568D01*
X639380Y345533D01*
X639425Y345491D01*
X639450Y345483D01*
X639471Y345468D01*
X639556Y345452D01*
X639592Y345441D01*
X639602Y345443D01*
X639614Y345441D01*
X655278Y345441D01*
X655352Y345458D01*
X655427Y345471D01*
X655437Y345478D01*
X655447Y345480D01*
X655476Y345504D01*
X655547Y345552D01*
X658202Y348207D01*
X662598Y348207D01*
X665707Y345098D01*
X665707Y340702D01*
X664745Y339740D01*
X664731Y339718D01*
X664711Y339702D01*
X664686Y339645D01*
X664653Y339593D01*
X664651Y339567D01*
X664640Y339543D01*
X664643Y339482D01*
X664637Y339420D01*
X664646Y339396D01*
X664647Y339370D01*
X664676Y339316D01*
X664698Y339258D01*
X664717Y339241D01*
X664730Y339218D01*
X664780Y339183D01*
X664825Y339141D01*
X664850Y339133D01*
X664871Y339118D01*
X664956Y339102D01*
X664992Y339091D01*
X665002Y339093D01*
X665014Y339091D01*
X680678Y339091D01*
X680752Y339108D01*
X680827Y339121D01*
X680837Y339128D01*
X680847Y339130D01*
X680876Y339154D01*
X680947Y339202D01*
X683602Y341857D01*
X687998Y341857D01*
X691107Y338748D01*
X691107Y334352D01*
X690145Y333390D01*
X690131Y333368D01*
X690111Y333352D01*
X690086Y333295D01*
X690053Y333243D01*
X690051Y333217D01*
X690040Y333193D01*
X690043Y333132D01*
X690037Y333070D01*
X690046Y333046D01*
X690047Y333020D01*
X690076Y332966D01*
X690098Y332908D01*
X690117Y332891D01*
X690130Y332868D01*
X690180Y332833D01*
X690225Y332791D01*
X690250Y332783D01*
X690271Y332768D01*
X690356Y332752D01*
X690392Y332741D01*
X690402Y332743D01*
X690414Y332741D01*
X718778Y332741D01*
X718852Y332758D01*
X718927Y332771D01*
X718937Y332778D01*
X718947Y332780D01*
X718976Y332804D01*
X719047Y332852D01*
X721702Y335507D01*
X726098Y335507D01*
X729207Y332398D01*
X729207Y328002D01*
X728245Y327040D01*
X728231Y327018D01*
X728211Y327002D01*
X728186Y326945D01*
X728153Y326893D01*
X728151Y326867D01*
X728140Y326843D01*
X728143Y326782D01*
X728137Y326720D01*
X728146Y326696D01*
X728147Y326670D01*
X728176Y326616D01*
X728198Y326558D01*
X728217Y326541D01*
X728230Y326518D01*
X728280Y326483D01*
X728325Y326441D01*
X728350Y326433D01*
X728371Y326418D01*
X728456Y326402D01*
X728492Y326391D01*
X728502Y326393D01*
X728514Y326391D01*
X744178Y326391D01*
X744252Y326408D01*
X744327Y326421D01*
X744337Y326428D01*
X744347Y326430D01*
X744376Y326454D01*
X744447Y326502D01*
X747102Y329157D01*
X751498Y329157D01*
X754607Y326048D01*
X754607Y321652D01*
X753645Y320690D01*
X753631Y320668D01*
X753611Y320652D01*
X753586Y320595D01*
X753553Y320543D01*
X753551Y320517D01*
X753540Y320493D01*
X753543Y320432D01*
X753537Y320370D01*
X753546Y320346D01*
X753547Y320320D01*
X753576Y320266D01*
X753598Y320208D01*
X753617Y320191D01*
X753630Y320168D01*
X753680Y320133D01*
X753725Y320091D01*
X753750Y320083D01*
X753771Y320068D01*
X753856Y320052D01*
X753892Y320041D01*
X753902Y320043D01*
X753914Y320041D01*
X769578Y320041D01*
X769652Y320058D01*
X769727Y320071D01*
X769737Y320078D01*
X769747Y320080D01*
X769776Y320104D01*
X769847Y320152D01*
X772502Y322807D01*
X776898Y322807D01*
X780007Y319698D01*
X780007Y315302D01*
X779045Y314340D01*
X779031Y314318D01*
X779011Y314302D01*
X778986Y314245D01*
X778953Y314193D01*
X778951Y314167D01*
X778940Y314143D01*
X778943Y314082D01*
X778937Y314020D01*
X778946Y313996D01*
X778947Y313970D01*
X778976Y313916D01*
X778998Y313858D01*
X779017Y313841D01*
X779030Y313818D01*
X779080Y313783D01*
X779125Y313741D01*
X779150Y313733D01*
X779171Y313718D01*
X779256Y313702D01*
X779292Y313691D01*
X779302Y313693D01*
X779314Y313691D01*
X794978Y313691D01*
X795052Y313708D01*
X795127Y313721D01*
X795137Y313728D01*
X795147Y313730D01*
X795176Y313754D01*
X795247Y313802D01*
X797902Y316457D01*
X802298Y316457D01*
X805407Y313348D01*
X805407Y308952D01*
X804445Y307990D01*
X804434Y307972D01*
X804423Y307964D01*
X804422Y307960D01*
X804411Y307952D01*
X804386Y307895D01*
X804353Y307843D01*
X804351Y307817D01*
X804340Y307793D01*
X804343Y307732D01*
X804337Y307670D01*
X804346Y307646D01*
X804347Y307620D01*
X804376Y307566D01*
X804398Y307508D01*
X804417Y307491D01*
X804430Y307468D01*
X804480Y307433D01*
X804525Y307391D01*
X804550Y307383D01*
X804571Y307368D01*
X804656Y307352D01*
X804692Y307341D01*
X804702Y307343D01*
X804714Y307341D01*
X820378Y307341D01*
X820452Y307358D01*
X820527Y307371D01*
X820537Y307378D01*
X820547Y307380D01*
X820576Y307404D01*
X820647Y307452D01*
X823302Y310107D01*
X827698Y310107D01*
X830807Y306998D01*
X830807Y302602D01*
X827698Y299493D01*
X823302Y299493D01*
X820647Y302148D01*
X820583Y302188D01*
X820521Y302232D01*
X820509Y302234D01*
X820500Y302239D01*
X820463Y302243D01*
X820378Y302259D01*
X792014Y302259D01*
X791988Y302253D01*
X791963Y302256D01*
X791905Y302234D01*
X791845Y302220D01*
X791825Y302203D01*
X791801Y302194D01*
X791759Y302149D01*
X791711Y302110D01*
X791701Y302086D01*
X791683Y302067D01*
X791666Y302008D01*
X791640Y301951D01*
X791641Y301926D01*
X791634Y301901D01*
X791645Y301840D01*
X791647Y301778D01*
X791659Y301756D01*
X791664Y301730D01*
X791712Y301659D01*
X791730Y301626D01*
X791738Y301620D01*
X791745Y301610D01*
X792707Y300648D01*
X792707Y296252D01*
X789598Y293143D01*
X785202Y293143D01*
X782547Y295798D01*
X782483Y295838D01*
X782421Y295882D01*
X782409Y295884D01*
X782400Y295889D01*
X782363Y295893D01*
X782278Y295909D01*
X766614Y295909D01*
X766588Y295903D01*
X766563Y295906D01*
X766505Y295884D01*
X766445Y295870D01*
X766425Y295853D01*
X766401Y295844D01*
X766359Y295799D01*
X766311Y295760D01*
X766301Y295736D01*
X766283Y295717D01*
X766266Y295658D01*
X766240Y295601D01*
X766241Y295576D01*
X766234Y295551D01*
X766245Y295490D01*
X766247Y295428D01*
X766259Y295406D01*
X766264Y295380D01*
X766312Y295309D01*
X766330Y295276D01*
X766338Y295270D01*
X766345Y295260D01*
X767307Y294298D01*
X767307Y289902D01*
X764198Y286793D01*
X759802Y286793D01*
X757147Y289448D01*
X757083Y289488D01*
X757021Y289532D01*
X757009Y289534D01*
X757000Y289539D01*
X756963Y289543D01*
X756878Y289559D01*
X741214Y289559D01*
X741188Y289553D01*
X741163Y289556D01*
X741105Y289534D01*
X741045Y289520D01*
X741025Y289503D01*
X741001Y289494D01*
X740959Y289449D01*
X740911Y289410D01*
X740901Y289386D01*
X740883Y289367D01*
X740866Y289308D01*
X740840Y289251D01*
X740841Y289226D01*
X740834Y289201D01*
X740845Y289140D01*
X740847Y289078D01*
X740859Y289056D01*
X740864Y289030D01*
X740912Y288959D01*
X740930Y288926D01*
X740938Y288920D01*
X740945Y288910D01*
X741907Y287948D01*
X741907Y283552D01*
X738798Y280443D01*
X734402Y280443D01*
X731747Y283098D01*
X731683Y283138D01*
X731621Y283182D01*
X731609Y283184D01*
X731600Y283189D01*
X731563Y283193D01*
X731478Y283209D01*
X627422Y283209D01*
X627348Y283192D01*
X627273Y283179D01*
X627263Y283172D01*
X627253Y283170D01*
X627224Y283146D01*
X627153Y283098D01*
X624498Y280443D01*
X620102Y280443D01*
G37*
%LPD*%
%LPC*%
G36*
X302602Y445543D02*
X302602Y445543D01*
X299493Y448652D01*
X299493Y453048D01*
X300455Y454010D01*
X300469Y454032D01*
X300489Y454048D01*
X300514Y454105D01*
X300547Y454157D01*
X300549Y454183D01*
X300560Y454207D01*
X300557Y454268D01*
X300563Y454330D01*
X300554Y454354D01*
X300553Y454380D01*
X300524Y454434D01*
X300502Y454492D01*
X300483Y454509D01*
X300470Y454532D01*
X300420Y454567D01*
X300375Y454609D01*
X300350Y454617D01*
X300329Y454632D01*
X300244Y454648D01*
X300208Y454659D01*
X300198Y454657D01*
X300186Y454659D01*
X284522Y454659D01*
X284448Y454642D01*
X284373Y454629D01*
X284363Y454622D01*
X284353Y454620D01*
X284324Y454596D01*
X284253Y454548D01*
X281598Y451893D01*
X277202Y451893D01*
X274093Y455002D01*
X274093Y459398D01*
X275055Y460360D01*
X275069Y460382D01*
X275089Y460398D01*
X275114Y460455D01*
X275147Y460507D01*
X275149Y460533D01*
X275160Y460557D01*
X275157Y460618D01*
X275163Y460680D01*
X275154Y460704D01*
X275153Y460730D01*
X275124Y460784D01*
X275102Y460842D01*
X275083Y460859D01*
X275070Y460882D01*
X275020Y460917D01*
X274975Y460959D01*
X274950Y460967D01*
X274929Y460982D01*
X274844Y460998D01*
X274808Y461009D01*
X274798Y461007D01*
X274786Y461009D01*
X233722Y461009D01*
X233648Y460992D01*
X233573Y460979D01*
X233563Y460972D01*
X233553Y460970D01*
X233524Y460946D01*
X233453Y460898D01*
X230798Y458243D01*
X226402Y458243D01*
X223293Y461352D01*
X223293Y465748D01*
X226402Y468857D01*
X230798Y468857D01*
X233453Y466202D01*
X233517Y466162D01*
X233579Y466118D01*
X233591Y466116D01*
X233600Y466111D01*
X233637Y466107D01*
X233722Y466091D01*
X325586Y466091D01*
X325612Y466097D01*
X325637Y466094D01*
X325695Y466116D01*
X325755Y466130D01*
X325775Y466147D01*
X325799Y466156D01*
X325841Y466201D01*
X325889Y466240D01*
X325899Y466264D01*
X325917Y466283D01*
X325934Y466342D01*
X325960Y466399D01*
X325959Y466424D01*
X325966Y466449D01*
X325955Y466510D01*
X325953Y466572D01*
X325941Y466594D01*
X325936Y466620D01*
X325888Y466691D01*
X325870Y466724D01*
X325862Y466730D01*
X325855Y466740D01*
X324893Y467702D01*
X324893Y472098D01*
X328002Y475207D01*
X332398Y475207D01*
X335053Y472552D01*
X335117Y472512D01*
X335179Y472468D01*
X335191Y472466D01*
X335200Y472461D01*
X335237Y472457D01*
X335322Y472441D01*
X350986Y472441D01*
X351012Y472447D01*
X351037Y472444D01*
X351095Y472466D01*
X351155Y472480D01*
X351175Y472497D01*
X351199Y472506D01*
X351241Y472551D01*
X351289Y472590D01*
X351299Y472614D01*
X351317Y472633D01*
X351334Y472692D01*
X351360Y472749D01*
X351359Y472774D01*
X351366Y472799D01*
X351355Y472860D01*
X351353Y472922D01*
X351341Y472944D01*
X351336Y472970D01*
X351288Y473041D01*
X351270Y473074D01*
X351262Y473080D01*
X351255Y473090D01*
X350293Y474052D01*
X350293Y478448D01*
X353402Y481557D01*
X357798Y481557D01*
X360453Y478902D01*
X360517Y478862D01*
X360579Y478818D01*
X360591Y478816D01*
X360600Y478811D01*
X360637Y478807D01*
X360722Y478791D01*
X401786Y478791D01*
X401812Y478797D01*
X401837Y478794D01*
X401895Y478816D01*
X401955Y478830D01*
X401975Y478847D01*
X401999Y478856D01*
X402041Y478901D01*
X402089Y478940D01*
X402099Y478964D01*
X402117Y478983D01*
X402134Y479042D01*
X402160Y479099D01*
X402159Y479124D01*
X402166Y479149D01*
X402155Y479210D01*
X402153Y479272D01*
X402141Y479294D01*
X402136Y479320D01*
X402088Y479391D01*
X402070Y479424D01*
X402062Y479430D01*
X402055Y479440D01*
X401093Y480402D01*
X401093Y484798D01*
X404202Y487907D01*
X408598Y487907D01*
X411253Y485252D01*
X411317Y485212D01*
X411379Y485168D01*
X411391Y485166D01*
X411400Y485161D01*
X411437Y485157D01*
X411522Y485141D01*
X553678Y485141D01*
X553752Y485158D01*
X553827Y485171D01*
X553837Y485178D01*
X553847Y485180D01*
X553876Y485204D01*
X553947Y485252D01*
X556602Y487907D01*
X560998Y487907D01*
X564107Y484798D01*
X564107Y480402D01*
X563145Y479440D01*
X563131Y479418D01*
X563111Y479402D01*
X563086Y479345D01*
X563053Y479293D01*
X563051Y479267D01*
X563040Y479243D01*
X563043Y479182D01*
X563037Y479120D01*
X563046Y479096D01*
X563047Y479070D01*
X563076Y479016D01*
X563098Y478958D01*
X563117Y478941D01*
X563130Y478918D01*
X563180Y478883D01*
X563225Y478841D01*
X563250Y478833D01*
X563271Y478818D01*
X563356Y478802D01*
X563392Y478791D01*
X563402Y478793D01*
X563414Y478791D01*
X579078Y478791D01*
X579152Y478808D01*
X579227Y478821D01*
X579237Y478828D01*
X579247Y478830D01*
X579276Y478854D01*
X579347Y478902D01*
X582002Y481557D01*
X586398Y481557D01*
X589507Y478448D01*
X589507Y474052D01*
X588545Y473090D01*
X588531Y473068D01*
X588511Y473052D01*
X588486Y472995D01*
X588453Y472943D01*
X588451Y472917D01*
X588440Y472893D01*
X588443Y472832D01*
X588437Y472770D01*
X588446Y472746D01*
X588447Y472720D01*
X588476Y472666D01*
X588498Y472608D01*
X588517Y472591D01*
X588530Y472568D01*
X588580Y472533D01*
X588625Y472491D01*
X588650Y472483D01*
X588671Y472468D01*
X588756Y472452D01*
X588792Y472441D01*
X588802Y472443D01*
X588814Y472441D01*
X655278Y472441D01*
X655352Y472458D01*
X655427Y472471D01*
X655437Y472478D01*
X655447Y472480D01*
X655476Y472504D01*
X655547Y472552D01*
X658202Y475207D01*
X662598Y475207D01*
X665707Y472098D01*
X665707Y467702D01*
X664745Y466740D01*
X664731Y466718D01*
X664711Y466702D01*
X664686Y466645D01*
X664653Y466593D01*
X664651Y466567D01*
X664640Y466543D01*
X664643Y466482D01*
X664637Y466420D01*
X664646Y466396D01*
X664647Y466370D01*
X664676Y466316D01*
X664698Y466258D01*
X664717Y466241D01*
X664730Y466218D01*
X664780Y466183D01*
X664825Y466141D01*
X664850Y466133D01*
X664871Y466118D01*
X664956Y466102D01*
X664992Y466091D01*
X665002Y466093D01*
X665014Y466091D01*
X680678Y466091D01*
X680752Y466108D01*
X680827Y466121D01*
X680837Y466128D01*
X680847Y466130D01*
X680876Y466154D01*
X680947Y466202D01*
X683602Y468857D01*
X687998Y468857D01*
X691107Y465748D01*
X691107Y461352D01*
X687998Y458243D01*
X683602Y458243D01*
X680947Y460898D01*
X680883Y460938D01*
X680821Y460982D01*
X680809Y460984D01*
X680800Y460989D01*
X680763Y460993D01*
X680678Y461009D01*
X639614Y461009D01*
X639588Y461003D01*
X639563Y461006D01*
X639505Y460984D01*
X639445Y460970D01*
X639425Y460953D01*
X639401Y460944D01*
X639359Y460899D01*
X639311Y460860D01*
X639301Y460836D01*
X639283Y460817D01*
X639266Y460758D01*
X639240Y460701D01*
X639241Y460676D01*
X639234Y460651D01*
X639245Y460590D01*
X639247Y460528D01*
X639259Y460506D01*
X639264Y460480D01*
X639312Y460409D01*
X639330Y460376D01*
X639338Y460370D01*
X639345Y460360D01*
X640307Y459398D01*
X640307Y455002D01*
X637198Y451893D01*
X632802Y451893D01*
X630147Y454548D01*
X630083Y454588D01*
X630021Y454632D01*
X630009Y454634D01*
X630000Y454639D01*
X629963Y454643D01*
X629878Y454659D01*
X614214Y454659D01*
X614188Y454653D01*
X614163Y454656D01*
X614105Y454634D01*
X614045Y454620D01*
X614025Y454603D01*
X614001Y454594D01*
X613959Y454549D01*
X613911Y454510D01*
X613901Y454486D01*
X613883Y454467D01*
X613866Y454408D01*
X613840Y454351D01*
X613841Y454326D01*
X613834Y454301D01*
X613845Y454240D01*
X613847Y454178D01*
X613859Y454156D01*
X613864Y454130D01*
X613912Y454059D01*
X613930Y454026D01*
X613938Y454020D01*
X613945Y454010D01*
X614907Y453048D01*
X614907Y448652D01*
X611798Y445543D01*
X607402Y445543D01*
X604747Y448198D01*
X604683Y448238D01*
X604621Y448282D01*
X604609Y448284D01*
X604600Y448289D01*
X604563Y448293D01*
X604478Y448309D01*
X309922Y448309D01*
X309848Y448292D01*
X309773Y448279D01*
X309763Y448272D01*
X309753Y448270D01*
X309724Y448246D01*
X309653Y448198D01*
X306998Y445543D01*
X302602Y445543D01*
G37*
%LPD*%
%LPC*%
G36*
X213702Y642393D02*
X213702Y642393D01*
X210593Y645502D01*
X210593Y649898D01*
X213702Y653007D01*
X218098Y653007D01*
X220753Y650352D01*
X220817Y650312D01*
X220879Y650268D01*
X220891Y650266D01*
X220900Y650261D01*
X220937Y650257D01*
X221022Y650241D01*
X236686Y650241D01*
X236712Y650247D01*
X236737Y650244D01*
X236795Y650266D01*
X236855Y650280D01*
X236875Y650297D01*
X236899Y650306D01*
X236941Y650351D01*
X236989Y650390D01*
X236999Y650414D01*
X237017Y650433D01*
X237034Y650492D01*
X237060Y650549D01*
X237059Y650574D01*
X237066Y650599D01*
X237055Y650660D01*
X237053Y650722D01*
X237041Y650744D01*
X237036Y650770D01*
X236988Y650841D01*
X236970Y650874D01*
X236962Y650880D01*
X236955Y650890D01*
X235993Y651852D01*
X235993Y656248D01*
X239102Y659357D01*
X243498Y659357D01*
X246153Y656702D01*
X246217Y656662D01*
X246279Y656618D01*
X246291Y656616D01*
X246300Y656611D01*
X246337Y656607D01*
X246422Y656591D01*
X636228Y656591D01*
X636302Y656608D01*
X636377Y656621D01*
X636387Y656628D01*
X636397Y656630D01*
X636426Y656654D01*
X636497Y656702D01*
X639152Y659357D01*
X643548Y659357D01*
X646657Y656248D01*
X646657Y651852D01*
X643548Y648743D01*
X639152Y648743D01*
X636497Y651398D01*
X636433Y651438D01*
X636371Y651482D01*
X636359Y651484D01*
X636350Y651489D01*
X636313Y651493D01*
X636228Y651509D01*
X518964Y651509D01*
X518938Y651503D01*
X518913Y651506D01*
X518855Y651484D01*
X518795Y651470D01*
X518775Y651453D01*
X518751Y651444D01*
X518709Y651399D01*
X518661Y651360D01*
X518651Y651336D01*
X518633Y651317D01*
X518616Y651258D01*
X518590Y651201D01*
X518591Y651176D01*
X518584Y651151D01*
X518595Y651090D01*
X518597Y651028D01*
X518609Y651006D01*
X518614Y650980D01*
X518662Y650909D01*
X518680Y650876D01*
X518688Y650870D01*
X518695Y650860D01*
X519657Y649898D01*
X519657Y645502D01*
X516548Y642393D01*
X512152Y642393D01*
X509497Y645048D01*
X509433Y645088D01*
X509371Y645132D01*
X509359Y645134D01*
X509350Y645139D01*
X509313Y645143D01*
X509228Y645159D01*
X221022Y645159D01*
X220948Y645142D01*
X220873Y645129D01*
X220863Y645122D01*
X220853Y645120D01*
X220824Y645096D01*
X220753Y645048D01*
X218098Y642393D01*
X213702Y642393D01*
G37*
%LPD*%
%LPC*%
G36*
X289902Y502693D02*
X289902Y502693D01*
X286793Y505802D01*
X286793Y510198D01*
X287755Y511160D01*
X287769Y511182D01*
X287789Y511198D01*
X287814Y511255D01*
X287847Y511307D01*
X287849Y511333D01*
X287860Y511357D01*
X287857Y511418D01*
X287863Y511480D01*
X287854Y511504D01*
X287853Y511530D01*
X287824Y511584D01*
X287802Y511642D01*
X287783Y511659D01*
X287770Y511682D01*
X287720Y511717D01*
X287675Y511759D01*
X287650Y511767D01*
X287629Y511782D01*
X287544Y511798D01*
X287508Y511809D01*
X287498Y511807D01*
X287486Y511809D01*
X271822Y511809D01*
X271748Y511792D01*
X271673Y511779D01*
X271663Y511772D01*
X271653Y511770D01*
X271624Y511746D01*
X271553Y511698D01*
X268898Y509043D01*
X264502Y509043D01*
X261393Y512152D01*
X261393Y516548D01*
X264502Y519657D01*
X268898Y519657D01*
X271553Y517002D01*
X271617Y516962D01*
X271679Y516918D01*
X271691Y516916D01*
X271700Y516911D01*
X271737Y516907D01*
X271822Y516891D01*
X528278Y516891D01*
X528352Y516908D01*
X528427Y516921D01*
X528437Y516928D01*
X528447Y516930D01*
X528476Y516954D01*
X528547Y517002D01*
X531202Y519657D01*
X535598Y519657D01*
X538707Y516548D01*
X538707Y512152D01*
X535598Y509043D01*
X531202Y509043D01*
X528547Y511698D01*
X528483Y511738D01*
X528421Y511782D01*
X528409Y511784D01*
X528400Y511789D01*
X528363Y511793D01*
X528278Y511809D01*
X512614Y511809D01*
X512588Y511803D01*
X512563Y511806D01*
X512505Y511784D01*
X512445Y511770D01*
X512425Y511753D01*
X512401Y511744D01*
X512359Y511699D01*
X512311Y511660D01*
X512301Y511636D01*
X512283Y511617D01*
X512266Y511558D01*
X512240Y511501D01*
X512241Y511476D01*
X512234Y511451D01*
X512245Y511390D01*
X512247Y511328D01*
X512259Y511306D01*
X512264Y511280D01*
X512312Y511209D01*
X512330Y511176D01*
X512338Y511170D01*
X512345Y511160D01*
X513307Y510198D01*
X513307Y505802D01*
X510198Y502693D01*
X505802Y502693D01*
X503147Y505348D01*
X503083Y505388D01*
X503021Y505432D01*
X503009Y505434D01*
X503000Y505439D01*
X502963Y505443D01*
X502878Y505459D01*
X297222Y505459D01*
X297148Y505442D01*
X297073Y505429D01*
X297063Y505422D01*
X297053Y505420D01*
X297024Y505396D01*
X296953Y505348D01*
X294298Y502693D01*
X289902Y502693D01*
G37*
%LPD*%
%LPC*%
G36*
X61302Y597717D02*
X61302Y597717D01*
X58193Y600826D01*
X58193Y605272D01*
X58203Y605287D01*
X58205Y605313D01*
X58216Y605337D01*
X58213Y605398D01*
X58219Y605460D01*
X58210Y605484D01*
X58209Y605510D01*
X58180Y605564D01*
X58158Y605622D01*
X58139Y605639D01*
X58126Y605662D01*
X58076Y605697D01*
X58031Y605739D01*
X58006Y605747D01*
X57985Y605762D01*
X57900Y605778D01*
X57865Y605789D01*
X57855Y605787D01*
X57842Y605789D01*
X55545Y605789D01*
X54899Y605962D01*
X54320Y606297D01*
X53847Y606770D01*
X53512Y607349D01*
X53339Y607995D01*
X53339Y615189D01*
X63119Y615189D01*
X63169Y615200D01*
X63220Y615202D01*
X63252Y615220D01*
X63288Y615228D01*
X63327Y615261D01*
X63372Y615285D01*
X63393Y615315D01*
X63421Y615338D01*
X63442Y615385D01*
X63471Y615427D01*
X63480Y615469D01*
X63492Y615497D01*
X63491Y615527D01*
X63499Y615569D01*
X63499Y615951D01*
X63501Y615951D01*
X63501Y615569D01*
X63513Y615519D01*
X63514Y615468D01*
X63532Y615436D01*
X63540Y615400D01*
X63573Y615361D01*
X63597Y615316D01*
X63627Y615295D01*
X63651Y615267D01*
X63697Y615246D01*
X63739Y615216D01*
X63781Y615208D01*
X63809Y615196D01*
X63839Y615197D01*
X63881Y615189D01*
X73661Y615189D01*
X73661Y607995D01*
X73475Y607301D01*
X73474Y607292D01*
X73460Y607259D01*
X73461Y607235D01*
X73453Y607212D01*
X73464Y607149D01*
X73466Y607086D01*
X73478Y607065D01*
X73482Y607041D01*
X73519Y606989D01*
X73549Y606934D01*
X73569Y606920D01*
X73583Y606900D01*
X73639Y606871D01*
X73691Y606834D01*
X73718Y606829D01*
X73737Y606819D01*
X73774Y606818D01*
X73833Y606807D01*
X427694Y606807D01*
X427768Y606824D01*
X427843Y606837D01*
X427853Y606844D01*
X427863Y606846D01*
X427892Y606870D01*
X427963Y606918D01*
X429602Y608557D01*
X433998Y608557D01*
X437107Y605448D01*
X437107Y601052D01*
X433998Y597943D01*
X429602Y597943D01*
X427963Y599582D01*
X427899Y599622D01*
X427837Y599666D01*
X427825Y599668D01*
X427816Y599673D01*
X427779Y599677D01*
X427694Y599693D01*
X67832Y599693D01*
X67758Y599676D01*
X67683Y599663D01*
X67673Y599656D01*
X67663Y599654D01*
X67634Y599630D01*
X67563Y599582D01*
X65698Y597717D01*
X61302Y597717D01*
G37*
%LPD*%
%LPC*%
G36*
X315883Y385317D02*
X315883Y385317D01*
X312895Y386555D01*
X310609Y388841D01*
X309371Y391829D01*
X309371Y408271D01*
X310609Y411259D01*
X312895Y413545D01*
X315883Y414783D01*
X319117Y414783D01*
X319989Y414421D01*
X320002Y414419D01*
X320013Y414412D01*
X320087Y414405D01*
X320160Y414393D01*
X320173Y414397D01*
X320185Y414396D01*
X320255Y414422D01*
X320326Y414444D01*
X320335Y414453D01*
X320347Y414458D01*
X320398Y414512D01*
X320452Y414563D01*
X320456Y414575D01*
X320465Y414585D01*
X320486Y414656D01*
X320512Y414725D01*
X320511Y414738D01*
X320514Y414751D01*
X320502Y414824D01*
X320494Y414898D01*
X320487Y414909D01*
X320485Y414921D01*
X320404Y415042D01*
X318543Y416902D01*
X318543Y421298D01*
X321652Y424407D01*
X326048Y424407D01*
X328703Y421752D01*
X328767Y421712D01*
X328829Y421668D01*
X328841Y421666D01*
X328850Y421661D01*
X328887Y421657D01*
X328972Y421641D01*
X338286Y421641D01*
X338312Y421647D01*
X338337Y421644D01*
X338395Y421666D01*
X338455Y421680D01*
X338475Y421697D01*
X338499Y421706D01*
X338541Y421751D01*
X338589Y421790D01*
X338599Y421814D01*
X338617Y421833D01*
X338634Y421892D01*
X338660Y421949D01*
X338659Y421974D01*
X338666Y421999D01*
X338655Y422060D01*
X338653Y422122D01*
X338641Y422144D01*
X338636Y422170D01*
X338588Y422241D01*
X338570Y422274D01*
X338562Y422280D01*
X338555Y422290D01*
X337593Y423252D01*
X337593Y427648D01*
X340702Y430757D01*
X345098Y430757D01*
X347753Y428102D01*
X347817Y428062D01*
X347879Y428018D01*
X347891Y428016D01*
X347900Y428011D01*
X347937Y428007D01*
X348022Y427991D01*
X452078Y427991D01*
X452152Y428008D01*
X452227Y428021D01*
X452237Y428028D01*
X452247Y428030D01*
X452276Y428054D01*
X452347Y428102D01*
X455002Y430757D01*
X459398Y430757D01*
X462507Y427648D01*
X462507Y423252D01*
X461545Y422290D01*
X461531Y422268D01*
X461511Y422252D01*
X461486Y422195D01*
X461453Y422143D01*
X461451Y422117D01*
X461440Y422093D01*
X461443Y422032D01*
X461437Y421970D01*
X461446Y421946D01*
X461447Y421920D01*
X461476Y421866D01*
X461498Y421808D01*
X461517Y421791D01*
X461530Y421768D01*
X461580Y421733D01*
X461625Y421691D01*
X461650Y421683D01*
X461671Y421668D01*
X461756Y421652D01*
X461792Y421641D01*
X461802Y421643D01*
X461814Y421641D01*
X477478Y421641D01*
X477552Y421658D01*
X477627Y421671D01*
X477637Y421678D01*
X477647Y421680D01*
X477676Y421704D01*
X477747Y421752D01*
X480402Y424407D01*
X484798Y424407D01*
X487907Y421298D01*
X487907Y416902D01*
X485730Y414725D01*
X485710Y414692D01*
X485682Y414666D01*
X485665Y414620D01*
X485639Y414578D01*
X485635Y414540D01*
X485622Y414504D01*
X485627Y414455D01*
X485622Y414405D01*
X485636Y414369D01*
X485640Y414331D01*
X485666Y414290D01*
X485684Y414243D01*
X485712Y414217D01*
X485732Y414185D01*
X485783Y414151D01*
X485811Y414126D01*
X485831Y414120D01*
X485853Y414105D01*
X487205Y413545D01*
X489491Y411259D01*
X490729Y408271D01*
X490729Y391829D01*
X489491Y388841D01*
X487205Y386555D01*
X484217Y385317D01*
X480983Y385317D01*
X477995Y386555D01*
X475709Y388841D01*
X474471Y391829D01*
X474471Y408271D01*
X475709Y411259D01*
X477995Y413545D01*
X479347Y414105D01*
X479378Y414127D01*
X479414Y414141D01*
X479447Y414177D01*
X479487Y414206D01*
X479506Y414240D01*
X479532Y414268D01*
X479546Y414315D01*
X479569Y414359D01*
X479570Y414397D01*
X479581Y414434D01*
X479572Y414483D01*
X479574Y414532D01*
X479558Y414567D01*
X479551Y414605D01*
X479517Y414655D01*
X479501Y414690D01*
X479485Y414703D01*
X479470Y414725D01*
X477747Y416448D01*
X477683Y416488D01*
X477621Y416532D01*
X477609Y416534D01*
X477600Y416539D01*
X477563Y416543D01*
X477478Y416559D01*
X328972Y416559D01*
X328898Y416542D01*
X328823Y416529D01*
X328813Y416522D01*
X328803Y416520D01*
X328774Y416496D01*
X328703Y416448D01*
X326048Y413793D01*
X322774Y413793D01*
X322749Y413787D01*
X322724Y413790D01*
X322666Y413768D01*
X322606Y413754D01*
X322586Y413737D01*
X322562Y413728D01*
X322520Y413683D01*
X322472Y413644D01*
X322462Y413620D01*
X322444Y413601D01*
X322426Y413542D01*
X322401Y413485D01*
X322402Y413460D01*
X322395Y413435D01*
X322405Y413374D01*
X322408Y413312D01*
X322420Y413290D01*
X322425Y413264D01*
X322473Y413193D01*
X322491Y413160D01*
X322499Y413154D01*
X322506Y413144D01*
X324391Y411259D01*
X325629Y408271D01*
X325629Y391829D01*
X324391Y388841D01*
X322105Y386555D01*
X319117Y385317D01*
X315883Y385317D01*
G37*
%LPD*%
%LPC*%
G36*
X575652Y356643D02*
X575652Y356643D01*
X572543Y359752D01*
X572543Y364148D01*
X573505Y365110D01*
X573519Y365132D01*
X573539Y365148D01*
X573564Y365205D01*
X573597Y365257D01*
X573599Y365283D01*
X573610Y365307D01*
X573607Y365368D01*
X573613Y365430D01*
X573604Y365454D01*
X573603Y365480D01*
X573574Y365534D01*
X573552Y365592D01*
X573533Y365609D01*
X573520Y365632D01*
X573470Y365667D01*
X573425Y365709D01*
X573400Y365717D01*
X573379Y365732D01*
X573294Y365748D01*
X573258Y365759D01*
X573248Y365757D01*
X573236Y365759D01*
X506772Y365759D01*
X506698Y365742D01*
X506623Y365729D01*
X506613Y365722D01*
X506603Y365720D01*
X506574Y365696D01*
X506503Y365648D01*
X503848Y362993D01*
X499452Y362993D01*
X496343Y366102D01*
X496343Y370498D01*
X497305Y371460D01*
X497319Y371482D01*
X497339Y371498D01*
X497364Y371555D01*
X497397Y371607D01*
X497399Y371633D01*
X497410Y371657D01*
X497407Y371718D01*
X497413Y371780D01*
X497404Y371804D01*
X497403Y371830D01*
X497374Y371884D01*
X497352Y371942D01*
X497333Y371959D01*
X497320Y371982D01*
X497270Y372017D01*
X497225Y372059D01*
X497200Y372067D01*
X497179Y372082D01*
X497094Y372098D01*
X497058Y372109D01*
X497048Y372107D01*
X497036Y372109D01*
X487722Y372109D01*
X487648Y372092D01*
X487573Y372079D01*
X487563Y372072D01*
X487553Y372070D01*
X487524Y372046D01*
X487453Y371998D01*
X484798Y369343D01*
X480402Y369343D01*
X477293Y372452D01*
X477293Y376848D01*
X480402Y379957D01*
X484798Y379957D01*
X487453Y377302D01*
X487517Y377262D01*
X487579Y377218D01*
X487591Y377216D01*
X487600Y377211D01*
X487637Y377207D01*
X487722Y377191D01*
X579078Y377191D01*
X579152Y377208D01*
X579227Y377221D01*
X579237Y377228D01*
X579247Y377230D01*
X579276Y377254D01*
X579347Y377302D01*
X582002Y379957D01*
X586398Y379957D01*
X589507Y376848D01*
X589507Y372452D01*
X588545Y371490D01*
X588534Y371473D01*
X588525Y371465D01*
X588523Y371461D01*
X588511Y371452D01*
X588486Y371395D01*
X588453Y371343D01*
X588451Y371317D01*
X588440Y371293D01*
X588443Y371232D01*
X588437Y371170D01*
X588446Y371146D01*
X588447Y371120D01*
X588476Y371066D01*
X588498Y371008D01*
X588517Y370991D01*
X588530Y370968D01*
X588580Y370933D01*
X588625Y370891D01*
X588650Y370883D01*
X588671Y370868D01*
X588756Y370852D01*
X588792Y370841D01*
X588802Y370843D01*
X588814Y370841D01*
X604478Y370841D01*
X604552Y370858D01*
X604627Y370871D01*
X604637Y370878D01*
X604647Y370880D01*
X604676Y370904D01*
X604747Y370952D01*
X607402Y373607D01*
X611798Y373607D01*
X614907Y370498D01*
X614907Y366102D01*
X613945Y365140D01*
X613931Y365118D01*
X613911Y365102D01*
X613886Y365045D01*
X613853Y364993D01*
X613851Y364967D01*
X613840Y364943D01*
X613843Y364882D01*
X613837Y364820D01*
X613846Y364796D01*
X613847Y364770D01*
X613876Y364716D01*
X613898Y364658D01*
X613917Y364641D01*
X613930Y364618D01*
X613980Y364583D01*
X614025Y364541D01*
X614050Y364533D01*
X614071Y364518D01*
X614156Y364502D01*
X614192Y364491D01*
X614202Y364493D01*
X614214Y364491D01*
X706078Y364491D01*
X706152Y364508D01*
X706227Y364521D01*
X706237Y364528D01*
X706247Y364530D01*
X706276Y364554D01*
X706347Y364602D01*
X709002Y367257D01*
X713398Y367257D01*
X716507Y364148D01*
X716507Y359752D01*
X713398Y356643D01*
X709002Y356643D01*
X706347Y359298D01*
X706283Y359338D01*
X706221Y359382D01*
X706209Y359384D01*
X706200Y359389D01*
X706163Y359393D01*
X706078Y359409D01*
X582972Y359409D01*
X582898Y359392D01*
X582823Y359379D01*
X582813Y359372D01*
X582803Y359370D01*
X582774Y359346D01*
X582703Y359298D01*
X580048Y356643D01*
X575652Y356643D01*
G37*
%LPD*%
%LPC*%
G36*
X59712Y657605D02*
X59712Y657605D01*
X54355Y662962D01*
X54355Y670538D01*
X59712Y675895D01*
X67288Y675895D01*
X72645Y670538D01*
X72645Y669671D01*
X72656Y669621D01*
X72658Y669570D01*
X72676Y669538D01*
X72684Y669502D01*
X72717Y669463D01*
X72741Y669418D01*
X72771Y669397D01*
X72794Y669369D01*
X72841Y669348D01*
X72883Y669318D01*
X72925Y669310D01*
X72953Y669298D01*
X72983Y669299D01*
X73025Y669291D01*
X185378Y669291D01*
X185452Y669308D01*
X185527Y669321D01*
X185537Y669328D01*
X185547Y669330D01*
X185576Y669354D01*
X185647Y669402D01*
X188302Y672057D01*
X192698Y672057D01*
X195807Y668948D01*
X195807Y664552D01*
X192698Y661443D01*
X188302Y661443D01*
X185647Y664098D01*
X185583Y664138D01*
X185521Y664182D01*
X185509Y664184D01*
X185500Y664189D01*
X185463Y664193D01*
X185378Y664209D01*
X73025Y664209D01*
X72975Y664198D01*
X72924Y664196D01*
X72892Y664178D01*
X72856Y664170D01*
X72817Y664137D01*
X72772Y664113D01*
X72751Y664083D01*
X72723Y664060D01*
X72702Y664013D01*
X72672Y663971D01*
X72664Y663929D01*
X72652Y663901D01*
X72653Y663871D01*
X72645Y663829D01*
X72645Y662962D01*
X67288Y657605D01*
X59712Y657605D01*
G37*
%LPD*%
%LPC*%
G36*
X340702Y585243D02*
X340702Y585243D01*
X337593Y588352D01*
X337593Y592748D01*
X340702Y595857D01*
X345098Y595857D01*
X347753Y593202D01*
X347817Y593162D01*
X347879Y593118D01*
X347891Y593116D01*
X347900Y593111D01*
X347937Y593107D01*
X348022Y593091D01*
X477478Y593091D01*
X477552Y593108D01*
X477627Y593121D01*
X477637Y593128D01*
X477647Y593130D01*
X477676Y593154D01*
X477747Y593202D01*
X480402Y595857D01*
X484798Y595857D01*
X487907Y592748D01*
X487907Y588352D01*
X484798Y585243D01*
X480402Y585243D01*
X477747Y587898D01*
X477683Y587938D01*
X477621Y587982D01*
X477609Y587984D01*
X477600Y587989D01*
X477563Y587993D01*
X477478Y588009D01*
X348022Y588009D01*
X347948Y587992D01*
X347873Y587979D01*
X347863Y587972D01*
X347853Y587970D01*
X347824Y587946D01*
X347753Y587898D01*
X345098Y585243D01*
X340702Y585243D01*
G37*
%LPD*%
%LPC*%
G36*
X455583Y385317D02*
X455583Y385317D01*
X452595Y386555D01*
X450309Y388841D01*
X449071Y391829D01*
X449071Y408271D01*
X450309Y411259D01*
X452595Y413545D01*
X455583Y414783D01*
X458817Y414783D01*
X461805Y413545D01*
X464091Y411259D01*
X465329Y408271D01*
X465329Y391829D01*
X464091Y388841D01*
X461805Y386555D01*
X458817Y385317D01*
X455583Y385317D01*
G37*
%LPD*%
%LPC*%
G36*
X531783Y385317D02*
X531783Y385317D01*
X528795Y386555D01*
X526509Y388841D01*
X525271Y391829D01*
X525271Y408271D01*
X526509Y411259D01*
X528795Y413545D01*
X531783Y414783D01*
X535017Y414783D01*
X538005Y413545D01*
X540291Y411259D01*
X541529Y408271D01*
X541529Y391829D01*
X540291Y388841D01*
X538005Y386555D01*
X535017Y385317D01*
X531783Y385317D01*
G37*
%LPD*%
%LPC*%
G36*
X785783Y385317D02*
X785783Y385317D01*
X782795Y386555D01*
X780509Y388841D01*
X779271Y391829D01*
X779271Y408271D01*
X780509Y411259D01*
X782795Y413545D01*
X785783Y414783D01*
X789017Y414783D01*
X792005Y413545D01*
X794291Y411259D01*
X795529Y408271D01*
X795529Y391829D01*
X794291Y388841D01*
X792005Y386555D01*
X789017Y385317D01*
X785783Y385317D01*
G37*
%LPD*%
%LPC*%
G36*
X760383Y385317D02*
X760383Y385317D01*
X757395Y386555D01*
X755109Y388841D01*
X753871Y391829D01*
X753871Y408271D01*
X755109Y411259D01*
X757395Y413545D01*
X760383Y414783D01*
X763617Y414783D01*
X766605Y413545D01*
X768891Y411259D01*
X770129Y408271D01*
X770129Y391829D01*
X768891Y388841D01*
X766605Y386555D01*
X763617Y385317D01*
X760383Y385317D01*
G37*
%LPD*%
%LPC*%
G36*
X582583Y385317D02*
X582583Y385317D01*
X579595Y386555D01*
X577309Y388841D01*
X576071Y391829D01*
X576071Y408271D01*
X577309Y411259D01*
X579595Y413545D01*
X582583Y414783D01*
X585817Y414783D01*
X588805Y413545D01*
X591091Y411259D01*
X592329Y408271D01*
X592329Y391829D01*
X591091Y388841D01*
X588805Y386555D01*
X585817Y385317D01*
X582583Y385317D01*
G37*
%LPD*%
%LPC*%
G36*
X633383Y385317D02*
X633383Y385317D01*
X630395Y386555D01*
X628109Y388841D01*
X626871Y391829D01*
X626871Y408271D01*
X628109Y411259D01*
X630395Y413545D01*
X633383Y414783D01*
X636617Y414783D01*
X639605Y413545D01*
X641891Y411259D01*
X643129Y408271D01*
X643129Y391829D01*
X641891Y388841D01*
X639605Y386555D01*
X636617Y385317D01*
X633383Y385317D01*
G37*
%LPD*%
%LPC*%
G36*
X658783Y385317D02*
X658783Y385317D01*
X655795Y386555D01*
X653509Y388841D01*
X652271Y391829D01*
X652271Y408271D01*
X653509Y411259D01*
X655795Y413545D01*
X658783Y414783D01*
X662017Y414783D01*
X665005Y413545D01*
X667291Y411259D01*
X668529Y408271D01*
X668529Y391829D01*
X667291Y388841D01*
X665005Y386555D01*
X662017Y385317D01*
X658783Y385317D01*
G37*
%LPD*%
%LPC*%
G36*
X684183Y385317D02*
X684183Y385317D01*
X681195Y386555D01*
X678909Y388841D01*
X677671Y391829D01*
X677671Y408271D01*
X678909Y411259D01*
X681195Y413545D01*
X684183Y414783D01*
X687417Y414783D01*
X690405Y413545D01*
X692691Y411259D01*
X693929Y408271D01*
X693929Y391829D01*
X692691Y388841D01*
X690405Y386555D01*
X687417Y385317D01*
X684183Y385317D01*
G37*
%LPD*%
%LPC*%
G36*
X734983Y385317D02*
X734983Y385317D01*
X731995Y386555D01*
X729709Y388841D01*
X728471Y391829D01*
X728471Y408271D01*
X729709Y411259D01*
X731995Y413545D01*
X734983Y414783D01*
X738217Y414783D01*
X741205Y413545D01*
X743491Y411259D01*
X744729Y408271D01*
X744729Y391829D01*
X743491Y388841D01*
X741205Y386555D01*
X738217Y385317D01*
X734983Y385317D01*
G37*
%LPD*%
%LPC*%
G36*
X607983Y385317D02*
X607983Y385317D01*
X604995Y386555D01*
X602709Y388841D01*
X601471Y391829D01*
X601471Y408271D01*
X602709Y411259D01*
X604995Y413545D01*
X607983Y414783D01*
X611217Y414783D01*
X614205Y413545D01*
X616491Y411259D01*
X617729Y408271D01*
X617729Y391829D01*
X616491Y388841D01*
X614205Y386555D01*
X611217Y385317D01*
X607983Y385317D01*
G37*
%LPD*%
%LPC*%
G36*
X112683Y385317D02*
X112683Y385317D01*
X109695Y386555D01*
X107409Y388841D01*
X106171Y391829D01*
X106171Y408271D01*
X107409Y411259D01*
X109695Y413545D01*
X112683Y414783D01*
X115917Y414783D01*
X118905Y413545D01*
X121191Y411259D01*
X122429Y408271D01*
X122429Y391829D01*
X121191Y388841D01*
X118905Y386555D01*
X115917Y385317D01*
X112683Y385317D01*
G37*
%LPD*%
%LPC*%
G36*
X188883Y537717D02*
X188883Y537717D01*
X185895Y538955D01*
X183609Y541241D01*
X182371Y544229D01*
X182371Y560671D01*
X183609Y563659D01*
X185895Y565945D01*
X188883Y567183D01*
X192117Y567183D01*
X195105Y565945D01*
X197391Y563659D01*
X198629Y560671D01*
X198629Y544229D01*
X197391Y541241D01*
X195105Y538955D01*
X192117Y537717D01*
X188883Y537717D01*
G37*
%LPD*%
%LPC*%
G36*
X239683Y385317D02*
X239683Y385317D01*
X236695Y386555D01*
X234409Y388841D01*
X233171Y391829D01*
X233171Y408271D01*
X234409Y411259D01*
X236695Y413545D01*
X239683Y414783D01*
X242917Y414783D01*
X245905Y413545D01*
X248191Y411259D01*
X249429Y408271D01*
X249429Y391829D01*
X248191Y388841D01*
X245905Y386555D01*
X242917Y385317D01*
X239683Y385317D01*
G37*
%LPD*%
%LPC*%
G36*
X214283Y385317D02*
X214283Y385317D01*
X211295Y386555D01*
X209009Y388841D01*
X207771Y391829D01*
X207771Y408271D01*
X209009Y411259D01*
X211295Y413545D01*
X214283Y414783D01*
X217517Y414783D01*
X220505Y413545D01*
X222791Y411259D01*
X224029Y408271D01*
X224029Y391829D01*
X222791Y388841D01*
X220505Y386555D01*
X217517Y385317D01*
X214283Y385317D01*
G37*
%LPD*%
%LPC*%
G36*
X709583Y385317D02*
X709583Y385317D01*
X706595Y386555D01*
X704309Y388841D01*
X703071Y391829D01*
X703071Y408271D01*
X704309Y411259D01*
X706595Y413545D01*
X709583Y414783D01*
X712817Y414783D01*
X715805Y413545D01*
X718091Y411259D01*
X719329Y408271D01*
X719329Y391829D01*
X718091Y388841D01*
X715805Y386555D01*
X712817Y385317D01*
X709583Y385317D01*
G37*
%LPD*%
%LPC*%
G36*
X506383Y385317D02*
X506383Y385317D01*
X503395Y386555D01*
X501109Y388841D01*
X499871Y391829D01*
X499871Y408271D01*
X501109Y411259D01*
X503395Y413545D01*
X506383Y414783D01*
X509617Y414783D01*
X512605Y413545D01*
X514891Y411259D01*
X516129Y408271D01*
X516129Y391829D01*
X514891Y388841D01*
X512605Y386555D01*
X509617Y385317D01*
X506383Y385317D01*
G37*
%LPD*%
%LPC*%
G36*
X188883Y385317D02*
X188883Y385317D01*
X185895Y386555D01*
X183609Y388841D01*
X182371Y391829D01*
X182371Y408271D01*
X183609Y411259D01*
X185895Y413545D01*
X188883Y414783D01*
X192117Y414783D01*
X195105Y413545D01*
X197391Y411259D01*
X198629Y408271D01*
X198629Y391829D01*
X197391Y388841D01*
X195105Y386555D01*
X192117Y385317D01*
X188883Y385317D01*
G37*
%LPD*%
%LPC*%
G36*
X163483Y385317D02*
X163483Y385317D01*
X160495Y386555D01*
X158209Y388841D01*
X156971Y391829D01*
X156971Y408271D01*
X158209Y411259D01*
X160495Y413545D01*
X163483Y414783D01*
X166717Y414783D01*
X169705Y413545D01*
X171991Y411259D01*
X173229Y408271D01*
X173229Y391829D01*
X171991Y388841D01*
X169705Y386555D01*
X166717Y385317D01*
X163483Y385317D01*
G37*
%LPD*%
%LPC*%
G36*
X557183Y385317D02*
X557183Y385317D01*
X554195Y386555D01*
X551909Y388841D01*
X550671Y391829D01*
X550671Y408271D01*
X551909Y411259D01*
X554195Y413545D01*
X557183Y414783D01*
X560417Y414783D01*
X563405Y413545D01*
X565691Y411259D01*
X566929Y408271D01*
X566929Y391829D01*
X565691Y388841D01*
X563405Y386555D01*
X560417Y385317D01*
X557183Y385317D01*
G37*
%LPD*%
%LPC*%
G36*
X138083Y385317D02*
X138083Y385317D01*
X135095Y386555D01*
X132809Y388841D01*
X131571Y391829D01*
X131571Y408271D01*
X132809Y411259D01*
X135095Y413545D01*
X138083Y414783D01*
X141317Y414783D01*
X144305Y413545D01*
X146591Y411259D01*
X147829Y408271D01*
X147829Y391829D01*
X146591Y388841D01*
X144305Y386555D01*
X141317Y385317D01*
X138083Y385317D01*
G37*
%LPD*%
%LPC*%
G36*
X61883Y385317D02*
X61883Y385317D01*
X58895Y386555D01*
X56609Y388841D01*
X55371Y391829D01*
X55371Y408271D01*
X56609Y411259D01*
X58895Y413545D01*
X61883Y414783D01*
X65117Y414783D01*
X68105Y413545D01*
X70391Y411259D01*
X71629Y408271D01*
X71629Y391829D01*
X70391Y388841D01*
X68105Y386555D01*
X65117Y385317D01*
X61883Y385317D01*
G37*
%LPD*%
%LPC*%
G36*
X684183Y537717D02*
X684183Y537717D01*
X681195Y538955D01*
X678909Y541241D01*
X677671Y544229D01*
X677671Y560671D01*
X678909Y563659D01*
X681195Y565945D01*
X684183Y567183D01*
X687417Y567183D01*
X690405Y565945D01*
X692691Y563659D01*
X693929Y560671D01*
X693929Y544229D01*
X692691Y541241D01*
X690405Y538955D01*
X687417Y537717D01*
X684183Y537717D01*
G37*
%LPD*%
%LPC*%
G36*
X61883Y537717D02*
X61883Y537717D01*
X58895Y538955D01*
X56609Y541241D01*
X55371Y544229D01*
X55371Y560671D01*
X56609Y563659D01*
X58895Y565945D01*
X61883Y567183D01*
X65117Y567183D01*
X68105Y565945D01*
X70391Y563659D01*
X71629Y560671D01*
X71629Y544229D01*
X70391Y541241D01*
X68105Y538955D01*
X65117Y537717D01*
X61883Y537717D01*
G37*
%LPD*%
%LPC*%
G36*
X112683Y537717D02*
X112683Y537717D01*
X109695Y538955D01*
X107409Y541241D01*
X106171Y544229D01*
X106171Y560671D01*
X107409Y563659D01*
X109695Y565945D01*
X112683Y567183D01*
X115917Y567183D01*
X118905Y565945D01*
X121191Y563659D01*
X122429Y560671D01*
X122429Y544229D01*
X121191Y541241D01*
X118905Y538955D01*
X115917Y537717D01*
X112683Y537717D01*
G37*
%LPD*%
%LPC*%
G36*
X87283Y385317D02*
X87283Y385317D01*
X84295Y386555D01*
X82009Y388841D01*
X80771Y391829D01*
X80771Y408271D01*
X82009Y411259D01*
X84295Y413545D01*
X87283Y414783D01*
X90517Y414783D01*
X93505Y413545D01*
X95791Y411259D01*
X97029Y408271D01*
X97029Y391829D01*
X95791Y388841D01*
X93505Y386555D01*
X90517Y385317D01*
X87283Y385317D01*
G37*
%LPD*%
%LPC*%
G36*
X138083Y537717D02*
X138083Y537717D01*
X135095Y538955D01*
X132809Y541241D01*
X131571Y544229D01*
X131571Y560671D01*
X132809Y563659D01*
X135095Y565945D01*
X138083Y567183D01*
X141317Y567183D01*
X144305Y565945D01*
X146591Y563659D01*
X147829Y560671D01*
X147829Y544229D01*
X146591Y541241D01*
X144305Y538955D01*
X141317Y537717D01*
X138083Y537717D01*
G37*
%LPD*%
%LPC*%
G36*
X315883Y537717D02*
X315883Y537717D01*
X312895Y538955D01*
X310609Y541241D01*
X309371Y544229D01*
X309371Y560671D01*
X310609Y563659D01*
X312895Y565945D01*
X315883Y567183D01*
X319117Y567183D01*
X322105Y565945D01*
X324391Y563659D01*
X325629Y560671D01*
X325629Y544229D01*
X324391Y541241D01*
X322105Y538955D01*
X319117Y537717D01*
X315883Y537717D01*
G37*
%LPD*%
%LPC*%
G36*
X163483Y537717D02*
X163483Y537717D01*
X160495Y538955D01*
X158209Y541241D01*
X156971Y544229D01*
X156971Y560671D01*
X158209Y563659D01*
X160495Y565945D01*
X163483Y567183D01*
X166717Y567183D01*
X169705Y565945D01*
X171991Y563659D01*
X173229Y560671D01*
X173229Y544229D01*
X171991Y541241D01*
X169705Y538955D01*
X166717Y537717D01*
X163483Y537717D01*
G37*
%LPD*%
%LPC*%
G36*
X760383Y537717D02*
X760383Y537717D01*
X757395Y538955D01*
X755109Y541241D01*
X753871Y544229D01*
X753871Y560671D01*
X755109Y563659D01*
X757395Y565945D01*
X760383Y567183D01*
X763617Y567183D01*
X766605Y565945D01*
X768891Y563659D01*
X770129Y560671D01*
X770129Y544229D01*
X768891Y541241D01*
X766605Y538955D01*
X763617Y537717D01*
X760383Y537717D01*
G37*
%LPD*%
%LPC*%
G36*
X785783Y537717D02*
X785783Y537717D01*
X782795Y538955D01*
X780509Y541241D01*
X779271Y544229D01*
X779271Y560671D01*
X780509Y563659D01*
X782795Y565945D01*
X785783Y567183D01*
X789017Y567183D01*
X792005Y565945D01*
X794291Y563659D01*
X795529Y560671D01*
X795529Y544229D01*
X794291Y541241D01*
X792005Y538955D01*
X789017Y537717D01*
X785783Y537717D01*
G37*
%LPD*%
%LPC*%
G36*
X811183Y537717D02*
X811183Y537717D01*
X808195Y538955D01*
X805909Y541241D01*
X804671Y544229D01*
X804671Y560671D01*
X805909Y563659D01*
X808195Y565945D01*
X811183Y567183D01*
X814417Y567183D01*
X817405Y565945D01*
X819691Y563659D01*
X820929Y560671D01*
X820929Y544229D01*
X819691Y541241D01*
X817405Y538955D01*
X814417Y537717D01*
X811183Y537717D01*
G37*
%LPD*%
%LPC*%
G36*
X734983Y537717D02*
X734983Y537717D01*
X731995Y538955D01*
X729709Y541241D01*
X728471Y544229D01*
X728471Y560671D01*
X729709Y563659D01*
X731995Y565945D01*
X734983Y567183D01*
X738217Y567183D01*
X741205Y565945D01*
X743491Y563659D01*
X744729Y560671D01*
X744729Y544229D01*
X743491Y541241D01*
X741205Y538955D01*
X738217Y537717D01*
X734983Y537717D01*
G37*
%LPD*%
%LPC*%
G36*
X709583Y537717D02*
X709583Y537717D01*
X706595Y538955D01*
X704309Y541241D01*
X703071Y544229D01*
X703071Y560671D01*
X704309Y563659D01*
X706595Y565945D01*
X709583Y567183D01*
X712817Y567183D01*
X715805Y565945D01*
X718091Y563659D01*
X719329Y560671D01*
X719329Y544229D01*
X718091Y541241D01*
X715805Y538955D01*
X712817Y537717D01*
X709583Y537717D01*
G37*
%LPD*%
%LPC*%
G36*
X633383Y537717D02*
X633383Y537717D01*
X630395Y538955D01*
X628109Y541241D01*
X626871Y544229D01*
X626871Y560671D01*
X628109Y563659D01*
X630395Y565945D01*
X633383Y567183D01*
X636617Y567183D01*
X639605Y565945D01*
X641891Y563659D01*
X643129Y560671D01*
X643129Y544229D01*
X641891Y541241D01*
X639605Y538955D01*
X636617Y537717D01*
X633383Y537717D01*
G37*
%LPD*%
%LPC*%
G36*
X658783Y537717D02*
X658783Y537717D01*
X655795Y538955D01*
X653509Y541241D01*
X652271Y544229D01*
X652271Y560671D01*
X653509Y563659D01*
X655795Y565945D01*
X658783Y567183D01*
X662017Y567183D01*
X665005Y565945D01*
X667291Y563659D01*
X668529Y560671D01*
X668529Y544229D01*
X667291Y541241D01*
X665005Y538955D01*
X662017Y537717D01*
X658783Y537717D01*
G37*
%LPD*%
%LPC*%
G36*
X607983Y537717D02*
X607983Y537717D01*
X604995Y538955D01*
X602709Y541241D01*
X601471Y544229D01*
X601471Y560671D01*
X602709Y563659D01*
X604995Y565945D01*
X607983Y567183D01*
X611217Y567183D01*
X614205Y565945D01*
X616491Y563659D01*
X617729Y560671D01*
X617729Y544229D01*
X616491Y541241D01*
X614205Y538955D01*
X611217Y537717D01*
X607983Y537717D01*
G37*
%LPD*%
%LPC*%
G36*
X582583Y537717D02*
X582583Y537717D01*
X579595Y538955D01*
X577309Y541241D01*
X576071Y544229D01*
X576071Y560671D01*
X577309Y563659D01*
X579595Y565945D01*
X582583Y567183D01*
X585817Y567183D01*
X588805Y565945D01*
X591091Y563659D01*
X592329Y560671D01*
X592329Y544229D01*
X591091Y541241D01*
X588805Y538955D01*
X585817Y537717D01*
X582583Y537717D01*
G37*
%LPD*%
%LPC*%
G36*
X557183Y537717D02*
X557183Y537717D01*
X554195Y538955D01*
X551909Y541241D01*
X550671Y544229D01*
X550671Y560671D01*
X551909Y563659D01*
X554195Y565945D01*
X557183Y567183D01*
X560417Y567183D01*
X563405Y565945D01*
X565691Y563659D01*
X566929Y560671D01*
X566929Y544229D01*
X565691Y541241D01*
X563405Y538955D01*
X560417Y537717D01*
X557183Y537717D01*
G37*
%LPD*%
%LPC*%
G36*
X531783Y537717D02*
X531783Y537717D01*
X528795Y538955D01*
X526509Y541241D01*
X525271Y544229D01*
X525271Y560671D01*
X526509Y563659D01*
X528795Y565945D01*
X531783Y567183D01*
X535017Y567183D01*
X538005Y565945D01*
X540291Y563659D01*
X541529Y560671D01*
X541529Y544229D01*
X540291Y541241D01*
X538005Y538955D01*
X535017Y537717D01*
X531783Y537717D01*
G37*
%LPD*%
%LPC*%
G36*
X506383Y537717D02*
X506383Y537717D01*
X503395Y538955D01*
X501109Y541241D01*
X499871Y544229D01*
X499871Y560671D01*
X501109Y563659D01*
X503395Y565945D01*
X506383Y567183D01*
X509617Y567183D01*
X512605Y565945D01*
X514891Y563659D01*
X516129Y560671D01*
X516129Y544229D01*
X514891Y541241D01*
X512605Y538955D01*
X509617Y537717D01*
X506383Y537717D01*
G37*
%LPD*%
%LPC*%
G36*
X480983Y537717D02*
X480983Y537717D01*
X477995Y538955D01*
X475709Y541241D01*
X474471Y544229D01*
X474471Y560671D01*
X475709Y563659D01*
X477995Y565945D01*
X480983Y567183D01*
X484217Y567183D01*
X487205Y565945D01*
X489491Y563659D01*
X490729Y560671D01*
X490729Y544229D01*
X489491Y541241D01*
X487205Y538955D01*
X484217Y537717D01*
X480983Y537717D01*
G37*
%LPD*%
%LPC*%
G36*
X430183Y537717D02*
X430183Y537717D01*
X427195Y538955D01*
X424909Y541241D01*
X423671Y544229D01*
X423671Y560671D01*
X424909Y563659D01*
X427195Y565945D01*
X430183Y567183D01*
X433417Y567183D01*
X436405Y565945D01*
X438691Y563659D01*
X439929Y560671D01*
X439929Y544229D01*
X438691Y541241D01*
X436405Y538955D01*
X433417Y537717D01*
X430183Y537717D01*
G37*
%LPD*%
%LPC*%
G36*
X341283Y537717D02*
X341283Y537717D01*
X338295Y538955D01*
X336009Y541241D01*
X334771Y544229D01*
X334771Y560671D01*
X336009Y563659D01*
X338295Y565945D01*
X341283Y567183D01*
X344517Y567183D01*
X347505Y565945D01*
X349791Y563659D01*
X351029Y560671D01*
X351029Y544229D01*
X349791Y541241D01*
X347505Y538955D01*
X344517Y537717D01*
X341283Y537717D01*
G37*
%LPD*%
%LPC*%
G36*
X290483Y537717D02*
X290483Y537717D01*
X287495Y538955D01*
X285209Y541241D01*
X283971Y544229D01*
X283971Y560671D01*
X285209Y563659D01*
X287495Y565945D01*
X290483Y567183D01*
X293717Y567183D01*
X296705Y565945D01*
X298991Y563659D01*
X300229Y560671D01*
X300229Y544229D01*
X298991Y541241D01*
X296705Y538955D01*
X293717Y537717D01*
X290483Y537717D01*
G37*
%LPD*%
%LPC*%
G36*
X265083Y537717D02*
X265083Y537717D01*
X262095Y538955D01*
X259809Y541241D01*
X258571Y544229D01*
X258571Y560671D01*
X259809Y563659D01*
X262095Y565945D01*
X265083Y567183D01*
X268317Y567183D01*
X271305Y565945D01*
X273591Y563659D01*
X274829Y560671D01*
X274829Y544229D01*
X273591Y541241D01*
X271305Y538955D01*
X268317Y537717D01*
X265083Y537717D01*
G37*
%LPD*%
%LPC*%
G36*
X239683Y537717D02*
X239683Y537717D01*
X236695Y538955D01*
X234409Y541241D01*
X233171Y544229D01*
X233171Y560671D01*
X234409Y563659D01*
X236695Y565945D01*
X239683Y567183D01*
X242917Y567183D01*
X245905Y565945D01*
X248191Y563659D01*
X249429Y560671D01*
X249429Y544229D01*
X248191Y541241D01*
X245905Y538955D01*
X242917Y537717D01*
X239683Y537717D01*
G37*
%LPD*%
%LPC*%
G36*
X214283Y537717D02*
X214283Y537717D01*
X211295Y538955D01*
X209009Y541241D01*
X207771Y544229D01*
X207771Y560671D01*
X209009Y563659D01*
X211295Y565945D01*
X214283Y567183D01*
X217517Y567183D01*
X220505Y565945D01*
X222791Y563659D01*
X224029Y560671D01*
X224029Y544229D01*
X222791Y541241D01*
X220505Y538955D01*
X217517Y537717D01*
X214283Y537717D01*
G37*
%LPD*%
%LPC*%
G36*
X341283Y385317D02*
X341283Y385317D01*
X338295Y386555D01*
X336009Y388841D01*
X334771Y391829D01*
X334771Y408271D01*
X336009Y411259D01*
X338295Y413545D01*
X341283Y414783D01*
X344517Y414783D01*
X347505Y413545D01*
X349791Y411259D01*
X351029Y408271D01*
X351029Y391829D01*
X349791Y388841D01*
X347505Y386555D01*
X344517Y385317D01*
X341283Y385317D01*
G37*
%LPD*%
%LPC*%
G36*
X290483Y385317D02*
X290483Y385317D01*
X287495Y386555D01*
X285209Y388841D01*
X283971Y391829D01*
X283971Y408271D01*
X285209Y411259D01*
X287495Y413545D01*
X290483Y414783D01*
X293717Y414783D01*
X296705Y413545D01*
X298991Y411259D01*
X300229Y408271D01*
X300229Y391829D01*
X298991Y388841D01*
X296705Y386555D01*
X293717Y385317D01*
X290483Y385317D01*
G37*
%LPD*%
%LPC*%
G36*
X265083Y385317D02*
X265083Y385317D01*
X262095Y386555D01*
X259809Y388841D01*
X258571Y391829D01*
X258571Y408271D01*
X259809Y411259D01*
X262095Y413545D01*
X265083Y414783D01*
X268317Y414783D01*
X271305Y413545D01*
X273591Y411259D01*
X274829Y408271D01*
X274829Y391829D01*
X273591Y388841D01*
X271305Y386555D01*
X268317Y385317D01*
X265083Y385317D01*
G37*
%LPD*%
%LPC*%
G36*
X640230Y622150D02*
X640230Y622150D01*
X636775Y623581D01*
X634131Y626225D01*
X632700Y629680D01*
X632700Y633420D01*
X634131Y636875D01*
X636775Y639519D01*
X640230Y640950D01*
X643970Y640950D01*
X647425Y639519D01*
X650069Y636875D01*
X651500Y633420D01*
X651500Y629680D01*
X650069Y626225D01*
X647425Y623581D01*
X643970Y622150D01*
X640230Y622150D01*
G37*
%LPD*%
%LPC*%
G36*
X575230Y622150D02*
X575230Y622150D01*
X571775Y623581D01*
X569131Y626225D01*
X567700Y629680D01*
X567700Y633420D01*
X569131Y636875D01*
X571775Y639519D01*
X575230Y640950D01*
X578970Y640950D01*
X582425Y639519D01*
X585069Y636875D01*
X586500Y633420D01*
X586500Y629680D01*
X585069Y626225D01*
X582425Y623581D01*
X578970Y622150D01*
X575230Y622150D01*
G37*
%LPD*%
%LPC*%
G36*
X513230Y622150D02*
X513230Y622150D01*
X509775Y623581D01*
X507131Y626225D01*
X505700Y629680D01*
X505700Y633420D01*
X507131Y636875D01*
X509775Y639519D01*
X513230Y640950D01*
X516970Y640950D01*
X520425Y639519D01*
X523069Y636875D01*
X524500Y633420D01*
X524500Y629680D01*
X523069Y626225D01*
X520425Y623581D01*
X516970Y622150D01*
X513230Y622150D01*
G37*
%LPD*%
%LPC*%
G36*
X607730Y603650D02*
X607730Y603650D01*
X604275Y605081D01*
X601631Y607725D01*
X600200Y611180D01*
X600200Y614920D01*
X601631Y618375D01*
X604275Y621019D01*
X607730Y622450D01*
X611470Y622450D01*
X614925Y621019D01*
X617569Y618375D01*
X619000Y614920D01*
X619000Y611180D01*
X617569Y607725D01*
X614925Y605081D01*
X611470Y603650D01*
X607730Y603650D01*
G37*
%LPD*%
%LPC*%
G36*
X448230Y622150D02*
X448230Y622150D01*
X444775Y623581D01*
X442131Y626225D01*
X440700Y629680D01*
X440700Y633420D01*
X442131Y636875D01*
X444775Y639519D01*
X448230Y640950D01*
X451970Y640950D01*
X455425Y639519D01*
X458069Y636875D01*
X459500Y633420D01*
X459500Y629680D01*
X458069Y626225D01*
X455425Y623581D01*
X451970Y622150D01*
X448230Y622150D01*
G37*
%LPD*%
%LPC*%
G36*
X480730Y603650D02*
X480730Y603650D01*
X477275Y605081D01*
X474631Y607725D01*
X473200Y611180D01*
X473200Y614920D01*
X474631Y618375D01*
X477275Y621019D01*
X480730Y622450D01*
X484470Y622450D01*
X487925Y621019D01*
X490569Y618375D01*
X492000Y614920D01*
X492000Y611180D01*
X490569Y607725D01*
X487925Y605081D01*
X484470Y603650D01*
X480730Y603650D01*
G37*
%LPD*%
%LPC*%
G36*
X59712Y632205D02*
X59712Y632205D01*
X54355Y637562D01*
X54355Y645138D01*
X59712Y650495D01*
X67288Y650495D01*
X72645Y645138D01*
X72645Y637562D01*
X67288Y632205D01*
X59712Y632205D01*
G37*
%LPD*%
%LPC*%
G36*
X813561Y400811D02*
X813561Y400811D01*
X813561Y415799D01*
X813701Y415799D01*
X815467Y415447D01*
X817132Y414758D01*
X818629Y413757D01*
X819903Y412483D01*
X820904Y410986D01*
X821593Y409321D01*
X821945Y407555D01*
X821945Y400811D01*
X813561Y400811D01*
G37*
%LPD*%
%LPC*%
G36*
X432561Y400811D02*
X432561Y400811D01*
X432561Y415799D01*
X432701Y415799D01*
X434467Y415447D01*
X436132Y414758D01*
X437629Y413757D01*
X438903Y412483D01*
X439904Y410986D01*
X440593Y409321D01*
X440945Y407555D01*
X440945Y400811D01*
X432561Y400811D01*
G37*
%LPD*%
%LPC*%
G36*
X457961Y553211D02*
X457961Y553211D01*
X457961Y568199D01*
X458101Y568199D01*
X459867Y567847D01*
X461532Y567158D01*
X463029Y566157D01*
X464303Y564883D01*
X465304Y563386D01*
X465993Y561721D01*
X466345Y559955D01*
X466345Y553211D01*
X457961Y553211D01*
G37*
%LPD*%
%LPC*%
G36*
X89661Y553211D02*
X89661Y553211D01*
X89661Y568199D01*
X89801Y568199D01*
X91567Y567847D01*
X93232Y567158D01*
X94729Y566157D01*
X96003Y564883D01*
X97004Y563386D01*
X97693Y561721D01*
X98045Y559955D01*
X98045Y553211D01*
X89661Y553211D01*
G37*
%LPD*%
%LPC*%
G36*
X89661Y536701D02*
X89661Y536701D01*
X89661Y551689D01*
X98045Y551689D01*
X98045Y544945D01*
X97845Y543941D01*
X97769Y543561D01*
X97769Y543560D01*
X97693Y543179D01*
X97004Y541514D01*
X96003Y540017D01*
X94729Y538743D01*
X93232Y537742D01*
X91567Y537053D01*
X89801Y536701D01*
X89661Y536701D01*
G37*
%LPD*%
%LPC*%
G36*
X457961Y536701D02*
X457961Y536701D01*
X457961Y551689D01*
X466345Y551689D01*
X466345Y544945D01*
X466145Y543941D01*
X466069Y543561D01*
X466069Y543560D01*
X465993Y543179D01*
X465304Y541514D01*
X464303Y540017D01*
X463029Y538743D01*
X461532Y537742D01*
X459867Y537053D01*
X458101Y536701D01*
X457961Y536701D01*
G37*
%LPD*%
%LPC*%
G36*
X432561Y384301D02*
X432561Y384301D01*
X432561Y399289D01*
X440945Y399289D01*
X440945Y392545D01*
X440880Y392221D01*
X440729Y391461D01*
X440729Y391460D01*
X440653Y391080D01*
X440593Y390779D01*
X439904Y389114D01*
X438903Y387617D01*
X437629Y386343D01*
X436132Y385342D01*
X434467Y384653D01*
X432701Y384301D01*
X432561Y384301D01*
G37*
%LPD*%
%LPC*%
G36*
X813561Y384301D02*
X813561Y384301D01*
X813561Y399289D01*
X821945Y399289D01*
X821945Y392545D01*
X821880Y392221D01*
X821729Y391461D01*
X821729Y391460D01*
X821653Y391080D01*
X821593Y390779D01*
X820904Y389114D01*
X819903Y387617D01*
X818629Y386343D01*
X817132Y385342D01*
X815467Y384653D01*
X813701Y384301D01*
X813561Y384301D01*
G37*
%LPD*%
%LPC*%
G36*
X448055Y553211D02*
X448055Y553211D01*
X448055Y559955D01*
X448169Y560527D01*
X448245Y560907D01*
X448396Y561667D01*
X448396Y561668D01*
X448407Y561721D01*
X449096Y563386D01*
X450097Y564883D01*
X451371Y566157D01*
X452868Y567158D01*
X454533Y567847D01*
X456299Y568199D01*
X456439Y568199D01*
X456439Y553211D01*
X448055Y553211D01*
G37*
%LPD*%
%LPC*%
G36*
X79755Y553211D02*
X79755Y553211D01*
X79755Y559955D01*
X79869Y560527D01*
X79945Y560907D01*
X80096Y561667D01*
X80096Y561668D01*
X80107Y561721D01*
X80796Y563386D01*
X81797Y564883D01*
X83071Y566157D01*
X84568Y567158D01*
X86233Y567847D01*
X87999Y568199D01*
X88139Y568199D01*
X88139Y553211D01*
X79755Y553211D01*
G37*
%LPD*%
%LPC*%
G36*
X803655Y400811D02*
X803655Y400811D01*
X803655Y407555D01*
X803677Y407666D01*
X803753Y408046D01*
X803753Y408047D01*
X803980Y409187D01*
X804007Y409321D01*
X804696Y410986D01*
X805697Y412483D01*
X806971Y413757D01*
X808468Y414758D01*
X810133Y415447D01*
X811899Y415799D01*
X812039Y415799D01*
X812039Y400811D01*
X803655Y400811D01*
G37*
%LPD*%
%LPC*%
G36*
X422655Y400811D02*
X422655Y400811D01*
X422655Y407555D01*
X422677Y407666D01*
X422753Y408046D01*
X422753Y408047D01*
X422980Y409187D01*
X423007Y409321D01*
X423696Y410986D01*
X424697Y412483D01*
X425971Y413757D01*
X427468Y414758D01*
X429133Y415447D01*
X430899Y415799D01*
X431039Y415799D01*
X431039Y400811D01*
X422655Y400811D01*
G37*
%LPD*%
%LPC*%
G36*
X456299Y536701D02*
X456299Y536701D01*
X454533Y537053D01*
X452868Y537742D01*
X451371Y538743D01*
X450097Y540017D01*
X449096Y541514D01*
X448407Y543179D01*
X448055Y544945D01*
X448055Y551689D01*
X456439Y551689D01*
X456439Y536701D01*
X456299Y536701D01*
G37*
%LPD*%
%LPC*%
G36*
X811899Y384301D02*
X811899Y384301D01*
X810133Y384653D01*
X808468Y385342D01*
X806971Y386343D01*
X805697Y387617D01*
X804696Y389114D01*
X804007Y390779D01*
X803655Y392545D01*
X803655Y399289D01*
X812039Y399289D01*
X812039Y384301D01*
X811899Y384301D01*
G37*
%LPD*%
%LPC*%
G36*
X430899Y384301D02*
X430899Y384301D01*
X429133Y384653D01*
X427468Y385342D01*
X425971Y386343D01*
X424697Y387617D01*
X423696Y389114D01*
X423007Y390779D01*
X422655Y392545D01*
X422655Y399289D01*
X431039Y399289D01*
X431039Y384301D01*
X430899Y384301D01*
G37*
%LPD*%
%LPC*%
G36*
X87999Y536701D02*
X87999Y536701D01*
X86233Y537053D01*
X84568Y537742D01*
X83071Y538743D01*
X81797Y540017D01*
X80796Y541514D01*
X80107Y543179D01*
X79755Y544945D01*
X79755Y551689D01*
X88139Y551689D01*
X88139Y536701D01*
X87999Y536701D01*
G37*
%LPD*%
%LPC*%
G36*
X648461Y261111D02*
X648461Y261111D01*
X648461Y270511D01*
X655655Y270511D01*
X656301Y270338D01*
X656880Y270003D01*
X657353Y269530D01*
X657688Y268951D01*
X657715Y268847D01*
X657861Y268305D01*
X657861Y261111D01*
X648461Y261111D01*
G37*
%LPD*%
%LPC*%
G36*
X64261Y616711D02*
X64261Y616711D01*
X64261Y626111D01*
X71455Y626111D01*
X72101Y625938D01*
X72680Y625603D01*
X73153Y625130D01*
X73488Y624551D01*
X73661Y623905D01*
X73661Y616711D01*
X64261Y616711D01*
G37*
%LPD*%
%LPC*%
G36*
X648461Y235711D02*
X648461Y235711D01*
X648461Y245111D01*
X655655Y245111D01*
X656301Y244938D01*
X656880Y244603D01*
X657353Y244130D01*
X657688Y243551D01*
X657861Y242905D01*
X657861Y235711D01*
X648461Y235711D01*
G37*
%LPD*%
%LPC*%
G36*
X637539Y261111D02*
X637539Y261111D01*
X637539Y268305D01*
X637712Y268951D01*
X638047Y269530D01*
X638520Y270003D01*
X639099Y270338D01*
X639745Y270511D01*
X646939Y270511D01*
X646939Y261111D01*
X637539Y261111D01*
G37*
%LPD*%
%LPC*%
G36*
X637539Y235711D02*
X637539Y235711D01*
X637539Y242905D01*
X637712Y243551D01*
X638047Y244130D01*
X638520Y244603D01*
X639099Y244938D01*
X639745Y245111D01*
X646939Y245111D01*
X646939Y235711D01*
X637539Y235711D01*
G37*
%LPD*%
%LPC*%
G36*
X53339Y616711D02*
X53339Y616711D01*
X53339Y623905D01*
X53512Y624551D01*
X53847Y625130D01*
X54320Y625603D01*
X54899Y625938D01*
X55545Y626111D01*
X62739Y626111D01*
X62739Y616711D01*
X53339Y616711D01*
G37*
%LPD*%
%LPC*%
G36*
X648461Y250189D02*
X648461Y250189D01*
X648461Y259589D01*
X657861Y259589D01*
X657861Y252395D01*
X657688Y251749D01*
X657353Y251170D01*
X656880Y250697D01*
X656301Y250362D01*
X655655Y250189D01*
X648461Y250189D01*
G37*
%LPD*%
%LPC*%
G36*
X648461Y224789D02*
X648461Y224789D01*
X648461Y234189D01*
X657861Y234189D01*
X657861Y226995D01*
X657688Y226349D01*
X657353Y225770D01*
X656880Y225297D01*
X656301Y224962D01*
X655655Y224789D01*
X648461Y224789D01*
G37*
%LPD*%
%LPC*%
G36*
X639745Y250189D02*
X639745Y250189D01*
X639099Y250362D01*
X638520Y250697D01*
X638047Y251170D01*
X637712Y251749D01*
X637539Y252395D01*
X637539Y259589D01*
X646939Y259589D01*
X646939Y250189D01*
X639745Y250189D01*
G37*
%LPD*%
%LPC*%
G36*
X639745Y224789D02*
X639745Y224789D01*
X639099Y224962D01*
X638520Y225297D01*
X638047Y225770D01*
X637712Y226349D01*
X637539Y226995D01*
X637539Y234189D01*
X646939Y234189D01*
X646939Y224789D01*
X639745Y224789D01*
G37*
%LPD*%
%LPC*%
G36*
X450861Y677311D02*
X450861Y677311D01*
X450861Y686966D01*
X450920Y686966D01*
X452539Y686709D01*
X454098Y686203D01*
X455559Y685458D01*
X456885Y684495D01*
X458045Y683335D01*
X459008Y682009D01*
X459753Y680548D01*
X460259Y678989D01*
X460516Y677370D01*
X460516Y677311D01*
X450861Y677311D01*
G37*
%LPD*%
%LPC*%
G36*
X577861Y677311D02*
X577861Y677311D01*
X577861Y686966D01*
X577920Y686966D01*
X579539Y686709D01*
X581098Y686203D01*
X582559Y685458D01*
X583885Y684495D01*
X585045Y683335D01*
X586008Y682009D01*
X586753Y680548D01*
X587259Y678989D01*
X587516Y677370D01*
X587516Y677311D01*
X577861Y677311D01*
G37*
%LPD*%
%LPC*%
G36*
X642861Y677311D02*
X642861Y677311D01*
X642861Y686966D01*
X642920Y686966D01*
X644539Y686709D01*
X646098Y686203D01*
X647559Y685458D01*
X648885Y684495D01*
X650045Y683335D01*
X651008Y682009D01*
X651753Y680548D01*
X652259Y678989D01*
X652516Y677370D01*
X652516Y677311D01*
X642861Y677311D01*
G37*
%LPD*%
%LPC*%
G36*
X515861Y677311D02*
X515861Y677311D01*
X515861Y686966D01*
X515920Y686966D01*
X517539Y686709D01*
X519098Y686203D01*
X520559Y685458D01*
X521885Y684495D01*
X523045Y683335D01*
X524008Y682009D01*
X524753Y680548D01*
X525259Y678989D01*
X525516Y677370D01*
X525516Y677311D01*
X515861Y677311D01*
G37*
%LPD*%
%LPC*%
G36*
X439684Y677311D02*
X439684Y677311D01*
X439684Y677370D01*
X439941Y678989D01*
X440447Y680548D01*
X441192Y682009D01*
X442155Y683335D01*
X443315Y684495D01*
X444641Y685458D01*
X446102Y686203D01*
X447661Y686709D01*
X449280Y686966D01*
X449339Y686966D01*
X449339Y677311D01*
X439684Y677311D01*
G37*
%LPD*%
%LPC*%
G36*
X515861Y666134D02*
X515861Y666134D01*
X515861Y675789D01*
X525516Y675789D01*
X525516Y675730D01*
X525259Y674111D01*
X524753Y672552D01*
X524008Y671091D01*
X523045Y669765D01*
X521885Y668605D01*
X520559Y667642D01*
X519098Y666897D01*
X517539Y666391D01*
X515920Y666134D01*
X515861Y666134D01*
G37*
%LPD*%
%LPC*%
G36*
X642861Y666134D02*
X642861Y666134D01*
X642861Y675789D01*
X652516Y675789D01*
X652516Y675730D01*
X652259Y674111D01*
X651753Y672552D01*
X651008Y671091D01*
X650045Y669765D01*
X648885Y668605D01*
X647559Y667642D01*
X646098Y666897D01*
X644539Y666391D01*
X642920Y666134D01*
X642861Y666134D01*
G37*
%LPD*%
%LPC*%
G36*
X450861Y666134D02*
X450861Y666134D01*
X450861Y675789D01*
X460516Y675789D01*
X460516Y675730D01*
X460259Y674111D01*
X459753Y672552D01*
X459008Y671091D01*
X458045Y669765D01*
X456885Y668605D01*
X455559Y667642D01*
X454098Y666897D01*
X452539Y666391D01*
X450920Y666134D01*
X450861Y666134D01*
G37*
%LPD*%
%LPC*%
G36*
X504684Y677311D02*
X504684Y677311D01*
X504684Y677370D01*
X504941Y678989D01*
X505447Y680548D01*
X506192Y682009D01*
X507155Y683335D01*
X508315Y684495D01*
X509641Y685458D01*
X511102Y686203D01*
X512661Y686709D01*
X514280Y686966D01*
X514339Y686966D01*
X514339Y677311D01*
X504684Y677311D01*
G37*
%LPD*%
%LPC*%
G36*
X566684Y677311D02*
X566684Y677311D01*
X566684Y677370D01*
X566941Y678989D01*
X567447Y680548D01*
X568192Y682009D01*
X569155Y683335D01*
X570315Y684495D01*
X571641Y685458D01*
X573102Y686203D01*
X574661Y686709D01*
X576280Y686966D01*
X576339Y686966D01*
X576339Y677311D01*
X566684Y677311D01*
G37*
%LPD*%
%LPC*%
G36*
X631684Y677311D02*
X631684Y677311D01*
X631684Y677370D01*
X631941Y678989D01*
X632447Y680548D01*
X633192Y682009D01*
X634155Y683335D01*
X635315Y684495D01*
X636641Y685458D01*
X638102Y686203D01*
X639661Y686709D01*
X641280Y686966D01*
X641339Y686966D01*
X641339Y677311D01*
X631684Y677311D01*
G37*
%LPD*%
%LPC*%
G36*
X577861Y666134D02*
X577861Y666134D01*
X577861Y675789D01*
X587516Y675789D01*
X587516Y675730D01*
X587259Y674111D01*
X586753Y672552D01*
X586008Y671091D01*
X585045Y669765D01*
X583885Y668605D01*
X582559Y667642D01*
X581098Y666897D01*
X579539Y666391D01*
X577920Y666134D01*
X577861Y666134D01*
G37*
%LPD*%
%LPC*%
G36*
X576280Y666134D02*
X576280Y666134D01*
X574661Y666391D01*
X573102Y666897D01*
X571641Y667642D01*
X570315Y668605D01*
X569155Y669765D01*
X568192Y671091D01*
X567447Y672552D01*
X566941Y674111D01*
X566684Y675730D01*
X566684Y675789D01*
X576339Y675789D01*
X576339Y666134D01*
X576280Y666134D01*
G37*
%LPD*%
%LPC*%
G36*
X641280Y666134D02*
X641280Y666134D01*
X639661Y666391D01*
X638102Y666897D01*
X636641Y667642D01*
X635315Y668605D01*
X634155Y669765D01*
X633192Y671091D01*
X632447Y672552D01*
X631941Y674111D01*
X631684Y675730D01*
X631684Y675789D01*
X641339Y675789D01*
X641339Y666134D01*
X641280Y666134D01*
G37*
%LPD*%
%LPC*%
G36*
X514280Y666134D02*
X514280Y666134D01*
X512661Y666391D01*
X511102Y666897D01*
X509641Y667642D01*
X508315Y668605D01*
X507155Y669765D01*
X506192Y671091D01*
X505447Y672552D01*
X504941Y674111D01*
X504684Y675730D01*
X504684Y675789D01*
X514339Y675789D01*
X514339Y666134D01*
X514280Y666134D01*
G37*
%LPD*%
%LPC*%
G36*
X449280Y666134D02*
X449280Y666134D01*
X447661Y666391D01*
X446102Y666897D01*
X444641Y667642D01*
X443315Y668605D01*
X442155Y669765D01*
X441192Y671091D01*
X440447Y672552D01*
X439941Y674111D01*
X439684Y675730D01*
X439684Y675789D01*
X449339Y675789D01*
X449339Y666134D01*
X449280Y666134D01*
G37*
%LPD*%
%LPC*%
G36*
X642099Y676549D02*
X642099Y676549D01*
X642099Y676551D01*
X642101Y676551D01*
X642101Y676549D01*
X642099Y676549D01*
G37*
%LPD*%
%LPC*%
G36*
X577099Y676549D02*
X577099Y676549D01*
X577099Y676551D01*
X577101Y676551D01*
X577101Y676549D01*
X577099Y676549D01*
G37*
%LPD*%
%LPC*%
G36*
X515099Y676549D02*
X515099Y676549D01*
X515099Y676551D01*
X515101Y676551D01*
X515101Y676549D01*
X515099Y676549D01*
G37*
%LPD*%
%LPC*%
G36*
X450099Y676549D02*
X450099Y676549D01*
X450099Y676551D01*
X450101Y676551D01*
X450101Y676549D01*
X450099Y676549D01*
G37*
%LPD*%
%LPC*%
G36*
X647699Y260349D02*
X647699Y260349D01*
X647699Y260351D01*
X647701Y260351D01*
X647701Y260349D01*
X647699Y260349D01*
G37*
%LPD*%
%LPC*%
G36*
X812799Y400049D02*
X812799Y400049D01*
X812799Y400051D01*
X812801Y400051D01*
X812801Y400049D01*
X812799Y400049D01*
G37*
%LPD*%
%LPC*%
G36*
X431799Y400049D02*
X431799Y400049D01*
X431799Y400051D01*
X431801Y400051D01*
X431801Y400049D01*
X431799Y400049D01*
G37*
%LPD*%
%LPC*%
G36*
X647699Y234949D02*
X647699Y234949D01*
X647699Y234951D01*
X647701Y234951D01*
X647701Y234949D01*
X647699Y234949D01*
G37*
%LPD*%
%LPC*%
G36*
X88899Y552449D02*
X88899Y552449D01*
X88899Y552451D01*
X88901Y552451D01*
X88901Y552449D01*
X88899Y552449D01*
G37*
%LPD*%
%LPC*%
G36*
X457199Y552449D02*
X457199Y552449D01*
X457199Y552451D01*
X457201Y552451D01*
X457201Y552449D01*
X457199Y552449D01*
G37*
%LPD*%
D10*
X63500Y393446D02*
X63500Y406654D01*
X88900Y406654D02*
X88900Y393446D01*
X114300Y393446D02*
X114300Y406654D01*
X139700Y406654D02*
X139700Y393446D01*
X165100Y393446D02*
X165100Y406654D01*
X190500Y406654D02*
X190500Y393446D01*
X215900Y393446D02*
X215900Y406654D01*
X241300Y406654D02*
X241300Y393446D01*
X266700Y393446D02*
X266700Y406654D01*
X292100Y406654D02*
X292100Y393446D01*
X317500Y393446D02*
X317500Y406654D01*
X342900Y406654D02*
X342900Y393446D01*
X342900Y545846D02*
X342900Y559054D01*
X317500Y559054D02*
X317500Y545846D01*
X292100Y545846D02*
X292100Y559054D01*
X266700Y559054D02*
X266700Y545846D01*
X241300Y545846D02*
X241300Y559054D01*
X215900Y559054D02*
X215900Y545846D01*
X190500Y545846D02*
X190500Y559054D01*
X165100Y559054D02*
X165100Y545846D01*
X139700Y545846D02*
X139700Y559054D01*
X114300Y559054D02*
X114300Y545846D01*
X88900Y545846D02*
X88900Y559054D01*
X63500Y559054D02*
X63500Y545846D01*
X431800Y406654D02*
X431800Y393446D01*
X457200Y393446D02*
X457200Y406654D01*
X584200Y406654D02*
X584200Y393446D01*
X609600Y393446D02*
X609600Y406654D01*
X482600Y406654D02*
X482600Y393446D01*
X508000Y393446D02*
X508000Y406654D01*
X558800Y406654D02*
X558800Y393446D01*
X533400Y393446D02*
X533400Y406654D01*
X635000Y406654D02*
X635000Y393446D01*
X660400Y393446D02*
X660400Y406654D01*
X685800Y406654D02*
X685800Y393446D01*
X711200Y393446D02*
X711200Y406654D01*
X736600Y406654D02*
X736600Y393446D01*
X762000Y393446D02*
X762000Y406654D01*
X787400Y406654D02*
X787400Y393446D01*
X812800Y393446D02*
X812800Y406654D01*
X812800Y545846D02*
X812800Y559054D01*
X787400Y559054D02*
X787400Y545846D01*
X762000Y545846D02*
X762000Y559054D01*
X736600Y559054D02*
X736600Y545846D01*
X711200Y545846D02*
X711200Y559054D01*
X685800Y559054D02*
X685800Y545846D01*
X660400Y545846D02*
X660400Y559054D01*
X635000Y559054D02*
X635000Y545846D01*
X609600Y545846D02*
X609600Y559054D01*
X584200Y559054D02*
X584200Y545846D01*
X558800Y545846D02*
X558800Y559054D01*
X533400Y559054D02*
X533400Y545846D01*
X508000Y545846D02*
X508000Y559054D01*
X482600Y559054D02*
X482600Y545846D01*
X457200Y545846D02*
X457200Y559054D01*
X431800Y559054D02*
X431800Y545846D01*
D11*
X647700Y260350D03*
D12*
X622300Y260350D03*
X596900Y260350D03*
X571500Y260350D03*
X546100Y260350D03*
X520700Y260350D03*
X495300Y260350D03*
X469900Y260350D03*
X444500Y260350D03*
X419100Y260350D03*
X393700Y260350D03*
X368300Y260350D03*
X342900Y260350D03*
X317500Y260350D03*
X292100Y260350D03*
X266700Y260350D03*
X241300Y260350D03*
X215900Y260350D03*
D11*
X647700Y234950D03*
D12*
X622300Y234950D03*
X596900Y234950D03*
X571500Y234950D03*
X546100Y234950D03*
X520700Y234950D03*
X495300Y234950D03*
X469900Y234950D03*
X444500Y234950D03*
X419100Y234950D03*
X393700Y234950D03*
X368300Y234950D03*
X342900Y234950D03*
X317500Y234950D03*
X292100Y234950D03*
X266700Y234950D03*
X241300Y234950D03*
X215900Y234950D03*
D11*
X63500Y615950D03*
D13*
X63500Y641350D03*
X63500Y666750D03*
X63500Y692150D03*
D14*
X450100Y676550D03*
X515100Y676550D03*
X450100Y631550D03*
X515100Y631550D03*
X482600Y613050D03*
X577100Y676550D03*
X642100Y676550D03*
X577100Y631550D03*
X642100Y631550D03*
X609600Y613050D03*
D15*
X647700Y76200D03*
X622300Y76200D03*
X596900Y76200D03*
X571500Y76200D03*
X546100Y76200D03*
X520700Y76200D03*
X495300Y76200D03*
X469900Y76200D03*
X444500Y76200D03*
X419100Y76200D03*
X393700Y76200D03*
X368300Y76200D03*
X342900Y76200D03*
X317500Y76200D03*
X292100Y76200D03*
X266700Y76200D03*
X241300Y76200D03*
X215900Y76200D03*
D16*
X622300Y285750D03*
D17*
X736600Y285750D01*
D16*
X736600Y285750D03*
D17*
X612140Y239158D02*
X612140Y230742D01*
X622300Y220582D02*
X622300Y76200D01*
X622300Y249318D02*
X622300Y260350D01*
X612140Y230742D02*
X622300Y220582D01*
X612140Y239158D02*
X622300Y249318D01*
D16*
X596900Y292100D03*
D17*
X762000Y292100D01*
D16*
X762000Y292100D03*
D17*
X586740Y239158D02*
X586740Y230742D01*
X596900Y220582D02*
X596900Y76200D01*
X596900Y249318D02*
X596900Y260350D01*
X586740Y230742D02*
X596900Y220582D01*
X586740Y239158D02*
X596900Y249318D01*
D16*
X571500Y298450D03*
D17*
X787400Y298450D01*
D16*
X787400Y298450D03*
D17*
X561340Y239158D02*
X561340Y230742D01*
X571500Y220582D02*
X571500Y76200D01*
X571500Y249318D02*
X571500Y260350D01*
X561340Y230742D02*
X571500Y220582D01*
X561340Y239158D02*
X571500Y249318D01*
D16*
X546100Y304800D03*
D17*
X825500Y304800D01*
D16*
X825500Y304800D03*
D17*
X535940Y239158D02*
X535940Y230742D01*
X546100Y220582D02*
X546100Y76200D01*
X546100Y249318D02*
X546100Y260350D01*
X535940Y230742D02*
X546100Y220582D01*
X535940Y239158D02*
X546100Y249318D01*
D16*
X520700Y311150D03*
D17*
X800100Y311150D01*
D16*
X800100Y311150D03*
D17*
X510540Y239158D02*
X510540Y230742D01*
X520700Y220582D02*
X520700Y76200D01*
X520700Y249318D02*
X520700Y260350D01*
X510540Y230742D02*
X520700Y220582D01*
X510540Y239158D02*
X520700Y249318D01*
D16*
X495300Y317500D03*
D17*
X774700Y317500D01*
D16*
X774700Y317500D03*
D17*
X485140Y239158D02*
X485140Y230742D01*
X495300Y220582D02*
X495300Y76200D01*
X495300Y249318D02*
X495300Y260350D01*
X485140Y230742D02*
X495300Y220582D01*
X485140Y239158D02*
X495300Y249318D01*
D16*
X469900Y323850D03*
D17*
X749300Y323850D01*
D16*
X749300Y323850D03*
D17*
X459740Y239158D02*
X459740Y230742D01*
X469900Y220582D02*
X469900Y76200D01*
X469900Y249318D02*
X469900Y260350D01*
X459740Y230742D02*
X469900Y220582D01*
X459740Y239158D02*
X469900Y249318D01*
D16*
X444500Y330200D03*
D17*
X723900Y330200D01*
D16*
X723900Y330200D03*
D17*
X434340Y239158D02*
X434340Y230742D01*
X444500Y220582D02*
X444500Y76200D01*
X444500Y249318D02*
X444500Y260350D01*
X434340Y230742D02*
X444500Y220582D01*
X434340Y239158D02*
X444500Y249318D01*
X383540Y239158D02*
X383540Y230742D01*
X393700Y220582D02*
X393700Y76200D01*
X393700Y249318D02*
X393700Y260350D01*
X383540Y230742D02*
X393700Y220582D01*
X383540Y239158D02*
X393700Y249318D01*
D16*
X368300Y336550D03*
D17*
X685800Y336550D01*
D16*
X685800Y336550D03*
D17*
X358140Y239158D02*
X358140Y230742D01*
X368300Y220582D02*
X368300Y76200D01*
X368300Y220582D02*
X358140Y230742D01*
X358140Y239158D02*
X368300Y249318D01*
X368300Y260350D01*
X307340Y239158D02*
X307340Y230742D01*
X317500Y220582D02*
X317500Y76200D01*
X317500Y249318D02*
X317500Y260350D01*
X307340Y230742D02*
X317500Y220582D01*
X307340Y239158D02*
X317500Y249318D01*
D16*
X279400Y457200D03*
D17*
X635000Y457200D01*
D16*
X635000Y457200D03*
D17*
X281940Y239158D02*
X281940Y230742D01*
X292100Y220582D02*
X292100Y76200D01*
X292100Y249318D02*
X292100Y260350D01*
X281940Y230742D02*
X292100Y220582D01*
X281940Y239158D02*
X292100Y249318D01*
X256540Y239158D02*
X256540Y230742D01*
X266700Y220582D02*
X266700Y76200D01*
X266700Y249318D02*
X266700Y260350D01*
X256540Y230742D02*
X266700Y220582D01*
X256540Y239158D02*
X266700Y249318D01*
X231140Y239158D02*
X231140Y230742D01*
X241300Y220582D02*
X241300Y76200D01*
X241300Y249318D02*
X241300Y260350D01*
X231140Y230742D02*
X241300Y220582D01*
X231140Y239158D02*
X241300Y249318D01*
D16*
X228600Y463550D03*
D17*
X685800Y463550D01*
D16*
X685800Y463550D03*
D17*
X205740Y239158D02*
X205740Y230742D01*
X215900Y220582D02*
X215900Y76200D01*
X215900Y249318D02*
X215900Y260350D01*
X205740Y230742D02*
X215900Y220582D01*
X205740Y239158D02*
X215900Y249318D01*
D16*
X577850Y361950D03*
D17*
X711200Y361950D01*
D16*
X711200Y361950D03*
X660400Y342900D03*
X558800Y342900D03*
D17*
X660400Y342900D01*
D16*
X546100Y349250D03*
D17*
X635000Y349250D01*
D16*
X635000Y349250D03*
X501650Y368300D03*
D17*
X609600Y368300D01*
D16*
X609600Y368300D03*
X482600Y374650D03*
D17*
X584200Y374650D01*
D16*
X584200Y374650D03*
X457200Y355600D03*
D17*
X558800Y355600D01*
D16*
X558800Y355600D03*
X431800Y349250D03*
D17*
X533400Y349250D01*
D16*
X533400Y349250D03*
D17*
X558800Y482600D02*
X431800Y482600D01*
D16*
X558800Y482600D03*
X406400Y482600D03*
D17*
X431800Y482600D01*
D16*
X381000Y342872D03*
D17*
X507972Y342872D01*
X508000Y342900D01*
D16*
X508000Y342900D03*
D17*
X584200Y476250D02*
X374650Y476250D01*
D16*
X584200Y476250D03*
X355600Y476250D03*
D17*
X374650Y476250D01*
D16*
X330200Y469900D03*
D17*
X660400Y469900D01*
D16*
X660400Y469900D03*
X304800Y450850D03*
D17*
X609600Y450850D01*
D16*
X609600Y450850D03*
X431800Y603250D03*
D18*
X63726Y603250D01*
X63500Y603024D01*
D16*
X63500Y603024D03*
D17*
X408940Y239158D02*
X408940Y230742D01*
X419100Y220582D02*
X419100Y76200D01*
X419100Y249318D02*
X419100Y260350D01*
X408940Y230742D02*
X419100Y220582D01*
X408940Y239158D02*
X419100Y249318D01*
X332740Y239158D02*
X332740Y230742D01*
X342900Y220582D02*
X342900Y76200D01*
X342900Y249318D02*
X342900Y260350D01*
X332740Y230742D02*
X342900Y220582D01*
X332740Y239158D02*
X342900Y249318D01*
X647700Y234950D02*
X647700Y76200D01*
X647700Y234950D02*
X647700Y260350D01*
D16*
X482600Y419100D03*
D17*
X323850Y419100D01*
D16*
X323850Y419100D03*
X292100Y508000D03*
D17*
X508000Y508000D01*
D16*
X508000Y508000D03*
X266700Y514350D03*
D17*
X533400Y514350D01*
D16*
X533400Y514350D03*
X482600Y590550D03*
D17*
X342900Y590550D01*
D16*
X342900Y590550D03*
X457200Y425450D03*
D17*
X342900Y425450D01*
D16*
X342900Y425450D03*
X165100Y692150D03*
D17*
X63500Y692150D01*
D16*
X190500Y666750D03*
D17*
X63500Y666750D01*
D16*
X215900Y647700D03*
X514350Y647700D03*
D17*
X215900Y647700D01*
D16*
X241300Y654050D03*
D17*
X641350Y654050D01*
D16*
X641350Y654050D03*
M02*
